G75*
%MOIN*%
%OFA0B0*%
%FSLAX25Y25*%
%IPPOS*%
%LPD*%
%AMOC8*
5,1,8,0,0,1.08239X$1,22.5*
%
%ADD10C,0.00591*%
%ADD11R,2.79764X0.01102*%
%ADD12R,2.84173X0.01102*%
%ADD13R,2.88622X0.01102*%
%ADD14R,0.04449X0.01142*%
%ADD15R,0.06654X0.01142*%
%ADD16R,0.03307X0.01142*%
%ADD17R,0.03346X0.01142*%
%ADD18R,0.04449X0.01102*%
%ADD19R,0.08858X0.01102*%
%ADD20R,0.03307X0.01102*%
%ADD21R,0.02205X0.01102*%
%ADD22R,0.03346X0.01102*%
%ADD23R,0.04409X0.01102*%
%ADD24R,0.05551X0.01102*%
%ADD25R,0.02205X0.01142*%
%ADD26R,0.04409X0.01142*%
%ADD27R,0.02244X0.01102*%
%ADD28R,0.05551X0.01142*%
%ADD29R,0.02244X0.01142*%
%ADD30R,0.07756X0.01102*%
%ADD31R,0.06654X0.01102*%
%ADD32R,0.11063X0.01102*%
%ADD33R,0.11102X0.01102*%
%ADD34R,0.11102X0.01142*%
%ADD35R,0.09961X0.01102*%
%ADD36R,0.10000X0.01102*%
%ADD37R,0.12205X0.01102*%
%ADD38R,0.09961X0.01142*%
%ADD39R,0.48819X0.01142*%
%ADD40R,0.10000X0.01142*%
%ADD41R,0.47717X0.01102*%
%ADD42R,0.46614X0.01102*%
%ADD43R,0.13307X0.01102*%
%ADD44R,0.14409X0.01102*%
%ADD45R,0.14409X0.01142*%
%ADD46R,0.46614X0.01142*%
%ADD47R,0.13346X0.01102*%
%ADD48R,0.13307X0.01142*%
%ADD49R,0.15512X0.01142*%
%ADD50R,0.12205X0.01142*%
%ADD51R,0.13346X0.01142*%
%ADD52R,0.12244X0.01102*%
%ADD53R,0.16654X0.01102*%
%ADD54R,0.15551X0.01102*%
%ADD55R,0.15512X0.01102*%
%ADD56R,0.16614X0.01142*%
%ADD57R,0.16654X0.01142*%
%ADD58R,0.05512X0.01102*%
%ADD59R,0.05512X0.01142*%
%ADD60R,0.79921X0.01102*%
%ADD61R,0.81024X0.01102*%
%ADD62R,0.82126X0.01142*%
%ADD63R,2.87520X0.01102*%
%ADD64R,2.84173X0.01142*%
%ADD65R,2.78622X0.01102*%
%ADD66C,0.00800*%
D10*
X0085760Y0279058D02*
X0084743Y0280075D01*
X0085953Y0281560D01*
X0085645Y0282157D01*
X0085440Y0282798D01*
X0083535Y0282992D01*
X0083535Y0284431D01*
X0085440Y0284625D01*
X0085645Y0285265D01*
X0085953Y0285863D01*
X0084743Y0287347D01*
X0085760Y0288365D01*
X0087245Y0287155D01*
X0087843Y0287463D01*
X0088483Y0287668D01*
X0088677Y0289573D01*
X0090116Y0289573D01*
X0090310Y0287668D01*
X0090950Y0287463D01*
X0091548Y0287155D01*
X0093032Y0288365D01*
X0094050Y0287347D01*
X0092840Y0285863D01*
X0093148Y0285265D01*
X0093353Y0284625D01*
X0095258Y0284431D01*
X0095258Y0282992D01*
X0093353Y0282798D01*
X0093148Y0282157D01*
X0092840Y0281560D01*
X0094050Y0280075D01*
X0093032Y0279058D01*
X0091548Y0280268D01*
X0090950Y0279960D01*
X0090103Y0282006D01*
X0090481Y0282218D01*
X0090800Y0282513D01*
X0091041Y0282873D01*
X0091191Y0283280D01*
X0091242Y0283711D01*
X0091189Y0284150D01*
X0091033Y0284563D01*
X0090784Y0284928D01*
X0090455Y0285223D01*
X0090065Y0285431D01*
X0089637Y0285540D01*
X0089196Y0285545D01*
X0088765Y0285445D01*
X0088371Y0285245D01*
X0088036Y0284958D01*
X0087779Y0284599D01*
X0087614Y0284189D01*
X0087552Y0283751D01*
X0087595Y0283312D01*
X0087741Y0282895D01*
X0087983Y0282525D01*
X0088305Y0282223D01*
X0088690Y0282006D01*
X0087842Y0279960D01*
X0087245Y0280268D01*
X0085760Y0279058D01*
X0085741Y0279077D02*
X0085784Y0279077D01*
X0085152Y0279666D02*
X0086507Y0279666D01*
X0087229Y0280255D02*
X0084889Y0280255D01*
X0085370Y0280844D02*
X0088209Y0280844D01*
X0087965Y0280255D02*
X0087270Y0280255D01*
X0088453Y0281433D02*
X0085850Y0281433D01*
X0085715Y0282022D02*
X0088661Y0282022D01*
X0087926Y0282611D02*
X0085500Y0282611D01*
X0083535Y0283200D02*
X0087634Y0283200D01*
X0087557Y0283789D02*
X0083535Y0283789D01*
X0083535Y0284379D02*
X0087690Y0284379D01*
X0088048Y0284968D02*
X0085550Y0284968D01*
X0085795Y0285557D02*
X0092997Y0285557D01*
X0093070Y0286146D02*
X0085722Y0286146D01*
X0085242Y0286735D02*
X0093551Y0286735D01*
X0094031Y0287324D02*
X0091755Y0287324D01*
X0091219Y0287324D02*
X0087573Y0287324D01*
X0087037Y0287324D02*
X0084762Y0287324D01*
X0085309Y0287913D02*
X0086315Y0287913D01*
X0088508Y0287913D02*
X0090285Y0287913D01*
X0090225Y0288502D02*
X0088568Y0288502D01*
X0088628Y0289091D02*
X0090165Y0289091D01*
X0092478Y0287913D02*
X0093484Y0287913D01*
X0093243Y0284968D02*
X0090739Y0284968D01*
X0091103Y0284379D02*
X0095258Y0284379D01*
X0095258Y0283789D02*
X0091233Y0283789D01*
X0091162Y0283200D02*
X0095258Y0283200D01*
X0093293Y0282611D02*
X0090866Y0282611D01*
X0090131Y0282022D02*
X0093078Y0282022D01*
X0092943Y0281433D02*
X0090340Y0281433D01*
X0090584Y0280844D02*
X0093423Y0280844D01*
X0093903Y0280255D02*
X0091564Y0280255D01*
X0091523Y0280255D02*
X0090828Y0280255D01*
X0092286Y0279666D02*
X0093640Y0279666D01*
X0093051Y0279077D02*
X0093009Y0279077D01*
D11*
X0213857Y0309873D03*
D12*
X0213857Y0308770D03*
D13*
X0213837Y0307668D03*
D14*
X0263798Y0272136D03*
X0280451Y0255483D03*
X0287105Y0261034D03*
X0294900Y0266585D03*
X0272696Y0249932D03*
X0258247Y0238829D03*
X0251593Y0233278D03*
X0243837Y0227727D03*
X0190530Y0182215D03*
X0182774Y0175562D03*
X0161672Y0158908D03*
X0155018Y0153357D03*
X0148365Y0147806D03*
X0133916Y0136703D03*
X0127262Y0131152D03*
X0105058Y0113396D03*
X0090648Y0102294D03*
X0244940Y0175562D03*
X0251593Y0170010D03*
X0258247Y0164459D03*
X0272696Y0153357D03*
X0279349Y0147806D03*
X0300451Y0131152D03*
X0308207Y0124499D03*
X0329310Y0107845D03*
X0335963Y0102294D03*
X0182774Y0227727D03*
X0161672Y0244381D03*
X0153916Y0249932D03*
X0147262Y0255483D03*
X0132814Y0266585D03*
X0125058Y0272136D03*
X0116160Y0278790D03*
X0109507Y0284341D03*
X0087302Y0300995D03*
X0070648Y0306546D03*
X0318207Y0284341D03*
X0324861Y0289892D03*
X0332617Y0295444D03*
X0357066Y0306546D03*
D15*
X0348168Y0306546D03*
X0286003Y0300995D03*
X0079546Y0306546D03*
X0286003Y0096743D03*
D16*
X0287676Y0102294D03*
X0287676Y0107845D03*
X0287676Y0113396D03*
X0287676Y0118948D03*
X0287676Y0124499D03*
X0287676Y0131152D03*
X0287676Y0136703D03*
X0287676Y0147806D03*
X0287676Y0153357D03*
X0287676Y0158908D03*
X0287676Y0164459D03*
X0287676Y0170010D03*
X0287676Y0175562D03*
X0287676Y0187766D03*
X0287676Y0193318D03*
X0287676Y0198869D03*
X0287676Y0204420D03*
X0287676Y0209971D03*
X0287676Y0215522D03*
X0287676Y0221073D03*
X0287676Y0227727D03*
X0287676Y0233278D03*
X0287676Y0238829D03*
X0287676Y0244381D03*
X0287676Y0249932D03*
X0287676Y0255483D03*
X0287676Y0266585D03*
X0287676Y0272136D03*
X0287676Y0278790D03*
X0287676Y0284341D03*
X0287676Y0289892D03*
X0287676Y0295444D03*
X0276573Y0289892D03*
X0272125Y0284341D03*
X0259920Y0266585D03*
X0287676Y0306546D03*
X0360944Y0300995D03*
X0363148Y0289892D03*
X0363148Y0284341D03*
X0363148Y0278790D03*
X0363148Y0272136D03*
X0363148Y0266585D03*
X0363148Y0261034D03*
X0363148Y0255483D03*
X0363148Y0249932D03*
X0363148Y0244381D03*
X0363148Y0238829D03*
X0363148Y0233278D03*
X0363148Y0227727D03*
X0363148Y0221073D03*
X0363148Y0215522D03*
X0363148Y0209971D03*
X0363148Y0204420D03*
X0363148Y0198869D03*
X0363148Y0193318D03*
X0363148Y0187766D03*
X0363148Y0182215D03*
X0363148Y0175562D03*
X0363148Y0170010D03*
X0363148Y0158908D03*
X0363148Y0153357D03*
X0363148Y0147806D03*
X0363148Y0142255D03*
X0363148Y0136703D03*
X0363148Y0131152D03*
X0363148Y0124499D03*
X0363148Y0118948D03*
X0363148Y0113396D03*
X0363148Y0107845D03*
X0276573Y0107845D03*
X0265471Y0124499D03*
X0242164Y0158908D03*
X0236613Y0182215D03*
X0203306Y0204420D03*
X0191101Y0221073D03*
X0186652Y0238829D03*
X0175550Y0255483D03*
X0163345Y0272136D03*
X0151140Y0289892D03*
X0146692Y0295444D03*
X0236613Y0221073D03*
X0192203Y0170010D03*
X0185550Y0158908D03*
X0181101Y0153357D03*
X0169999Y0136703D03*
X0162243Y0124499D03*
X0151140Y0107845D03*
X0146692Y0102294D03*
X0067873Y0096743D03*
D17*
X0143365Y0096743D03*
X0154467Y0113396D03*
X0166672Y0131152D03*
X0188877Y0164459D03*
X0204428Y0193318D03*
X0206633Y0209971D03*
X0239940Y0238829D03*
X0244388Y0244381D03*
X0252144Y0255483D03*
X0255491Y0261034D03*
X0268798Y0278790D03*
X0279900Y0295444D03*
X0183325Y0244381D03*
X0178877Y0249932D03*
X0171121Y0261034D03*
X0167774Y0266585D03*
X0158916Y0278790D03*
X0154467Y0284341D03*
X0143365Y0300995D03*
X0138916Y0306546D03*
X0064546Y0295444D03*
X0235491Y0170010D03*
X0245491Y0153357D03*
X0256593Y0136703D03*
X0261042Y0131152D03*
X0268798Y0118948D03*
X0273247Y0113396D03*
X0279900Y0102294D03*
X0359822Y0096743D03*
D18*
X0069546Y0094518D03*
X0082853Y0095621D03*
X0085097Y0097865D03*
X0087302Y0098967D03*
X0088404Y0100070D03*
X0092853Y0103416D03*
X0093955Y0104518D03*
X0096199Y0106723D03*
X0099507Y0108967D03*
X0101751Y0111172D03*
X0103955Y0112274D03*
X0107302Y0115621D03*
X0109507Y0116723D03*
X0110609Y0117825D03*
X0112853Y0120070D03*
X0115058Y0121172D03*
X0116160Y0122274D03*
X0120609Y0125621D03*
X0121711Y0126723D03*
X0122814Y0127825D03*
X0126160Y0130030D03*
X0128365Y0132274D03*
X0131711Y0134479D03*
X0132814Y0135581D03*
X0138365Y0140030D03*
X0139467Y0141133D03*
X0143916Y0144479D03*
X0145018Y0145581D03*
X0149467Y0148928D03*
X0150570Y0150030D03*
X0153916Y0152235D03*
X0156121Y0154479D03*
X0159467Y0156684D03*
X0160570Y0157786D03*
X0165018Y0161133D03*
X0166121Y0162235D03*
X0167223Y0163337D03*
X0170570Y0165581D03*
X0173877Y0168888D03*
X0181672Y0174440D03*
X0183877Y0176684D03*
X0184979Y0177786D03*
X0187223Y0178888D03*
X0190530Y0194440D03*
X0219388Y0211093D03*
X0241593Y0225503D03*
X0246042Y0228849D03*
X0247144Y0229951D03*
X0252696Y0234400D03*
X0261593Y0241054D03*
X0262696Y0242156D03*
X0267144Y0245503D03*
X0270451Y0247707D03*
X0274900Y0251054D03*
X0276003Y0252156D03*
X0281554Y0256605D03*
X0296003Y0267707D03*
X0300451Y0271014D03*
X0303759Y0273259D03*
X0306003Y0275463D03*
X0309310Y0277668D03*
X0312656Y0279912D03*
X0313759Y0281014D03*
X0314861Y0282117D03*
X0315963Y0283219D03*
X0319310Y0285463D03*
X0323759Y0288770D03*
X0329310Y0293219D03*
X0334861Y0297668D03*
X0337066Y0298770D03*
X0338168Y0299873D03*
X0341514Y0302117D03*
X0342617Y0303219D03*
X0343719Y0304322D03*
X0358168Y0305424D03*
X0287105Y0304322D03*
X0251593Y0254361D03*
X0251593Y0253259D03*
X0190530Y0222196D03*
X0184979Y0226605D03*
X0181672Y0228849D03*
X0167223Y0239951D03*
X0160570Y0245503D03*
X0158365Y0246605D03*
X0152814Y0251054D03*
X0149467Y0253259D03*
X0148365Y0254361D03*
X0145018Y0256605D03*
X0143916Y0257707D03*
X0138365Y0262156D03*
X0133916Y0265463D03*
X0128365Y0269912D03*
X0122814Y0274361D03*
X0120609Y0275463D03*
X0119507Y0276566D03*
X0115058Y0279912D03*
X0113955Y0281014D03*
X0110609Y0283219D03*
X0105058Y0287668D03*
X0099507Y0292117D03*
X0096199Y0294322D03*
X0093955Y0296566D03*
X0091751Y0297668D03*
X0090648Y0298770D03*
X0086199Y0302117D03*
X0085097Y0303219D03*
X0081751Y0305424D03*
X0165018Y0269912D03*
X0176121Y0253259D03*
X0240491Y0178888D03*
X0241593Y0177786D03*
X0246042Y0174440D03*
X0247144Y0173337D03*
X0252696Y0168888D03*
X0261593Y0162235D03*
X0262696Y0161133D03*
X0263798Y0160030D03*
X0267144Y0157786D03*
X0268247Y0156684D03*
X0269349Y0155581D03*
X0273798Y0152235D03*
X0274900Y0151133D03*
X0276003Y0150030D03*
X0278247Y0148928D03*
X0280451Y0146684D03*
X0294900Y0135581D03*
X0296003Y0134479D03*
X0297105Y0133377D03*
X0301554Y0130030D03*
X0302656Y0128928D03*
X0306003Y0126723D03*
X0307105Y0125621D03*
X0312656Y0121172D03*
X0313759Y0120070D03*
X0318207Y0116723D03*
X0319310Y0115621D03*
X0321514Y0114518D03*
X0323759Y0112274D03*
X0324861Y0111172D03*
X0327066Y0110070D03*
X0330412Y0106723D03*
X0334861Y0103416D03*
X0338168Y0101172D03*
X0340412Y0098967D03*
X0341514Y0097865D03*
X0357066Y0094518D03*
X0287105Y0093416D03*
X0270451Y0116723D03*
X0251593Y0145581D03*
X0240491Y0161133D03*
X0176121Y0146684D03*
X0176121Y0145581D03*
D19*
X0239388Y0208849D03*
X0284900Y0257707D03*
X0290451Y0264361D03*
X0347066Y0305424D03*
D20*
X0360944Y0302117D03*
X0362046Y0298770D03*
X0363148Y0294322D03*
X0363148Y0293219D03*
X0363148Y0292117D03*
X0363148Y0291014D03*
X0363148Y0288770D03*
X0363148Y0287668D03*
X0363148Y0286566D03*
X0363148Y0285463D03*
X0363148Y0283219D03*
X0363148Y0282117D03*
X0363148Y0281014D03*
X0363148Y0279912D03*
X0363148Y0277668D03*
X0363148Y0276566D03*
X0363148Y0275463D03*
X0363148Y0274361D03*
X0363148Y0273259D03*
X0363148Y0271014D03*
X0363148Y0269912D03*
X0363148Y0268810D03*
X0363148Y0267707D03*
X0363148Y0265463D03*
X0363148Y0264361D03*
X0363148Y0263259D03*
X0363148Y0262156D03*
X0363148Y0259912D03*
X0363148Y0258810D03*
X0363148Y0257707D03*
X0363148Y0256605D03*
X0363148Y0254361D03*
X0363148Y0253259D03*
X0363148Y0252156D03*
X0363148Y0251054D03*
X0363148Y0248810D03*
X0363148Y0247707D03*
X0363148Y0243259D03*
X0363148Y0242156D03*
X0363148Y0241054D03*
X0363148Y0239951D03*
X0363148Y0237707D03*
X0363148Y0236605D03*
X0363148Y0235503D03*
X0363148Y0234400D03*
X0363148Y0232156D03*
X0363148Y0231054D03*
X0363148Y0229951D03*
X0363148Y0228849D03*
X0363148Y0226605D03*
X0363148Y0225503D03*
X0363148Y0224400D03*
X0363148Y0223298D03*
X0363148Y0222196D03*
X0363148Y0219951D03*
X0363148Y0218849D03*
X0363148Y0217747D03*
X0363148Y0216644D03*
X0363148Y0214400D03*
X0363148Y0213298D03*
X0363148Y0212196D03*
X0363148Y0211093D03*
X0363148Y0208849D03*
X0363148Y0207747D03*
X0363148Y0206644D03*
X0363148Y0205542D03*
X0363148Y0203298D03*
X0363148Y0202196D03*
X0363148Y0201093D03*
X0363148Y0199991D03*
X0363148Y0197747D03*
X0363148Y0196644D03*
X0363148Y0195542D03*
X0363148Y0194440D03*
X0363148Y0192196D03*
X0363148Y0191093D03*
X0363148Y0189991D03*
X0363148Y0188888D03*
X0363148Y0186644D03*
X0363148Y0185542D03*
X0363148Y0184440D03*
X0363148Y0183337D03*
X0363148Y0181093D03*
X0363148Y0179991D03*
X0363148Y0178888D03*
X0363148Y0177786D03*
X0363148Y0176684D03*
X0363148Y0174440D03*
X0363148Y0173337D03*
X0363148Y0172235D03*
X0363148Y0171133D03*
X0363148Y0168888D03*
X0363148Y0167786D03*
X0363148Y0166684D03*
X0363148Y0165581D03*
X0363148Y0161133D03*
X0363148Y0160030D03*
X0363148Y0157786D03*
X0363148Y0156684D03*
X0363148Y0155581D03*
X0363148Y0154479D03*
X0363148Y0152235D03*
X0363148Y0151133D03*
X0363148Y0150030D03*
X0363148Y0148928D03*
X0363148Y0146684D03*
X0363148Y0145581D03*
X0363148Y0144479D03*
X0363148Y0143377D03*
X0363148Y0141133D03*
X0363148Y0140030D03*
X0363148Y0138928D03*
X0363148Y0137825D03*
X0363148Y0135581D03*
X0363148Y0134479D03*
X0363148Y0133377D03*
X0363148Y0132274D03*
X0363148Y0130030D03*
X0363148Y0128928D03*
X0363148Y0127825D03*
X0363148Y0126723D03*
X0363148Y0125621D03*
X0363148Y0123377D03*
X0363148Y0122274D03*
X0363148Y0121172D03*
X0363148Y0120070D03*
X0363148Y0117825D03*
X0363148Y0116723D03*
X0363148Y0115621D03*
X0363148Y0114518D03*
X0363148Y0112274D03*
X0363148Y0111172D03*
X0363148Y0110070D03*
X0363148Y0108967D03*
X0363148Y0106723D03*
X0362046Y0101172D03*
X0360944Y0098967D03*
X0287676Y0098967D03*
X0287676Y0097865D03*
X0287676Y0100070D03*
X0287676Y0101172D03*
X0287676Y0103416D03*
X0287676Y0104518D03*
X0287676Y0105621D03*
X0287676Y0106723D03*
X0287676Y0108967D03*
X0287676Y0110070D03*
X0287676Y0111172D03*
X0287676Y0112274D03*
X0287676Y0114518D03*
X0287676Y0115621D03*
X0287676Y0116723D03*
X0287676Y0117825D03*
X0287676Y0120070D03*
X0287676Y0121172D03*
X0287676Y0122274D03*
X0287676Y0123377D03*
X0287676Y0125621D03*
X0287676Y0126723D03*
X0287676Y0127825D03*
X0287676Y0128928D03*
X0287676Y0130030D03*
X0287676Y0132274D03*
X0287676Y0133377D03*
X0287676Y0134479D03*
X0287676Y0135581D03*
X0287676Y0145581D03*
X0287676Y0146684D03*
X0287676Y0148928D03*
X0287676Y0150030D03*
X0287676Y0151133D03*
X0287676Y0152235D03*
X0287676Y0154479D03*
X0287676Y0155581D03*
X0287676Y0156684D03*
X0287676Y0157786D03*
X0287676Y0160030D03*
X0287676Y0161133D03*
X0287676Y0162235D03*
X0287676Y0163337D03*
X0287676Y0165581D03*
X0287676Y0166684D03*
X0287676Y0167786D03*
X0287676Y0168888D03*
X0287676Y0171133D03*
X0287676Y0172235D03*
X0287676Y0173337D03*
X0287676Y0174440D03*
X0287676Y0176684D03*
X0287676Y0177786D03*
X0287676Y0178888D03*
X0287676Y0183337D03*
X0287676Y0184440D03*
X0287676Y0185542D03*
X0287676Y0186644D03*
X0287676Y0188888D03*
X0287676Y0189991D03*
X0287676Y0191093D03*
X0287676Y0192196D03*
X0287676Y0194440D03*
X0287676Y0195542D03*
X0287676Y0196644D03*
X0287676Y0197747D03*
X0287676Y0199991D03*
X0287676Y0201093D03*
X0287676Y0202196D03*
X0287676Y0203298D03*
X0287676Y0205542D03*
X0287676Y0206644D03*
X0287676Y0207747D03*
X0287676Y0208849D03*
X0287676Y0211093D03*
X0287676Y0212196D03*
X0287676Y0213298D03*
X0287676Y0214400D03*
X0287676Y0216644D03*
X0287676Y0217747D03*
X0287676Y0218849D03*
X0287676Y0219951D03*
X0287676Y0226605D03*
X0287676Y0228849D03*
X0287676Y0229951D03*
X0287676Y0231054D03*
X0287676Y0232156D03*
X0287676Y0234400D03*
X0287676Y0235503D03*
X0287676Y0236605D03*
X0287676Y0237707D03*
X0287676Y0239951D03*
X0287676Y0241054D03*
X0287676Y0242156D03*
X0287676Y0243259D03*
X0287676Y0245503D03*
X0287676Y0246605D03*
X0287676Y0247707D03*
X0287676Y0248810D03*
X0287676Y0251054D03*
X0287676Y0252156D03*
X0287676Y0253259D03*
X0287676Y0254361D03*
X0287676Y0256605D03*
X0287676Y0265463D03*
X0287676Y0267707D03*
X0287676Y0268810D03*
X0287676Y0269912D03*
X0287676Y0271014D03*
X0287676Y0273259D03*
X0287676Y0274361D03*
X0287676Y0275463D03*
X0287676Y0276566D03*
X0287676Y0277668D03*
X0287676Y0279912D03*
X0287676Y0281014D03*
X0287676Y0282117D03*
X0287676Y0283219D03*
X0287676Y0285463D03*
X0287676Y0286566D03*
X0287676Y0287668D03*
X0287676Y0288770D03*
X0287676Y0291014D03*
X0287676Y0292117D03*
X0287676Y0293219D03*
X0287676Y0294322D03*
X0287676Y0296566D03*
X0287676Y0297668D03*
X0287676Y0298770D03*
X0287676Y0299873D03*
X0283227Y0299873D03*
X0282125Y0297668D03*
X0277676Y0292117D03*
X0272125Y0283219D03*
X0271022Y0282117D03*
X0266573Y0276566D03*
X0266573Y0275463D03*
X0265471Y0274361D03*
X0264369Y0273259D03*
X0258818Y0265463D03*
X0258818Y0264361D03*
X0254369Y0258810D03*
X0253266Y0257707D03*
X0253266Y0256605D03*
X0247715Y0248810D03*
X0243266Y0243259D03*
X0243266Y0242156D03*
X0242164Y0241054D03*
X0237715Y0235503D03*
X0237715Y0234400D03*
X0203306Y0203298D03*
X0203306Y0202196D03*
X0203306Y0197747D03*
X0203306Y0196644D03*
X0221062Y0191093D03*
X0243266Y0176684D03*
X0236613Y0166684D03*
X0237715Y0165581D03*
X0243266Y0157786D03*
X0243266Y0156684D03*
X0247715Y0151133D03*
X0247715Y0150030D03*
X0248818Y0148928D03*
X0254369Y0140030D03*
X0258818Y0134479D03*
X0258818Y0133377D03*
X0259920Y0132274D03*
X0264369Y0125621D03*
X0266573Y0122274D03*
X0271022Y0115621D03*
X0272125Y0114518D03*
X0277676Y0105621D03*
X0282125Y0100070D03*
X0282125Y0098967D03*
X0283227Y0097865D03*
X0191101Y0166684D03*
X0186652Y0161133D03*
X0185550Y0160030D03*
X0181101Y0152235D03*
X0179999Y0151133D03*
X0169999Y0135581D03*
X0168896Y0134479D03*
X0164448Y0127825D03*
X0163345Y0126723D03*
X0157794Y0117825D03*
X0156692Y0116723D03*
X0152243Y0110070D03*
X0151140Y0108967D03*
X0146692Y0101172D03*
X0145589Y0100070D03*
X0066770Y0097865D03*
X0065668Y0100070D03*
X0185550Y0239951D03*
X0185550Y0241054D03*
X0181101Y0246605D03*
X0181101Y0247707D03*
X0179999Y0248810D03*
X0175550Y0254361D03*
X0174448Y0256605D03*
X0169999Y0262156D03*
X0169999Y0263259D03*
X0168896Y0264361D03*
X0164448Y0271014D03*
X0162243Y0273259D03*
X0162243Y0274361D03*
X0157794Y0279912D03*
X0156692Y0282117D03*
X0152243Y0287668D03*
X0146692Y0296566D03*
X0145589Y0297668D03*
X0140038Y0305424D03*
X0067873Y0304322D03*
X0067873Y0303219D03*
X0066770Y0302117D03*
X0065668Y0299873D03*
X0287676Y0305424D03*
D21*
X0282676Y0298770D03*
X0277125Y0291014D03*
X0252715Y0248810D03*
X0252715Y0247707D03*
X0252715Y0246605D03*
X0252715Y0245503D03*
X0252715Y0243259D03*
X0252715Y0242156D03*
X0252715Y0241054D03*
X0252715Y0239951D03*
X0252715Y0229951D03*
X0252715Y0228849D03*
X0252715Y0226605D03*
X0252715Y0225503D03*
X0252715Y0224400D03*
X0252715Y0223298D03*
X0252715Y0222196D03*
X0252715Y0219951D03*
X0252715Y0218849D03*
X0252715Y0217747D03*
X0252715Y0216644D03*
X0252715Y0208849D03*
X0252715Y0207747D03*
X0252715Y0206644D03*
X0252715Y0205542D03*
X0252715Y0203298D03*
X0252715Y0202196D03*
X0252715Y0201093D03*
X0252715Y0199991D03*
X0252715Y0197747D03*
X0252715Y0196644D03*
X0252715Y0195542D03*
X0252715Y0194440D03*
X0252715Y0192196D03*
X0252715Y0186644D03*
X0252715Y0185542D03*
X0252715Y0184440D03*
X0252715Y0183337D03*
X0252715Y0181093D03*
X0252715Y0179991D03*
X0252715Y0178888D03*
X0252715Y0177786D03*
X0252715Y0176684D03*
X0252715Y0174440D03*
X0252715Y0173337D03*
X0252715Y0163337D03*
X0252715Y0162235D03*
X0252715Y0161133D03*
X0252715Y0160030D03*
X0252715Y0157786D03*
X0252715Y0156684D03*
X0252715Y0155581D03*
X0252715Y0154479D03*
X0252715Y0152235D03*
X0252715Y0151133D03*
X0252715Y0150030D03*
X0252715Y0148928D03*
X0236062Y0171133D03*
X0236062Y0172235D03*
X0236062Y0173337D03*
X0236062Y0174440D03*
X0236062Y0176684D03*
X0236062Y0177786D03*
X0236062Y0178888D03*
X0236062Y0183337D03*
X0236062Y0184440D03*
X0236062Y0185542D03*
X0236062Y0186644D03*
X0236062Y0188888D03*
X0236062Y0189991D03*
X0236062Y0191093D03*
X0236062Y0195542D03*
X0236062Y0196644D03*
X0236062Y0197747D03*
X0236062Y0202196D03*
X0236062Y0203298D03*
X0236062Y0205542D03*
X0236062Y0206644D03*
X0236062Y0211093D03*
X0236062Y0212196D03*
X0236062Y0213298D03*
X0236062Y0214400D03*
X0236062Y0216644D03*
X0236062Y0217747D03*
X0236062Y0218849D03*
X0236062Y0219951D03*
X0236062Y0225503D03*
X0236062Y0226605D03*
X0236062Y0228849D03*
X0236062Y0229951D03*
X0213857Y0229951D03*
X0213857Y0228849D03*
X0213857Y0226605D03*
X0213857Y0225503D03*
X0213857Y0224400D03*
X0213857Y0223298D03*
X0213857Y0222196D03*
X0213857Y0219951D03*
X0213857Y0218849D03*
X0213857Y0217747D03*
X0213857Y0216644D03*
X0213857Y0211093D03*
X0213857Y0208849D03*
X0213857Y0207747D03*
X0213857Y0206644D03*
X0213857Y0205542D03*
X0213857Y0203298D03*
X0213857Y0202196D03*
X0213857Y0197747D03*
X0213857Y0196644D03*
X0213857Y0195542D03*
X0213857Y0194440D03*
X0213857Y0192196D03*
X0213857Y0191093D03*
X0213857Y0189991D03*
X0213857Y0188888D03*
X0213857Y0184440D03*
X0213857Y0183337D03*
X0213857Y0181093D03*
X0213857Y0179991D03*
X0213857Y0178888D03*
X0213857Y0177786D03*
X0213857Y0176684D03*
X0213857Y0174440D03*
X0213857Y0173337D03*
X0213857Y0172235D03*
X0213857Y0171133D03*
X0191652Y0171133D03*
X0191652Y0172235D03*
X0191652Y0173337D03*
X0191652Y0174440D03*
X0191652Y0176684D03*
X0191652Y0177786D03*
X0191652Y0178888D03*
X0191652Y0183337D03*
X0191652Y0184440D03*
X0191652Y0185542D03*
X0191652Y0186644D03*
X0191652Y0188888D03*
X0191652Y0189991D03*
X0191652Y0191093D03*
X0191652Y0195542D03*
X0191652Y0196644D03*
X0191652Y0197747D03*
X0191652Y0202196D03*
X0191652Y0203298D03*
X0191652Y0205542D03*
X0191652Y0206644D03*
X0191652Y0211093D03*
X0191652Y0212196D03*
X0191652Y0213298D03*
X0191652Y0214400D03*
X0191652Y0216644D03*
X0191652Y0217747D03*
X0191652Y0218849D03*
X0191652Y0219951D03*
X0191652Y0225503D03*
X0191652Y0226605D03*
X0191652Y0228849D03*
X0191652Y0229951D03*
X0174999Y0229951D03*
X0174999Y0228849D03*
X0174999Y0226605D03*
X0174999Y0225503D03*
X0174999Y0224400D03*
X0174999Y0223298D03*
X0174999Y0222196D03*
X0174999Y0219951D03*
X0174999Y0218849D03*
X0174999Y0217747D03*
X0174999Y0216644D03*
X0174999Y0208849D03*
X0174999Y0207747D03*
X0174999Y0206644D03*
X0174999Y0205542D03*
X0174999Y0203298D03*
X0174999Y0202196D03*
X0174999Y0201093D03*
X0174999Y0199991D03*
X0174999Y0197747D03*
X0174999Y0196644D03*
X0174999Y0195542D03*
X0174999Y0194440D03*
X0174999Y0192196D03*
X0174999Y0186644D03*
X0174999Y0185542D03*
X0174999Y0184440D03*
X0174999Y0183337D03*
X0174999Y0181093D03*
X0174999Y0179991D03*
X0174999Y0178888D03*
X0174999Y0177786D03*
X0174999Y0176684D03*
X0174999Y0174440D03*
X0174999Y0173337D03*
X0174999Y0165581D03*
X0174999Y0163337D03*
X0174999Y0162235D03*
X0174999Y0161133D03*
X0174999Y0160030D03*
X0174999Y0157786D03*
X0174999Y0156684D03*
X0174999Y0155581D03*
X0174999Y0154479D03*
X0174999Y0152235D03*
X0174999Y0151133D03*
X0174999Y0150030D03*
X0174999Y0148928D03*
X0162794Y0125621D03*
X0139487Y0125621D03*
X0139487Y0126723D03*
X0139487Y0127825D03*
X0139487Y0128928D03*
X0139487Y0130030D03*
X0139487Y0132274D03*
X0139487Y0133377D03*
X0139487Y0134479D03*
X0139487Y0135581D03*
X0139487Y0144479D03*
X0139487Y0145581D03*
X0139487Y0146684D03*
X0139487Y0148928D03*
X0139487Y0150030D03*
X0139487Y0151133D03*
X0139487Y0152235D03*
X0139487Y0154479D03*
X0139487Y0155581D03*
X0139487Y0156684D03*
X0139487Y0157786D03*
X0139487Y0160030D03*
X0139487Y0161133D03*
X0139487Y0162235D03*
X0139487Y0163337D03*
X0139487Y0165581D03*
X0139487Y0166684D03*
X0139487Y0167786D03*
X0139487Y0168888D03*
X0139487Y0171133D03*
X0139487Y0172235D03*
X0139487Y0173337D03*
X0139487Y0174440D03*
X0139487Y0176684D03*
X0139487Y0177786D03*
X0139487Y0183337D03*
X0139487Y0184440D03*
X0139487Y0185542D03*
X0139487Y0186644D03*
X0139487Y0188888D03*
X0139487Y0189991D03*
X0139487Y0191093D03*
X0139487Y0192196D03*
X0139487Y0194440D03*
X0139487Y0195542D03*
X0139487Y0196644D03*
X0139487Y0197747D03*
X0139487Y0199991D03*
X0139487Y0201093D03*
X0139487Y0202196D03*
X0139487Y0203298D03*
X0139487Y0205542D03*
X0139487Y0206644D03*
X0139487Y0207747D03*
X0139487Y0208849D03*
X0139487Y0211093D03*
X0139487Y0212196D03*
X0139487Y0213298D03*
X0139487Y0214400D03*
X0139487Y0216644D03*
X0139487Y0217747D03*
X0139487Y0218849D03*
X0139487Y0219951D03*
X0139487Y0226605D03*
X0139487Y0228849D03*
X0139487Y0229951D03*
X0139487Y0231054D03*
X0139487Y0232156D03*
X0139487Y0234400D03*
X0139487Y0235503D03*
X0139487Y0236605D03*
X0139487Y0237707D03*
X0139487Y0239951D03*
X0139487Y0241054D03*
X0139487Y0242156D03*
X0139487Y0243259D03*
X0139487Y0245503D03*
X0139487Y0246605D03*
X0139487Y0247707D03*
X0139487Y0248810D03*
X0139487Y0251054D03*
X0139487Y0252156D03*
X0139487Y0253259D03*
X0139487Y0254361D03*
X0139487Y0256605D03*
X0139487Y0257707D03*
X0139487Y0265463D03*
X0139487Y0267707D03*
X0139487Y0268810D03*
X0139487Y0269912D03*
X0139487Y0271014D03*
X0139487Y0273259D03*
X0139487Y0274361D03*
X0139487Y0275463D03*
X0139487Y0276566D03*
X0139487Y0277668D03*
X0139487Y0279912D03*
X0139487Y0281014D03*
X0139487Y0282117D03*
X0139487Y0283219D03*
X0139487Y0285463D03*
X0139487Y0286566D03*
X0139487Y0287668D03*
X0139487Y0288770D03*
X0139487Y0291014D03*
X0139487Y0292117D03*
X0139487Y0293219D03*
X0139487Y0294322D03*
X0139487Y0296566D03*
X0139487Y0297668D03*
X0139487Y0298770D03*
X0139487Y0299873D03*
X0151692Y0288770D03*
X0174999Y0248810D03*
X0174999Y0247707D03*
X0174999Y0246605D03*
X0174999Y0245503D03*
X0174999Y0243259D03*
X0174999Y0242156D03*
X0174999Y0241054D03*
X0174999Y0239951D03*
X0174999Y0237707D03*
X0203857Y0205542D03*
X0203857Y0195542D03*
X0203857Y0194440D03*
X0266022Y0123377D03*
X0277125Y0106723D03*
X0350392Y0106723D03*
X0350392Y0105621D03*
X0350392Y0104518D03*
X0350392Y0103416D03*
X0350392Y0101172D03*
X0350392Y0100070D03*
X0350392Y0098967D03*
X0350392Y0097865D03*
X0350392Y0095621D03*
X0360392Y0097865D03*
X0361495Y0100070D03*
X0362597Y0103416D03*
X0362597Y0104518D03*
X0362597Y0105621D03*
X0350392Y0108967D03*
X0350392Y0110070D03*
X0350392Y0111172D03*
X0350392Y0112274D03*
X0350392Y0114518D03*
X0350392Y0115621D03*
X0350392Y0116723D03*
X0350392Y0117825D03*
X0350392Y0120070D03*
X0350392Y0121172D03*
X0350392Y0122274D03*
X0350392Y0123377D03*
X0350392Y0125621D03*
X0350392Y0126723D03*
X0350392Y0127825D03*
X0350392Y0128928D03*
X0350392Y0130030D03*
X0350392Y0132274D03*
X0350392Y0133377D03*
X0350392Y0134479D03*
X0350392Y0135581D03*
X0350392Y0137825D03*
X0350392Y0138928D03*
X0350392Y0140030D03*
X0350392Y0141133D03*
X0350392Y0143377D03*
X0350392Y0144479D03*
X0350392Y0145581D03*
X0350392Y0146684D03*
X0350392Y0148928D03*
X0350392Y0150030D03*
X0350392Y0151133D03*
X0350392Y0152235D03*
X0350392Y0154479D03*
X0350392Y0155581D03*
X0350392Y0156684D03*
X0350392Y0157786D03*
X0350392Y0160030D03*
X0350392Y0161133D03*
X0350392Y0162235D03*
X0350392Y0163337D03*
X0350392Y0168888D03*
X0350392Y0171133D03*
X0350392Y0172235D03*
X0350392Y0173337D03*
X0350392Y0174440D03*
X0350392Y0176684D03*
X0350392Y0177786D03*
X0350392Y0178888D03*
X0350392Y0179991D03*
X0350392Y0181093D03*
X0350392Y0183337D03*
X0350392Y0184440D03*
X0350392Y0185542D03*
X0350392Y0186644D03*
X0350392Y0188888D03*
X0350392Y0189991D03*
X0350392Y0191093D03*
X0350392Y0192196D03*
X0350392Y0194440D03*
X0350392Y0195542D03*
X0350392Y0196644D03*
X0350392Y0197747D03*
X0350392Y0199991D03*
X0350392Y0201093D03*
X0350392Y0202196D03*
X0350392Y0203298D03*
X0350392Y0205542D03*
X0350392Y0206644D03*
X0350392Y0207747D03*
X0350392Y0208849D03*
X0350392Y0211093D03*
X0350392Y0212196D03*
X0350392Y0213298D03*
X0350392Y0214400D03*
X0350392Y0216644D03*
X0350392Y0217747D03*
X0350392Y0218849D03*
X0350392Y0219951D03*
X0350392Y0222196D03*
X0350392Y0223298D03*
X0350392Y0224400D03*
X0350392Y0225503D03*
X0350392Y0226605D03*
X0350392Y0228849D03*
X0350392Y0229951D03*
X0350392Y0231054D03*
X0350392Y0232156D03*
X0350392Y0234400D03*
X0350392Y0235503D03*
X0350392Y0236605D03*
X0350392Y0237707D03*
X0350392Y0239951D03*
X0350392Y0245503D03*
X0350392Y0246605D03*
X0350392Y0247707D03*
X0350392Y0248810D03*
X0350392Y0251054D03*
X0350392Y0252156D03*
X0350392Y0253259D03*
X0350392Y0254361D03*
X0350392Y0256605D03*
X0350392Y0257707D03*
X0350392Y0258810D03*
X0350392Y0259912D03*
X0350392Y0262156D03*
X0350392Y0263259D03*
X0350392Y0264361D03*
X0350392Y0265463D03*
X0350392Y0267707D03*
X0350392Y0268810D03*
X0350392Y0269912D03*
X0350392Y0271014D03*
X0350392Y0273259D03*
X0350392Y0274361D03*
X0350392Y0275463D03*
X0350392Y0276566D03*
X0350392Y0277668D03*
X0350392Y0279912D03*
X0350392Y0281014D03*
X0350392Y0282117D03*
X0350392Y0283219D03*
X0350392Y0285463D03*
X0350392Y0286566D03*
X0350392Y0287668D03*
X0350392Y0288770D03*
X0350392Y0291014D03*
X0350392Y0292117D03*
X0350392Y0293219D03*
X0350392Y0294322D03*
X0350392Y0296566D03*
X0350392Y0297668D03*
X0350392Y0298770D03*
X0350392Y0299873D03*
X0350392Y0302117D03*
X0350392Y0303219D03*
X0350392Y0304322D03*
X0361495Y0299873D03*
X0362597Y0297668D03*
X0362597Y0296566D03*
X0139487Y0123377D03*
X0139487Y0122274D03*
X0139487Y0121172D03*
X0139487Y0120070D03*
X0139487Y0117825D03*
X0139487Y0116723D03*
X0139487Y0115621D03*
X0139487Y0114518D03*
X0139487Y0112274D03*
X0139487Y0111172D03*
X0139487Y0110070D03*
X0139487Y0108967D03*
X0139487Y0106723D03*
X0139487Y0105621D03*
X0139487Y0104518D03*
X0139487Y0103416D03*
X0139487Y0101172D03*
X0139487Y0100070D03*
X0139487Y0098967D03*
X0139487Y0097865D03*
X0077322Y0097865D03*
X0077322Y0098967D03*
X0077322Y0100070D03*
X0077322Y0101172D03*
X0077322Y0103416D03*
X0077322Y0104518D03*
X0077322Y0105621D03*
X0077322Y0106723D03*
X0077322Y0108967D03*
X0077322Y0110070D03*
X0077322Y0111172D03*
X0077322Y0112274D03*
X0077322Y0114518D03*
X0077322Y0115621D03*
X0077322Y0116723D03*
X0077322Y0117825D03*
X0077322Y0120070D03*
X0077322Y0121172D03*
X0077322Y0122274D03*
X0077322Y0123377D03*
X0077322Y0125621D03*
X0077322Y0126723D03*
X0077322Y0127825D03*
X0077322Y0128928D03*
X0077322Y0130030D03*
X0077322Y0132274D03*
X0077322Y0133377D03*
X0077322Y0134479D03*
X0077322Y0135581D03*
X0077322Y0137825D03*
X0077322Y0138928D03*
X0077322Y0140030D03*
X0077322Y0141133D03*
X0077322Y0143377D03*
X0077322Y0144479D03*
X0077322Y0145581D03*
X0077322Y0146684D03*
X0077322Y0148928D03*
X0077322Y0150030D03*
X0077322Y0151133D03*
X0077322Y0152235D03*
X0077322Y0154479D03*
X0077322Y0155581D03*
X0077322Y0156684D03*
X0077322Y0157786D03*
X0077322Y0160030D03*
X0077322Y0161133D03*
X0077322Y0162235D03*
X0077322Y0168888D03*
X0077322Y0171133D03*
X0077322Y0172235D03*
X0077322Y0173337D03*
X0077322Y0174440D03*
X0077322Y0176684D03*
X0077322Y0177786D03*
X0077322Y0178888D03*
X0077322Y0179991D03*
X0077322Y0181093D03*
X0077322Y0183337D03*
X0077322Y0184440D03*
X0077322Y0185542D03*
X0077322Y0186644D03*
X0077322Y0188888D03*
X0077322Y0189991D03*
X0077322Y0191093D03*
X0077322Y0192196D03*
X0077322Y0194440D03*
X0077322Y0195542D03*
X0077322Y0196644D03*
X0077322Y0197747D03*
X0077322Y0199991D03*
X0077322Y0201093D03*
X0077322Y0202196D03*
X0077322Y0203298D03*
X0077322Y0205542D03*
X0077322Y0206644D03*
X0077322Y0207747D03*
X0077322Y0208849D03*
X0077322Y0211093D03*
X0077322Y0212196D03*
X0077322Y0213298D03*
X0077322Y0214400D03*
X0077322Y0216644D03*
X0077322Y0217747D03*
X0077322Y0218849D03*
X0077322Y0219951D03*
X0077322Y0222196D03*
X0077322Y0223298D03*
X0077322Y0224400D03*
X0077322Y0225503D03*
X0077322Y0226605D03*
X0077322Y0228849D03*
X0077322Y0229951D03*
X0077322Y0231054D03*
X0077322Y0232156D03*
X0077322Y0234400D03*
X0077322Y0235503D03*
X0077322Y0236605D03*
X0077322Y0237707D03*
X0077322Y0239951D03*
X0077322Y0245503D03*
X0077322Y0246605D03*
X0077322Y0247707D03*
X0077322Y0248810D03*
X0077322Y0251054D03*
X0077322Y0252156D03*
X0077322Y0253259D03*
X0077322Y0254361D03*
X0077322Y0256605D03*
X0077322Y0257707D03*
X0077322Y0258810D03*
X0077322Y0259912D03*
X0077322Y0262156D03*
X0077322Y0263259D03*
X0077322Y0264361D03*
X0077322Y0265463D03*
X0077322Y0267707D03*
X0077322Y0268810D03*
X0077322Y0269912D03*
X0077322Y0271014D03*
X0077322Y0273259D03*
X0077322Y0274361D03*
X0077322Y0275463D03*
X0077322Y0276566D03*
X0077322Y0277668D03*
X0077322Y0279912D03*
X0077322Y0281014D03*
X0077322Y0282117D03*
X0077322Y0283219D03*
X0077322Y0285463D03*
X0077322Y0286566D03*
X0077322Y0287668D03*
X0077322Y0288770D03*
X0077322Y0291014D03*
X0077322Y0292117D03*
X0077322Y0293219D03*
X0077322Y0294322D03*
X0077322Y0296566D03*
X0077322Y0297668D03*
X0077322Y0298770D03*
X0077322Y0299873D03*
X0077322Y0302117D03*
X0077322Y0303219D03*
X0077322Y0304322D03*
X0077322Y0305424D03*
X0065117Y0298770D03*
X0065117Y0297668D03*
X0065117Y0101172D03*
X0066219Y0098967D03*
X0077322Y0095621D03*
D22*
X0068995Y0095621D03*
X0064546Y0103416D03*
X0064546Y0104518D03*
X0064546Y0161133D03*
X0076751Y0163337D03*
X0148916Y0105621D03*
X0148916Y0104518D03*
X0147814Y0103416D03*
X0150018Y0106723D03*
X0153365Y0111172D03*
X0153365Y0112274D03*
X0155570Y0114518D03*
X0155570Y0115621D03*
X0158916Y0120070D03*
X0160018Y0121172D03*
X0161121Y0123377D03*
X0165570Y0128928D03*
X0165570Y0130030D03*
X0167774Y0132274D03*
X0167774Y0133377D03*
X0171121Y0137825D03*
X0172223Y0138928D03*
X0172223Y0140030D03*
X0173325Y0141133D03*
X0178877Y0148928D03*
X0178877Y0150030D03*
X0182223Y0154479D03*
X0183325Y0155581D03*
X0183325Y0156684D03*
X0184428Y0157786D03*
X0187774Y0162235D03*
X0188877Y0163337D03*
X0189979Y0165581D03*
X0206633Y0189991D03*
X0205530Y0191093D03*
X0204428Y0206644D03*
X0205530Y0208849D03*
X0222184Y0208849D03*
X0222184Y0207747D03*
X0223286Y0205542D03*
X0224388Y0202196D03*
X0223286Y0194440D03*
X0222184Y0192196D03*
X0238837Y0163337D03*
X0239940Y0162235D03*
X0241042Y0160030D03*
X0244388Y0155581D03*
X0246593Y0152235D03*
X0255491Y0138928D03*
X0256593Y0137825D03*
X0257696Y0135581D03*
X0261042Y0130030D03*
X0262144Y0128928D03*
X0263247Y0127825D03*
X0263247Y0126723D03*
X0267696Y0121172D03*
X0269900Y0117825D03*
X0273247Y0112274D03*
X0274349Y0111172D03*
X0275451Y0110070D03*
X0275451Y0108967D03*
X0278798Y0104518D03*
X0279900Y0103416D03*
X0281003Y0101172D03*
X0358719Y0095621D03*
X0189979Y0234400D03*
X0188877Y0235503D03*
X0188877Y0236605D03*
X0187774Y0237707D03*
X0184428Y0242156D03*
X0182223Y0245503D03*
X0173325Y0257707D03*
X0173325Y0258810D03*
X0172223Y0259912D03*
X0167774Y0265463D03*
X0166672Y0267707D03*
X0165570Y0268810D03*
X0161121Y0275463D03*
X0160018Y0276566D03*
X0160018Y0277668D03*
X0155570Y0283219D03*
X0154467Y0285463D03*
X0153365Y0286566D03*
X0150018Y0291014D03*
X0148916Y0292117D03*
X0148916Y0293219D03*
X0147814Y0294322D03*
X0144467Y0298770D03*
X0068995Y0305424D03*
X0064546Y0296566D03*
X0064546Y0247707D03*
X0238837Y0236605D03*
X0239940Y0237707D03*
X0241042Y0239951D03*
X0245491Y0245503D03*
X0245491Y0246605D03*
X0246593Y0247707D03*
X0255491Y0259912D03*
X0256593Y0262156D03*
X0257696Y0263259D03*
X0261042Y0267707D03*
X0261042Y0268810D03*
X0262144Y0269912D03*
X0263247Y0271014D03*
X0267696Y0277668D03*
X0268798Y0279912D03*
X0269900Y0281014D03*
X0273247Y0285463D03*
X0274349Y0286566D03*
X0275451Y0288770D03*
X0278798Y0293219D03*
X0279900Y0294322D03*
X0281003Y0296566D03*
X0358719Y0304322D03*
X0359822Y0303219D03*
X0144467Y0098967D03*
X0144467Y0097865D03*
D23*
X0140589Y0093416D03*
X0106180Y0114518D03*
X0100629Y0110070D03*
X0095077Y0105621D03*
X0089526Y0101172D03*
X0117282Y0123377D03*
X0123936Y0128928D03*
X0129487Y0133377D03*
X0146140Y0146684D03*
X0151692Y0151133D03*
X0157243Y0155581D03*
X0208306Y0188888D03*
X0213857Y0185542D03*
X0220510Y0189991D03*
X0237164Y0194440D03*
X0237164Y0181093D03*
X0259369Y0163337D03*
X0282676Y0145581D03*
X0253818Y0141133D03*
X0310432Y0123377D03*
X0311534Y0122274D03*
X0317085Y0117825D03*
X0328188Y0108967D03*
X0333739Y0104518D03*
X0339290Y0100070D03*
X0344841Y0095621D03*
X0237164Y0222196D03*
X0242715Y0226605D03*
X0271573Y0248810D03*
X0277125Y0253259D03*
X0299329Y0269912D03*
X0304881Y0274361D03*
X0322636Y0287668D03*
X0328188Y0292117D03*
X0333739Y0296566D03*
X0186101Y0225503D03*
X0180550Y0229951D03*
X0162794Y0243259D03*
X0157243Y0247707D03*
X0151692Y0252156D03*
X0129487Y0268810D03*
X0123936Y0273259D03*
X0118385Y0277668D03*
X0106180Y0286566D03*
X0100629Y0291014D03*
X0089526Y0299873D03*
X0140589Y0303219D03*
X0140589Y0304322D03*
X0157243Y0281014D03*
D24*
X0141160Y0259912D03*
X0131160Y0267707D03*
X0126711Y0271014D03*
X0112302Y0282117D03*
X0107853Y0285463D03*
X0103404Y0288770D03*
X0097853Y0293219D03*
X0083404Y0304322D03*
X0141160Y0302117D03*
X0176672Y0252156D03*
X0176672Y0251054D03*
X0165570Y0241054D03*
X0164467Y0242156D03*
X0170018Y0237707D03*
X0173325Y0235503D03*
X0174428Y0234400D03*
X0176672Y0232156D03*
X0189979Y0223298D03*
X0189979Y0207747D03*
X0207735Y0211093D03*
X0237735Y0207747D03*
X0237735Y0223298D03*
X0251042Y0232156D03*
X0254388Y0235503D03*
X0259940Y0239951D03*
X0264349Y0243259D03*
X0268798Y0246605D03*
X0278798Y0254361D03*
X0286554Y0259912D03*
X0288798Y0262156D03*
X0293207Y0265463D03*
X0297656Y0268810D03*
X0307656Y0276566D03*
X0320963Y0286566D03*
X0326514Y0291014D03*
X0330963Y0294322D03*
X0286554Y0302117D03*
X0286554Y0303219D03*
X0251042Y0252156D03*
X0218837Y0188888D03*
X0189979Y0181093D03*
X0179979Y0173337D03*
X0176672Y0171133D03*
X0173325Y0167786D03*
X0251042Y0171133D03*
X0254388Y0167786D03*
X0271003Y0154479D03*
X0287656Y0141133D03*
X0288798Y0140030D03*
X0298759Y0132274D03*
X0304310Y0127825D03*
X0332066Y0105621D03*
X0355373Y0093416D03*
X0286554Y0094518D03*
X0251042Y0146684D03*
X0141160Y0095621D03*
X0141160Y0094518D03*
X0071199Y0093416D03*
X0065648Y0162235D03*
X0155570Y0248810D03*
D25*
X0139487Y0249932D03*
X0139487Y0255483D03*
X0139487Y0266585D03*
X0139487Y0272136D03*
X0139487Y0278790D03*
X0139487Y0284341D03*
X0139487Y0289892D03*
X0139487Y0295444D03*
X0139487Y0300995D03*
X0077322Y0300995D03*
X0077322Y0295444D03*
X0077322Y0289892D03*
X0077322Y0284341D03*
X0077322Y0278790D03*
X0077322Y0272136D03*
X0077322Y0266585D03*
X0077322Y0261034D03*
X0077322Y0255483D03*
X0077322Y0249932D03*
X0077322Y0238829D03*
X0077322Y0233278D03*
X0077322Y0227727D03*
X0077322Y0221073D03*
X0077322Y0215522D03*
X0077322Y0209971D03*
X0077322Y0204420D03*
X0077322Y0198869D03*
X0077322Y0193318D03*
X0077322Y0187766D03*
X0077322Y0182215D03*
X0077322Y0175562D03*
X0077322Y0170010D03*
X0077322Y0158908D03*
X0077322Y0153357D03*
X0077322Y0147806D03*
X0077322Y0142255D03*
X0077322Y0136703D03*
X0077322Y0131152D03*
X0077322Y0124499D03*
X0077322Y0118948D03*
X0077322Y0113396D03*
X0077322Y0107845D03*
X0077322Y0102294D03*
X0077322Y0096743D03*
X0065117Y0102294D03*
X0139487Y0102294D03*
X0139487Y0107845D03*
X0139487Y0113396D03*
X0139487Y0118948D03*
X0139487Y0124499D03*
X0139487Y0131152D03*
X0139487Y0136703D03*
X0139487Y0147806D03*
X0139487Y0153357D03*
X0139487Y0158908D03*
X0139487Y0164459D03*
X0139487Y0170010D03*
X0139487Y0175562D03*
X0139487Y0187766D03*
X0139487Y0193318D03*
X0139487Y0198869D03*
X0139487Y0204420D03*
X0139487Y0209971D03*
X0139487Y0215522D03*
X0139487Y0221073D03*
X0139487Y0227727D03*
X0139487Y0233278D03*
X0139487Y0238829D03*
X0139487Y0244381D03*
X0174999Y0244381D03*
X0174999Y0238829D03*
X0174999Y0249932D03*
X0174999Y0227727D03*
X0174999Y0221073D03*
X0174999Y0215522D03*
X0174999Y0209971D03*
X0174999Y0204420D03*
X0174999Y0198869D03*
X0174999Y0193318D03*
X0191652Y0187766D03*
X0191652Y0175562D03*
X0174999Y0175562D03*
X0174999Y0182215D03*
X0174999Y0164459D03*
X0174999Y0158908D03*
X0174999Y0153357D03*
X0213857Y0175562D03*
X0213857Y0182215D03*
X0213857Y0193318D03*
X0213857Y0204420D03*
X0213857Y0209971D03*
X0213857Y0215522D03*
X0213857Y0221073D03*
X0213857Y0227727D03*
X0236062Y0227727D03*
X0236062Y0215522D03*
X0236062Y0209971D03*
X0236062Y0204420D03*
X0252715Y0204420D03*
X0252715Y0209971D03*
X0252715Y0215522D03*
X0252715Y0221073D03*
X0252715Y0227727D03*
X0252715Y0238829D03*
X0252715Y0244381D03*
X0252715Y0249932D03*
X0191652Y0227727D03*
X0191652Y0215522D03*
X0191652Y0204420D03*
X0236062Y0187766D03*
X0236062Y0175562D03*
X0238266Y0164459D03*
X0252715Y0164459D03*
X0252715Y0158908D03*
X0252715Y0153357D03*
X0252715Y0175562D03*
X0252715Y0182215D03*
X0252715Y0193318D03*
X0252715Y0198869D03*
X0350392Y0198869D03*
X0350392Y0193318D03*
X0350392Y0187766D03*
X0350392Y0182215D03*
X0350392Y0175562D03*
X0350392Y0170010D03*
X0350392Y0158908D03*
X0350392Y0153357D03*
X0350392Y0147806D03*
X0350392Y0142255D03*
X0350392Y0136703D03*
X0350392Y0131152D03*
X0350392Y0124499D03*
X0350392Y0118948D03*
X0350392Y0113396D03*
X0350392Y0107845D03*
X0350392Y0102294D03*
X0350392Y0096743D03*
X0362597Y0102294D03*
X0350392Y0204420D03*
X0350392Y0209971D03*
X0350392Y0215522D03*
X0350392Y0221073D03*
X0350392Y0227727D03*
X0350392Y0233278D03*
X0350392Y0238829D03*
X0350392Y0249932D03*
X0350392Y0255483D03*
X0350392Y0261034D03*
X0350392Y0266585D03*
X0350392Y0272136D03*
X0350392Y0278790D03*
X0350392Y0284341D03*
X0350392Y0289892D03*
X0350392Y0295444D03*
X0350392Y0300995D03*
X0362597Y0295444D03*
X0158345Y0118948D03*
X0139487Y0096743D03*
X0066219Y0300995D03*
D26*
X0095077Y0295444D03*
X0220510Y0209971D03*
X0266022Y0244381D03*
X0248266Y0249932D03*
X0310432Y0278790D03*
X0339290Y0300995D03*
X0213857Y0170010D03*
X0118385Y0124499D03*
X0111731Y0118948D03*
X0083975Y0096743D03*
X0322636Y0113396D03*
D27*
X0268247Y0120070D03*
X0244940Y0154479D03*
X0204979Y0192196D03*
X0223837Y0195542D03*
X0223837Y0196644D03*
X0223837Y0197747D03*
X0223837Y0203298D03*
X0222735Y0206644D03*
X0204979Y0207747D03*
X0183877Y0243259D03*
X0143916Y0299873D03*
X0063995Y0294322D03*
X0063995Y0293219D03*
X0063995Y0292117D03*
X0063995Y0291014D03*
X0063995Y0288770D03*
X0063995Y0287668D03*
X0063995Y0286566D03*
X0063995Y0285463D03*
X0063995Y0283219D03*
X0063995Y0282117D03*
X0063995Y0281014D03*
X0063995Y0279912D03*
X0063995Y0277668D03*
X0063995Y0276566D03*
X0063995Y0275463D03*
X0063995Y0274361D03*
X0063995Y0273259D03*
X0063995Y0271014D03*
X0063995Y0269912D03*
X0063995Y0268810D03*
X0063995Y0267707D03*
X0063995Y0265463D03*
X0063995Y0264361D03*
X0063995Y0263259D03*
X0063995Y0262156D03*
X0063995Y0259912D03*
X0063995Y0258810D03*
X0063995Y0257707D03*
X0063995Y0256605D03*
X0063995Y0254361D03*
X0063995Y0253259D03*
X0063995Y0252156D03*
X0063995Y0251054D03*
X0063995Y0248810D03*
X0063995Y0243259D03*
X0063995Y0242156D03*
X0063995Y0241054D03*
X0063995Y0239951D03*
X0063995Y0237707D03*
X0063995Y0236605D03*
X0063995Y0235503D03*
X0063995Y0234400D03*
X0063995Y0232156D03*
X0063995Y0231054D03*
X0063995Y0229951D03*
X0063995Y0228849D03*
X0063995Y0226605D03*
X0063995Y0225503D03*
X0063995Y0224400D03*
X0063995Y0223298D03*
X0063995Y0222196D03*
X0063995Y0219951D03*
X0063995Y0218849D03*
X0063995Y0217747D03*
X0063995Y0216644D03*
X0063995Y0214400D03*
X0063995Y0213298D03*
X0063995Y0212196D03*
X0063995Y0211093D03*
X0063995Y0208849D03*
X0063995Y0207747D03*
X0063995Y0206644D03*
X0063995Y0205542D03*
X0063995Y0203298D03*
X0063995Y0202196D03*
X0063995Y0201093D03*
X0063995Y0199991D03*
X0063995Y0197747D03*
X0063995Y0196644D03*
X0063995Y0195542D03*
X0063995Y0194440D03*
X0063995Y0192196D03*
X0063995Y0191093D03*
X0063995Y0189991D03*
X0063995Y0188888D03*
X0063995Y0186644D03*
X0063995Y0185542D03*
X0063995Y0184440D03*
X0063995Y0183337D03*
X0063995Y0181093D03*
X0063995Y0179991D03*
X0063995Y0178888D03*
X0063995Y0177786D03*
X0063995Y0176684D03*
X0063995Y0174440D03*
X0063995Y0173337D03*
X0063995Y0172235D03*
X0063995Y0171133D03*
X0063995Y0168888D03*
X0063995Y0167786D03*
X0063995Y0166684D03*
X0063995Y0165581D03*
X0063995Y0160030D03*
X0063995Y0157786D03*
X0063995Y0156684D03*
X0063995Y0155581D03*
X0063995Y0154479D03*
X0063995Y0152235D03*
X0063995Y0151133D03*
X0063995Y0150030D03*
X0063995Y0148928D03*
X0063995Y0146684D03*
X0063995Y0145581D03*
X0063995Y0144479D03*
X0063995Y0143377D03*
X0063995Y0141133D03*
X0063995Y0140030D03*
X0063995Y0138928D03*
X0063995Y0137825D03*
X0063995Y0135581D03*
X0063995Y0134479D03*
X0063995Y0133377D03*
X0063995Y0132274D03*
X0063995Y0130030D03*
X0063995Y0128928D03*
X0063995Y0127825D03*
X0063995Y0126723D03*
X0063995Y0125621D03*
X0063995Y0123377D03*
X0063995Y0122274D03*
X0063995Y0121172D03*
X0063995Y0120070D03*
X0063995Y0117825D03*
X0063995Y0116723D03*
X0063995Y0115621D03*
X0063995Y0114518D03*
X0063995Y0112274D03*
X0063995Y0111172D03*
X0063995Y0110070D03*
X0063995Y0108967D03*
X0063995Y0106723D03*
X0063995Y0105621D03*
X0160570Y0122274D03*
X0274900Y0287668D03*
D28*
X0302105Y0272136D03*
X0175570Y0233278D03*
X0168877Y0238829D03*
X0140018Y0261034D03*
X0102302Y0289892D03*
X0175570Y0170010D03*
X0168877Y0164459D03*
X0176672Y0147806D03*
X0141160Y0142255D03*
X0097853Y0107845D03*
X0251042Y0147806D03*
X0286554Y0142255D03*
X0293207Y0136703D03*
X0315412Y0118948D03*
X0343168Y0096743D03*
D29*
X0222735Y0193318D03*
X0223837Y0204420D03*
X0063995Y0204420D03*
X0063995Y0209971D03*
X0063995Y0215522D03*
X0063995Y0221073D03*
X0063995Y0227727D03*
X0063995Y0233278D03*
X0063995Y0238829D03*
X0063995Y0244381D03*
X0063995Y0249932D03*
X0063995Y0255483D03*
X0063995Y0261034D03*
X0063995Y0266585D03*
X0063995Y0272136D03*
X0063995Y0278790D03*
X0063995Y0284341D03*
X0063995Y0289892D03*
X0063995Y0198869D03*
X0063995Y0193318D03*
X0063995Y0187766D03*
X0063995Y0182215D03*
X0063995Y0175562D03*
X0063995Y0170010D03*
X0063995Y0158908D03*
X0063995Y0153357D03*
X0063995Y0147806D03*
X0063995Y0142255D03*
X0063995Y0136703D03*
X0063995Y0131152D03*
X0063995Y0124499D03*
X0063995Y0118948D03*
X0063995Y0113396D03*
X0063995Y0107845D03*
D30*
X0080097Y0094518D03*
X0136711Y0137825D03*
X0213286Y0214400D03*
X0188877Y0224400D03*
X0177774Y0231054D03*
X0136711Y0264361D03*
X0249940Y0231054D03*
X0255491Y0237707D03*
X0249940Y0172235D03*
X0255491Y0165581D03*
X0285451Y0144479D03*
X0289900Y0137825D03*
X0347617Y0094518D03*
X0360924Y0246605D03*
D31*
X0289349Y0263259D03*
X0286003Y0258810D03*
X0254940Y0236605D03*
X0250491Y0251054D03*
X0238286Y0224400D03*
X0238286Y0179991D03*
X0254940Y0166684D03*
X0286003Y0143377D03*
X0289349Y0138928D03*
X0286003Y0095621D03*
X0348168Y0093416D03*
X0361475Y0162235D03*
X0189428Y0179991D03*
X0177223Y0172235D03*
X0172774Y0166684D03*
X0141711Y0143377D03*
X0137262Y0138928D03*
X0079546Y0093416D03*
X0172774Y0236605D03*
X0141711Y0258810D03*
X0137262Y0263259D03*
X0066199Y0246605D03*
D32*
X0359270Y0245503D03*
D33*
X0351495Y0243259D03*
X0348188Y0242156D03*
X0290432Y0224400D03*
X0213857Y0213298D03*
X0177203Y0212196D03*
X0170550Y0214400D03*
X0162794Y0216644D03*
X0155038Y0218849D03*
X0151692Y0219951D03*
X0119487Y0229951D03*
X0111731Y0232156D03*
X0086180Y0239951D03*
X0081770Y0241054D03*
X0068424Y0245503D03*
X0068424Y0163337D03*
D34*
X0148345Y0221073D03*
X0090629Y0238829D03*
X0072873Y0244381D03*
X0260471Y0215522D03*
X0319290Y0233278D03*
X0354841Y0244381D03*
D35*
X0307656Y0229951D03*
X0285451Y0223298D03*
X0268798Y0217747D03*
X0256593Y0214400D03*
X0115609Y0231054D03*
X0097853Y0236605D03*
X0075648Y0243259D03*
D36*
X0078975Y0242156D03*
X0094526Y0237707D03*
X0101180Y0235503D03*
X0104526Y0234400D03*
X0123385Y0228849D03*
X0130038Y0226605D03*
X0136692Y0224400D03*
X0141140Y0223298D03*
X0158896Y0217747D03*
X0173345Y0213298D03*
X0187755Y0208849D03*
X0213306Y0186644D03*
X0249920Y0212196D03*
X0253266Y0213298D03*
X0264369Y0216644D03*
X0272125Y0218849D03*
X0275471Y0219951D03*
X0297676Y0226605D03*
X0304329Y0228849D03*
X0310983Y0231054D03*
X0315432Y0232156D03*
X0323188Y0234400D03*
X0326534Y0235503D03*
X0329841Y0236605D03*
X0333188Y0237707D03*
X0340944Y0239951D03*
D37*
X0345392Y0241054D03*
X0283227Y0222196D03*
X0247715Y0211093D03*
X0247715Y0191093D03*
X0255471Y0188888D03*
X0264369Y0186644D03*
X0278778Y0183337D03*
X0314329Y0174440D03*
X0318739Y0173337D03*
X0323188Y0172235D03*
X0337636Y0168888D03*
X0358699Y0163337D03*
X0179999Y0211093D03*
X0175550Y0189991D03*
X0156692Y0185542D03*
X0152243Y0184440D03*
X0140038Y0181093D03*
X0135589Y0179991D03*
X0125589Y0177786D03*
X0121180Y0176684D03*
X0098975Y0171133D03*
X0076770Y0165581D03*
X0144487Y0222196D03*
X0134487Y0225503D03*
D38*
X0126711Y0227727D03*
X0166672Y0215522D03*
X0239940Y0193318D03*
X0336514Y0238829D03*
D39*
X0213857Y0233278D03*
D40*
X0243266Y0209971D03*
X0278778Y0221073D03*
X0300983Y0227727D03*
X0187755Y0193318D03*
X0107833Y0233278D03*
D41*
X0213306Y0232156D03*
X0213306Y0167786D03*
D42*
X0213857Y0168888D03*
X0213857Y0199991D03*
X0213857Y0201093D03*
X0213857Y0231054D03*
D43*
X0179448Y0191093D03*
X0162794Y0186644D03*
X0112833Y0174440D03*
X0089526Y0168888D03*
X0270471Y0185542D03*
X0287125Y0181093D03*
X0305983Y0176684D03*
X0328188Y0171133D03*
X0345944Y0166684D03*
X0350392Y0165581D03*
X0292676Y0225503D03*
D44*
X0242164Y0192196D03*
X0213306Y0212196D03*
X0185550Y0192196D03*
D45*
X0185550Y0209971D03*
X0258818Y0187766D03*
D46*
X0213857Y0198869D03*
D47*
X0251593Y0189991D03*
X0274900Y0184440D03*
X0291554Y0179991D03*
X0301554Y0177786D03*
X0171672Y0188888D03*
X0148365Y0183337D03*
X0108404Y0173337D03*
X0103955Y0172235D03*
D48*
X0093975Y0170010D03*
X0213857Y0187766D03*
X0310432Y0175562D03*
D49*
X0168345Y0187766D03*
D50*
X0116731Y0175562D03*
X0283227Y0182215D03*
X0333188Y0170010D03*
D51*
X0143916Y0182215D03*
D52*
X0081199Y0166684D03*
X0296554Y0178888D03*
D53*
X0132262Y0178888D03*
D54*
X0343719Y0167786D03*
D55*
X0083975Y0167786D03*
D56*
X0356495Y0164459D03*
D57*
X0071199Y0164459D03*
D58*
X0163345Y0160030D03*
D59*
X0265471Y0158908D03*
D60*
X0213857Y0144479D03*
D61*
X0213306Y0143377D03*
D62*
X0213857Y0142255D03*
D63*
X0213286Y0092314D03*
D64*
X0213857Y0091192D03*
D65*
X0213286Y0090070D03*
D66*
X0171345Y0168070D02*
X0171345Y0173070D01*
M02*
