G75*
%MOIN*%
%OFA0B0*%
%FSLAX25Y25*%
%IPPOS*%
%LPD*%
%AMOC8*
5,1,8,0,0,1.08239X$1,22.5*
%
%ADD10C,0.00800*%
%ADD11C,0.01000*%
%ADD12R,0.00157X0.16220*%
%ADD13R,0.00157X0.17165*%
%ADD14R,0.00157X0.17795*%
%ADD15R,0.00157X0.18425*%
%ADD16R,0.00157X0.18740*%
%ADD17R,0.00157X0.19055*%
%ADD18R,0.00157X0.11654*%
%ADD19R,0.00157X0.00945*%
%ADD20R,0.00157X0.05669*%
%ADD21R,0.00157X0.04252*%
%ADD22R,0.00157X0.06614*%
%ADD23R,0.00157X0.00630*%
%ADD24R,0.00157X0.03937*%
%ADD25R,0.00157X0.06142*%
%ADD26R,0.00157X0.00472*%
%ADD27R,0.00157X0.05827*%
%ADD28R,0.00157X0.03622*%
%ADD29R,0.00157X0.05984*%
%ADD30R,0.00157X0.03465*%
%ADD31R,0.00157X0.05512*%
%ADD32R,0.00157X0.13858*%
%ADD33R,0.00157X0.03307*%
%ADD34R,0.00157X0.01102*%
%ADD35R,0.00157X0.13701*%
%ADD36R,0.00157X0.01417*%
%ADD37R,0.00157X0.00787*%
%ADD38R,0.00157X0.03780*%
%ADD39R,0.00157X0.01732*%
%ADD40R,0.00157X0.00315*%
%ADD41R,0.00157X0.01890*%
%ADD42R,0.00157X0.02047*%
%ADD43R,0.00157X0.03150*%
%ADD44R,0.00157X0.00157*%
%ADD45R,0.00157X0.04882*%
%ADD46R,0.00157X0.04567*%
%ADD47R,0.00157X0.02992*%
%ADD48R,0.00157X0.01260*%
%ADD49R,0.00157X0.02835*%
%ADD50R,0.00157X0.01575*%
%ADD51R,0.00157X0.19370*%
%ADD52C,0.00010*%
%ADD53R,0.00157X0.09449*%
%ADD54R,0.00157X0.09921*%
%ADD55R,0.00157X0.10236*%
%ADD56R,0.00157X0.10551*%
%ADD57R,0.00157X0.10709*%
%ADD58R,0.00157X0.10866*%
%ADD59R,0.00157X0.11024*%
%ADD60R,0.00157X0.07559*%
%ADD61R,0.00157X0.07244*%
%ADD62R,0.00157X0.02520*%
%ADD63R,0.00157X0.07087*%
%ADD64R,0.00157X0.02205*%
%ADD65R,0.00157X0.06929*%
%ADD66R,0.00157X0.08189*%
%ADD67R,0.00157X0.06772*%
%ADD68R,0.00157X0.09134*%
%ADD69R,0.00157X0.09606*%
%ADD70R,0.00157X0.10394*%
%ADD71R,0.00157X0.02362*%
%ADD72R,0.00157X0.04409*%
%ADD73R,0.00157X0.08031*%
%ADD74R,0.00157X0.07402*%
%ADD75R,0.00157X0.02677*%
%ADD76R,0.00157X0.12126*%
%ADD77R,0.00157X0.12441*%
%ADD78R,0.00157X0.12756*%
%ADD79R,0.00157X0.12913*%
%ADD80R,0.00157X0.13071*%
%ADD81R,0.00157X0.13228*%
%ADD82R,0.00157X0.09764*%
%ADD83R,0.00157X0.07874*%
%ADD84R,0.00157X0.07717*%
%ADD85R,0.00157X0.11181*%
%ADD86R,0.00157X0.11496*%
%ADD87R,0.00157X0.11811*%
%ADD88R,0.00157X0.11969*%
%ADD89R,0.00157X0.12283*%
%ADD90R,0.00157X0.13386*%
%ADD91R,0.00157X0.06457*%
%ADD92R,0.00157X0.06299*%
%ADD93R,0.00157X0.04094*%
%ADD94R,0.00157X0.08819*%
%ADD95R,0.00157X0.05354*%
%ADD96R,0.00157X0.17323*%
%ADD97R,0.00157X0.17480*%
%ADD98R,0.00157X0.17953*%
%ADD99R,0.00157X0.19213*%
%ADD100R,0.00157X0.19528*%
%ADD101R,0.00157X0.18110*%
%ADD102R,0.00157X0.24882*%
%ADD103R,0.00157X0.25354*%
%ADD104R,0.00157X0.25669*%
%ADD105R,0.00157X0.25984*%
%ADD106R,0.00157X0.26142*%
%ADD107R,0.00157X0.26299*%
%ADD108R,0.00157X0.18583*%
%ADD109R,0.00157X0.16693*%
%ADD110R,0.00157X0.08976*%
%ADD111R,0.00157X0.16850*%
%ADD112R,0.00157X0.26614*%
%ADD113R,0.00157X0.26929*%
%ADD114R,0.00157X0.27244*%
%ADD115R,0.00157X0.27402*%
%ADD116R,0.00157X0.27559*%
%ADD117R,0.00157X0.11339*%
%ADD118R,0.00157X0.17638*%
%ADD119R,0.00157X0.09291*%
%ADD120R,0.00157X0.16378*%
%ADD121R,0.00157X0.16535*%
%ADD122R,0.00157X0.17008*%
%ADD123R,0.00157X0.18268*%
%ADD124R,0.00157X0.05039*%
%ADD125R,0.00157X0.05197*%
%ADD126R,0.00157X0.14331*%
%ADD127R,0.00157X0.08346*%
%ADD128R,0.00157X0.08661*%
%ADD129R,0.00157X0.04724*%
%ADD130R,0.00157X0.15276*%
%ADD131R,0.00157X0.19685*%
%ADD132R,0.00157X0.14173*%
%ADD133C,0.00300*%
%ADD134R,0.00157X0.46929*%
%ADD135R,0.00157X0.48110*%
%ADD136R,0.00157X0.48701*%
%ADD137R,0.00118X0.49291*%
%ADD138R,0.00157X0.49685*%
%ADD139R,0.00157X0.01457*%
%ADD140R,0.00118X0.01181*%
%ADD141R,0.00118X0.01299*%
%ADD142R,0.00157X0.01024*%
%ADD143R,0.00157X0.01181*%
%ADD144R,0.00118X0.01024*%
%ADD145R,0.00157X0.00866*%
%ADD146R,0.00157X0.00906*%
%ADD147R,0.00157X0.00748*%
%ADD148R,0.00118X0.00709*%
%ADD149R,0.00118X0.00866*%
%ADD150R,0.00157X0.00709*%
%ADD151R,0.00157X0.04961*%
%ADD152R,0.00157X0.00591*%
%ADD153R,0.00157X0.03504*%
%ADD154R,0.00157X0.00118*%
%ADD155R,0.00118X0.00748*%
%ADD156R,0.00118X0.05512*%
%ADD157R,0.00118X0.02047*%
%ADD158R,0.00118X0.04370*%
%ADD159R,0.00118X0.00591*%
%ADD160R,0.00157X0.02913*%
%ADD161R,0.00157X0.04803*%
%ADD162R,0.00157X0.06260*%
%ADD163R,0.00157X0.05079*%
%ADD164R,0.00118X0.06417*%
%ADD165R,0.00118X0.03937*%
%ADD166R,0.00118X0.05236*%
%ADD167R,0.00157X0.01772*%
%ADD168R,0.00157X0.01299*%
%ADD169R,0.00118X0.01142*%
%ADD170R,0.00157X0.00984*%
%ADD171R,0.00118X0.03661*%
%ADD172R,0.00118X0.02913*%
%ADD173R,0.00157X0.03346*%
%ADD174R,0.00118X0.03189*%
%ADD175R,0.00118X0.05669*%
%ADD176R,0.00118X0.03346*%
%ADD177R,0.00157X0.03071*%
%ADD178R,0.00118X0.00906*%
%ADD179R,0.00157X0.00433*%
%ADD180R,0.00118X0.00984*%
%ADD181R,0.00157X0.01614*%
%ADD182R,0.00118X0.01457*%
%ADD183R,0.00118X0.01575*%
%ADD184R,0.00157X0.05236*%
%ADD185R,0.00118X0.04803*%
%ADD186R,0.00157X0.02795*%
%ADD187R,0.00157X0.04528*%
%ADD188R,0.00157X0.03819*%
%ADD189R,0.00118X0.49449*%
%ADD190R,0.00157X0.48976*%
%ADD191R,0.00157X0.48583*%
%ADD192R,0.00157X0.47717*%
D10*
X0073617Y0109806D02*
X0079522Y0109806D01*
X0073617Y0109806D02*
X0073617Y0117680D01*
X0087396Y0117680D01*
X0095270Y0109806D02*
X0103538Y0109806D01*
X0119286Y0109806D02*
X0125979Y0109806D01*
X0125979Y0145239D01*
X0119680Y0145239D01*
X0132459Y0139522D02*
X0140333Y0139522D01*
X0140333Y0136077D02*
X0142105Y0136077D01*
X0142105Y0117967D01*
X0140333Y0117967D01*
X0132459Y0117967D02*
X0130688Y0117967D01*
X0130688Y0136077D01*
X0132459Y0136077D01*
X0149896Y0144085D02*
X0149896Y0150085D01*
X0157706Y0154585D02*
X0161087Y0154585D01*
X0162187Y0158529D02*
X0162187Y0160642D01*
X0161087Y0164585D02*
X0157706Y0164585D01*
X0171345Y0168070D02*
X0171345Y0173070D01*
X0172664Y0173070D02*
X0172664Y0168070D01*
X0175164Y0165570D01*
X0190164Y0165570D01*
X0192664Y0163070D01*
X0192664Y0158070D01*
X0190164Y0155570D01*
X0175164Y0155570D01*
X0172664Y0153070D01*
X0172664Y0148070D01*
X0175164Y0145570D01*
X0190164Y0145570D01*
X0192664Y0148070D01*
X0192664Y0153070D01*
X0190164Y0155570D01*
X0190164Y0165570D02*
X0192664Y0168070D01*
X0192664Y0173070D01*
X0190164Y0175570D01*
X0175164Y0175570D01*
X0172664Y0173070D01*
X0175164Y0165570D02*
X0172664Y0163070D01*
X0172664Y0158070D01*
X0175164Y0155570D01*
X0170499Y0129318D02*
X0168136Y0129318D01*
X0170499Y0129318D02*
X0177192Y0122625D01*
X0177192Y0103727D01*
X0168136Y0103727D01*
X0160656Y0103727D02*
X0151601Y0103727D01*
X0151601Y0122625D01*
X0158294Y0129318D01*
X0160656Y0129318D01*
X0168136Y0128137D02*
X0168419Y0128042D01*
X0168700Y0127940D01*
X0168977Y0127831D01*
X0169253Y0127716D01*
X0169525Y0127594D01*
X0169794Y0127465D01*
X0170060Y0127330D01*
X0170322Y0127188D01*
X0170581Y0127040D01*
X0170837Y0126886D01*
X0171088Y0126725D01*
X0171336Y0126558D01*
X0171579Y0126386D01*
X0171818Y0126207D01*
X0172053Y0126023D01*
X0172283Y0125833D01*
X0172508Y0125637D01*
X0172728Y0125436D01*
X0172944Y0125230D01*
X0173154Y0125018D01*
X0173359Y0124802D01*
X0173559Y0124580D01*
X0173753Y0124353D01*
X0173942Y0124122D01*
X0174125Y0123887D01*
X0174302Y0123647D01*
X0174473Y0123402D01*
X0174638Y0123154D01*
X0174797Y0122901D01*
X0174950Y0122645D01*
X0175097Y0122385D01*
X0175237Y0122122D01*
X0175371Y0121855D01*
X0175498Y0121585D01*
X0175618Y0121312D01*
X0175732Y0121037D01*
X0175839Y0120758D01*
X0175939Y0120477D01*
X0176032Y0120194D01*
X0176119Y0119908D01*
X0176198Y0119620D01*
X0176270Y0119331D01*
X0176335Y0119040D01*
X0176393Y0118747D01*
X0176444Y0118453D01*
X0176488Y0118158D01*
X0176524Y0117862D01*
X0176553Y0117565D01*
X0176575Y0117267D01*
X0176590Y0116969D01*
X0176597Y0116671D01*
X0176597Y0116373D01*
X0176590Y0116075D01*
X0176575Y0115777D01*
X0176553Y0115479D01*
X0176524Y0115182D01*
X0176488Y0114886D01*
X0176444Y0114591D01*
X0176393Y0114297D01*
X0176335Y0114004D01*
X0176270Y0113713D01*
X0176198Y0113424D01*
X0176119Y0113136D01*
X0176032Y0112850D01*
X0175939Y0112567D01*
X0175839Y0112286D01*
X0175732Y0112007D01*
X0175618Y0111732D01*
X0175498Y0111459D01*
X0175371Y0111189D01*
X0175237Y0110922D01*
X0175097Y0110659D01*
X0174950Y0110399D01*
X0174797Y0110143D01*
X0174638Y0109890D01*
X0174473Y0109642D01*
X0174302Y0109397D01*
X0174125Y0109157D01*
X0173942Y0108922D01*
X0173753Y0108691D01*
X0173559Y0108464D01*
X0173359Y0108242D01*
X0173154Y0108026D01*
X0172944Y0107814D01*
X0172728Y0107608D01*
X0172508Y0107407D01*
X0172283Y0107211D01*
X0172053Y0107021D01*
X0171818Y0106837D01*
X0171579Y0106658D01*
X0171336Y0106486D01*
X0171088Y0106319D01*
X0170837Y0106158D01*
X0170581Y0106004D01*
X0170322Y0105856D01*
X0170060Y0105714D01*
X0169794Y0105579D01*
X0169525Y0105450D01*
X0169253Y0105328D01*
X0168977Y0105213D01*
X0168700Y0105104D01*
X0168419Y0105002D01*
X0168136Y0104907D01*
X0160656Y0104907D02*
X0160373Y0105002D01*
X0160092Y0105104D01*
X0159815Y0105213D01*
X0159539Y0105328D01*
X0159267Y0105450D01*
X0158998Y0105579D01*
X0158732Y0105714D01*
X0158470Y0105856D01*
X0158211Y0106004D01*
X0157955Y0106158D01*
X0157704Y0106319D01*
X0157456Y0106486D01*
X0157213Y0106658D01*
X0156974Y0106837D01*
X0156739Y0107021D01*
X0156509Y0107211D01*
X0156284Y0107407D01*
X0156064Y0107608D01*
X0155848Y0107814D01*
X0155638Y0108026D01*
X0155433Y0108242D01*
X0155233Y0108464D01*
X0155039Y0108691D01*
X0154850Y0108922D01*
X0154667Y0109157D01*
X0154490Y0109397D01*
X0154319Y0109642D01*
X0154154Y0109890D01*
X0153995Y0110143D01*
X0153842Y0110399D01*
X0153695Y0110659D01*
X0153555Y0110922D01*
X0153421Y0111189D01*
X0153294Y0111459D01*
X0153174Y0111732D01*
X0153060Y0112007D01*
X0152953Y0112286D01*
X0152853Y0112567D01*
X0152760Y0112850D01*
X0152673Y0113136D01*
X0152594Y0113424D01*
X0152522Y0113713D01*
X0152457Y0114004D01*
X0152399Y0114297D01*
X0152348Y0114591D01*
X0152304Y0114886D01*
X0152268Y0115182D01*
X0152239Y0115479D01*
X0152217Y0115777D01*
X0152202Y0116075D01*
X0152195Y0116373D01*
X0152195Y0116671D01*
X0152202Y0116969D01*
X0152217Y0117267D01*
X0152239Y0117565D01*
X0152268Y0117862D01*
X0152304Y0118158D01*
X0152348Y0118453D01*
X0152399Y0118747D01*
X0152457Y0119040D01*
X0152522Y0119331D01*
X0152594Y0119620D01*
X0152673Y0119908D01*
X0152760Y0120194D01*
X0152853Y0120477D01*
X0152953Y0120758D01*
X0153060Y0121037D01*
X0153174Y0121312D01*
X0153294Y0121585D01*
X0153421Y0121855D01*
X0153555Y0122122D01*
X0153695Y0122385D01*
X0153842Y0122645D01*
X0153995Y0122901D01*
X0154154Y0123154D01*
X0154319Y0123402D01*
X0154490Y0123647D01*
X0154667Y0123887D01*
X0154850Y0124122D01*
X0155039Y0124353D01*
X0155233Y0124580D01*
X0155433Y0124802D01*
X0155638Y0125018D01*
X0155848Y0125230D01*
X0156064Y0125436D01*
X0156284Y0125637D01*
X0156509Y0125833D01*
X0156739Y0126023D01*
X0156974Y0126207D01*
X0157213Y0126386D01*
X0157456Y0126558D01*
X0157704Y0126725D01*
X0157955Y0126886D01*
X0158211Y0127040D01*
X0158470Y0127188D01*
X0158732Y0127330D01*
X0158998Y0127465D01*
X0159267Y0127594D01*
X0159539Y0127716D01*
X0159815Y0127831D01*
X0160092Y0127940D01*
X0160373Y0128042D01*
X0160656Y0128137D01*
X0184003Y0108444D02*
X0186550Y0108444D01*
X0184003Y0108444D02*
X0184003Y0098601D01*
X0186050Y0098601D01*
X0192503Y0098601D02*
X0196290Y0098601D01*
X0202503Y0098601D02*
X0206290Y0098601D01*
X0212503Y0098601D02*
X0216290Y0098601D01*
X0222503Y0098601D02*
X0226290Y0098601D01*
X0232503Y0098601D02*
X0236290Y0098601D01*
X0242503Y0098601D02*
X0246290Y0098601D01*
X0252503Y0098601D02*
X0256290Y0098601D01*
X0262243Y0098601D02*
X0264790Y0098601D01*
X0264790Y0108444D01*
X0262743Y0108444D01*
X0256629Y0108444D02*
X0252164Y0108444D01*
X0246629Y0108444D02*
X0242164Y0108444D01*
X0236629Y0108444D02*
X0232164Y0108444D01*
X0226629Y0108444D02*
X0222164Y0108444D01*
X0216629Y0108444D02*
X0212164Y0108444D01*
X0206629Y0108444D02*
X0202164Y0108444D01*
X0196629Y0108444D02*
X0192164Y0108444D01*
X0245499Y0152892D02*
X0251798Y0152892D01*
X0249829Y0151318D02*
X0249831Y0151357D01*
X0249837Y0151396D01*
X0249847Y0151434D01*
X0249860Y0151471D01*
X0249877Y0151506D01*
X0249897Y0151540D01*
X0249921Y0151571D01*
X0249948Y0151600D01*
X0249977Y0151626D01*
X0250009Y0151649D01*
X0250043Y0151669D01*
X0250079Y0151685D01*
X0250116Y0151697D01*
X0250155Y0151706D01*
X0250194Y0151711D01*
X0250233Y0151712D01*
X0250272Y0151709D01*
X0250311Y0151702D01*
X0250348Y0151691D01*
X0250385Y0151677D01*
X0250420Y0151659D01*
X0250453Y0151638D01*
X0250484Y0151613D01*
X0250512Y0151586D01*
X0250537Y0151556D01*
X0250559Y0151523D01*
X0250578Y0151489D01*
X0250593Y0151453D01*
X0250605Y0151415D01*
X0250613Y0151377D01*
X0250617Y0151338D01*
X0250617Y0151298D01*
X0250613Y0151259D01*
X0250605Y0151221D01*
X0250593Y0151183D01*
X0250578Y0151147D01*
X0250559Y0151113D01*
X0250537Y0151080D01*
X0250512Y0151050D01*
X0250484Y0151023D01*
X0250453Y0150998D01*
X0250420Y0150977D01*
X0250385Y0150959D01*
X0250348Y0150945D01*
X0250311Y0150934D01*
X0250272Y0150927D01*
X0250233Y0150924D01*
X0250194Y0150925D01*
X0250155Y0150930D01*
X0250116Y0150939D01*
X0250079Y0150951D01*
X0250043Y0150967D01*
X0250009Y0150987D01*
X0249977Y0151010D01*
X0249948Y0151036D01*
X0249921Y0151065D01*
X0249897Y0151096D01*
X0249877Y0151130D01*
X0249860Y0151165D01*
X0249847Y0151202D01*
X0249837Y0151240D01*
X0249831Y0151279D01*
X0249829Y0151318D01*
X0245499Y0152892D02*
X0245499Y0174152D01*
X0251798Y0174152D01*
X0262034Y0152105D02*
X0262034Y0150136D01*
X0266759Y0150136D01*
X0266759Y0152105D01*
X0276995Y0152892D02*
X0283294Y0152892D01*
X0283294Y0174152D01*
X0276995Y0174152D01*
X0322585Y0186711D02*
X0322585Y0210333D01*
X0346207Y0210333D01*
X0346207Y0186711D01*
X0322585Y0186711D01*
X0327506Y0198522D02*
X0327508Y0198691D01*
X0327514Y0198860D01*
X0327525Y0199029D01*
X0327539Y0199197D01*
X0327558Y0199365D01*
X0327581Y0199533D01*
X0327607Y0199700D01*
X0327638Y0199866D01*
X0327673Y0200032D01*
X0327712Y0200196D01*
X0327756Y0200360D01*
X0327803Y0200522D01*
X0327854Y0200683D01*
X0327909Y0200843D01*
X0327968Y0201002D01*
X0328030Y0201159D01*
X0328097Y0201314D01*
X0328168Y0201468D01*
X0328242Y0201620D01*
X0328320Y0201770D01*
X0328401Y0201918D01*
X0328486Y0202064D01*
X0328575Y0202208D01*
X0328667Y0202350D01*
X0328763Y0202489D01*
X0328862Y0202626D01*
X0328964Y0202761D01*
X0329070Y0202893D01*
X0329179Y0203022D01*
X0329291Y0203149D01*
X0329406Y0203273D01*
X0329524Y0203394D01*
X0329645Y0203512D01*
X0329769Y0203627D01*
X0329896Y0203739D01*
X0330025Y0203848D01*
X0330157Y0203954D01*
X0330292Y0204056D01*
X0330429Y0204155D01*
X0330568Y0204251D01*
X0330710Y0204343D01*
X0330854Y0204432D01*
X0331000Y0204517D01*
X0331148Y0204598D01*
X0331298Y0204676D01*
X0331450Y0204750D01*
X0331604Y0204821D01*
X0331759Y0204888D01*
X0331916Y0204950D01*
X0332075Y0205009D01*
X0332235Y0205064D01*
X0332396Y0205115D01*
X0332558Y0205162D01*
X0332722Y0205206D01*
X0332886Y0205245D01*
X0333052Y0205280D01*
X0333218Y0205311D01*
X0333385Y0205337D01*
X0333553Y0205360D01*
X0333721Y0205379D01*
X0333889Y0205393D01*
X0334058Y0205404D01*
X0334227Y0205410D01*
X0334396Y0205412D01*
X0334565Y0205410D01*
X0334734Y0205404D01*
X0334903Y0205393D01*
X0335071Y0205379D01*
X0335239Y0205360D01*
X0335407Y0205337D01*
X0335574Y0205311D01*
X0335740Y0205280D01*
X0335906Y0205245D01*
X0336070Y0205206D01*
X0336234Y0205162D01*
X0336396Y0205115D01*
X0336557Y0205064D01*
X0336717Y0205009D01*
X0336876Y0204950D01*
X0337033Y0204888D01*
X0337188Y0204821D01*
X0337342Y0204750D01*
X0337494Y0204676D01*
X0337644Y0204598D01*
X0337792Y0204517D01*
X0337938Y0204432D01*
X0338082Y0204343D01*
X0338224Y0204251D01*
X0338363Y0204155D01*
X0338500Y0204056D01*
X0338635Y0203954D01*
X0338767Y0203848D01*
X0338896Y0203739D01*
X0339023Y0203627D01*
X0339147Y0203512D01*
X0339268Y0203394D01*
X0339386Y0203273D01*
X0339501Y0203149D01*
X0339613Y0203022D01*
X0339722Y0202893D01*
X0339828Y0202761D01*
X0339930Y0202626D01*
X0340029Y0202489D01*
X0340125Y0202350D01*
X0340217Y0202208D01*
X0340306Y0202064D01*
X0340391Y0201918D01*
X0340472Y0201770D01*
X0340550Y0201620D01*
X0340624Y0201468D01*
X0340695Y0201314D01*
X0340762Y0201159D01*
X0340824Y0201002D01*
X0340883Y0200843D01*
X0340938Y0200683D01*
X0340989Y0200522D01*
X0341036Y0200360D01*
X0341080Y0200196D01*
X0341119Y0200032D01*
X0341154Y0199866D01*
X0341185Y0199700D01*
X0341211Y0199533D01*
X0341234Y0199365D01*
X0341253Y0199197D01*
X0341267Y0199029D01*
X0341278Y0198860D01*
X0341284Y0198691D01*
X0341286Y0198522D01*
X0341284Y0198353D01*
X0341278Y0198184D01*
X0341267Y0198015D01*
X0341253Y0197847D01*
X0341234Y0197679D01*
X0341211Y0197511D01*
X0341185Y0197344D01*
X0341154Y0197178D01*
X0341119Y0197012D01*
X0341080Y0196848D01*
X0341036Y0196684D01*
X0340989Y0196522D01*
X0340938Y0196361D01*
X0340883Y0196201D01*
X0340824Y0196042D01*
X0340762Y0195885D01*
X0340695Y0195730D01*
X0340624Y0195576D01*
X0340550Y0195424D01*
X0340472Y0195274D01*
X0340391Y0195126D01*
X0340306Y0194980D01*
X0340217Y0194836D01*
X0340125Y0194694D01*
X0340029Y0194555D01*
X0339930Y0194418D01*
X0339828Y0194283D01*
X0339722Y0194151D01*
X0339613Y0194022D01*
X0339501Y0193895D01*
X0339386Y0193771D01*
X0339268Y0193650D01*
X0339147Y0193532D01*
X0339023Y0193417D01*
X0338896Y0193305D01*
X0338767Y0193196D01*
X0338635Y0193090D01*
X0338500Y0192988D01*
X0338363Y0192889D01*
X0338224Y0192793D01*
X0338082Y0192701D01*
X0337938Y0192612D01*
X0337792Y0192527D01*
X0337644Y0192446D01*
X0337494Y0192368D01*
X0337342Y0192294D01*
X0337188Y0192223D01*
X0337033Y0192156D01*
X0336876Y0192094D01*
X0336717Y0192035D01*
X0336557Y0191980D01*
X0336396Y0191929D01*
X0336234Y0191882D01*
X0336070Y0191838D01*
X0335906Y0191799D01*
X0335740Y0191764D01*
X0335574Y0191733D01*
X0335407Y0191707D01*
X0335239Y0191684D01*
X0335071Y0191665D01*
X0334903Y0191651D01*
X0334734Y0191640D01*
X0334565Y0191634D01*
X0334396Y0191632D01*
X0334227Y0191634D01*
X0334058Y0191640D01*
X0333889Y0191651D01*
X0333721Y0191665D01*
X0333553Y0191684D01*
X0333385Y0191707D01*
X0333218Y0191733D01*
X0333052Y0191764D01*
X0332886Y0191799D01*
X0332722Y0191838D01*
X0332558Y0191882D01*
X0332396Y0191929D01*
X0332235Y0191980D01*
X0332075Y0192035D01*
X0331916Y0192094D01*
X0331759Y0192156D01*
X0331604Y0192223D01*
X0331450Y0192294D01*
X0331298Y0192368D01*
X0331148Y0192446D01*
X0331000Y0192527D01*
X0330854Y0192612D01*
X0330710Y0192701D01*
X0330568Y0192793D01*
X0330429Y0192889D01*
X0330292Y0192988D01*
X0330157Y0193090D01*
X0330025Y0193196D01*
X0329896Y0193305D01*
X0329769Y0193417D01*
X0329645Y0193532D01*
X0329524Y0193650D01*
X0329406Y0193771D01*
X0329291Y0193895D01*
X0329179Y0194022D01*
X0329070Y0194151D01*
X0328964Y0194283D01*
X0328862Y0194418D01*
X0328763Y0194555D01*
X0328667Y0194694D01*
X0328575Y0194836D01*
X0328486Y0194980D01*
X0328401Y0195126D01*
X0328320Y0195274D01*
X0328242Y0195424D01*
X0328168Y0195576D01*
X0328097Y0195730D01*
X0328030Y0195885D01*
X0327968Y0196042D01*
X0327909Y0196201D01*
X0327854Y0196361D01*
X0327803Y0196522D01*
X0327756Y0196684D01*
X0327712Y0196848D01*
X0327673Y0197012D01*
X0327638Y0197178D01*
X0327607Y0197344D01*
X0327581Y0197511D01*
X0327558Y0197679D01*
X0327539Y0197847D01*
X0327525Y0198015D01*
X0327514Y0198184D01*
X0327508Y0198353D01*
X0327506Y0198522D01*
X0330774Y0170333D02*
X0337270Y0170333D01*
X0330774Y0170333D02*
X0330774Y0167381D01*
X0347507Y0164428D02*
X0347507Y0152617D01*
X0337270Y0146711D02*
X0330774Y0146711D01*
X0330774Y0149664D01*
X0327815Y0148680D02*
X0327817Y0148720D01*
X0327823Y0148759D01*
X0327833Y0148798D01*
X0327846Y0148835D01*
X0327864Y0148871D01*
X0327885Y0148905D01*
X0327909Y0148937D01*
X0327936Y0148966D01*
X0327966Y0148993D01*
X0327998Y0149016D01*
X0328033Y0149036D01*
X0328069Y0149052D01*
X0328107Y0149065D01*
X0328146Y0149074D01*
X0328185Y0149079D01*
X0328225Y0149080D01*
X0328265Y0149077D01*
X0328304Y0149070D01*
X0328342Y0149059D01*
X0328380Y0149045D01*
X0328415Y0149026D01*
X0328448Y0149005D01*
X0328480Y0148980D01*
X0328508Y0148952D01*
X0328534Y0148922D01*
X0328556Y0148889D01*
X0328575Y0148854D01*
X0328591Y0148817D01*
X0328603Y0148779D01*
X0328611Y0148740D01*
X0328615Y0148700D01*
X0328615Y0148660D01*
X0328611Y0148620D01*
X0328603Y0148581D01*
X0328591Y0148543D01*
X0328575Y0148506D01*
X0328556Y0148471D01*
X0328534Y0148438D01*
X0328508Y0148408D01*
X0328480Y0148380D01*
X0328448Y0148355D01*
X0328415Y0148334D01*
X0328380Y0148315D01*
X0328342Y0148301D01*
X0328304Y0148290D01*
X0328265Y0148283D01*
X0328225Y0148280D01*
X0328185Y0148281D01*
X0328146Y0148286D01*
X0328107Y0148295D01*
X0328069Y0148308D01*
X0328033Y0148324D01*
X0327998Y0148344D01*
X0327966Y0148367D01*
X0327936Y0148394D01*
X0327909Y0148423D01*
X0327885Y0148455D01*
X0327864Y0148489D01*
X0327846Y0148525D01*
X0327833Y0148562D01*
X0327823Y0148601D01*
X0327817Y0148640D01*
X0327815Y0148680D01*
X0326290Y0108444D02*
X0322503Y0108444D01*
X0316290Y0108444D02*
X0312503Y0108444D01*
X0306290Y0108444D02*
X0302503Y0108444D01*
X0296290Y0108444D02*
X0292503Y0108444D01*
X0286290Y0108444D02*
X0282503Y0108444D01*
X0276522Y0108444D02*
X0274003Y0108444D01*
X0274003Y0098601D01*
X0276522Y0098601D01*
X0282503Y0098444D02*
X0286290Y0098444D01*
X0292503Y0098444D02*
X0296290Y0098444D01*
X0302503Y0098444D02*
X0306290Y0098444D01*
X0312503Y0098444D02*
X0316290Y0098444D01*
X0322503Y0098444D02*
X0326290Y0098444D01*
X0332152Y0098601D02*
X0334790Y0098601D01*
X0334790Y0108444D01*
X0332152Y0108444D01*
X0240289Y0209954D02*
X0243908Y0213573D01*
X0247585Y0216711D02*
X0249062Y0216711D01*
X0247585Y0216711D02*
X0247585Y0218188D01*
X0233469Y0224013D02*
X0229850Y0220393D01*
X0247585Y0238759D02*
X0249160Y0240333D01*
X0240096Y0247360D02*
X0240096Y0259685D01*
X0240097Y0259685D02*
X0240095Y0259761D01*
X0240089Y0259836D01*
X0240080Y0259912D01*
X0240066Y0259987D01*
X0240049Y0260061D01*
X0240028Y0260134D01*
X0240004Y0260206D01*
X0239976Y0260276D01*
X0239944Y0260345D01*
X0239909Y0260413D01*
X0239870Y0260478D01*
X0239828Y0260542D01*
X0239783Y0260603D01*
X0239735Y0260662D01*
X0239684Y0260718D01*
X0239630Y0260772D01*
X0239574Y0260823D01*
X0239515Y0260871D01*
X0239454Y0260916D01*
X0239390Y0260958D01*
X0239325Y0260997D01*
X0239257Y0261032D01*
X0239188Y0261064D01*
X0239118Y0261092D01*
X0239046Y0261116D01*
X0238973Y0261137D01*
X0238899Y0261154D01*
X0238824Y0261168D01*
X0238748Y0261177D01*
X0238673Y0261183D01*
X0238597Y0261185D01*
X0238596Y0261185D02*
X0220196Y0261185D01*
X0220197Y0261185D02*
X0220116Y0261173D01*
X0220036Y0261158D01*
X0219957Y0261139D01*
X0219879Y0261117D01*
X0219802Y0261090D01*
X0219726Y0261061D01*
X0219652Y0261027D01*
X0219580Y0260990D01*
X0219509Y0260950D01*
X0219441Y0260906D01*
X0219374Y0260859D01*
X0219310Y0260809D01*
X0219249Y0260756D01*
X0219190Y0260700D01*
X0219133Y0260641D01*
X0219080Y0260580D01*
X0219029Y0260516D01*
X0218982Y0260450D01*
X0218938Y0260382D01*
X0218897Y0260312D01*
X0218859Y0260240D01*
X0218825Y0260166D01*
X0218795Y0260090D01*
X0218768Y0260014D01*
X0218745Y0259936D01*
X0218725Y0259857D01*
X0218710Y0259777D01*
X0218698Y0259696D01*
X0218690Y0259616D01*
X0218686Y0259534D01*
X0218685Y0259453D01*
X0218689Y0259372D01*
X0218696Y0259291D01*
X0218696Y0259241D02*
X0218696Y0255922D01*
X0218896Y0255922D02*
X0218994Y0255920D01*
X0219092Y0255914D01*
X0219190Y0255905D01*
X0219287Y0255891D01*
X0219384Y0255874D01*
X0219480Y0255853D01*
X0219575Y0255828D01*
X0219669Y0255800D01*
X0219761Y0255767D01*
X0219853Y0255732D01*
X0219943Y0255692D01*
X0220031Y0255650D01*
X0220118Y0255603D01*
X0220202Y0255554D01*
X0220285Y0255501D01*
X0220365Y0255445D01*
X0220444Y0255385D01*
X0220520Y0255323D01*
X0220593Y0255258D01*
X0220664Y0255190D01*
X0220732Y0255119D01*
X0220797Y0255046D01*
X0220859Y0254970D01*
X0220919Y0254891D01*
X0220975Y0254811D01*
X0221028Y0254728D01*
X0221077Y0254644D01*
X0221124Y0254557D01*
X0221166Y0254469D01*
X0221206Y0254379D01*
X0221241Y0254287D01*
X0221274Y0254195D01*
X0221302Y0254101D01*
X0221327Y0254006D01*
X0221348Y0253910D01*
X0221365Y0253813D01*
X0221379Y0253716D01*
X0221388Y0253618D01*
X0221394Y0253520D01*
X0221396Y0253422D01*
X0221394Y0253324D01*
X0221388Y0253226D01*
X0221379Y0253128D01*
X0221365Y0253031D01*
X0221348Y0252934D01*
X0221327Y0252838D01*
X0221302Y0252743D01*
X0221274Y0252649D01*
X0221241Y0252557D01*
X0221206Y0252465D01*
X0221166Y0252375D01*
X0221124Y0252287D01*
X0221077Y0252200D01*
X0221028Y0252116D01*
X0220975Y0252033D01*
X0220919Y0251953D01*
X0220859Y0251874D01*
X0220797Y0251798D01*
X0220732Y0251725D01*
X0220664Y0251654D01*
X0220593Y0251586D01*
X0220520Y0251521D01*
X0220444Y0251459D01*
X0220365Y0251399D01*
X0220285Y0251343D01*
X0220202Y0251290D01*
X0220118Y0251241D01*
X0220031Y0251194D01*
X0219943Y0251152D01*
X0219853Y0251112D01*
X0219761Y0251077D01*
X0219669Y0251044D01*
X0219575Y0251016D01*
X0219480Y0250991D01*
X0219384Y0250970D01*
X0219287Y0250953D01*
X0219190Y0250939D01*
X0219092Y0250930D01*
X0218994Y0250924D01*
X0218896Y0250922D01*
X0218696Y0250922D02*
X0218696Y0246966D01*
X0218697Y0246966D02*
X0218709Y0246896D01*
X0218726Y0246826D01*
X0218746Y0246758D01*
X0218769Y0246690D01*
X0218797Y0246624D01*
X0218828Y0246560D01*
X0218862Y0246498D01*
X0218900Y0246437D01*
X0218940Y0246378D01*
X0218984Y0246322D01*
X0219031Y0246269D01*
X0219081Y0246217D01*
X0219134Y0246169D01*
X0219189Y0246124D01*
X0219246Y0246081D01*
X0219306Y0246042D01*
X0219368Y0246006D01*
X0219431Y0245974D01*
X0219496Y0245945D01*
X0219563Y0245919D01*
X0219631Y0245897D01*
X0219700Y0245879D01*
X0219770Y0245865D01*
X0219841Y0245855D01*
X0219912Y0245848D01*
X0219983Y0245845D01*
X0220054Y0245846D01*
X0220126Y0245851D01*
X0220196Y0245860D01*
X0238990Y0245860D01*
X0239060Y0245872D01*
X0239130Y0245889D01*
X0239198Y0245909D01*
X0239265Y0245933D01*
X0239331Y0245960D01*
X0239396Y0245991D01*
X0239458Y0246025D01*
X0239519Y0246063D01*
X0239577Y0246104D01*
X0239634Y0246148D01*
X0239687Y0246195D01*
X0239738Y0246245D01*
X0239787Y0246297D01*
X0239832Y0246352D01*
X0239875Y0246410D01*
X0239914Y0246469D01*
X0239950Y0246531D01*
X0239982Y0246595D01*
X0240011Y0246660D01*
X0240037Y0246726D01*
X0240058Y0246794D01*
X0240077Y0246864D01*
X0240091Y0246933D01*
X0240101Y0247004D01*
X0240108Y0247075D01*
X0240111Y0247146D01*
X0240110Y0247218D01*
X0240105Y0247289D01*
X0240096Y0247360D01*
X0269731Y0240333D02*
X0271207Y0240333D01*
X0271207Y0238857D01*
X0271207Y0218188D02*
X0271207Y0216711D01*
X0269731Y0216711D01*
X0203845Y0223835D02*
X0203845Y0229209D01*
X0196945Y0238835D02*
X0196945Y0244209D01*
X0170735Y0247853D02*
X0133333Y0247853D01*
X0132546Y0247066D01*
X0129790Y0244310D01*
X0129790Y0206908D01*
X0170735Y0206908D01*
X0170735Y0247853D01*
X0129593Y0247656D02*
X0129595Y0247695D01*
X0129601Y0247734D01*
X0129611Y0247772D01*
X0129624Y0247809D01*
X0129641Y0247844D01*
X0129661Y0247878D01*
X0129685Y0247909D01*
X0129712Y0247938D01*
X0129741Y0247964D01*
X0129773Y0247987D01*
X0129807Y0248007D01*
X0129843Y0248023D01*
X0129880Y0248035D01*
X0129919Y0248044D01*
X0129958Y0248049D01*
X0129997Y0248050D01*
X0130036Y0248047D01*
X0130075Y0248040D01*
X0130112Y0248029D01*
X0130149Y0248015D01*
X0130184Y0247997D01*
X0130217Y0247976D01*
X0130248Y0247951D01*
X0130276Y0247924D01*
X0130301Y0247894D01*
X0130323Y0247861D01*
X0130342Y0247827D01*
X0130357Y0247791D01*
X0130369Y0247753D01*
X0130377Y0247715D01*
X0130381Y0247676D01*
X0130381Y0247636D01*
X0130377Y0247597D01*
X0130369Y0247559D01*
X0130357Y0247521D01*
X0130342Y0247485D01*
X0130323Y0247451D01*
X0130301Y0247418D01*
X0130276Y0247388D01*
X0130248Y0247361D01*
X0130217Y0247336D01*
X0130184Y0247315D01*
X0130149Y0247297D01*
X0130112Y0247283D01*
X0130075Y0247272D01*
X0130036Y0247265D01*
X0129997Y0247262D01*
X0129958Y0247263D01*
X0129919Y0247268D01*
X0129880Y0247277D01*
X0129843Y0247289D01*
X0129807Y0247305D01*
X0129773Y0247325D01*
X0129741Y0247348D01*
X0129712Y0247374D01*
X0129685Y0247403D01*
X0129661Y0247434D01*
X0129641Y0247468D01*
X0129624Y0247503D01*
X0129611Y0247540D01*
X0129601Y0247578D01*
X0129595Y0247617D01*
X0129593Y0247656D01*
X0111207Y0276711D02*
X0111207Y0300333D01*
X0087585Y0300333D01*
X0087585Y0276711D01*
X0111207Y0276711D01*
X0092506Y0288522D02*
X0092508Y0288691D01*
X0092514Y0288860D01*
X0092525Y0289029D01*
X0092539Y0289197D01*
X0092558Y0289365D01*
X0092581Y0289533D01*
X0092607Y0289700D01*
X0092638Y0289866D01*
X0092673Y0290032D01*
X0092712Y0290196D01*
X0092756Y0290360D01*
X0092803Y0290522D01*
X0092854Y0290683D01*
X0092909Y0290843D01*
X0092968Y0291002D01*
X0093030Y0291159D01*
X0093097Y0291314D01*
X0093168Y0291468D01*
X0093242Y0291620D01*
X0093320Y0291770D01*
X0093401Y0291918D01*
X0093486Y0292064D01*
X0093575Y0292208D01*
X0093667Y0292350D01*
X0093763Y0292489D01*
X0093862Y0292626D01*
X0093964Y0292761D01*
X0094070Y0292893D01*
X0094179Y0293022D01*
X0094291Y0293149D01*
X0094406Y0293273D01*
X0094524Y0293394D01*
X0094645Y0293512D01*
X0094769Y0293627D01*
X0094896Y0293739D01*
X0095025Y0293848D01*
X0095157Y0293954D01*
X0095292Y0294056D01*
X0095429Y0294155D01*
X0095568Y0294251D01*
X0095710Y0294343D01*
X0095854Y0294432D01*
X0096000Y0294517D01*
X0096148Y0294598D01*
X0096298Y0294676D01*
X0096450Y0294750D01*
X0096604Y0294821D01*
X0096759Y0294888D01*
X0096916Y0294950D01*
X0097075Y0295009D01*
X0097235Y0295064D01*
X0097396Y0295115D01*
X0097558Y0295162D01*
X0097722Y0295206D01*
X0097886Y0295245D01*
X0098052Y0295280D01*
X0098218Y0295311D01*
X0098385Y0295337D01*
X0098553Y0295360D01*
X0098721Y0295379D01*
X0098889Y0295393D01*
X0099058Y0295404D01*
X0099227Y0295410D01*
X0099396Y0295412D01*
X0099565Y0295410D01*
X0099734Y0295404D01*
X0099903Y0295393D01*
X0100071Y0295379D01*
X0100239Y0295360D01*
X0100407Y0295337D01*
X0100574Y0295311D01*
X0100740Y0295280D01*
X0100906Y0295245D01*
X0101070Y0295206D01*
X0101234Y0295162D01*
X0101396Y0295115D01*
X0101557Y0295064D01*
X0101717Y0295009D01*
X0101876Y0294950D01*
X0102033Y0294888D01*
X0102188Y0294821D01*
X0102342Y0294750D01*
X0102494Y0294676D01*
X0102644Y0294598D01*
X0102792Y0294517D01*
X0102938Y0294432D01*
X0103082Y0294343D01*
X0103224Y0294251D01*
X0103363Y0294155D01*
X0103500Y0294056D01*
X0103635Y0293954D01*
X0103767Y0293848D01*
X0103896Y0293739D01*
X0104023Y0293627D01*
X0104147Y0293512D01*
X0104268Y0293394D01*
X0104386Y0293273D01*
X0104501Y0293149D01*
X0104613Y0293022D01*
X0104722Y0292893D01*
X0104828Y0292761D01*
X0104930Y0292626D01*
X0105029Y0292489D01*
X0105125Y0292350D01*
X0105217Y0292208D01*
X0105306Y0292064D01*
X0105391Y0291918D01*
X0105472Y0291770D01*
X0105550Y0291620D01*
X0105624Y0291468D01*
X0105695Y0291314D01*
X0105762Y0291159D01*
X0105824Y0291002D01*
X0105883Y0290843D01*
X0105938Y0290683D01*
X0105989Y0290522D01*
X0106036Y0290360D01*
X0106080Y0290196D01*
X0106119Y0290032D01*
X0106154Y0289866D01*
X0106185Y0289700D01*
X0106211Y0289533D01*
X0106234Y0289365D01*
X0106253Y0289197D01*
X0106267Y0289029D01*
X0106278Y0288860D01*
X0106284Y0288691D01*
X0106286Y0288522D01*
X0106284Y0288353D01*
X0106278Y0288184D01*
X0106267Y0288015D01*
X0106253Y0287847D01*
X0106234Y0287679D01*
X0106211Y0287511D01*
X0106185Y0287344D01*
X0106154Y0287178D01*
X0106119Y0287012D01*
X0106080Y0286848D01*
X0106036Y0286684D01*
X0105989Y0286522D01*
X0105938Y0286361D01*
X0105883Y0286201D01*
X0105824Y0286042D01*
X0105762Y0285885D01*
X0105695Y0285730D01*
X0105624Y0285576D01*
X0105550Y0285424D01*
X0105472Y0285274D01*
X0105391Y0285126D01*
X0105306Y0284980D01*
X0105217Y0284836D01*
X0105125Y0284694D01*
X0105029Y0284555D01*
X0104930Y0284418D01*
X0104828Y0284283D01*
X0104722Y0284151D01*
X0104613Y0284022D01*
X0104501Y0283895D01*
X0104386Y0283771D01*
X0104268Y0283650D01*
X0104147Y0283532D01*
X0104023Y0283417D01*
X0103896Y0283305D01*
X0103767Y0283196D01*
X0103635Y0283090D01*
X0103500Y0282988D01*
X0103363Y0282889D01*
X0103224Y0282793D01*
X0103082Y0282701D01*
X0102938Y0282612D01*
X0102792Y0282527D01*
X0102644Y0282446D01*
X0102494Y0282368D01*
X0102342Y0282294D01*
X0102188Y0282223D01*
X0102033Y0282156D01*
X0101876Y0282094D01*
X0101717Y0282035D01*
X0101557Y0281980D01*
X0101396Y0281929D01*
X0101234Y0281882D01*
X0101070Y0281838D01*
X0100906Y0281799D01*
X0100740Y0281764D01*
X0100574Y0281733D01*
X0100407Y0281707D01*
X0100239Y0281684D01*
X0100071Y0281665D01*
X0099903Y0281651D01*
X0099734Y0281640D01*
X0099565Y0281634D01*
X0099396Y0281632D01*
X0099227Y0281634D01*
X0099058Y0281640D01*
X0098889Y0281651D01*
X0098721Y0281665D01*
X0098553Y0281684D01*
X0098385Y0281707D01*
X0098218Y0281733D01*
X0098052Y0281764D01*
X0097886Y0281799D01*
X0097722Y0281838D01*
X0097558Y0281882D01*
X0097396Y0281929D01*
X0097235Y0281980D01*
X0097075Y0282035D01*
X0096916Y0282094D01*
X0096759Y0282156D01*
X0096604Y0282223D01*
X0096450Y0282294D01*
X0096298Y0282368D01*
X0096148Y0282446D01*
X0096000Y0282527D01*
X0095854Y0282612D01*
X0095710Y0282701D01*
X0095568Y0282793D01*
X0095429Y0282889D01*
X0095292Y0282988D01*
X0095157Y0283090D01*
X0095025Y0283196D01*
X0094896Y0283305D01*
X0094769Y0283417D01*
X0094645Y0283532D01*
X0094524Y0283650D01*
X0094406Y0283771D01*
X0094291Y0283895D01*
X0094179Y0284022D01*
X0094070Y0284151D01*
X0093964Y0284283D01*
X0093862Y0284418D01*
X0093763Y0284555D01*
X0093667Y0284694D01*
X0093575Y0284836D01*
X0093486Y0284980D01*
X0093401Y0285126D01*
X0093320Y0285274D01*
X0093242Y0285424D01*
X0093168Y0285576D01*
X0093097Y0285730D01*
X0093030Y0285885D01*
X0092968Y0286042D01*
X0092909Y0286201D01*
X0092854Y0286361D01*
X0092803Y0286522D01*
X0092756Y0286684D01*
X0092712Y0286848D01*
X0092673Y0287012D01*
X0092638Y0287178D01*
X0092607Y0287344D01*
X0092581Y0287511D01*
X0092558Y0287679D01*
X0092539Y0287847D01*
X0092525Y0288015D01*
X0092514Y0288184D01*
X0092508Y0288353D01*
X0092506Y0288522D01*
X0095735Y0265530D02*
X0088648Y0265530D01*
X0088648Y0231514D02*
X0095735Y0231514D01*
X0104003Y0205034D02*
X0107152Y0205034D01*
X0107152Y0202672D01*
X0114396Y0206522D02*
X0120396Y0206522D01*
X0107152Y0196373D02*
X0107152Y0194010D01*
X0104003Y0194010D01*
X0102896Y0191422D02*
X0102896Y0165622D01*
X0115896Y0165622D01*
X0115896Y0191422D01*
X0102896Y0191422D01*
X0134396Y0191276D02*
X0134396Y0187895D01*
X0138340Y0192376D02*
X0140453Y0192376D01*
X0144396Y0191276D02*
X0144396Y0187895D01*
X0184948Y0192835D02*
X0184948Y0198209D01*
X0196945Y0208835D02*
X0196945Y0214209D01*
X0103538Y0145239D02*
X0095270Y0145239D01*
X0087396Y0137365D02*
X0073617Y0137365D01*
X0073617Y0117680D01*
X0087396Y0117679D02*
X0087624Y0117692D01*
X0087851Y0117711D01*
X0088078Y0117735D01*
X0088304Y0117764D01*
X0088529Y0117799D01*
X0088753Y0117839D01*
X0088976Y0117885D01*
X0089199Y0117936D01*
X0089419Y0117992D01*
X0089639Y0118054D01*
X0089857Y0118121D01*
X0090073Y0118193D01*
X0090287Y0118271D01*
X0090499Y0118353D01*
X0090710Y0118441D01*
X0090918Y0118534D01*
X0091124Y0118632D01*
X0091327Y0118734D01*
X0091528Y0118842D01*
X0091726Y0118954D01*
X0091922Y0119072D01*
X0092114Y0119193D01*
X0092304Y0119320D01*
X0092491Y0119451D01*
X0092674Y0119586D01*
X0092854Y0119726D01*
X0093030Y0119871D01*
X0093203Y0120019D01*
X0093372Y0120172D01*
X0093538Y0120328D01*
X0093700Y0120489D01*
X0093858Y0120653D01*
X0094011Y0120821D01*
X0094161Y0120993D01*
X0094307Y0121169D01*
X0094448Y0121348D01*
X0094585Y0121530D01*
X0094717Y0121715D01*
X0094845Y0121904D01*
X0094968Y0122096D01*
X0095087Y0122290D01*
X0095201Y0122488D01*
X0095310Y0122688D01*
X0095414Y0122890D01*
X0095513Y0123096D01*
X0095607Y0123303D01*
X0095697Y0123513D01*
X0095781Y0123725D01*
X0095860Y0123938D01*
X0095934Y0124154D01*
X0096002Y0124371D01*
X0096066Y0124590D01*
X0096124Y0124811D01*
X0096176Y0125032D01*
X0096224Y0125255D01*
X0096266Y0125479D01*
X0096302Y0125704D01*
X0096333Y0125930D01*
X0096359Y0126157D01*
X0096379Y0126384D01*
X0096393Y0126611D01*
X0096402Y0126839D01*
X0096406Y0127067D01*
X0096404Y0127294D01*
X0096397Y0127522D01*
X0096397Y0127523D02*
X0096404Y0127751D01*
X0096406Y0127978D01*
X0096402Y0128206D01*
X0096393Y0128434D01*
X0096379Y0128661D01*
X0096359Y0128888D01*
X0096333Y0129115D01*
X0096302Y0129341D01*
X0096266Y0129566D01*
X0096224Y0129790D01*
X0096176Y0130013D01*
X0096124Y0130234D01*
X0096066Y0130455D01*
X0096002Y0130674D01*
X0095934Y0130891D01*
X0095860Y0131107D01*
X0095781Y0131320D01*
X0095697Y0131532D01*
X0095607Y0131742D01*
X0095513Y0131949D01*
X0095414Y0132155D01*
X0095310Y0132357D01*
X0095201Y0132557D01*
X0095087Y0132755D01*
X0094968Y0132949D01*
X0094845Y0133141D01*
X0094717Y0133330D01*
X0094585Y0133515D01*
X0094448Y0133697D01*
X0094307Y0133876D01*
X0094161Y0134052D01*
X0094011Y0134224D01*
X0093858Y0134392D01*
X0093700Y0134556D01*
X0093538Y0134717D01*
X0093372Y0134873D01*
X0093203Y0135026D01*
X0093030Y0135174D01*
X0092854Y0135319D01*
X0092674Y0135459D01*
X0092491Y0135594D01*
X0092304Y0135725D01*
X0092114Y0135852D01*
X0091922Y0135973D01*
X0091726Y0136091D01*
X0091528Y0136203D01*
X0091327Y0136311D01*
X0091124Y0136413D01*
X0090918Y0136511D01*
X0090710Y0136604D01*
X0090499Y0136692D01*
X0090287Y0136774D01*
X0090073Y0136852D01*
X0089857Y0136924D01*
X0089639Y0136991D01*
X0089419Y0137053D01*
X0089199Y0137109D01*
X0088976Y0137160D01*
X0088753Y0137206D01*
X0088529Y0137246D01*
X0088304Y0137281D01*
X0088078Y0137310D01*
X0087851Y0137334D01*
X0087624Y0137353D01*
X0087396Y0137366D01*
X0079522Y0145239D02*
X0073617Y0145239D01*
X0073617Y0137365D01*
X0148003Y0288601D02*
X0150050Y0288601D01*
X0148003Y0288601D02*
X0148003Y0298444D01*
X0150550Y0298444D01*
X0156503Y0298444D02*
X0160290Y0298444D01*
X0166503Y0298444D02*
X0170290Y0298444D01*
X0176503Y0298444D02*
X0180290Y0298444D01*
X0186503Y0298444D02*
X0190290Y0298444D01*
X0196503Y0298444D02*
X0200290Y0298444D01*
X0206503Y0298444D02*
X0210290Y0298444D01*
X0216503Y0298444D02*
X0220290Y0298444D01*
X0226503Y0298444D02*
X0230290Y0298444D01*
X0236503Y0298444D02*
X0240290Y0298444D01*
X0246743Y0298444D02*
X0248790Y0298444D01*
X0248790Y0288601D01*
X0246243Y0288601D01*
X0240629Y0288601D02*
X0236164Y0288601D01*
X0230629Y0288601D02*
X0226164Y0288601D01*
X0220629Y0288601D02*
X0216164Y0288601D01*
X0210629Y0288601D02*
X0206164Y0288601D01*
X0200629Y0288601D02*
X0196164Y0288601D01*
X0190629Y0288601D02*
X0186164Y0288601D01*
X0180629Y0288601D02*
X0176164Y0288601D01*
X0170629Y0288601D02*
X0166164Y0288601D01*
X0160629Y0288601D02*
X0156164Y0288601D01*
X0254003Y0288601D02*
X0256050Y0288601D01*
X0254003Y0288601D02*
X0254003Y0298444D01*
X0256550Y0298444D01*
X0262164Y0298444D02*
X0266629Y0298444D01*
X0272164Y0298444D02*
X0276629Y0298444D01*
X0282164Y0298444D02*
X0286629Y0298444D01*
X0292164Y0298444D02*
X0296629Y0298444D01*
X0302164Y0298444D02*
X0306629Y0298444D01*
X0312164Y0298444D02*
X0316629Y0298444D01*
X0322164Y0298444D02*
X0326629Y0298444D01*
X0332743Y0298444D02*
X0334790Y0298444D01*
X0334790Y0288601D01*
X0332243Y0288601D01*
X0326290Y0288601D02*
X0322503Y0288601D01*
X0316290Y0288601D02*
X0312503Y0288601D01*
X0306290Y0288601D02*
X0302503Y0288601D01*
X0296290Y0288601D02*
X0292503Y0288601D01*
X0286290Y0288601D02*
X0282503Y0288601D01*
X0276290Y0288601D02*
X0272503Y0288601D01*
X0266290Y0288601D02*
X0262503Y0288601D01*
D11*
X0247596Y0240322D03*
X0155396Y0165885D03*
X0133096Y0185585D03*
D12*
X0317747Y0158467D03*
X0324046Y0158467D03*
X0321601Y0275550D03*
X0317192Y0275550D03*
D13*
X0316247Y0275077D03*
X0322546Y0275077D03*
X0323888Y0158467D03*
X0317904Y0158467D03*
X0191916Y0122282D03*
D14*
X0206562Y0122440D03*
X0212231Y0122440D03*
X0318062Y0158467D03*
X0323731Y0158467D03*
X0165759Y0265180D03*
D15*
X0318219Y0158467D03*
X0323573Y0158467D03*
X0188136Y0122912D03*
D16*
X0318377Y0158467D03*
X0323416Y0158467D03*
D17*
X0323259Y0158467D03*
X0318534Y0158467D03*
X0207822Y0123070D03*
D18*
X0306247Y0119239D03*
X0312546Y0119239D03*
X0316247Y0119396D03*
X0322546Y0119396D03*
X0326247Y0119239D03*
X0332546Y0119239D03*
X0318692Y0154609D03*
X0226546Y0277684D03*
X0220247Y0277684D03*
D19*
X0221664Y0278786D03*
X0225129Y0278786D03*
X0232609Y0280341D03*
X0244026Y0280062D03*
X0249507Y0281570D03*
X0252184Y0279837D03*
X0253286Y0281570D03*
X0249507Y0278105D03*
X0249507Y0276688D03*
X0249664Y0276688D03*
X0249664Y0274483D03*
X0249507Y0272278D03*
X0250766Y0271176D03*
X0250924Y0271176D03*
X0250924Y0268971D03*
X0251081Y0268971D03*
X0251239Y0268971D03*
X0250766Y0268971D03*
X0250609Y0268971D03*
X0250451Y0268971D03*
X0252499Y0268971D03*
X0252656Y0268971D03*
X0252814Y0268971D03*
X0252971Y0268971D03*
X0253129Y0268971D03*
X0253286Y0268971D03*
X0252499Y0266766D03*
X0253129Y0273381D03*
X0253286Y0273381D03*
X0253286Y0275585D03*
X0253129Y0275585D03*
X0279869Y0278766D03*
X0298609Y0279999D03*
X0300341Y0277951D03*
X0308609Y0280219D03*
X0308924Y0280219D03*
X0309081Y0280219D03*
X0309239Y0280062D03*
X0317664Y0278306D03*
X0318766Y0277518D03*
X0320026Y0277518D03*
X0320656Y0275786D03*
X0318451Y0279881D03*
X0327664Y0275794D03*
X0328766Y0276424D03*
X0330341Y0276266D03*
X0330656Y0278156D03*
X0330184Y0280046D03*
X0328609Y0280046D03*
X0328451Y0274219D03*
X0330499Y0274219D03*
X0317841Y0204475D03*
X0317684Y0204475D03*
X0317526Y0204475D03*
X0316266Y0204475D03*
X0316109Y0204475D03*
X0315951Y0204475D03*
X0318786Y0203058D03*
X0318786Y0200853D03*
X0318629Y0200853D03*
X0318471Y0200853D03*
X0318314Y0200853D03*
X0318156Y0200853D03*
X0317999Y0200853D03*
X0317841Y0200853D03*
X0317684Y0200853D03*
X0316266Y0200853D03*
X0316109Y0200853D03*
X0315951Y0200853D03*
X0315794Y0200853D03*
X0315636Y0200853D03*
X0315479Y0200853D03*
X0315322Y0200853D03*
X0315164Y0200853D03*
X0315007Y0200853D03*
X0315164Y0198018D03*
X0315164Y0195184D03*
X0315007Y0195184D03*
X0315164Y0192979D03*
X0318629Y0194081D03*
X0318786Y0194081D03*
X0318786Y0191877D03*
X0318786Y0196444D03*
X0321211Y0164688D03*
X0320424Y0163113D03*
X0322629Y0163113D03*
X0322156Y0159806D03*
X0321999Y0159806D03*
X0318692Y0161538D03*
X0321684Y0155711D03*
X0321999Y0155711D03*
X0322629Y0156026D03*
X0322944Y0154451D03*
X0320026Y0122703D03*
X0321286Y0121286D03*
X0329554Y0121286D03*
X0311286Y0121286D03*
X0311129Y0121286D03*
X0310971Y0121286D03*
X0310814Y0121286D03*
X0310656Y0121286D03*
X0310499Y0121286D03*
X0301286Y0117507D03*
X0300341Y0118924D03*
X0300184Y0118924D03*
X0298294Y0117507D03*
X0298136Y0117507D03*
X0281286Y0115274D03*
X0281129Y0115274D03*
X0280971Y0115274D03*
X0280814Y0115274D03*
X0280656Y0115274D03*
X0280499Y0115274D03*
X0280341Y0115274D03*
X0280184Y0115274D03*
X0280026Y0115274D03*
X0279869Y0115274D03*
X0279711Y0115274D03*
X0279554Y0115274D03*
X0279396Y0115274D03*
X0277507Y0115274D03*
X0277507Y0117951D03*
X0280499Y0121731D03*
X0260341Y0122703D03*
X0258609Y0123491D03*
X0258924Y0119396D03*
X0259081Y0119396D03*
X0259081Y0117349D03*
X0259239Y0117349D03*
X0251286Y0118924D03*
X0250499Y0120814D03*
X0248609Y0121444D03*
X0248451Y0121444D03*
X0248451Y0124908D03*
X0249239Y0116562D03*
X0249396Y0116562D03*
X0249554Y0116562D03*
X0249711Y0116562D03*
X0241286Y0118924D03*
X0240499Y0120814D03*
X0238609Y0121444D03*
X0238451Y0121444D03*
X0238451Y0124908D03*
X0239239Y0116562D03*
X0239396Y0116562D03*
X0239554Y0116562D03*
X0239711Y0116562D03*
X0229239Y0120341D03*
X0229081Y0120341D03*
X0218924Y0118609D03*
X0211759Y0121416D03*
X0210814Y0122518D03*
X0209869Y0120944D03*
X0208451Y0121416D03*
X0209396Y0116692D03*
X0209554Y0116692D03*
X0209711Y0116692D03*
X0209869Y0116692D03*
X0211286Y0116692D03*
X0211444Y0116692D03*
X0200814Y0116719D03*
X0198136Y0116719D03*
X0197979Y0116719D03*
X0198451Y0118766D03*
X0197979Y0120656D03*
X0198451Y0122703D03*
X0197664Y0124278D03*
X0200499Y0122703D03*
X0200656Y0122703D03*
X0200971Y0120656D03*
X0199396Y0127900D03*
X0191444Y0125038D03*
X0190656Y0126298D03*
X0189554Y0126298D03*
X0188766Y0125038D03*
X0188609Y0125038D03*
X0190026Y0123306D03*
X0190184Y0123306D03*
X0191444Y0119526D03*
X0191444Y0117636D03*
X0191286Y0117636D03*
X0191129Y0117636D03*
X0188924Y0116692D03*
X0188766Y0116692D03*
X0188766Y0118581D03*
X0188924Y0118581D03*
X0206136Y0190274D03*
X0206294Y0190274D03*
X0206451Y0190274D03*
X0206609Y0190274D03*
X0206766Y0190274D03*
X0206924Y0190274D03*
X0208184Y0190274D03*
X0208341Y0190274D03*
X0208499Y0190274D03*
X0208656Y0190274D03*
X0208814Y0190274D03*
X0208971Y0190274D03*
X0206609Y0192479D03*
X0206451Y0192479D03*
X0205192Y0193581D03*
X0205349Y0195786D03*
X0205349Y0197991D03*
X0205192Y0197991D03*
X0208814Y0196888D03*
X0208971Y0196888D03*
X0208971Y0194684D03*
X0208814Y0194684D03*
X0208971Y0201613D03*
X0208971Y0207274D03*
X0208814Y0207274D03*
X0208656Y0207274D03*
X0208499Y0207274D03*
X0208341Y0207274D03*
X0208184Y0207274D03*
X0206924Y0207274D03*
X0206766Y0207274D03*
X0206609Y0207274D03*
X0206451Y0207274D03*
X0206294Y0207274D03*
X0206136Y0207274D03*
X0206451Y0209479D03*
X0206609Y0209479D03*
X0205192Y0210739D03*
X0208971Y0210739D03*
X0208971Y0209479D03*
X0208971Y0213731D03*
X0208971Y0214991D03*
X0205349Y0214991D03*
X0205192Y0214991D03*
X0205979Y0222192D03*
X0206136Y0222192D03*
X0206294Y0222192D03*
X0206451Y0222192D03*
X0206609Y0222192D03*
X0206766Y0222192D03*
X0206924Y0222192D03*
X0207081Y0222192D03*
X0207239Y0222192D03*
X0207396Y0222192D03*
X0207554Y0222192D03*
X0207711Y0222192D03*
X0207869Y0222192D03*
X0208026Y0222192D03*
X0208184Y0222192D03*
X0208341Y0222192D03*
X0208499Y0222192D03*
X0208656Y0222192D03*
X0208814Y0222192D03*
X0208971Y0222192D03*
X0208971Y0224869D03*
X0208971Y0227861D03*
X0205034Y0230381D03*
X0207396Y0231955D03*
X0205192Y0224869D03*
X0207869Y0241479D03*
X0205034Y0242581D03*
X0183711Y0271562D03*
X0183554Y0271562D03*
X0183396Y0271562D03*
X0183239Y0271562D03*
X0185286Y0273924D03*
X0184499Y0275814D03*
X0182609Y0276444D03*
X0182451Y0276444D03*
X0182451Y0279908D03*
X0174499Y0281231D03*
X0171507Y0277451D03*
X0171507Y0274774D03*
X0173396Y0274774D03*
X0173554Y0274774D03*
X0173711Y0274774D03*
X0173869Y0274774D03*
X0174026Y0274774D03*
X0174184Y0274774D03*
X0174341Y0274774D03*
X0174499Y0274774D03*
X0174656Y0274774D03*
X0174814Y0274774D03*
X0174971Y0274774D03*
X0175129Y0274774D03*
X0175286Y0274774D03*
X0165286Y0279117D03*
X0164499Y0280534D03*
X0164341Y0280534D03*
X0164184Y0280534D03*
X0164026Y0280534D03*
X0161664Y0279117D03*
X0162924Y0276282D03*
X0163081Y0269825D03*
X0163239Y0269825D03*
X0162451Y0267306D03*
X0162451Y0265416D03*
X0162294Y0265416D03*
X0161664Y0265416D03*
X0163239Y0265416D03*
X0162451Y0263999D03*
X0165286Y0265416D03*
X0154814Y0266731D03*
X0152451Y0266416D03*
X0152451Y0264999D03*
X0151507Y0270196D03*
X0152924Y0276495D03*
X0153081Y0276495D03*
X0151979Y0276967D03*
X0151822Y0277125D03*
X0152609Y0280589D03*
X0124786Y0280274D03*
X0124786Y0282479D03*
X0123841Y0283896D03*
X0123684Y0283896D03*
X0123526Y0283896D03*
X0122266Y0283896D03*
X0122109Y0283896D03*
X0121951Y0283896D03*
X0121951Y0287518D03*
X0121794Y0289093D03*
X0121951Y0290825D03*
X0122109Y0290825D03*
X0122266Y0290825D03*
X0123526Y0290825D03*
X0123684Y0290825D03*
X0123841Y0290825D03*
X0191664Y0278507D03*
X0192766Y0278507D03*
X0192766Y0279924D03*
X0192609Y0280081D03*
X0192451Y0280081D03*
X0194499Y0280081D03*
X0195286Y0278507D03*
X0201664Y0278507D03*
X0203081Y0279924D03*
X0204184Y0278507D03*
X0211979Y0279786D03*
D20*
X0240247Y0280534D03*
X0246546Y0280534D03*
X0256247Y0280534D03*
X0262546Y0280534D03*
X0286247Y0280692D03*
X0292546Y0280692D03*
X0306247Y0280692D03*
X0312546Y0280692D03*
X0318849Y0165475D03*
X0318692Y0165318D03*
X0319322Y0157444D03*
X0293251Y0147538D03*
X0292975Y0147538D03*
X0292818Y0147538D03*
X0308294Y0116247D03*
X0309081Y0116247D03*
X0318294Y0116404D03*
X0328294Y0116247D03*
X0329081Y0116247D03*
D21*
X0311444Y0124672D03*
X0311286Y0124829D03*
X0311129Y0124829D03*
X0309869Y0125302D03*
X0298451Y0121365D03*
X0318849Y0150751D03*
X0210341Y0131101D03*
X0210184Y0131101D03*
X0153396Y0258621D03*
X0193239Y0274963D03*
X0193396Y0274963D03*
X0193554Y0274963D03*
X0193711Y0274963D03*
X0193869Y0274963D03*
X0194026Y0274963D03*
X0194184Y0274963D03*
X0203239Y0274963D03*
X0203396Y0274963D03*
X0203554Y0274963D03*
X0203711Y0274963D03*
X0203869Y0274963D03*
X0204026Y0274963D03*
X0204184Y0274963D03*
X0223396Y0271621D03*
X0233396Y0274121D03*
X0259711Y0277463D03*
X0259869Y0277463D03*
X0269396Y0274121D03*
X0299396Y0273621D03*
X0309869Y0277621D03*
D22*
X0317349Y0270904D03*
X0281129Y0275617D03*
X0280814Y0275459D03*
X0235444Y0275932D03*
X0235286Y0275774D03*
X0235129Y0275774D03*
X0154814Y0260117D03*
X0318849Y0156971D03*
X0327507Y0116719D03*
X0307507Y0116719D03*
D23*
X0309554Y0117192D03*
X0310499Y0116404D03*
X0317822Y0121286D03*
X0317979Y0121286D03*
X0319081Y0121286D03*
X0319396Y0121286D03*
X0321129Y0121286D03*
X0319554Y0117349D03*
X0320499Y0116562D03*
X0327822Y0121129D03*
X0327979Y0121129D03*
X0329239Y0121129D03*
X0330656Y0121129D03*
X0329554Y0117192D03*
X0300814Y0117349D03*
X0300656Y0117349D03*
X0300026Y0118924D03*
X0298924Y0117349D03*
X0298766Y0117349D03*
X0291286Y0117507D03*
X0290341Y0117507D03*
X0289869Y0117507D03*
X0290499Y0118766D03*
X0288136Y0117507D03*
X0287979Y0117507D03*
X0287822Y0117507D03*
X0287664Y0117507D03*
X0260026Y0122546D03*
X0259869Y0122546D03*
X0259081Y0123648D03*
X0257507Y0120971D03*
X0257507Y0119554D03*
X0258294Y0119554D03*
X0258451Y0119554D03*
X0259396Y0117349D03*
X0259554Y0117349D03*
X0251129Y0118924D03*
X0249081Y0118924D03*
X0248294Y0118924D03*
X0248136Y0118924D03*
X0247979Y0118924D03*
X0247822Y0118924D03*
X0250026Y0120656D03*
X0248924Y0121601D03*
X0247507Y0123176D03*
X0250499Y0124751D03*
X0251286Y0123176D03*
X0241286Y0123176D03*
X0240499Y0124751D03*
X0237507Y0123176D03*
X0238924Y0121601D03*
X0240026Y0120656D03*
X0239081Y0118924D03*
X0238294Y0118924D03*
X0238136Y0118924D03*
X0237979Y0118924D03*
X0237822Y0118924D03*
X0241129Y0118924D03*
X0229869Y0116562D03*
X0227507Y0118136D03*
X0229396Y0120341D03*
X0229554Y0120341D03*
X0218609Y0118609D03*
X0218451Y0118609D03*
X0218136Y0118451D03*
X0217822Y0118294D03*
X0211759Y0118109D03*
X0210499Y0117951D03*
X0208766Y0117951D03*
X0208766Y0121259D03*
X0209239Y0122518D03*
X0209081Y0123778D03*
X0208609Y0123778D03*
X0210026Y0123778D03*
X0210971Y0122518D03*
X0217822Y0123176D03*
X0218136Y0123018D03*
X0218294Y0123018D03*
X0201444Y0128215D03*
X0200499Y0124436D03*
X0200341Y0124436D03*
X0200184Y0124436D03*
X0199711Y0124436D03*
X0198136Y0124436D03*
X0197979Y0124436D03*
X0198294Y0120814D03*
X0198451Y0120814D03*
X0200499Y0120814D03*
X0200656Y0120814D03*
X0200499Y0116562D03*
X0200341Y0116562D03*
X0200184Y0116562D03*
X0198766Y0116562D03*
X0198609Y0116562D03*
X0198451Y0116562D03*
X0190971Y0117636D03*
X0190814Y0117636D03*
X0190656Y0117636D03*
X0189396Y0116692D03*
X0189239Y0116692D03*
X0189239Y0118581D03*
X0189396Y0118581D03*
X0190656Y0123463D03*
X0190814Y0123463D03*
X0191759Y0123621D03*
X0191129Y0124881D03*
X0190971Y0126455D03*
X0189239Y0126455D03*
X0189081Y0124881D03*
X0197507Y0128215D03*
X0209129Y0190274D03*
X0209129Y0194684D03*
X0209129Y0196888D03*
X0205192Y0195786D03*
X0209129Y0207274D03*
X0209129Y0209479D03*
X0209129Y0210739D03*
X0209129Y0213731D03*
X0209129Y0222192D03*
X0209129Y0224869D03*
X0209129Y0227861D03*
X0209286Y0242581D03*
X0214499Y0274904D03*
X0213554Y0275692D03*
X0212294Y0279629D03*
X0205444Y0278349D03*
X0204499Y0278349D03*
X0203239Y0278349D03*
X0202136Y0278349D03*
X0201979Y0278349D03*
X0194814Y0278349D03*
X0194026Y0278349D03*
X0192451Y0278349D03*
X0192294Y0278349D03*
X0192136Y0278349D03*
X0185286Y0278176D03*
X0184499Y0279751D03*
X0181507Y0278176D03*
X0182924Y0276601D03*
X0184026Y0275656D03*
X0183081Y0273924D03*
X0182294Y0273924D03*
X0182136Y0273924D03*
X0181979Y0273924D03*
X0181822Y0273924D03*
X0185129Y0273924D03*
X0164971Y0269038D03*
X0164814Y0269196D03*
X0164499Y0269353D03*
X0164184Y0269510D03*
X0163869Y0269668D03*
X0163711Y0269668D03*
X0163711Y0271400D03*
X0162451Y0276440D03*
X0162136Y0278959D03*
X0161979Y0278959D03*
X0162924Y0278959D03*
X0163081Y0278959D03*
X0163554Y0278959D03*
X0164971Y0278959D03*
X0163869Y0280534D03*
X0162766Y0280534D03*
X0162609Y0280534D03*
X0162451Y0280534D03*
X0155286Y0279014D03*
X0154656Y0279172D03*
X0153396Y0279172D03*
X0153239Y0279172D03*
X0151822Y0279172D03*
X0152294Y0280589D03*
X0152451Y0276652D03*
X0152609Y0276495D03*
X0152766Y0276495D03*
X0154814Y0273818D03*
X0154499Y0270353D03*
X0152451Y0270353D03*
X0151664Y0270353D03*
X0153396Y0266416D03*
X0154499Y0266731D03*
X0154656Y0266731D03*
X0163554Y0265573D03*
X0163711Y0265573D03*
X0164814Y0265573D03*
X0164971Y0265573D03*
X0163554Y0260692D03*
X0124944Y0282479D03*
X0222136Y0278629D03*
X0222294Y0278629D03*
X0224656Y0278629D03*
X0224814Y0278629D03*
X0223554Y0274692D03*
X0232294Y0280341D03*
X0249507Y0274483D03*
X0253444Y0275585D03*
X0253444Y0273381D03*
X0253444Y0268971D03*
X0252499Y0265349D03*
X0269711Y0278609D03*
X0269869Y0278609D03*
X0270026Y0278609D03*
X0279554Y0277192D03*
X0280499Y0276404D03*
X0279711Y0278609D03*
X0279869Y0280184D03*
X0288136Y0280377D03*
X0288294Y0280377D03*
X0288451Y0280377D03*
X0288609Y0280377D03*
X0317979Y0278148D03*
X0318136Y0277991D03*
X0318294Y0277833D03*
X0320341Y0277676D03*
X0320499Y0277833D03*
X0320656Y0277991D03*
X0320971Y0278148D03*
X0327979Y0275951D03*
X0328136Y0276109D03*
X0330656Y0276109D03*
X0330499Y0280203D03*
X0328294Y0280203D03*
X0318944Y0202900D03*
X0318944Y0199436D03*
X0318944Y0196444D03*
X0318944Y0194081D03*
X0318944Y0191877D03*
X0320739Y0162955D03*
X0320896Y0162955D03*
X0322156Y0162955D03*
X0322314Y0162955D03*
X0322786Y0161538D03*
X0321369Y0159963D03*
X0321211Y0159963D03*
X0320266Y0161538D03*
X0319479Y0161538D03*
X0318849Y0161538D03*
X0320424Y0156971D03*
X0320581Y0156971D03*
X0320896Y0155554D03*
X0321054Y0155554D03*
X0321211Y0155554D03*
X0322314Y0156026D03*
X0322629Y0157759D03*
D24*
X0322944Y0150593D03*
X0319007Y0150436D03*
X0295888Y0146948D03*
X0309239Y0125459D03*
X0309396Y0125459D03*
X0299239Y0121680D03*
X0210656Y0121022D03*
X0210656Y0130944D03*
X0201286Y0131286D03*
X0201129Y0131286D03*
X0200971Y0131286D03*
X0200814Y0131286D03*
X0200656Y0131286D03*
X0200499Y0131286D03*
X0200341Y0131286D03*
X0200184Y0131286D03*
X0200026Y0131286D03*
X0198766Y0131286D03*
X0198609Y0131286D03*
X0198451Y0131286D03*
X0189711Y0130786D03*
X0318156Y0197940D03*
X0299554Y0273463D03*
X0310026Y0277463D03*
X0279554Y0273806D03*
X0269554Y0273963D03*
X0260341Y0277463D03*
X0233554Y0273963D03*
X0213554Y0272306D03*
X0204971Y0275121D03*
X0204814Y0275121D03*
X0201507Y0275278D03*
X0194971Y0275121D03*
X0194814Y0275121D03*
X0191507Y0275278D03*
X0163554Y0257306D03*
X0153554Y0258463D03*
X0151979Y0273581D03*
X0151822Y0273581D03*
X0121479Y0295786D03*
X0121322Y0295786D03*
X0121164Y0295786D03*
X0121007Y0295786D03*
D25*
X0201349Y0276538D03*
X0240404Y0280298D03*
X0246388Y0280298D03*
X0256404Y0280298D03*
X0262388Y0280298D03*
X0286404Y0280455D03*
X0292388Y0280455D03*
X0306404Y0280455D03*
X0312388Y0280455D03*
X0319007Y0157207D03*
X0317822Y0116640D03*
D26*
X0320341Y0116483D03*
X0320814Y0121207D03*
X0320971Y0121207D03*
X0319711Y0121207D03*
X0319554Y0121207D03*
X0318924Y0121207D03*
X0318766Y0121207D03*
X0318609Y0121207D03*
X0318451Y0121207D03*
X0318294Y0121207D03*
X0318136Y0121207D03*
X0318294Y0122782D03*
X0318766Y0122782D03*
X0328136Y0121050D03*
X0328294Y0121050D03*
X0328451Y0121050D03*
X0328766Y0121050D03*
X0328924Y0121050D03*
X0329081Y0121050D03*
X0328924Y0122625D03*
X0328294Y0122625D03*
X0330814Y0121050D03*
X0330971Y0121050D03*
X0331129Y0121050D03*
X0331286Y0121050D03*
X0308294Y0121050D03*
X0307507Y0121050D03*
X0300499Y0117270D03*
X0300341Y0117270D03*
X0300184Y0117270D03*
X0300026Y0117270D03*
X0299869Y0117270D03*
X0299711Y0117270D03*
X0299554Y0117270D03*
X0299396Y0117270D03*
X0299239Y0117270D03*
X0299081Y0117270D03*
X0291129Y0117428D03*
X0290499Y0117428D03*
X0289711Y0117428D03*
X0289396Y0117428D03*
X0289239Y0117428D03*
X0289081Y0117428D03*
X0288924Y0117428D03*
X0288766Y0117428D03*
X0288609Y0117428D03*
X0288451Y0117428D03*
X0288294Y0117428D03*
X0289869Y0118845D03*
X0280341Y0121810D03*
X0278609Y0121810D03*
X0261286Y0121050D03*
X0261129Y0121050D03*
X0260971Y0121050D03*
X0260814Y0121050D03*
X0260656Y0121050D03*
X0260499Y0121050D03*
X0260341Y0121050D03*
X0260184Y0121050D03*
X0260026Y0121050D03*
X0259869Y0121050D03*
X0259711Y0121050D03*
X0259554Y0121050D03*
X0259396Y0121050D03*
X0259239Y0121050D03*
X0259081Y0121050D03*
X0258924Y0121050D03*
X0258766Y0121050D03*
X0258609Y0121050D03*
X0258451Y0121050D03*
X0258294Y0121050D03*
X0258136Y0121050D03*
X0257979Y0121050D03*
X0257822Y0121050D03*
X0257664Y0121050D03*
X0257664Y0119633D03*
X0257822Y0119633D03*
X0257979Y0119633D03*
X0258136Y0119633D03*
X0259711Y0122467D03*
X0259239Y0123727D03*
X0251129Y0123097D03*
X0250971Y0123097D03*
X0250814Y0123097D03*
X0250656Y0123097D03*
X0250499Y0123097D03*
X0250341Y0123097D03*
X0250184Y0123097D03*
X0250026Y0123097D03*
X0249869Y0123097D03*
X0249711Y0123097D03*
X0249554Y0123097D03*
X0249396Y0123097D03*
X0249239Y0123097D03*
X0249081Y0123097D03*
X0248924Y0123097D03*
X0248766Y0123097D03*
X0248609Y0123097D03*
X0248451Y0123097D03*
X0248294Y0123097D03*
X0248136Y0123097D03*
X0247979Y0123097D03*
X0247822Y0123097D03*
X0247664Y0123097D03*
X0249081Y0121680D03*
X0249239Y0121680D03*
X0249869Y0120577D03*
X0249869Y0119003D03*
X0250026Y0119003D03*
X0250184Y0119003D03*
X0250341Y0119003D03*
X0250499Y0119003D03*
X0250656Y0119003D03*
X0250814Y0119003D03*
X0250971Y0119003D03*
X0249711Y0119003D03*
X0249554Y0119003D03*
X0249396Y0119003D03*
X0249239Y0119003D03*
X0240971Y0119003D03*
X0240814Y0119003D03*
X0240656Y0119003D03*
X0240499Y0119003D03*
X0240341Y0119003D03*
X0240184Y0119003D03*
X0240026Y0119003D03*
X0239869Y0119003D03*
X0239711Y0119003D03*
X0239554Y0119003D03*
X0239396Y0119003D03*
X0239239Y0119003D03*
X0239869Y0120577D03*
X0239239Y0121680D03*
X0239081Y0121680D03*
X0239081Y0123097D03*
X0238924Y0123097D03*
X0238766Y0123097D03*
X0238609Y0123097D03*
X0238451Y0123097D03*
X0238294Y0123097D03*
X0238136Y0123097D03*
X0237979Y0123097D03*
X0237822Y0123097D03*
X0237664Y0123097D03*
X0239239Y0123097D03*
X0239396Y0123097D03*
X0239554Y0123097D03*
X0239711Y0123097D03*
X0239869Y0123097D03*
X0240026Y0123097D03*
X0240184Y0123097D03*
X0240341Y0123097D03*
X0240499Y0123097D03*
X0240656Y0123097D03*
X0240814Y0123097D03*
X0240971Y0123097D03*
X0241129Y0123097D03*
X0228136Y0118058D03*
X0227979Y0118058D03*
X0227822Y0118058D03*
X0227664Y0118058D03*
X0219711Y0120735D03*
X0219554Y0120735D03*
X0218294Y0118530D03*
X0217979Y0118373D03*
X0211444Y0121180D03*
X0211286Y0121180D03*
X0209081Y0121180D03*
X0208924Y0121180D03*
X0208924Y0123857D03*
X0208766Y0123857D03*
X0210184Y0123857D03*
X0211286Y0123857D03*
X0211444Y0123857D03*
X0217979Y0123097D03*
X0210814Y0118030D03*
X0210656Y0118030D03*
X0210341Y0118030D03*
X0208924Y0118030D03*
X0200026Y0116483D03*
X0199869Y0116483D03*
X0199711Y0116483D03*
X0199554Y0116483D03*
X0199396Y0116483D03*
X0199239Y0116483D03*
X0199081Y0116483D03*
X0198924Y0116483D03*
X0198924Y0120892D03*
X0198766Y0120892D03*
X0198609Y0120892D03*
X0200026Y0120892D03*
X0200184Y0120892D03*
X0200341Y0120892D03*
X0200656Y0124514D03*
X0200814Y0124514D03*
X0199554Y0124514D03*
X0199396Y0124514D03*
X0199239Y0124514D03*
X0198451Y0124514D03*
X0198294Y0124514D03*
X0198294Y0128136D03*
X0198136Y0128136D03*
X0197979Y0128136D03*
X0197822Y0128136D03*
X0197664Y0128136D03*
X0200656Y0128136D03*
X0200814Y0128136D03*
X0200971Y0128136D03*
X0201129Y0128136D03*
X0201286Y0128136D03*
X0191601Y0126534D03*
X0191129Y0126534D03*
X0190971Y0124802D03*
X0190971Y0123542D03*
X0191129Y0123542D03*
X0190341Y0121810D03*
X0190184Y0121810D03*
X0189239Y0124802D03*
X0189081Y0126534D03*
X0188609Y0126534D03*
X0189554Y0118503D03*
X0189554Y0116770D03*
X0205034Y0197912D03*
X0205034Y0210818D03*
X0205034Y0213652D03*
X0205034Y0224948D03*
X0205034Y0227782D03*
X0209286Y0230459D03*
X0206451Y0241715D03*
X0251396Y0265900D03*
X0249349Y0276609D03*
X0242766Y0280140D03*
X0242294Y0280140D03*
X0233554Y0277270D03*
X0232924Y0280420D03*
X0224499Y0280282D03*
X0224499Y0278550D03*
X0224341Y0278550D03*
X0224184Y0278550D03*
X0224026Y0278550D03*
X0223869Y0278550D03*
X0223711Y0278550D03*
X0223239Y0278550D03*
X0223081Y0278550D03*
X0222924Y0278550D03*
X0222766Y0278550D03*
X0222609Y0278550D03*
X0222451Y0278550D03*
X0213081Y0279550D03*
X0212451Y0279550D03*
X0205286Y0278270D03*
X0205129Y0278270D03*
X0204971Y0278270D03*
X0204814Y0278270D03*
X0204656Y0278270D03*
X0203081Y0278270D03*
X0202924Y0278270D03*
X0202766Y0278270D03*
X0202609Y0278270D03*
X0202451Y0278270D03*
X0202294Y0278270D03*
X0194656Y0278270D03*
X0194499Y0278270D03*
X0194341Y0278270D03*
X0194184Y0278270D03*
X0185129Y0278097D03*
X0184971Y0278097D03*
X0184814Y0278097D03*
X0184656Y0278097D03*
X0184499Y0278097D03*
X0184341Y0278097D03*
X0184184Y0278097D03*
X0184026Y0278097D03*
X0183869Y0278097D03*
X0183711Y0278097D03*
X0183554Y0278097D03*
X0183396Y0278097D03*
X0183239Y0278097D03*
X0183081Y0278097D03*
X0182924Y0278097D03*
X0182766Y0278097D03*
X0182609Y0278097D03*
X0182451Y0278097D03*
X0182294Y0278097D03*
X0182136Y0278097D03*
X0181979Y0278097D03*
X0181822Y0278097D03*
X0181664Y0278097D03*
X0183081Y0276680D03*
X0183239Y0276680D03*
X0183869Y0275577D03*
X0183869Y0274003D03*
X0184026Y0274003D03*
X0184184Y0274003D03*
X0184341Y0274003D03*
X0184499Y0274003D03*
X0184656Y0274003D03*
X0184814Y0274003D03*
X0184971Y0274003D03*
X0183711Y0274003D03*
X0183554Y0274003D03*
X0183396Y0274003D03*
X0183239Y0274003D03*
X0174341Y0281310D03*
X0172609Y0281310D03*
X0164814Y0278881D03*
X0164656Y0278881D03*
X0164499Y0278881D03*
X0164341Y0278881D03*
X0164026Y0278881D03*
X0163869Y0278881D03*
X0163711Y0278881D03*
X0162766Y0278881D03*
X0162609Y0278881D03*
X0162451Y0278881D03*
X0162294Y0278881D03*
X0164814Y0273684D03*
X0164971Y0273684D03*
X0165444Y0273526D03*
X0163554Y0271479D03*
X0164026Y0269589D03*
X0164341Y0269432D03*
X0164656Y0269274D03*
X0164656Y0265652D03*
X0164499Y0265652D03*
X0164341Y0265652D03*
X0164184Y0265652D03*
X0164026Y0265652D03*
X0163869Y0265652D03*
X0162294Y0263920D03*
X0154341Y0266652D03*
X0154184Y0266652D03*
X0153711Y0266495D03*
X0153554Y0266495D03*
X0152294Y0264920D03*
X0153554Y0261770D03*
X0154656Y0270432D03*
X0154814Y0270432D03*
X0154971Y0270432D03*
X0155129Y0270432D03*
X0152294Y0270432D03*
X0152136Y0270432D03*
X0151979Y0270432D03*
X0151822Y0270432D03*
X0154971Y0273896D03*
X0154971Y0279093D03*
X0154814Y0279093D03*
X0155129Y0279093D03*
X0153081Y0279093D03*
X0152924Y0279093D03*
X0152294Y0279093D03*
X0152136Y0279093D03*
X0151979Y0279093D03*
X0152924Y0280668D03*
X0123684Y0287440D03*
X0121951Y0289172D03*
X0269554Y0277270D03*
X0287664Y0280455D03*
X0287822Y0280455D03*
X0287979Y0280455D03*
X0298294Y0280077D03*
X0299554Y0276770D03*
X0317507Y0273818D03*
X0318136Y0273818D03*
X0318451Y0275865D03*
X0320341Y0275865D03*
X0320814Y0278070D03*
X0327507Y0280282D03*
X0328136Y0280282D03*
X0328451Y0278235D03*
X0330341Y0278235D03*
X0330656Y0280282D03*
X0331286Y0280282D03*
X0314849Y0202979D03*
X0321054Y0164609D03*
X0321999Y0164609D03*
X0321999Y0162877D03*
X0321841Y0162877D03*
X0321684Y0162877D03*
X0321526Y0162877D03*
X0321369Y0162877D03*
X0321211Y0162877D03*
X0321054Y0162877D03*
X0321054Y0161459D03*
X0321211Y0161459D03*
X0321369Y0161459D03*
X0321526Y0161459D03*
X0321684Y0161459D03*
X0321841Y0161459D03*
X0321999Y0161459D03*
X0322156Y0161459D03*
X0322314Y0161459D03*
X0322471Y0161459D03*
X0322629Y0161459D03*
X0320896Y0161459D03*
X0320739Y0161459D03*
X0320581Y0161459D03*
X0320424Y0161459D03*
X0319322Y0161459D03*
X0319164Y0161459D03*
X0319007Y0161459D03*
X0320739Y0160042D03*
X0320896Y0160042D03*
X0321054Y0160042D03*
X0320896Y0158625D03*
X0320739Y0158625D03*
X0320581Y0158625D03*
X0320739Y0157050D03*
X0320739Y0155475D03*
X0320581Y0155475D03*
X0320424Y0155475D03*
X0320266Y0155475D03*
X0322314Y0157837D03*
X0322471Y0157837D03*
D27*
X0319164Y0157365D03*
X0319164Y0165554D03*
X0319007Y0165554D03*
X0318136Y0116483D03*
X0308136Y0116325D03*
X0328136Y0116325D03*
X0327349Y0273668D03*
D28*
X0299869Y0273306D03*
X0299711Y0273306D03*
X0299396Y0277873D03*
X0280499Y0273806D03*
X0279869Y0273648D03*
X0269869Y0273806D03*
X0269711Y0273806D03*
X0260971Y0277463D03*
X0260814Y0277463D03*
X0243396Y0277148D03*
X0243081Y0277148D03*
X0241507Y0277621D03*
X0233869Y0273806D03*
X0233711Y0273806D03*
X0223711Y0271306D03*
X0214499Y0272306D03*
X0213869Y0272148D03*
X0202136Y0274806D03*
X0201979Y0274963D03*
X0192136Y0274806D03*
X0191979Y0274963D03*
X0161664Y0273684D03*
X0161349Y0278251D03*
X0152609Y0273424D03*
X0152451Y0273424D03*
X0151349Y0278463D03*
X0153711Y0258306D03*
X0153869Y0258306D03*
X0163869Y0257148D03*
X0164026Y0257148D03*
X0164499Y0257306D03*
X0205979Y0230459D03*
X0121636Y0295786D03*
X0317841Y0197940D03*
X0317999Y0197940D03*
X0321211Y0167129D03*
X0319164Y0150278D03*
X0319322Y0150121D03*
X0292818Y0140255D03*
X0308766Y0125617D03*
X0308924Y0125617D03*
X0317507Y0125302D03*
X0319081Y0125774D03*
X0319396Y0125774D03*
X0327507Y0125144D03*
X0330184Y0125617D03*
X0330499Y0125459D03*
X0330656Y0125459D03*
X0330814Y0125302D03*
X0299554Y0121837D03*
X0289239Y0121680D03*
X0210971Y0130786D03*
X0190026Y0130786D03*
D29*
X0289904Y0138798D03*
X0307979Y0116404D03*
X0317979Y0116562D03*
X0327979Y0116404D03*
X0319479Y0165633D03*
X0319322Y0165633D03*
D30*
X0320266Y0167207D03*
X0321054Y0167207D03*
X0322629Y0150199D03*
X0322471Y0150042D03*
X0322156Y0149885D03*
X0320109Y0149727D03*
X0319794Y0149885D03*
X0319636Y0149885D03*
X0319479Y0150042D03*
X0319554Y0125853D03*
X0319711Y0125853D03*
X0318924Y0125853D03*
X0318766Y0125853D03*
X0318609Y0125853D03*
X0321286Y0125381D03*
X0321444Y0125223D03*
X0329554Y0125696D03*
X0329711Y0125696D03*
X0329869Y0125696D03*
X0330026Y0125696D03*
X0330341Y0125538D03*
X0308609Y0125696D03*
X0301444Y0121286D03*
X0299711Y0121916D03*
X0298294Y0121759D03*
X0289396Y0121759D03*
X0261444Y0115302D03*
X0231444Y0122388D03*
X0230184Y0115302D03*
X0219869Y0115302D03*
X0211129Y0130707D03*
X0190499Y0130550D03*
X0190341Y0130707D03*
X0190184Y0130707D03*
X0205034Y0222192D03*
X0208341Y0230381D03*
X0164341Y0257227D03*
X0164184Y0257070D03*
X0154499Y0258385D03*
X0154184Y0258227D03*
X0154026Y0258227D03*
X0152924Y0273345D03*
X0152766Y0273345D03*
X0192294Y0274727D03*
X0193081Y0274570D03*
X0202294Y0274727D03*
X0203081Y0274570D03*
X0214026Y0272070D03*
X0214184Y0272070D03*
X0214341Y0272227D03*
X0223869Y0271227D03*
X0224026Y0271227D03*
X0224499Y0271385D03*
X0234026Y0273727D03*
X0234184Y0273727D03*
X0234499Y0273885D03*
X0242609Y0277070D03*
X0242766Y0277070D03*
X0242924Y0277070D03*
X0243554Y0277070D03*
X0243711Y0277070D03*
X0245444Y0277699D03*
X0261129Y0277542D03*
X0261286Y0277542D03*
X0261444Y0277699D03*
X0270026Y0273727D03*
X0270184Y0273727D03*
X0270499Y0273885D03*
X0280026Y0273570D03*
X0280184Y0273570D03*
X0280341Y0273727D03*
X0288609Y0277227D03*
X0288766Y0277227D03*
X0288924Y0277227D03*
X0288294Y0277385D03*
X0288136Y0277385D03*
X0300026Y0273227D03*
X0300184Y0273227D03*
X0300499Y0273385D03*
X0307507Y0277699D03*
X0310341Y0277385D03*
X0317349Y0281928D03*
X0327349Y0281621D03*
X0328924Y0271070D03*
X0329081Y0271070D03*
X0329239Y0271070D03*
X0329396Y0271070D03*
X0329554Y0271070D03*
X0329711Y0271070D03*
X0329869Y0271070D03*
X0321286Y0269487D03*
D31*
X0205507Y0222900D03*
X0319479Y0157522D03*
X0319081Y0116325D03*
X0318924Y0116325D03*
X0318451Y0116325D03*
X0308924Y0116168D03*
X0308766Y0116168D03*
X0308609Y0116168D03*
X0308451Y0116168D03*
X0328451Y0116168D03*
X0328609Y0116168D03*
X0328766Y0116168D03*
X0328924Y0116168D03*
D32*
X0319794Y0161853D03*
X0319636Y0161853D03*
D33*
X0320424Y0167286D03*
X0320581Y0167286D03*
X0320739Y0167286D03*
X0320896Y0167286D03*
X0321999Y0167129D03*
X0322314Y0149963D03*
X0321999Y0149806D03*
X0321841Y0149806D03*
X0321684Y0149648D03*
X0321526Y0149648D03*
X0321369Y0149648D03*
X0321211Y0149648D03*
X0320739Y0149648D03*
X0320581Y0149648D03*
X0320424Y0149648D03*
X0320266Y0149648D03*
X0319951Y0149806D03*
X0320026Y0125932D03*
X0319869Y0125932D03*
X0320184Y0125932D03*
X0320971Y0125617D03*
X0318451Y0125774D03*
X0318294Y0125774D03*
X0318136Y0125774D03*
X0317979Y0125617D03*
X0317822Y0125617D03*
X0317664Y0125459D03*
X0308451Y0125617D03*
X0301286Y0121522D03*
X0300184Y0121995D03*
X0300026Y0121995D03*
X0299869Y0121995D03*
X0298136Y0121837D03*
X0291444Y0121207D03*
X0291286Y0121365D03*
X0290184Y0121837D03*
X0290026Y0121837D03*
X0289869Y0121837D03*
X0289711Y0121837D03*
X0289554Y0121837D03*
X0288294Y0121680D03*
X0280656Y0120707D03*
X0278294Y0120707D03*
X0261286Y0115223D03*
X0261129Y0115223D03*
X0247349Y0115066D03*
X0237349Y0115066D03*
X0230026Y0115223D03*
X0231129Y0122467D03*
X0231286Y0122467D03*
X0241444Y0127034D03*
X0251444Y0127034D03*
X0211286Y0130629D03*
X0208924Y0131888D03*
X0209396Y0126534D03*
X0209554Y0126534D03*
X0210656Y0126534D03*
X0210814Y0126534D03*
X0189081Y0131101D03*
X0188924Y0131101D03*
X0207081Y0200432D03*
X0205822Y0230459D03*
X0208499Y0230459D03*
X0181349Y0270066D03*
X0192451Y0274648D03*
X0192609Y0274491D03*
X0192766Y0274491D03*
X0192924Y0274491D03*
X0202451Y0274648D03*
X0202609Y0274491D03*
X0202766Y0274491D03*
X0202924Y0274491D03*
X0185444Y0282034D03*
X0174656Y0280207D03*
X0172294Y0280207D03*
X0161979Y0273684D03*
X0161822Y0273684D03*
X0153239Y0273266D03*
X0153081Y0273266D03*
X0151349Y0266967D03*
X0154341Y0258306D03*
X0155444Y0282085D03*
X0124629Y0285077D03*
X0124471Y0285077D03*
X0121479Y0285077D03*
X0121322Y0285077D03*
X0121322Y0292007D03*
X0121479Y0292007D03*
X0124471Y0292007D03*
X0124629Y0292007D03*
X0120849Y0295786D03*
X0223396Y0275715D03*
X0224341Y0271306D03*
X0224184Y0271148D03*
X0234341Y0273806D03*
X0241822Y0277306D03*
X0241979Y0277306D03*
X0242136Y0277148D03*
X0242294Y0277148D03*
X0242451Y0277148D03*
X0241664Y0277463D03*
X0243869Y0276991D03*
X0244026Y0276991D03*
X0244184Y0276991D03*
X0245286Y0277463D03*
X0235444Y0281837D03*
X0258294Y0277148D03*
X0261444Y0281715D03*
X0268924Y0281837D03*
X0278451Y0281680D03*
X0278609Y0281680D03*
X0278766Y0281680D03*
X0287507Y0277621D03*
X0287664Y0277621D03*
X0287822Y0277463D03*
X0287979Y0277463D03*
X0288451Y0277306D03*
X0289081Y0277148D03*
X0289239Y0277148D03*
X0289396Y0277148D03*
X0289554Y0277148D03*
X0290026Y0277148D03*
X0290184Y0277148D03*
X0300341Y0273306D03*
X0307664Y0277621D03*
X0307822Y0277463D03*
X0308136Y0277306D03*
X0308609Y0277148D03*
X0308924Y0277148D03*
X0309081Y0277148D03*
X0309239Y0277148D03*
X0310499Y0277306D03*
X0321129Y0269566D03*
X0328766Y0271148D03*
X0330026Y0271148D03*
X0270341Y0273806D03*
X0315322Y0205656D03*
X0315479Y0205656D03*
X0318471Y0205656D03*
X0318629Y0205656D03*
X0317684Y0197940D03*
X0317526Y0197940D03*
X0328609Y0125774D03*
X0328766Y0125774D03*
X0328924Y0125774D03*
X0329081Y0125774D03*
X0329239Y0125774D03*
X0329396Y0125774D03*
X0328451Y0125617D03*
X0328294Y0125617D03*
X0328136Y0125617D03*
X0327979Y0125459D03*
X0327822Y0125459D03*
X0327664Y0125302D03*
X0329396Y0118215D03*
D34*
X0329711Y0121365D03*
X0327507Y0121365D03*
X0320341Y0122782D03*
X0320184Y0122782D03*
X0319396Y0117270D03*
X0310341Y0121365D03*
X0310184Y0121365D03*
X0310026Y0121365D03*
X0309396Y0117113D03*
X0297979Y0117585D03*
X0291444Y0117585D03*
X0290341Y0118688D03*
X0281286Y0117873D03*
X0279396Y0117873D03*
X0279239Y0117873D03*
X0279081Y0117873D03*
X0278924Y0117873D03*
X0278766Y0117873D03*
X0278609Y0117873D03*
X0278451Y0117873D03*
X0278294Y0117873D03*
X0278136Y0117873D03*
X0277979Y0117873D03*
X0277822Y0117873D03*
X0277664Y0117873D03*
X0278766Y0119448D03*
X0279081Y0119290D03*
X0279239Y0119290D03*
X0279396Y0119290D03*
X0279554Y0119290D03*
X0279711Y0119290D03*
X0279869Y0119290D03*
X0280026Y0119448D03*
X0280184Y0119448D03*
X0277822Y0115353D03*
X0277664Y0115353D03*
X0260656Y0122782D03*
X0260499Y0122782D03*
X0258451Y0123412D03*
X0259239Y0119318D03*
X0259396Y0119318D03*
X0250656Y0120892D03*
X0248294Y0121365D03*
X0248609Y0124987D03*
X0250341Y0124987D03*
X0248451Y0117270D03*
X0249081Y0116640D03*
X0240656Y0120892D03*
X0238294Y0121365D03*
X0238609Y0124987D03*
X0240341Y0124987D03*
X0238451Y0117270D03*
X0239081Y0116640D03*
X0230341Y0116483D03*
X0220341Y0116798D03*
X0220184Y0116798D03*
X0218766Y0116640D03*
X0218609Y0116798D03*
X0217507Y0118215D03*
X0219081Y0118688D03*
X0219081Y0120735D03*
X0218924Y0120735D03*
X0217507Y0123255D03*
X0218766Y0124514D03*
X0218609Y0124672D03*
X0220184Y0124672D03*
X0220341Y0124672D03*
X0211759Y0123699D03*
X0210026Y0121022D03*
X0209711Y0120865D03*
X0208451Y0123699D03*
X0201129Y0122782D03*
X0200971Y0122782D03*
X0200814Y0122782D03*
X0199239Y0122782D03*
X0199081Y0122782D03*
X0198924Y0122782D03*
X0198766Y0122782D03*
X0198609Y0122782D03*
X0197822Y0120577D03*
X0201129Y0120577D03*
X0200971Y0116798D03*
X0197822Y0116798D03*
X0191286Y0119605D03*
X0191129Y0119605D03*
X0190971Y0119762D03*
X0190814Y0119762D03*
X0190499Y0119920D03*
X0188609Y0118503D03*
X0188609Y0116770D03*
X0189554Y0123227D03*
X0189711Y0123227D03*
X0189869Y0123227D03*
X0188451Y0125117D03*
X0189711Y0126219D03*
X0190499Y0126219D03*
X0191601Y0125117D03*
X0191759Y0125117D03*
X0199081Y0127822D03*
X0199239Y0127822D03*
X0199554Y0127822D03*
X0199711Y0127822D03*
X0199869Y0127822D03*
X0211601Y0116770D03*
X0206924Y0192400D03*
X0206766Y0192400D03*
X0206294Y0192400D03*
X0205979Y0193660D03*
X0205822Y0193660D03*
X0205664Y0193660D03*
X0205507Y0193503D03*
X0205349Y0193503D03*
X0206136Y0193818D03*
X0206294Y0193818D03*
X0206451Y0193818D03*
X0206609Y0193975D03*
X0206766Y0193975D03*
X0206924Y0193975D03*
X0205507Y0195707D03*
X0206136Y0197755D03*
X0206294Y0197755D03*
X0206451Y0197755D03*
X0206609Y0197597D03*
X0206766Y0197597D03*
X0206924Y0197597D03*
X0205979Y0197912D03*
X0205822Y0197912D03*
X0205664Y0197912D03*
X0205507Y0198070D03*
X0206136Y0199329D03*
X0206294Y0199329D03*
X0206451Y0199329D03*
X0206609Y0199329D03*
X0206766Y0199329D03*
X0206924Y0199329D03*
X0208184Y0199329D03*
X0208341Y0199329D03*
X0208499Y0199329D03*
X0208656Y0199329D03*
X0208814Y0199329D03*
X0208971Y0199329D03*
X0208341Y0201377D03*
X0208184Y0201377D03*
X0208656Y0201534D03*
X0208814Y0201534D03*
X0206766Y0201534D03*
X0206609Y0201534D03*
X0206451Y0201534D03*
X0206294Y0201534D03*
X0206294Y0209400D03*
X0206766Y0209400D03*
X0206924Y0209400D03*
X0208184Y0209243D03*
X0208499Y0209400D03*
X0208814Y0209558D03*
X0208814Y0210818D03*
X0208814Y0213652D03*
X0208814Y0215070D03*
X0208656Y0215070D03*
X0208499Y0215070D03*
X0208341Y0215070D03*
X0208184Y0215070D03*
X0208026Y0215070D03*
X0207869Y0215070D03*
X0207711Y0215070D03*
X0207554Y0215070D03*
X0207396Y0215070D03*
X0207239Y0215070D03*
X0207081Y0215070D03*
X0206924Y0215070D03*
X0206766Y0215070D03*
X0206609Y0215070D03*
X0206451Y0215070D03*
X0206294Y0215070D03*
X0206136Y0215070D03*
X0205979Y0215070D03*
X0205822Y0215070D03*
X0205664Y0215070D03*
X0205507Y0215070D03*
X0205349Y0213652D03*
X0205349Y0210818D03*
X0205349Y0224948D03*
X0205349Y0227782D03*
X0206609Y0228885D03*
X0206766Y0228885D03*
X0206924Y0228885D03*
X0207081Y0228885D03*
X0207239Y0228885D03*
X0207396Y0228885D03*
X0207554Y0228885D03*
X0207869Y0229042D03*
X0206451Y0229042D03*
X0208814Y0227782D03*
X0208814Y0224948D03*
X0207711Y0231877D03*
X0207554Y0231877D03*
X0207239Y0232034D03*
X0207081Y0232034D03*
X0206924Y0232034D03*
X0206766Y0231877D03*
X0206609Y0231877D03*
X0206924Y0240140D03*
X0207081Y0240140D03*
X0207239Y0240140D03*
X0207396Y0240140D03*
X0207554Y0240140D03*
X0207711Y0240140D03*
X0207869Y0240140D03*
X0208026Y0240140D03*
X0208184Y0240140D03*
X0208341Y0240140D03*
X0208499Y0240140D03*
X0208656Y0240140D03*
X0208814Y0240140D03*
X0208971Y0240140D03*
X0208026Y0241558D03*
X0206136Y0241715D03*
X0205349Y0240140D03*
X0206451Y0243448D03*
X0206294Y0243605D03*
X0207711Y0243605D03*
X0207869Y0243605D03*
X0208026Y0243605D03*
X0183081Y0271640D03*
X0182451Y0272270D03*
X0182294Y0276365D03*
X0184656Y0275892D03*
X0184341Y0279987D03*
X0182609Y0279987D03*
X0175286Y0277373D03*
X0173396Y0277373D03*
X0173239Y0277373D03*
X0173081Y0277373D03*
X0172924Y0277373D03*
X0172766Y0277373D03*
X0172609Y0277373D03*
X0172451Y0277373D03*
X0172294Y0277373D03*
X0172136Y0277373D03*
X0171979Y0277373D03*
X0171822Y0277373D03*
X0171664Y0277373D03*
X0172766Y0278948D03*
X0173081Y0278790D03*
X0173239Y0278790D03*
X0173396Y0278790D03*
X0173554Y0278790D03*
X0173711Y0278790D03*
X0173869Y0278790D03*
X0174026Y0278948D03*
X0174184Y0278948D03*
X0171822Y0274853D03*
X0171664Y0274853D03*
X0164341Y0273684D03*
X0164184Y0273684D03*
X0163081Y0276361D03*
X0161979Y0276833D03*
X0161822Y0276991D03*
X0161507Y0279196D03*
X0153711Y0279408D03*
X0151507Y0279251D03*
X0151664Y0277203D03*
X0152451Y0268857D03*
X0152136Y0266652D03*
X0152294Y0266495D03*
X0154341Y0264920D03*
X0154184Y0263188D03*
X0154341Y0263030D03*
X0154499Y0262873D03*
X0154971Y0266810D03*
X0161507Y0265337D03*
X0164341Y0263920D03*
X0164184Y0262188D03*
X0164341Y0262030D03*
X0164499Y0261873D03*
X0164341Y0267385D03*
X0162924Y0269904D03*
X0162766Y0269904D03*
X0194341Y0280003D03*
X0202609Y0280003D03*
X0202766Y0280003D03*
X0202924Y0280003D03*
X0203239Y0279845D03*
X0204026Y0278585D03*
X0211822Y0279865D03*
X0213396Y0275613D03*
X0222766Y0280282D03*
X0222924Y0280282D03*
X0223081Y0280282D03*
X0223239Y0280282D03*
X0223396Y0280282D03*
X0223554Y0280282D03*
X0223711Y0280282D03*
X0223869Y0280282D03*
X0224026Y0280282D03*
X0224184Y0280282D03*
X0225286Y0278865D03*
X0244184Y0280140D03*
X0244341Y0280140D03*
X0249664Y0281491D03*
X0251396Y0281491D03*
X0251554Y0281491D03*
X0251711Y0281491D03*
X0251869Y0281491D03*
X0252026Y0281491D03*
X0252184Y0281491D03*
X0252341Y0281491D03*
X0252499Y0281491D03*
X0252656Y0281491D03*
X0252814Y0281491D03*
X0252971Y0281491D03*
X0253129Y0281491D03*
X0252026Y0279759D03*
X0252026Y0278026D03*
X0251869Y0278026D03*
X0251711Y0278026D03*
X0251554Y0278026D03*
X0251396Y0278026D03*
X0252184Y0278026D03*
X0252341Y0278026D03*
X0252499Y0278026D03*
X0252656Y0278026D03*
X0252814Y0278026D03*
X0252971Y0278026D03*
X0253129Y0278026D03*
X0253286Y0278026D03*
X0251239Y0276294D03*
X0251081Y0276294D03*
X0250924Y0276294D03*
X0250766Y0276451D03*
X0250609Y0276451D03*
X0250451Y0276451D03*
X0250294Y0276609D03*
X0250136Y0276609D03*
X0249979Y0276609D03*
X0249822Y0276766D03*
X0249664Y0278026D03*
X0249822Y0274404D03*
X0250451Y0272514D03*
X0250609Y0272514D03*
X0250766Y0272514D03*
X0250924Y0272672D03*
X0251081Y0272672D03*
X0251239Y0272672D03*
X0250294Y0272357D03*
X0250136Y0272357D03*
X0249979Y0272357D03*
X0249822Y0272199D03*
X0249664Y0272199D03*
X0250609Y0271097D03*
X0251081Y0271097D03*
X0251239Y0271097D03*
X0270341Y0278530D03*
X0279396Y0278373D03*
X0279396Y0277113D03*
X0280341Y0280105D03*
X0298766Y0279920D03*
X0300341Y0280077D03*
X0308766Y0280298D03*
X0318136Y0275865D03*
X0318924Y0277440D03*
X0319081Y0277440D03*
X0319239Y0277282D03*
X0319711Y0277282D03*
X0319869Y0277440D03*
X0328136Y0278235D03*
X0328766Y0279967D03*
X0330026Y0279967D03*
X0328924Y0276503D03*
X0329239Y0274298D03*
X0330656Y0274298D03*
X0330814Y0274298D03*
X0318629Y0202979D03*
X0318629Y0199514D03*
X0318786Y0199514D03*
X0318314Y0199357D03*
X0317211Y0198885D03*
X0317054Y0198727D03*
X0316896Y0198727D03*
X0316739Y0197310D03*
X0317054Y0197152D03*
X0318314Y0196522D03*
X0318629Y0196365D03*
X0316739Y0194633D03*
X0316581Y0194790D03*
X0316424Y0194790D03*
X0316266Y0194790D03*
X0316109Y0194948D03*
X0315951Y0194948D03*
X0315794Y0194948D03*
X0315636Y0195105D03*
X0315479Y0195105D03*
X0315322Y0195105D03*
X0315322Y0192900D03*
X0315951Y0191010D03*
X0316109Y0191010D03*
X0316266Y0191010D03*
X0316424Y0191168D03*
X0316581Y0191168D03*
X0316739Y0191168D03*
X0315794Y0190853D03*
X0315636Y0190853D03*
X0315322Y0190696D03*
X0315164Y0190696D03*
X0318471Y0191798D03*
X0318629Y0191798D03*
X0315322Y0197940D03*
X0315164Y0202979D03*
X0320266Y0163192D03*
X0322786Y0163192D03*
X0322471Y0159727D03*
X0322314Y0159727D03*
X0322944Y0157837D03*
X0322786Y0156105D03*
X0321841Y0155633D03*
X0320109Y0157050D03*
X0320109Y0158625D03*
X0319951Y0153270D03*
X0124629Y0280353D03*
X0124471Y0280353D03*
X0124314Y0280353D03*
X0124156Y0280353D03*
X0123999Y0280353D03*
X0122739Y0280353D03*
X0122581Y0280353D03*
X0122424Y0280353D03*
X0122266Y0280353D03*
X0122109Y0280353D03*
X0121951Y0280353D03*
X0122109Y0282400D03*
X0122266Y0282558D03*
X0122424Y0282558D03*
X0122581Y0282558D03*
X0122739Y0282400D03*
X0123999Y0282243D03*
X0124156Y0282400D03*
X0124314Y0282400D03*
X0124629Y0282558D03*
X0122109Y0287440D03*
X0122266Y0287597D03*
X0121794Y0287597D03*
X0120849Y0288385D03*
X0123684Y0289487D03*
X0123841Y0289487D03*
X0123999Y0289329D03*
X0123999Y0295786D03*
X0124156Y0295786D03*
X0124314Y0295786D03*
X0124471Y0295786D03*
X0124629Y0295786D03*
X0124786Y0295786D03*
X0123841Y0295786D03*
X0123684Y0295786D03*
X0123526Y0295786D03*
X0123369Y0295786D03*
X0123211Y0295786D03*
X0123054Y0295786D03*
X0122896Y0295786D03*
X0122739Y0295786D03*
X0122581Y0295786D03*
X0122424Y0295786D03*
X0122266Y0295786D03*
X0122109Y0295786D03*
X0121951Y0295786D03*
X0121794Y0295786D03*
D35*
X0319951Y0161932D03*
D36*
X0320109Y0163349D03*
X0322944Y0163349D03*
X0321841Y0153270D03*
X0320109Y0153270D03*
X0309554Y0121522D03*
X0309396Y0121522D03*
X0301444Y0117585D03*
X0319869Y0119160D03*
X0280814Y0117715D03*
X0280341Y0119605D03*
X0278136Y0115510D03*
X0260026Y0119160D03*
X0259869Y0119160D03*
X0258609Y0117270D03*
X0257979Y0123255D03*
X0260971Y0122940D03*
X0251129Y0121050D03*
X0247979Y0121207D03*
X0247822Y0121207D03*
X0248924Y0125144D03*
X0249869Y0125144D03*
X0250026Y0125144D03*
X0250184Y0117113D03*
X0241129Y0121050D03*
X0237979Y0121207D03*
X0237822Y0121207D03*
X0238924Y0125144D03*
X0239869Y0125144D03*
X0240026Y0125144D03*
X0240184Y0117113D03*
X0230341Y0118688D03*
X0230184Y0118688D03*
X0229081Y0118058D03*
X0228609Y0120420D03*
X0220184Y0119003D03*
X0220026Y0119003D03*
X0219711Y0118845D03*
X0218609Y0120735D03*
X0220184Y0122467D03*
X0211444Y0127479D03*
X0211286Y0127479D03*
X0211129Y0127479D03*
X0209081Y0127479D03*
X0209711Y0123385D03*
X0201444Y0122782D03*
X0201286Y0122782D03*
X0201286Y0120577D03*
X0198609Y0118688D03*
X0197664Y0116955D03*
X0201286Y0116955D03*
X0197507Y0124199D03*
X0190184Y0126062D03*
X0190026Y0126062D03*
X0189081Y0123070D03*
X0188924Y0123070D03*
X0188924Y0120550D03*
X0189081Y0120550D03*
X0189239Y0120392D03*
X0189396Y0120392D03*
X0189711Y0120235D03*
X0188451Y0118503D03*
X0188451Y0116770D03*
X0191759Y0117558D03*
X0205034Y0190825D03*
X0205979Y0195707D03*
X0205034Y0199959D03*
X0205507Y0210818D03*
X0205822Y0210975D03*
X0205979Y0211133D03*
X0206136Y0211290D03*
X0206294Y0211448D03*
X0207081Y0212235D03*
X0206294Y0213022D03*
X0205979Y0213180D03*
X0205822Y0213337D03*
X0205664Y0213495D03*
X0208026Y0213022D03*
X0208184Y0213180D03*
X0208341Y0213337D03*
X0208499Y0213495D03*
X0208026Y0211290D03*
X0208341Y0211133D03*
X0208499Y0210975D03*
X0208656Y0224948D03*
X0208499Y0225105D03*
X0208341Y0225262D03*
X0208026Y0225420D03*
X0207081Y0226365D03*
X0206294Y0227152D03*
X0205979Y0227310D03*
X0205822Y0227467D03*
X0205664Y0227625D03*
X0206294Y0225577D03*
X0206136Y0225420D03*
X0205979Y0225262D03*
X0205822Y0225105D03*
X0208026Y0227152D03*
X0208184Y0227310D03*
X0208341Y0227467D03*
X0208499Y0227625D03*
X0208184Y0229357D03*
X0206136Y0231562D03*
X0205664Y0239983D03*
X0207554Y0243448D03*
X0184184Y0272113D03*
X0185129Y0276050D03*
X0181979Y0276207D03*
X0181822Y0276207D03*
X0182924Y0280144D03*
X0183869Y0280144D03*
X0184026Y0280144D03*
X0174814Y0277215D03*
X0174341Y0279105D03*
X0172136Y0275010D03*
X0165444Y0279196D03*
X0161507Y0277148D03*
X0163869Y0273684D03*
X0164026Y0273684D03*
X0162609Y0269904D03*
X0162451Y0269904D03*
X0162766Y0267542D03*
X0162924Y0267542D03*
X0164026Y0267542D03*
X0163081Y0265180D03*
X0163554Y0262345D03*
X0155129Y0266810D03*
X0154341Y0268857D03*
X0152609Y0268857D03*
X0151822Y0266810D03*
X0153554Y0263345D03*
X0124944Y0288385D03*
X0122424Y0287755D03*
X0203869Y0278743D03*
X0213711Y0277503D03*
X0213869Y0277503D03*
X0215286Y0279865D03*
X0225444Y0278865D03*
X0233711Y0279003D03*
X0249979Y0278184D03*
X0251869Y0279759D03*
X0250136Y0281333D03*
X0249979Y0281333D03*
X0250294Y0274404D03*
X0249349Y0269522D03*
X0280499Y0278373D03*
X0317507Y0278385D03*
X0318609Y0279959D03*
X0320341Y0279959D03*
X0320971Y0275865D03*
X0317979Y0275865D03*
X0318136Y0269093D03*
X0329239Y0276660D03*
X0329711Y0276503D03*
X0330026Y0276345D03*
X0330971Y0278235D03*
X0329711Y0279810D03*
X0329239Y0279810D03*
X0327979Y0278235D03*
X0318314Y0202822D03*
X0318156Y0202664D03*
X0317999Y0202507D03*
X0317841Y0202349D03*
X0317684Y0202192D03*
X0316266Y0202192D03*
X0316109Y0202349D03*
X0315951Y0202507D03*
X0315794Y0202664D03*
X0315636Y0202664D03*
X0315479Y0202822D03*
X0315636Y0197940D03*
X0315794Y0192900D03*
X0317999Y0191798D03*
X0318156Y0191798D03*
D37*
X0315007Y0192900D03*
X0315007Y0190696D03*
X0315007Y0197940D03*
X0318944Y0200774D03*
X0315007Y0202979D03*
X0320581Y0163034D03*
X0320109Y0161459D03*
X0320109Y0160042D03*
X0321526Y0159885D03*
X0321684Y0159885D03*
X0321841Y0159885D03*
X0320424Y0158625D03*
X0320266Y0158625D03*
X0320266Y0157050D03*
X0320109Y0155475D03*
X0321369Y0155633D03*
X0321526Y0155633D03*
X0322156Y0155948D03*
X0322471Y0156105D03*
X0322786Y0157837D03*
X0322944Y0161459D03*
X0322471Y0163034D03*
X0321999Y0153270D03*
X0320499Y0122782D03*
X0319869Y0122782D03*
X0318609Y0122782D03*
X0318451Y0122782D03*
X0317664Y0121365D03*
X0319239Y0121365D03*
X0327664Y0121207D03*
X0328451Y0122625D03*
X0328609Y0122625D03*
X0328766Y0122625D03*
X0329396Y0121207D03*
X0331444Y0121050D03*
X0330499Y0116483D03*
X0301129Y0117428D03*
X0300971Y0117428D03*
X0300499Y0119003D03*
X0298609Y0117428D03*
X0298451Y0117428D03*
X0287507Y0117585D03*
X0281444Y0117873D03*
X0281444Y0115196D03*
X0277349Y0120865D03*
X0278451Y0121810D03*
X0261444Y0121050D03*
X0260184Y0122625D03*
X0258924Y0123570D03*
X0258766Y0123570D03*
X0258766Y0119475D03*
X0258609Y0119475D03*
X0251444Y0123097D03*
X0250341Y0120735D03*
X0250184Y0120735D03*
X0248766Y0121522D03*
X0248451Y0118845D03*
X0247664Y0118845D03*
X0250499Y0117270D03*
X0240499Y0117270D03*
X0238451Y0118845D03*
X0237664Y0118845D03*
X0238766Y0121522D03*
X0240184Y0120735D03*
X0240341Y0120735D03*
X0241444Y0123097D03*
X0230499Y0116483D03*
X0228294Y0118058D03*
X0220499Y0116798D03*
X0218451Y0116798D03*
X0217664Y0118215D03*
X0218766Y0118688D03*
X0219239Y0120735D03*
X0219396Y0120735D03*
X0218609Y0122940D03*
X0218451Y0122940D03*
X0217664Y0123255D03*
X0218451Y0124672D03*
X0220499Y0124672D03*
X0211601Y0123699D03*
X0209869Y0123699D03*
X0209239Y0123699D03*
X0208609Y0121337D03*
X0211601Y0121337D03*
X0208609Y0117873D03*
X0209239Y0116613D03*
X0210026Y0116613D03*
X0210971Y0116613D03*
X0211129Y0116613D03*
X0200656Y0116640D03*
X0200499Y0118688D03*
X0200814Y0120735D03*
X0198136Y0120735D03*
X0197822Y0124357D03*
X0199869Y0124357D03*
X0200026Y0124357D03*
X0201444Y0124514D03*
X0198294Y0116640D03*
X0189081Y0116770D03*
X0189081Y0118503D03*
X0190341Y0123385D03*
X0190499Y0123385D03*
X0191286Y0124959D03*
X0190814Y0126377D03*
X0191759Y0126534D03*
X0189396Y0126377D03*
X0188451Y0126534D03*
X0188924Y0124959D03*
X0209129Y0199329D03*
X0209129Y0201534D03*
X0205192Y0213652D03*
X0209129Y0215070D03*
X0205192Y0227782D03*
X0205192Y0240140D03*
X0206294Y0241715D03*
X0207711Y0241558D03*
X0209129Y0240140D03*
X0184499Y0272270D03*
X0182451Y0273845D03*
X0181664Y0273845D03*
X0182766Y0276522D03*
X0184184Y0275735D03*
X0184341Y0275735D03*
X0185444Y0278097D03*
X0191822Y0278428D03*
X0191979Y0278428D03*
X0192609Y0278428D03*
X0194971Y0278428D03*
X0195129Y0278428D03*
X0201822Y0278428D03*
X0202451Y0280003D03*
X0204341Y0278428D03*
X0212136Y0279707D03*
X0221822Y0278707D03*
X0221979Y0278707D03*
X0222451Y0280282D03*
X0222609Y0280282D03*
X0224341Y0280282D03*
X0224971Y0278707D03*
X0224499Y0273983D03*
X0232451Y0280420D03*
X0232766Y0280420D03*
X0234499Y0276483D03*
X0242451Y0280140D03*
X0242609Y0280140D03*
X0243869Y0280140D03*
X0244499Y0280140D03*
X0252341Y0279759D03*
X0253444Y0281491D03*
X0253444Y0278026D03*
X0251554Y0267318D03*
X0252341Y0265270D03*
X0270499Y0276483D03*
X0270184Y0278530D03*
X0269554Y0278530D03*
X0270026Y0280420D03*
X0270184Y0280420D03*
X0270341Y0280420D03*
X0270499Y0280420D03*
X0279554Y0278530D03*
X0280499Y0280105D03*
X0287507Y0280455D03*
X0288766Y0280298D03*
X0288924Y0280298D03*
X0289081Y0280298D03*
X0289239Y0280298D03*
X0298451Y0280077D03*
X0300499Y0280077D03*
X0300026Y0278188D03*
X0300184Y0278030D03*
X0300499Y0275983D03*
X0308451Y0280298D03*
X0317822Y0278227D03*
X0318451Y0277755D03*
X0318609Y0277597D03*
X0320184Y0277597D03*
X0321129Y0278227D03*
X0320499Y0279959D03*
X0320499Y0275865D03*
X0318294Y0275865D03*
X0327822Y0275873D03*
X0328294Y0276188D03*
X0328451Y0276345D03*
X0328609Y0276345D03*
X0330499Y0276188D03*
X0331444Y0276188D03*
X0330499Y0278235D03*
X0330341Y0280125D03*
X0331444Y0280282D03*
X0328451Y0280125D03*
X0328294Y0278235D03*
X0175444Y0277373D03*
X0175444Y0274696D03*
X0171349Y0280365D03*
X0172451Y0281310D03*
X0165129Y0279038D03*
X0163396Y0279038D03*
X0163239Y0279038D03*
X0161822Y0279038D03*
X0162136Y0276676D03*
X0162294Y0276518D03*
X0162609Y0276361D03*
X0162766Y0276361D03*
X0164499Y0273684D03*
X0164656Y0273684D03*
X0163554Y0269747D03*
X0163396Y0269747D03*
X0165129Y0268959D03*
X0164499Y0267227D03*
X0165129Y0265495D03*
X0164499Y0263920D03*
X0163396Y0265495D03*
X0162136Y0265495D03*
X0161979Y0265495D03*
X0161822Y0265495D03*
X0164499Y0259983D03*
X0154499Y0260983D03*
X0154499Y0264920D03*
X0153239Y0266337D03*
X0154499Y0268857D03*
X0154341Y0270274D03*
X0155286Y0270274D03*
X0152609Y0270274D03*
X0152294Y0276731D03*
X0152136Y0276888D03*
X0151664Y0279251D03*
X0152451Y0280668D03*
X0152766Y0280668D03*
X0153554Y0279251D03*
X0155444Y0279093D03*
X0124944Y0280353D03*
X0123841Y0287440D03*
X0124944Y0295786D03*
D38*
X0152136Y0273503D03*
X0152294Y0273503D03*
X0161507Y0273605D03*
X0163711Y0257227D03*
X0191664Y0275199D03*
X0191822Y0275042D03*
X0195129Y0275199D03*
X0195286Y0275199D03*
X0195444Y0275357D03*
X0201664Y0275199D03*
X0201822Y0275042D03*
X0205129Y0275199D03*
X0205286Y0275199D03*
X0205444Y0275357D03*
X0213711Y0272227D03*
X0223554Y0271385D03*
X0241349Y0277857D03*
X0243239Y0277227D03*
X0260499Y0277385D03*
X0260656Y0277385D03*
X0279711Y0273727D03*
X0307349Y0278014D03*
X0310184Y0277385D03*
X0321444Y0269487D03*
X0205822Y0222192D03*
X0320109Y0167050D03*
X0322786Y0150357D03*
X0319239Y0125696D03*
X0317349Y0125066D03*
X0309081Y0125538D03*
X0299396Y0121759D03*
X0289081Y0121601D03*
X0327349Y0124908D03*
X0330971Y0125223D03*
X0331129Y0125066D03*
X0210814Y0130865D03*
X0198924Y0131365D03*
X0189869Y0130865D03*
D39*
X0191601Y0130314D03*
X0187349Y0130471D03*
X0191444Y0121810D03*
X0191601Y0121810D03*
X0197507Y0120420D03*
X0198766Y0118688D03*
X0201444Y0120420D03*
X0201286Y0114436D03*
X0201129Y0114436D03*
X0200971Y0114436D03*
X0200814Y0114436D03*
X0200656Y0114436D03*
X0200499Y0114436D03*
X0200341Y0114436D03*
X0200184Y0114436D03*
X0200026Y0114436D03*
X0199869Y0114436D03*
X0199711Y0114436D03*
X0199554Y0114436D03*
X0199396Y0114436D03*
X0199239Y0114436D03*
X0199081Y0114436D03*
X0198924Y0114436D03*
X0198766Y0114436D03*
X0198609Y0114436D03*
X0198451Y0114436D03*
X0198294Y0114436D03*
X0198136Y0114436D03*
X0197979Y0114436D03*
X0197822Y0114436D03*
X0197664Y0114436D03*
X0197507Y0114436D03*
X0189081Y0114566D03*
X0188924Y0114566D03*
X0188766Y0114566D03*
X0188609Y0114566D03*
X0187664Y0114566D03*
X0186877Y0114566D03*
X0206877Y0114408D03*
X0207664Y0114408D03*
X0218294Y0120735D03*
X0220656Y0122310D03*
X0220814Y0122310D03*
X0220814Y0119160D03*
X0220656Y0119160D03*
X0220656Y0114436D03*
X0220499Y0114436D03*
X0220341Y0114436D03*
X0220184Y0114436D03*
X0220814Y0114436D03*
X0228924Y0114436D03*
X0229081Y0114436D03*
X0229239Y0114436D03*
X0229396Y0114436D03*
X0229554Y0114436D03*
X0229711Y0114436D03*
X0230656Y0114436D03*
X0230971Y0114436D03*
X0231129Y0114436D03*
X0230656Y0118688D03*
X0228294Y0120420D03*
X0228136Y0123255D03*
X0227979Y0123255D03*
X0227664Y0123255D03*
X0220814Y0127034D03*
X0220656Y0127034D03*
X0220499Y0127034D03*
X0220341Y0127034D03*
X0220184Y0127034D03*
X0220026Y0127034D03*
X0219869Y0127034D03*
X0218766Y0127034D03*
X0218609Y0127034D03*
X0218451Y0127034D03*
X0218294Y0127034D03*
X0211759Y0127479D03*
X0207192Y0131101D03*
X0198294Y0132388D03*
X0198136Y0132388D03*
X0197979Y0132388D03*
X0197822Y0132388D03*
X0197664Y0132388D03*
X0197507Y0132388D03*
X0238766Y0127822D03*
X0238924Y0127822D03*
X0239081Y0127822D03*
X0239239Y0127822D03*
X0239396Y0127822D03*
X0239554Y0127822D03*
X0239711Y0127822D03*
X0239869Y0127822D03*
X0240026Y0127822D03*
X0241286Y0121050D03*
X0239869Y0114278D03*
X0239711Y0114278D03*
X0239554Y0114278D03*
X0239396Y0114278D03*
X0239239Y0114278D03*
X0239081Y0114278D03*
X0238924Y0114278D03*
X0248924Y0114278D03*
X0249081Y0114278D03*
X0249239Y0114278D03*
X0249396Y0114278D03*
X0249554Y0114278D03*
X0249711Y0114278D03*
X0249869Y0114278D03*
X0251286Y0121050D03*
X0257507Y0123097D03*
X0257664Y0123097D03*
X0257664Y0125774D03*
X0257822Y0125774D03*
X0257979Y0125774D03*
X0258136Y0125774D03*
X0258294Y0125774D03*
X0258451Y0125774D03*
X0258609Y0125774D03*
X0258766Y0125774D03*
X0258924Y0125774D03*
X0259081Y0125774D03*
X0259239Y0125774D03*
X0259396Y0125774D03*
X0259554Y0125774D03*
X0259711Y0125774D03*
X0259869Y0125774D03*
X0260026Y0125774D03*
X0260184Y0125774D03*
X0260341Y0125774D03*
X0260499Y0125774D03*
X0260656Y0125774D03*
X0260814Y0125774D03*
X0260971Y0125774D03*
X0261129Y0125774D03*
X0261286Y0125774D03*
X0260656Y0119003D03*
X0260499Y0119003D03*
X0258294Y0117270D03*
X0258136Y0114436D03*
X0257979Y0114436D03*
X0257664Y0114436D03*
X0250026Y0127822D03*
X0249869Y0127822D03*
X0249711Y0127822D03*
X0249554Y0127822D03*
X0249396Y0127822D03*
X0249239Y0127822D03*
X0249081Y0127822D03*
X0248924Y0127822D03*
X0248766Y0127822D03*
X0277507Y0120865D03*
X0280341Y0117558D03*
X0280499Y0117558D03*
X0278609Y0115668D03*
X0288451Y0114436D03*
X0288609Y0114436D03*
X0288766Y0114436D03*
X0288924Y0114436D03*
X0298451Y0114278D03*
X0298609Y0114278D03*
X0298766Y0114278D03*
X0298924Y0114278D03*
X0309554Y0119003D03*
X0310026Y0119003D03*
X0310184Y0119003D03*
X0309081Y0121680D03*
X0308924Y0121680D03*
X0319554Y0119003D03*
X0320184Y0119003D03*
X0329554Y0119003D03*
X0330184Y0119003D03*
X0330341Y0121680D03*
X0298369Y0129388D03*
X0295731Y0145727D03*
X0295731Y0148207D03*
X0290337Y0148207D03*
X0290337Y0145727D03*
X0320266Y0153270D03*
X0321526Y0153270D03*
X0321684Y0153270D03*
X0298369Y0177656D03*
X0316266Y0192900D03*
X0317526Y0191798D03*
X0317684Y0191798D03*
X0315951Y0197940D03*
X0317664Y0268778D03*
X0320814Y0273030D03*
X0320971Y0273030D03*
X0321129Y0273030D03*
X0321286Y0273030D03*
X0321129Y0275865D03*
X0321444Y0278385D03*
X0320184Y0279959D03*
X0318766Y0279959D03*
X0318766Y0282794D03*
X0318924Y0282794D03*
X0319081Y0282794D03*
X0319239Y0282794D03*
X0319396Y0282794D03*
X0319554Y0282794D03*
X0319711Y0282794D03*
X0319869Y0282794D03*
X0320026Y0282794D03*
X0311444Y0282660D03*
X0310656Y0282660D03*
X0309081Y0282660D03*
X0308924Y0282660D03*
X0308766Y0282660D03*
X0308609Y0282660D03*
X0300656Y0282440D03*
X0300499Y0282440D03*
X0300341Y0282440D03*
X0300184Y0282440D03*
X0300026Y0282440D03*
X0299869Y0282440D03*
X0298766Y0282440D03*
X0298609Y0282440D03*
X0298451Y0282440D03*
X0291129Y0282660D03*
X0290971Y0282660D03*
X0290814Y0282660D03*
X0290656Y0282660D03*
X0290499Y0282660D03*
X0290341Y0282660D03*
X0290184Y0282660D03*
X0290026Y0282660D03*
X0289869Y0282660D03*
X0289711Y0282660D03*
X0289554Y0282660D03*
X0289396Y0282660D03*
X0289239Y0282660D03*
X0289081Y0282660D03*
X0288924Y0282660D03*
X0288766Y0282660D03*
X0288609Y0282660D03*
X0288451Y0282660D03*
X0288294Y0282660D03*
X0288136Y0282660D03*
X0287979Y0282660D03*
X0287822Y0282660D03*
X0287664Y0282660D03*
X0280499Y0282467D03*
X0280341Y0282467D03*
X0280184Y0282467D03*
X0280026Y0282467D03*
X0279869Y0282467D03*
X0270814Y0282625D03*
X0270656Y0282625D03*
X0270499Y0282625D03*
X0270026Y0282625D03*
X0269869Y0282625D03*
X0269711Y0282625D03*
X0268136Y0282625D03*
X0267979Y0282625D03*
X0267822Y0282625D03*
X0267664Y0282625D03*
X0258294Y0282503D03*
X0258136Y0282503D03*
X0257979Y0282503D03*
X0257822Y0282503D03*
X0257664Y0282503D03*
X0257507Y0282503D03*
X0251711Y0279759D03*
X0250451Y0281176D03*
X0250451Y0278341D03*
X0250766Y0274404D03*
X0244656Y0282503D03*
X0244499Y0282503D03*
X0244341Y0282503D03*
X0244184Y0282503D03*
X0244026Y0282503D03*
X0243869Y0282503D03*
X0233869Y0282625D03*
X0233711Y0282625D03*
X0233554Y0282625D03*
X0233396Y0282625D03*
X0233239Y0282625D03*
X0232766Y0282625D03*
X0232609Y0282625D03*
X0232451Y0282625D03*
X0232294Y0282625D03*
X0232136Y0282625D03*
X0224341Y0282644D03*
X0224184Y0282644D03*
X0224026Y0282644D03*
X0223869Y0282644D03*
X0223711Y0282644D03*
X0223554Y0282644D03*
X0223396Y0282644D03*
X0223239Y0282644D03*
X0223081Y0282644D03*
X0222924Y0282644D03*
X0222766Y0282644D03*
X0222609Y0282644D03*
X0223554Y0276503D03*
X0224184Y0276503D03*
X0214341Y0277345D03*
X0205286Y0282522D03*
X0205129Y0282522D03*
X0204971Y0282522D03*
X0204814Y0282522D03*
X0204656Y0282522D03*
X0203711Y0278900D03*
X0194499Y0282522D03*
X0194341Y0282522D03*
X0194184Y0282522D03*
X0194026Y0282522D03*
X0193711Y0278900D03*
X0192924Y0278900D03*
X0185286Y0276050D03*
X0184026Y0282822D03*
X0183869Y0282822D03*
X0183711Y0282822D03*
X0183554Y0282822D03*
X0183396Y0282822D03*
X0183239Y0282822D03*
X0183081Y0282822D03*
X0182924Y0282822D03*
X0182766Y0282822D03*
X0174499Y0277058D03*
X0174341Y0277058D03*
X0172609Y0275168D03*
X0171507Y0280365D03*
X0163711Y0273684D03*
X0163554Y0273684D03*
X0164814Y0271479D03*
X0165444Y0268802D03*
X0162294Y0269904D03*
X0151664Y0266810D03*
X0154341Y0279723D03*
X0153869Y0282873D03*
X0153711Y0282873D03*
X0153554Y0282873D03*
X0153396Y0282873D03*
X0153239Y0282873D03*
X0152766Y0282873D03*
X0152609Y0282873D03*
X0152451Y0282873D03*
X0152294Y0282873D03*
X0152136Y0282873D03*
X0182924Y0269278D03*
X0183081Y0269278D03*
X0183239Y0269278D03*
X0183396Y0269278D03*
X0183554Y0269278D03*
X0183711Y0269278D03*
X0183869Y0269278D03*
X0205192Y0242503D03*
X0206609Y0243133D03*
X0206924Y0242975D03*
X0207239Y0242975D03*
X0209129Y0230459D03*
X0205192Y0230459D03*
X0206924Y0226365D03*
X0207239Y0226365D03*
X0207239Y0212235D03*
X0206924Y0212235D03*
X0206451Y0195707D03*
X0331129Y0278235D03*
D40*
X0331129Y0280361D03*
X0330971Y0280361D03*
X0330814Y0280361D03*
X0327979Y0280361D03*
X0327822Y0280361D03*
X0327664Y0280361D03*
X0330814Y0276109D03*
X0330971Y0276109D03*
X0331129Y0276109D03*
X0331286Y0276109D03*
X0317979Y0273739D03*
X0300341Y0275904D03*
X0280341Y0276404D03*
X0270656Y0280341D03*
X0270341Y0276404D03*
X0251396Y0267239D03*
X0249349Y0272436D03*
X0234341Y0276404D03*
X0224341Y0273904D03*
X0223554Y0278471D03*
X0223396Y0278471D03*
X0214341Y0274904D03*
X0212924Y0279471D03*
X0212766Y0279471D03*
X0212609Y0279471D03*
X0192294Y0280081D03*
X0183396Y0276759D03*
X0183554Y0275499D03*
X0183711Y0275499D03*
X0175601Y0280444D03*
X0171349Y0274774D03*
X0165286Y0273605D03*
X0165129Y0273605D03*
X0163396Y0271400D03*
X0164184Y0278802D03*
X0162294Y0280534D03*
X0152766Y0279014D03*
X0152609Y0279014D03*
X0152451Y0279014D03*
X0155129Y0273818D03*
X0155286Y0273818D03*
X0155444Y0273660D03*
X0154026Y0266573D03*
X0153869Y0266573D03*
X0154341Y0260904D03*
X0164341Y0259904D03*
X0125101Y0288463D03*
X0205034Y0214991D03*
X0205034Y0193739D03*
X0208451Y0126928D03*
X0208609Y0126928D03*
X0208766Y0126928D03*
X0208924Y0126928D03*
X0210341Y0123936D03*
X0210499Y0123936D03*
X0210656Y0123936D03*
X0210814Y0123936D03*
X0210971Y0123936D03*
X0211129Y0123936D03*
X0211129Y0121101D03*
X0211129Y0118109D03*
X0211286Y0118109D03*
X0210971Y0118109D03*
X0210184Y0118109D03*
X0210026Y0118109D03*
X0209869Y0118109D03*
X0209711Y0118109D03*
X0209554Y0118109D03*
X0209396Y0118109D03*
X0209239Y0118109D03*
X0209081Y0118109D03*
X0218294Y0116877D03*
X0218294Y0124751D03*
X0229711Y0120341D03*
X0229869Y0120341D03*
X0239396Y0121759D03*
X0239554Y0120499D03*
X0239711Y0120499D03*
X0249396Y0121759D03*
X0249554Y0120499D03*
X0249711Y0120499D03*
X0259554Y0122388D03*
X0259554Y0123806D03*
X0259396Y0123806D03*
X0259711Y0117349D03*
X0259869Y0117349D03*
X0277349Y0115274D03*
X0281601Y0120944D03*
X0289554Y0117349D03*
X0290656Y0117349D03*
X0290814Y0117349D03*
X0290971Y0117349D03*
X0300656Y0118924D03*
X0307664Y0120971D03*
X0307822Y0120971D03*
X0307979Y0120971D03*
X0308136Y0120971D03*
X0310341Y0116404D03*
X0319869Y0121129D03*
X0320026Y0121129D03*
X0320184Y0121129D03*
X0320341Y0121129D03*
X0320499Y0121129D03*
X0320656Y0121129D03*
X0328609Y0120971D03*
X0330341Y0116404D03*
X0322786Y0154451D03*
X0321054Y0156971D03*
X0320896Y0156971D03*
X0322156Y0157759D03*
X0320581Y0160121D03*
X0320424Y0160121D03*
X0320266Y0160121D03*
X0314849Y0190774D03*
X0314849Y0195026D03*
X0314849Y0200853D03*
X0201286Y0124593D03*
X0201129Y0124593D03*
X0200971Y0124593D03*
X0199081Y0124593D03*
X0198924Y0124593D03*
X0198766Y0124593D03*
X0198609Y0124593D03*
X0199081Y0120971D03*
X0199239Y0120971D03*
X0199396Y0120971D03*
X0199554Y0120971D03*
X0199711Y0120971D03*
X0199869Y0120971D03*
X0191601Y0123621D03*
X0191444Y0123621D03*
X0191286Y0123621D03*
X0190814Y0124723D03*
X0189396Y0124723D03*
X0188924Y0126613D03*
X0188766Y0126613D03*
X0191286Y0126613D03*
X0191444Y0126613D03*
X0190026Y0121731D03*
X0189869Y0118581D03*
X0189711Y0118581D03*
X0190184Y0117636D03*
X0190341Y0117636D03*
X0190499Y0117636D03*
X0189869Y0116692D03*
X0189711Y0116692D03*
D41*
X0189554Y0114644D03*
X0189396Y0114644D03*
X0189239Y0114644D03*
X0188451Y0114644D03*
X0188451Y0120629D03*
X0188451Y0122991D03*
X0191444Y0130392D03*
X0198924Y0118766D03*
X0200026Y0118766D03*
X0201444Y0117034D03*
X0201444Y0114514D03*
X0208451Y0114487D03*
X0208609Y0114487D03*
X0208766Y0114487D03*
X0208924Y0114487D03*
X0209081Y0114487D03*
X0209239Y0114487D03*
X0209396Y0114487D03*
X0209554Y0114487D03*
X0209711Y0114487D03*
X0209869Y0114487D03*
X0210026Y0114487D03*
X0210184Y0114487D03*
X0210341Y0114487D03*
X0210499Y0114487D03*
X0210656Y0114487D03*
X0210814Y0114487D03*
X0210971Y0114487D03*
X0211129Y0114487D03*
X0211286Y0114487D03*
X0211444Y0114487D03*
X0211601Y0114487D03*
X0211759Y0114487D03*
X0217979Y0114514D03*
X0218136Y0114514D03*
X0218294Y0114514D03*
X0218451Y0114514D03*
X0218609Y0114514D03*
X0220026Y0114514D03*
X0220971Y0114514D03*
X0227822Y0114514D03*
X0227979Y0114514D03*
X0228136Y0114514D03*
X0228294Y0114514D03*
X0228451Y0114514D03*
X0228609Y0114514D03*
X0228766Y0114514D03*
X0230499Y0114514D03*
X0230814Y0118766D03*
X0228136Y0120341D03*
X0227979Y0120341D03*
X0228294Y0123176D03*
X0228451Y0123176D03*
X0227507Y0123176D03*
X0220971Y0126955D03*
X0219711Y0126955D03*
X0219554Y0126955D03*
X0219081Y0126955D03*
X0218924Y0126955D03*
X0218136Y0126955D03*
X0217979Y0126955D03*
X0218924Y0123333D03*
X0218136Y0120814D03*
X0209554Y0123148D03*
X0209396Y0123148D03*
X0209869Y0127243D03*
X0210026Y0127243D03*
X0210184Y0127243D03*
X0210341Y0127243D03*
X0207349Y0131180D03*
X0237507Y0121129D03*
X0241444Y0121129D03*
X0247507Y0121129D03*
X0251444Y0121129D03*
X0250341Y0127743D03*
X0250184Y0127743D03*
X0248609Y0127743D03*
X0248451Y0127743D03*
X0240341Y0127743D03*
X0240184Y0127743D03*
X0238609Y0127743D03*
X0238451Y0127743D03*
X0238451Y0114357D03*
X0238609Y0114357D03*
X0238766Y0114357D03*
X0240026Y0114357D03*
X0240184Y0114357D03*
X0240341Y0114357D03*
X0248451Y0114357D03*
X0248609Y0114357D03*
X0248766Y0114357D03*
X0250026Y0114357D03*
X0250184Y0114357D03*
X0250341Y0114357D03*
X0257507Y0114514D03*
X0258294Y0114514D03*
X0258451Y0114514D03*
X0258136Y0117349D03*
X0257979Y0117349D03*
X0260814Y0118924D03*
X0260971Y0118924D03*
X0261444Y0123018D03*
X0261444Y0125696D03*
X0257507Y0125696D03*
X0278766Y0115747D03*
X0280184Y0117479D03*
X0288294Y0114514D03*
X0289081Y0114514D03*
X0297507Y0117979D03*
X0298294Y0114357D03*
X0299081Y0114357D03*
X0310026Y0114357D03*
X0310184Y0114357D03*
X0310341Y0118924D03*
X0308766Y0121759D03*
X0319396Y0118924D03*
X0320341Y0118924D03*
X0320341Y0114514D03*
X0320184Y0114514D03*
X0320026Y0114514D03*
X0330184Y0114357D03*
X0330341Y0118924D03*
X0330184Y0121759D03*
X0320424Y0153192D03*
X0317369Y0191877D03*
X0316581Y0192979D03*
X0316424Y0192979D03*
X0317211Y0194081D03*
X0317369Y0194081D03*
X0317526Y0194081D03*
X0316109Y0198018D03*
X0316896Y0201325D03*
X0317054Y0201325D03*
X0320656Y0273109D03*
X0317664Y0275786D03*
X0318924Y0279881D03*
X0320026Y0279881D03*
X0320184Y0282715D03*
X0320341Y0282715D03*
X0320499Y0282715D03*
X0318609Y0282715D03*
X0318451Y0282715D03*
X0309554Y0282581D03*
X0309396Y0282581D03*
X0309239Y0282581D03*
X0308451Y0282581D03*
X0308294Y0282581D03*
X0308136Y0282581D03*
X0300971Y0282361D03*
X0300814Y0282361D03*
X0299711Y0282361D03*
X0299081Y0282361D03*
X0298924Y0282361D03*
X0298294Y0282361D03*
X0298136Y0282361D03*
X0297979Y0282361D03*
X0299711Y0278739D03*
X0291444Y0282581D03*
X0291286Y0282581D03*
X0287507Y0282581D03*
X0280814Y0282388D03*
X0280656Y0282388D03*
X0279711Y0282388D03*
X0279554Y0282388D03*
X0278136Y0282388D03*
X0277979Y0282388D03*
X0277822Y0282388D03*
X0277664Y0282388D03*
X0277507Y0282388D03*
X0270971Y0282546D03*
X0269554Y0282546D03*
X0268294Y0282546D03*
X0267507Y0282546D03*
X0258609Y0282424D03*
X0258451Y0282424D03*
X0251554Y0279837D03*
X0250766Y0281097D03*
X0250609Y0281097D03*
X0250609Y0278420D03*
X0251711Y0275585D03*
X0251869Y0275585D03*
X0252026Y0275585D03*
X0251081Y0274483D03*
X0250924Y0274483D03*
X0251869Y0273381D03*
X0252026Y0273381D03*
X0244814Y0282424D03*
X0243711Y0282424D03*
X0243554Y0282424D03*
X0242924Y0282424D03*
X0242766Y0282424D03*
X0242609Y0282424D03*
X0242451Y0282424D03*
X0242294Y0282424D03*
X0242136Y0282424D03*
X0234341Y0282546D03*
X0234184Y0282546D03*
X0234026Y0282546D03*
X0231979Y0282546D03*
X0224814Y0282566D03*
X0224656Y0282566D03*
X0224499Y0282566D03*
X0222451Y0282566D03*
X0222294Y0282566D03*
X0222136Y0282566D03*
X0215444Y0282463D03*
X0215286Y0282463D03*
X0215129Y0282463D03*
X0214971Y0282463D03*
X0214814Y0282463D03*
X0214656Y0282463D03*
X0214499Y0282463D03*
X0214341Y0282463D03*
X0214184Y0282463D03*
X0214026Y0282463D03*
X0213869Y0282463D03*
X0213711Y0282463D03*
X0213554Y0282463D03*
X0213396Y0282463D03*
X0213239Y0282463D03*
X0213081Y0282463D03*
X0212924Y0282463D03*
X0212766Y0282463D03*
X0212609Y0282463D03*
X0212451Y0282463D03*
X0212294Y0282463D03*
X0212136Y0282463D03*
X0211979Y0282463D03*
X0211822Y0282463D03*
X0211664Y0282463D03*
X0211507Y0282463D03*
X0213396Y0277266D03*
X0205444Y0282444D03*
X0203239Y0282444D03*
X0203081Y0282444D03*
X0202924Y0282444D03*
X0202766Y0282444D03*
X0202609Y0282444D03*
X0202451Y0282444D03*
X0203554Y0278979D03*
X0194814Y0282444D03*
X0194656Y0282444D03*
X0193869Y0282444D03*
X0193711Y0282444D03*
X0192924Y0282444D03*
X0192766Y0282444D03*
X0192609Y0282444D03*
X0192451Y0282444D03*
X0192294Y0282444D03*
X0192136Y0282444D03*
X0184341Y0282743D03*
X0184184Y0282743D03*
X0182609Y0282743D03*
X0182451Y0282743D03*
X0181507Y0276129D03*
X0185444Y0276129D03*
X0184341Y0269357D03*
X0184184Y0269357D03*
X0184026Y0269357D03*
X0182766Y0269357D03*
X0182609Y0269357D03*
X0182451Y0269357D03*
X0174184Y0276979D03*
X0172766Y0275247D03*
X0164971Y0271400D03*
X0163396Y0273605D03*
X0162136Y0269825D03*
X0161979Y0269825D03*
X0155286Y0266888D03*
X0152924Y0265786D03*
X0153239Y0276810D03*
X0153396Y0276810D03*
X0154184Y0279802D03*
X0154184Y0282794D03*
X0154341Y0282794D03*
X0154026Y0282794D03*
X0151979Y0282794D03*
X0162451Y0282896D03*
X0162609Y0282896D03*
X0162766Y0282896D03*
X0163711Y0282896D03*
X0163869Y0282896D03*
X0164026Y0282896D03*
X0164184Y0282896D03*
X0164341Y0282896D03*
X0164499Y0282896D03*
X0164656Y0282896D03*
X0164814Y0282896D03*
X0121007Y0288463D03*
X0205979Y0239747D03*
X0206766Y0239747D03*
X0206766Y0243054D03*
X0207396Y0243054D03*
X0224341Y0276424D03*
X0207711Y0196888D03*
X0207554Y0196888D03*
X0207396Y0196888D03*
X0206766Y0195786D03*
X0206609Y0195786D03*
X0207554Y0194684D03*
X0207711Y0194684D03*
X0327664Y0278156D03*
X0327664Y0282408D03*
X0327507Y0282408D03*
X0327822Y0282408D03*
X0327979Y0282408D03*
X0328136Y0282408D03*
X0328294Y0282408D03*
X0328451Y0282408D03*
X0328609Y0282408D03*
X0328766Y0282408D03*
X0328924Y0282408D03*
X0329081Y0282408D03*
X0329239Y0282408D03*
X0329396Y0282408D03*
X0329554Y0282408D03*
X0329711Y0282408D03*
X0329869Y0282408D03*
X0330026Y0282408D03*
X0330184Y0282408D03*
X0330341Y0282408D03*
X0330499Y0282408D03*
X0330656Y0282408D03*
X0330814Y0282408D03*
X0330971Y0282408D03*
X0331129Y0282408D03*
X0331286Y0282408D03*
D42*
X0331444Y0282329D03*
X0331286Y0278235D03*
X0327507Y0278235D03*
X0321286Y0275865D03*
X0320499Y0273188D03*
X0318294Y0273188D03*
X0317507Y0275865D03*
X0317349Y0278542D03*
X0319081Y0279959D03*
X0319239Y0279959D03*
X0319396Y0279959D03*
X0319554Y0279959D03*
X0319711Y0279959D03*
X0319869Y0279959D03*
X0320656Y0282636D03*
X0318294Y0282636D03*
X0318136Y0282636D03*
X0309711Y0282503D03*
X0307979Y0282503D03*
X0301129Y0282282D03*
X0299554Y0282282D03*
X0299239Y0282282D03*
X0297822Y0282282D03*
X0299554Y0278660D03*
X0281129Y0282310D03*
X0280971Y0282310D03*
X0279396Y0282310D03*
X0279239Y0282310D03*
X0278294Y0282310D03*
X0271129Y0282467D03*
X0269396Y0282467D03*
X0258924Y0282345D03*
X0258766Y0282345D03*
X0251396Y0279759D03*
X0250924Y0281018D03*
X0250924Y0278499D03*
X0250766Y0278499D03*
X0251239Y0274404D03*
X0251711Y0273302D03*
X0252341Y0269522D03*
X0245129Y0282345D03*
X0244971Y0282345D03*
X0243396Y0282345D03*
X0243081Y0282345D03*
X0241979Y0282345D03*
X0241822Y0282345D03*
X0234499Y0282467D03*
X0231822Y0282467D03*
X0231664Y0282467D03*
X0234499Y0278845D03*
X0224971Y0282487D03*
X0221979Y0282487D03*
X0221822Y0282487D03*
X0224499Y0276345D03*
X0214499Y0277188D03*
X0203554Y0282365D03*
X0203396Y0282365D03*
X0202294Y0282365D03*
X0202136Y0282365D03*
X0195129Y0282365D03*
X0194971Y0282365D03*
X0193554Y0282365D03*
X0193081Y0282365D03*
X0191979Y0282365D03*
X0184656Y0282664D03*
X0184499Y0282664D03*
X0182294Y0282664D03*
X0174026Y0276900D03*
X0173081Y0275325D03*
X0172924Y0275325D03*
X0165129Y0271479D03*
X0163239Y0273684D03*
X0163239Y0276676D03*
X0163396Y0276676D03*
X0163554Y0282818D03*
X0163081Y0282818D03*
X0162924Y0282818D03*
X0162294Y0282818D03*
X0162136Y0282818D03*
X0161979Y0282818D03*
X0164971Y0282818D03*
X0154499Y0282715D03*
X0151822Y0282715D03*
X0151664Y0282715D03*
X0153869Y0279881D03*
X0154026Y0279881D03*
X0153711Y0276731D03*
X0153554Y0276731D03*
X0162924Y0264865D03*
X0182294Y0269436D03*
X0184499Y0269436D03*
X0184656Y0269436D03*
X0206136Y0239668D03*
X0206294Y0239668D03*
X0206451Y0239668D03*
X0206609Y0239668D03*
X0206766Y0226365D03*
X0207396Y0226365D03*
X0207396Y0212235D03*
X0206766Y0212235D03*
X0206924Y0195707D03*
X0207396Y0194605D03*
X0208026Y0190825D03*
X0207507Y0131259D03*
X0217822Y0126877D03*
X0219239Y0126877D03*
X0221129Y0126877D03*
X0219239Y0123255D03*
X0219081Y0123255D03*
X0220971Y0122310D03*
X0220971Y0119160D03*
X0217979Y0120735D03*
X0217822Y0120735D03*
X0210971Y0120235D03*
X0217822Y0114593D03*
X0221129Y0114593D03*
X0227507Y0114593D03*
X0227664Y0114593D03*
X0229869Y0114593D03*
X0230341Y0114593D03*
X0231286Y0114593D03*
X0228451Y0117428D03*
X0230971Y0118688D03*
X0238294Y0114436D03*
X0240499Y0114436D03*
X0240656Y0114436D03*
X0248294Y0114436D03*
X0250499Y0114436D03*
X0250656Y0114436D03*
X0258609Y0114593D03*
X0258766Y0114593D03*
X0261129Y0118845D03*
X0261286Y0118845D03*
X0250656Y0127664D03*
X0250499Y0127664D03*
X0248294Y0127664D03*
X0240656Y0127664D03*
X0240499Y0127664D03*
X0238294Y0127664D03*
X0228766Y0123097D03*
X0228609Y0123097D03*
X0199869Y0118688D03*
X0199711Y0118688D03*
X0199239Y0118688D03*
X0199081Y0118688D03*
X0191759Y0121810D03*
X0190026Y0114723D03*
X0189869Y0114723D03*
X0189711Y0114723D03*
X0191286Y0130471D03*
X0187507Y0130471D03*
X0278924Y0115825D03*
X0279081Y0115825D03*
X0280026Y0117400D03*
X0288136Y0114593D03*
X0290026Y0118215D03*
X0290184Y0118215D03*
X0298136Y0114436D03*
X0309869Y0114436D03*
X0310341Y0114436D03*
X0309396Y0118845D03*
X0308609Y0121837D03*
X0308451Y0121837D03*
X0320499Y0118845D03*
X0320499Y0114593D03*
X0319869Y0114593D03*
X0329869Y0114436D03*
X0330026Y0114436D03*
X0330341Y0114436D03*
X0330499Y0118845D03*
X0330026Y0121837D03*
X0296322Y0147026D03*
X0320581Y0153270D03*
X0320739Y0153270D03*
X0320896Y0153270D03*
X0321054Y0153270D03*
X0321211Y0153270D03*
X0321369Y0153270D03*
X0317211Y0191798D03*
X0317054Y0191798D03*
X0316739Y0192900D03*
X0316266Y0197940D03*
X0316739Y0201404D03*
X0317211Y0201404D03*
X0317507Y0268778D03*
X0318924Y0270196D03*
X0319081Y0270196D03*
X0319239Y0270196D03*
X0319396Y0270196D03*
X0319554Y0270196D03*
X0319711Y0270196D03*
X0319869Y0270196D03*
X0124786Y0288385D03*
X0123211Y0288857D03*
X0122581Y0288070D03*
D43*
X0121794Y0284999D03*
X0121636Y0284999D03*
X0121164Y0284999D03*
X0121007Y0284999D03*
X0124156Y0284999D03*
X0124314Y0284999D03*
X0124786Y0284999D03*
X0124944Y0284999D03*
X0123054Y0281377D03*
X0122896Y0281377D03*
X0121794Y0281377D03*
X0121794Y0291928D03*
X0121636Y0291928D03*
X0121164Y0291928D03*
X0121007Y0291928D03*
X0124156Y0291928D03*
X0124314Y0291928D03*
X0124786Y0291928D03*
X0124944Y0291928D03*
X0153396Y0273188D03*
X0153554Y0273188D03*
X0155444Y0276337D03*
X0165444Y0276282D03*
X0172136Y0280286D03*
X0174814Y0280286D03*
X0185444Y0269987D03*
X0204499Y0281814D03*
X0244341Y0277070D03*
X0244499Y0277070D03*
X0244656Y0277070D03*
X0244814Y0277227D03*
X0244971Y0277227D03*
X0245129Y0277385D03*
X0250294Y0270073D03*
X0251396Y0270073D03*
X0258136Y0277070D03*
X0260814Y0281794D03*
X0260971Y0281794D03*
X0261129Y0281794D03*
X0261286Y0281794D03*
X0268766Y0281916D03*
X0289711Y0277070D03*
X0289869Y0277070D03*
X0307979Y0277385D03*
X0308294Y0277227D03*
X0308451Y0277227D03*
X0308766Y0277070D03*
X0310656Y0277227D03*
X0320971Y0269644D03*
X0328451Y0271227D03*
X0328609Y0271227D03*
X0330184Y0271227D03*
X0330341Y0271227D03*
X0318944Y0205577D03*
X0318786Y0205577D03*
X0318314Y0205577D03*
X0318156Y0205577D03*
X0315794Y0205577D03*
X0315636Y0205577D03*
X0315164Y0205577D03*
X0315007Y0205577D03*
X0322156Y0167207D03*
X0322944Y0166735D03*
X0321054Y0149570D03*
X0320896Y0149570D03*
X0320656Y0125853D03*
X0320499Y0125853D03*
X0320341Y0125853D03*
X0320814Y0125696D03*
X0321129Y0125538D03*
X0308294Y0125696D03*
X0308136Y0125696D03*
X0301129Y0121601D03*
X0300971Y0121759D03*
X0300814Y0121759D03*
X0300656Y0121916D03*
X0300499Y0121916D03*
X0300341Y0121916D03*
X0297979Y0121759D03*
X0297822Y0121759D03*
X0291129Y0121444D03*
X0290971Y0121601D03*
X0290656Y0121759D03*
X0290499Y0121759D03*
X0290341Y0121759D03*
X0288136Y0121759D03*
X0280814Y0120786D03*
X0278136Y0120786D03*
X0260971Y0115144D03*
X0260814Y0115144D03*
X0251444Y0114987D03*
X0241444Y0114987D03*
X0230971Y0122546D03*
X0230814Y0122546D03*
X0210971Y0126613D03*
X0209239Y0126613D03*
X0211444Y0130550D03*
X0208766Y0131810D03*
X0188766Y0131022D03*
X0205979Y0191377D03*
X0207081Y0191377D03*
X0207239Y0200353D03*
X0207396Y0200353D03*
X0205979Y0200353D03*
X0205822Y0200353D03*
X0205979Y0208377D03*
X0207081Y0208377D03*
X0208341Y0242581D03*
D44*
X0206924Y0239196D03*
X0205034Y0240140D03*
X0163711Y0260770D03*
X0153711Y0261770D03*
X0163239Y0271479D03*
X0163081Y0277621D03*
X0171349Y0277373D03*
X0183396Y0275420D03*
X0183554Y0276837D03*
X0213711Y0275770D03*
X0223081Y0277290D03*
X0223711Y0274770D03*
X0233711Y0277270D03*
X0249349Y0278026D03*
X0249349Y0281491D03*
X0269081Y0280262D03*
X0269711Y0277270D03*
X0279711Y0277270D03*
X0299711Y0276770D03*
X0317664Y0273818D03*
X0317822Y0273818D03*
X0318609Y0275865D03*
X0320184Y0275865D03*
X0328609Y0278235D03*
X0330184Y0278235D03*
X0314849Y0197940D03*
X0314849Y0192900D03*
X0289629Y0170727D03*
X0296479Y0146948D03*
X0321054Y0158625D03*
X0321211Y0158625D03*
X0321999Y0157837D03*
X0329081Y0119790D03*
X0329711Y0117270D03*
X0319711Y0117270D03*
X0309711Y0117270D03*
X0309081Y0119790D03*
X0299081Y0118688D03*
X0299081Y0116010D03*
X0289081Y0116168D03*
X0277349Y0117873D03*
X0259396Y0122310D03*
X0249554Y0121837D03*
X0249396Y0120420D03*
X0239554Y0121837D03*
X0239396Y0120420D03*
X0220026Y0120735D03*
X0219869Y0120735D03*
X0211601Y0118188D03*
X0211444Y0118188D03*
X0190026Y0118503D03*
X0190026Y0116770D03*
X0189869Y0121810D03*
X0189554Y0124644D03*
X0190656Y0124644D03*
D45*
X0197349Y0116010D03*
X0288609Y0121050D03*
X0298766Y0121207D03*
X0321369Y0166499D03*
X0321526Y0166499D03*
X0321684Y0166499D03*
X0309396Y0277936D03*
X0291286Y0278408D03*
X0290971Y0278251D03*
X0290814Y0278251D03*
X0258766Y0277778D03*
X0258451Y0277936D03*
D46*
X0259239Y0277621D03*
X0251239Y0279759D03*
X0321841Y0166499D03*
X0288451Y0121050D03*
X0209869Y0131259D03*
X0209711Y0131259D03*
X0209554Y0131259D03*
X0209396Y0131259D03*
X0209239Y0131259D03*
X0190656Y0129841D03*
D47*
X0188609Y0130944D03*
X0188451Y0130944D03*
X0208451Y0131731D03*
X0208609Y0131731D03*
X0211601Y0130471D03*
X0219869Y0123412D03*
X0221444Y0122467D03*
X0221444Y0119003D03*
X0230499Y0122625D03*
X0230656Y0122625D03*
X0237507Y0127192D03*
X0238766Y0117743D03*
X0238924Y0117743D03*
X0237507Y0114908D03*
X0247507Y0114908D03*
X0248766Y0117743D03*
X0248924Y0117743D03*
X0260499Y0115066D03*
X0260656Y0115066D03*
X0247507Y0127192D03*
X0277979Y0120865D03*
X0280971Y0120865D03*
X0287507Y0121522D03*
X0287822Y0121680D03*
X0287979Y0121680D03*
X0290814Y0121680D03*
X0297507Y0121680D03*
X0297664Y0121680D03*
X0307822Y0125617D03*
X0307979Y0125617D03*
X0322314Y0167129D03*
X0322471Y0167129D03*
X0322786Y0166971D03*
X0317369Y0197940D03*
X0252184Y0266215D03*
X0251869Y0266373D03*
X0251711Y0269995D03*
X0251554Y0269995D03*
X0250136Y0269995D03*
X0249979Y0269995D03*
X0257507Y0277306D03*
X0257822Y0277148D03*
X0257979Y0277148D03*
X0260341Y0281873D03*
X0260499Y0281873D03*
X0260656Y0281873D03*
X0268609Y0281995D03*
X0307349Y0282030D03*
X0310499Y0282030D03*
X0310814Y0277306D03*
X0319396Y0273660D03*
X0320814Y0269723D03*
X0328294Y0271306D03*
X0330499Y0271306D03*
X0321444Y0282164D03*
X0208656Y0230459D03*
X0205664Y0230459D03*
X0205664Y0208298D03*
X0205822Y0208298D03*
X0207239Y0208298D03*
X0207396Y0208298D03*
X0208026Y0208298D03*
X0208026Y0200274D03*
X0207869Y0200274D03*
X0207711Y0200274D03*
X0207554Y0200274D03*
X0205664Y0200274D03*
X0205664Y0191298D03*
X0205822Y0191298D03*
X0207239Y0191298D03*
X0207396Y0191298D03*
X0181507Y0269908D03*
X0182766Y0272743D03*
X0182924Y0272743D03*
X0174971Y0280365D03*
X0171979Y0280365D03*
X0165286Y0276203D03*
X0162294Y0273684D03*
X0162136Y0273684D03*
X0161507Y0269589D03*
X0153711Y0269172D03*
X0153554Y0269172D03*
X0153396Y0269172D03*
X0153239Y0269172D03*
X0153711Y0273109D03*
X0153869Y0273109D03*
X0155286Y0276416D03*
X0181507Y0282192D03*
X0191349Y0281892D03*
X0201349Y0281892D03*
X0124314Y0288385D03*
X0124156Y0288385D03*
X0123841Y0281298D03*
X0123684Y0281298D03*
X0123211Y0281298D03*
X0121636Y0281298D03*
X0121479Y0281298D03*
D48*
X0121951Y0282322D03*
X0124471Y0282479D03*
X0123999Y0287518D03*
X0123526Y0289408D03*
X0151507Y0277282D03*
X0154499Y0279487D03*
X0161664Y0277070D03*
X0165286Y0268881D03*
X0164184Y0267463D03*
X0162609Y0267463D03*
X0165444Y0265259D03*
X0164184Y0263841D03*
X0154184Y0264841D03*
X0153081Y0266101D03*
X0151979Y0266731D03*
X0155444Y0270196D03*
X0171979Y0274932D03*
X0173396Y0276034D03*
X0174971Y0277294D03*
X0175129Y0277294D03*
X0172924Y0278869D03*
X0172609Y0279026D03*
X0182136Y0276286D03*
X0181507Y0273766D03*
X0184341Y0272192D03*
X0185444Y0273766D03*
X0184971Y0275971D03*
X0184814Y0275971D03*
X0184184Y0280066D03*
X0182766Y0280066D03*
X0191507Y0278664D03*
X0194026Y0279924D03*
X0194184Y0280081D03*
X0195444Y0278664D03*
X0201507Y0278664D03*
X0211664Y0279944D03*
X0213239Y0279944D03*
X0213396Y0279944D03*
X0213554Y0279944D03*
X0213711Y0279944D03*
X0213869Y0279944D03*
X0214026Y0279944D03*
X0214184Y0279944D03*
X0214341Y0279944D03*
X0214499Y0279944D03*
X0214656Y0279944D03*
X0214814Y0279944D03*
X0214971Y0279944D03*
X0215129Y0279944D03*
X0221507Y0278944D03*
X0233554Y0278766D03*
X0249822Y0278105D03*
X0249822Y0281412D03*
X0252656Y0275585D03*
X0252814Y0275585D03*
X0252971Y0275585D03*
X0252971Y0273381D03*
X0252814Y0273381D03*
X0252656Y0273381D03*
X0250136Y0274483D03*
X0249979Y0274483D03*
X0250451Y0271018D03*
X0251554Y0265822D03*
X0270499Y0278451D03*
X0280341Y0278609D03*
X0300026Y0279999D03*
X0300184Y0279999D03*
X0300499Y0277951D03*
X0319396Y0277203D03*
X0319554Y0277203D03*
X0320814Y0275786D03*
X0321286Y0278306D03*
X0327507Y0275794D03*
X0329081Y0276581D03*
X0330184Y0276266D03*
X0330814Y0278156D03*
X0329869Y0279888D03*
X0329081Y0279888D03*
X0328924Y0279888D03*
X0328924Y0274377D03*
X0329081Y0274377D03*
X0328766Y0274377D03*
X0328609Y0274377D03*
X0330971Y0274377D03*
X0331129Y0274377D03*
X0331286Y0274377D03*
X0318471Y0202900D03*
X0315322Y0202900D03*
X0316739Y0198648D03*
X0315479Y0198018D03*
X0316896Y0197231D03*
X0317211Y0197073D03*
X0318471Y0196444D03*
X0318471Y0194081D03*
X0318314Y0194081D03*
X0318156Y0194081D03*
X0318314Y0191877D03*
X0315636Y0192979D03*
X0315479Y0192979D03*
X0315479Y0190774D03*
X0318471Y0199436D03*
X0322629Y0159648D03*
X0322786Y0159648D03*
X0322944Y0156026D03*
X0321444Y0121444D03*
X0317507Y0121444D03*
X0311444Y0121286D03*
X0309869Y0121444D03*
X0309711Y0121444D03*
X0297822Y0117664D03*
X0281129Y0117794D03*
X0280971Y0117794D03*
X0279396Y0116534D03*
X0277979Y0115432D03*
X0278924Y0119369D03*
X0278609Y0119526D03*
X0260814Y0122861D03*
X0258294Y0123333D03*
X0258136Y0123333D03*
X0259554Y0119239D03*
X0259711Y0119239D03*
X0258924Y0117349D03*
X0258766Y0117349D03*
X0251444Y0118766D03*
X0250341Y0117192D03*
X0247507Y0118766D03*
X0248136Y0121286D03*
X0250814Y0120971D03*
X0250971Y0120971D03*
X0250184Y0125066D03*
X0248766Y0125066D03*
X0240184Y0125066D03*
X0238766Y0125066D03*
X0238136Y0121286D03*
X0237507Y0118766D03*
X0240341Y0117192D03*
X0241444Y0118766D03*
X0240971Y0120971D03*
X0240814Y0120971D03*
X0230026Y0118609D03*
X0229869Y0118609D03*
X0229711Y0118451D03*
X0229554Y0118451D03*
X0229396Y0118294D03*
X0229239Y0118294D03*
X0228924Y0120341D03*
X0228766Y0120341D03*
X0220026Y0116719D03*
X0219239Y0118609D03*
X0219554Y0118766D03*
X0219869Y0118924D03*
X0218766Y0120814D03*
X0218766Y0123018D03*
X0220026Y0124593D03*
X0211759Y0116692D03*
X0208451Y0117794D03*
X0210184Y0121101D03*
X0201129Y0116877D03*
X0200341Y0118766D03*
X0197664Y0120499D03*
X0191601Y0119526D03*
X0190656Y0119841D03*
X0190341Y0119999D03*
X0190184Y0119999D03*
X0190026Y0120156D03*
X0189869Y0120156D03*
X0189554Y0120314D03*
X0191129Y0121731D03*
X0189396Y0123148D03*
X0189239Y0123148D03*
X0189869Y0126140D03*
X0190341Y0126140D03*
X0191601Y0117636D03*
X0206136Y0192322D03*
X0208341Y0194684D03*
X0208499Y0194684D03*
X0208656Y0194684D03*
X0208656Y0196888D03*
X0208499Y0196888D03*
X0208341Y0196888D03*
X0205822Y0195786D03*
X0205664Y0195786D03*
X0206136Y0201455D03*
X0206924Y0201455D03*
X0208499Y0201455D03*
X0208341Y0209322D03*
X0208184Y0211211D03*
X0208656Y0213573D03*
X0206136Y0213101D03*
X0205507Y0213573D03*
X0205664Y0210896D03*
X0206136Y0209322D03*
X0205664Y0225026D03*
X0206136Y0227231D03*
X0205507Y0227703D03*
X0206294Y0229121D03*
X0206136Y0229278D03*
X0207711Y0228963D03*
X0208026Y0229121D03*
X0208656Y0227703D03*
X0208184Y0225341D03*
X0208026Y0231640D03*
X0207869Y0231798D03*
X0206451Y0231798D03*
X0206294Y0231798D03*
X0205507Y0240062D03*
X0208184Y0241636D03*
X0208184Y0243526D03*
X0206136Y0243526D03*
X0330499Y0121444D03*
D49*
X0329396Y0114829D03*
X0319396Y0114987D03*
X0309396Y0114829D03*
X0301444Y0114829D03*
X0297507Y0114829D03*
X0287507Y0114987D03*
X0287664Y0121601D03*
X0277822Y0120944D03*
X0260341Y0114987D03*
X0260184Y0114987D03*
X0257349Y0117349D03*
X0251286Y0114829D03*
X0248609Y0117822D03*
X0241286Y0114829D03*
X0238609Y0117822D03*
X0231444Y0118609D03*
X0230341Y0122703D03*
X0230184Y0122703D03*
X0227349Y0120341D03*
X0219711Y0114987D03*
X0219554Y0114987D03*
X0219396Y0114987D03*
X0219239Y0114987D03*
X0219081Y0114987D03*
X0218924Y0114987D03*
X0217349Y0114987D03*
X0217349Y0126483D03*
X0211759Y0130392D03*
X0191759Y0115117D03*
X0241286Y0127270D03*
X0251286Y0127270D03*
X0307507Y0125538D03*
X0307664Y0125538D03*
X0322629Y0167050D03*
X0317999Y0205420D03*
X0252026Y0266294D03*
X0251869Y0269916D03*
X0249822Y0269916D03*
X0257664Y0277227D03*
X0260026Y0281951D03*
X0260184Y0281951D03*
X0268451Y0282073D03*
X0241349Y0281951D03*
X0235286Y0282073D03*
X0221349Y0282093D03*
X0204341Y0281971D03*
X0185286Y0282270D03*
X0182609Y0272822D03*
X0185286Y0269829D03*
X0171822Y0280444D03*
X0165129Y0276282D03*
X0164971Y0276282D03*
X0161349Y0282424D03*
X0155286Y0282322D03*
X0155129Y0276337D03*
X0154184Y0273030D03*
X0154026Y0273030D03*
X0154026Y0269251D03*
X0153869Y0269251D03*
X0153081Y0269251D03*
X0152924Y0269251D03*
X0123999Y0284841D03*
X0123526Y0281219D03*
X0123369Y0281219D03*
X0121322Y0281219D03*
X0123999Y0291770D03*
X0205822Y0242581D03*
X0205979Y0242581D03*
X0208499Y0242581D03*
X0208656Y0242581D03*
X0207869Y0226286D03*
X0207869Y0212156D03*
X0207869Y0208219D03*
X0207711Y0208219D03*
X0207554Y0208219D03*
X0205507Y0208219D03*
X0205507Y0200196D03*
X0205507Y0191219D03*
X0207554Y0191219D03*
X0310971Y0277227D03*
X0311129Y0277385D03*
X0311286Y0277385D03*
X0311444Y0277542D03*
X0310341Y0282109D03*
X0317507Y0282243D03*
X0319239Y0273581D03*
X0319554Y0273581D03*
X0320656Y0269802D03*
X0328136Y0271385D03*
X0330656Y0271385D03*
X0297349Y0281888D03*
D50*
X0310814Y0282739D03*
X0310971Y0282739D03*
X0311129Y0282739D03*
X0311286Y0282739D03*
X0317822Y0275786D03*
X0317979Y0269014D03*
X0317822Y0268857D03*
X0329396Y0276739D03*
X0329554Y0276581D03*
X0329869Y0276424D03*
X0331444Y0274377D03*
X0327822Y0278156D03*
X0329396Y0279731D03*
X0329554Y0279731D03*
X0270341Y0282703D03*
X0270184Y0282703D03*
X0252499Y0275585D03*
X0252341Y0275585D03*
X0252184Y0275585D03*
X0250609Y0274483D03*
X0250451Y0274483D03*
X0252184Y0273381D03*
X0252341Y0273381D03*
X0252499Y0273381D03*
X0250294Y0278262D03*
X0250136Y0278262D03*
X0250294Y0281255D03*
X0233081Y0282703D03*
X0232924Y0282703D03*
X0224026Y0276581D03*
X0223869Y0276581D03*
X0223711Y0276581D03*
X0215444Y0279944D03*
X0214184Y0277424D03*
X0214026Y0277424D03*
X0213554Y0277424D03*
X0211507Y0279944D03*
X0193554Y0278822D03*
X0193396Y0278822D03*
X0193239Y0278822D03*
X0193081Y0278822D03*
X0183711Y0280223D03*
X0183554Y0280223D03*
X0183396Y0280223D03*
X0183239Y0280223D03*
X0183081Y0280223D03*
X0181664Y0276129D03*
X0183869Y0272034D03*
X0184026Y0272034D03*
X0174656Y0277136D03*
X0174499Y0279341D03*
X0175444Y0280444D03*
X0172451Y0279184D03*
X0172451Y0275089D03*
X0172294Y0275089D03*
X0164656Y0271400D03*
X0163869Y0267621D03*
X0163711Y0267621D03*
X0163554Y0267621D03*
X0163396Y0267621D03*
X0163239Y0267621D03*
X0163081Y0267621D03*
X0163711Y0262581D03*
X0153711Y0263581D03*
X0153081Y0282951D03*
X0152924Y0282951D03*
X0123369Y0289093D03*
X0120849Y0280904D03*
X0205822Y0239904D03*
X0207081Y0242896D03*
X0209129Y0242581D03*
X0208184Y0231483D03*
X0205034Y0207904D03*
X0207869Y0196888D03*
X0208026Y0196888D03*
X0208184Y0196888D03*
X0206294Y0195786D03*
X0206136Y0195786D03*
X0207869Y0194684D03*
X0208026Y0194684D03*
X0208184Y0194684D03*
X0207034Y0131022D03*
X0206877Y0130865D03*
X0211601Y0127558D03*
X0210341Y0121259D03*
X0207507Y0114329D03*
X0207349Y0114329D03*
X0207192Y0114329D03*
X0207034Y0114329D03*
X0200184Y0118766D03*
X0197507Y0117034D03*
X0191759Y0119526D03*
X0191286Y0121731D03*
X0188766Y0120629D03*
X0188609Y0120629D03*
X0188609Y0122991D03*
X0188766Y0122991D03*
X0186877Y0130077D03*
X0187034Y0130235D03*
X0187192Y0130392D03*
X0191759Y0130235D03*
X0187507Y0114487D03*
X0187349Y0114487D03*
X0187192Y0114487D03*
X0187034Y0114487D03*
X0218451Y0120814D03*
X0220026Y0122546D03*
X0220341Y0122388D03*
X0220499Y0122388D03*
X0220499Y0119081D03*
X0220341Y0119081D03*
X0219396Y0118609D03*
X0228451Y0120341D03*
X0228924Y0117979D03*
X0230499Y0118766D03*
X0230814Y0114357D03*
X0239869Y0117034D03*
X0240026Y0117034D03*
X0237664Y0121129D03*
X0239081Y0125223D03*
X0239239Y0125223D03*
X0239396Y0125223D03*
X0239554Y0125223D03*
X0239711Y0125223D03*
X0247664Y0121129D03*
X0249081Y0125223D03*
X0249239Y0125223D03*
X0249396Y0125223D03*
X0249554Y0125223D03*
X0249711Y0125223D03*
X0249869Y0117034D03*
X0250026Y0117034D03*
X0257822Y0114357D03*
X0258451Y0117349D03*
X0260184Y0119081D03*
X0260341Y0119081D03*
X0261129Y0123018D03*
X0261286Y0123018D03*
X0257822Y0123176D03*
X0278451Y0119684D03*
X0280499Y0119841D03*
X0281444Y0120944D03*
X0280656Y0117636D03*
X0278451Y0115589D03*
X0278294Y0115589D03*
X0297664Y0117822D03*
X0309711Y0119081D03*
X0309869Y0119081D03*
X0309239Y0121601D03*
X0319711Y0119081D03*
X0320026Y0119081D03*
X0329711Y0119081D03*
X0329869Y0119081D03*
X0330026Y0119081D03*
X0322944Y0159648D03*
X0317841Y0191877D03*
X0316109Y0192979D03*
X0315951Y0192979D03*
X0317684Y0194081D03*
X0317841Y0194081D03*
X0317999Y0194081D03*
X0315794Y0198018D03*
X0252341Y0266766D03*
X0227822Y0123333D03*
D51*
X0208136Y0123227D03*
X0323101Y0158467D03*
D52*
X0218499Y0243368D02*
X0218648Y0243605D01*
X0218740Y0243869D01*
X0218771Y0244147D01*
X0218740Y0244425D01*
X0218648Y0244690D01*
X0218499Y0244927D01*
X0218301Y0245125D01*
X0218064Y0245274D01*
X0217799Y0245366D01*
X0217521Y0245397D01*
X0217243Y0245366D01*
X0216979Y0245274D01*
X0216742Y0245125D01*
X0216544Y0244927D01*
X0216395Y0244690D01*
X0216303Y0244425D01*
X0216271Y0244147D01*
X0216303Y0243869D01*
X0216395Y0243605D01*
X0216544Y0243368D01*
X0216742Y0243170D01*
X0216979Y0243021D01*
X0217243Y0242929D01*
X0217521Y0242897D01*
X0217799Y0242929D01*
X0218064Y0243021D01*
X0218301Y0243170D01*
X0218499Y0243368D01*
X0218495Y0243365D02*
X0216547Y0243365D01*
X0216541Y0243373D02*
X0218502Y0243373D01*
X0218507Y0243382D02*
X0216535Y0243382D01*
X0216530Y0243390D02*
X0218513Y0243390D01*
X0218518Y0243399D02*
X0216525Y0243399D01*
X0216519Y0243407D02*
X0218523Y0243407D01*
X0218529Y0243416D02*
X0216514Y0243416D01*
X0216509Y0243424D02*
X0218534Y0243424D01*
X0218539Y0243433D02*
X0216503Y0243433D01*
X0216498Y0243441D02*
X0218545Y0243441D01*
X0218550Y0243450D02*
X0216492Y0243450D01*
X0216487Y0243458D02*
X0218555Y0243458D01*
X0218561Y0243467D02*
X0216482Y0243467D01*
X0216476Y0243476D02*
X0218566Y0243476D01*
X0218572Y0243484D02*
X0216471Y0243484D01*
X0216466Y0243493D02*
X0218577Y0243493D01*
X0218582Y0243501D02*
X0216460Y0243501D01*
X0216455Y0243510D02*
X0218588Y0243510D01*
X0218593Y0243518D02*
X0216450Y0243518D01*
X0216444Y0243527D02*
X0218598Y0243527D01*
X0218604Y0243535D02*
X0216439Y0243535D01*
X0216434Y0243544D02*
X0218609Y0243544D01*
X0218614Y0243552D02*
X0216428Y0243552D01*
X0216423Y0243561D02*
X0218620Y0243561D01*
X0218625Y0243569D02*
X0216418Y0243569D01*
X0216412Y0243578D02*
X0218630Y0243578D01*
X0218636Y0243586D02*
X0216407Y0243586D01*
X0216402Y0243595D02*
X0218641Y0243595D01*
X0218646Y0243603D02*
X0216396Y0243603D01*
X0216393Y0243612D02*
X0218650Y0243612D01*
X0218653Y0243620D02*
X0216390Y0243620D01*
X0216387Y0243629D02*
X0218656Y0243629D01*
X0218659Y0243637D02*
X0216384Y0243637D01*
X0216381Y0243646D02*
X0218662Y0243646D01*
X0218665Y0243654D02*
X0216378Y0243654D01*
X0216375Y0243663D02*
X0218668Y0243663D01*
X0218671Y0243671D02*
X0216372Y0243671D01*
X0216369Y0243680D02*
X0218674Y0243680D01*
X0218677Y0243688D02*
X0216366Y0243688D01*
X0216363Y0243697D02*
X0218680Y0243697D01*
X0218683Y0243705D02*
X0216360Y0243705D01*
X0216357Y0243714D02*
X0218686Y0243714D01*
X0218689Y0243722D02*
X0216354Y0243722D01*
X0216351Y0243731D02*
X0218692Y0243731D01*
X0218695Y0243739D02*
X0216348Y0243739D01*
X0216345Y0243748D02*
X0218698Y0243748D01*
X0218701Y0243756D02*
X0216342Y0243756D01*
X0216339Y0243765D02*
X0218704Y0243765D01*
X0218706Y0243773D02*
X0216336Y0243773D01*
X0216333Y0243782D02*
X0218709Y0243782D01*
X0218712Y0243791D02*
X0216330Y0243791D01*
X0216327Y0243799D02*
X0218715Y0243799D01*
X0218718Y0243808D02*
X0216324Y0243808D01*
X0216321Y0243816D02*
X0218721Y0243816D01*
X0218724Y0243825D02*
X0216318Y0243825D01*
X0216315Y0243833D02*
X0218727Y0243833D01*
X0218730Y0243842D02*
X0216312Y0243842D01*
X0216309Y0243850D02*
X0218733Y0243850D01*
X0218736Y0243859D02*
X0216306Y0243859D01*
X0216303Y0243867D02*
X0218739Y0243867D01*
X0218741Y0243876D02*
X0216302Y0243876D01*
X0216301Y0243884D02*
X0218742Y0243884D01*
X0218743Y0243893D02*
X0216300Y0243893D01*
X0216299Y0243901D02*
X0218744Y0243901D01*
X0218745Y0243910D02*
X0216298Y0243910D01*
X0216297Y0243918D02*
X0218746Y0243918D01*
X0218746Y0243927D02*
X0216296Y0243927D01*
X0216295Y0243935D02*
X0218747Y0243935D01*
X0218748Y0243944D02*
X0216294Y0243944D01*
X0216293Y0243952D02*
X0218749Y0243952D01*
X0218750Y0243961D02*
X0216292Y0243961D01*
X0216291Y0243969D02*
X0218751Y0243969D01*
X0218752Y0243978D02*
X0216290Y0243978D01*
X0216289Y0243986D02*
X0218753Y0243986D01*
X0218754Y0243995D02*
X0216288Y0243995D01*
X0216288Y0244003D02*
X0218755Y0244003D01*
X0218756Y0244012D02*
X0216287Y0244012D01*
X0216286Y0244020D02*
X0218757Y0244020D01*
X0218758Y0244029D02*
X0216285Y0244029D01*
X0216284Y0244037D02*
X0218759Y0244037D01*
X0218760Y0244046D02*
X0216283Y0244046D01*
X0216282Y0244054D02*
X0218761Y0244054D01*
X0218762Y0244063D02*
X0216281Y0244063D01*
X0216280Y0244071D02*
X0218763Y0244071D01*
X0218764Y0244080D02*
X0216279Y0244080D01*
X0216278Y0244088D02*
X0218765Y0244088D01*
X0218766Y0244097D02*
X0216277Y0244097D01*
X0216276Y0244106D02*
X0218767Y0244106D01*
X0218768Y0244114D02*
X0216275Y0244114D01*
X0216274Y0244123D02*
X0218769Y0244123D01*
X0218769Y0244131D02*
X0216273Y0244131D01*
X0216272Y0244140D02*
X0218770Y0244140D01*
X0218771Y0244148D02*
X0216271Y0244148D01*
X0216272Y0244157D02*
X0218770Y0244157D01*
X0218769Y0244165D02*
X0216273Y0244165D01*
X0216274Y0244174D02*
X0218768Y0244174D01*
X0218767Y0244182D02*
X0216275Y0244182D01*
X0216276Y0244191D02*
X0218766Y0244191D01*
X0218765Y0244199D02*
X0216277Y0244199D01*
X0216278Y0244208D02*
X0218765Y0244208D01*
X0218764Y0244216D02*
X0216279Y0244216D01*
X0216280Y0244225D02*
X0218763Y0244225D01*
X0218762Y0244233D02*
X0216281Y0244233D01*
X0216282Y0244242D02*
X0218761Y0244242D01*
X0218760Y0244250D02*
X0216283Y0244250D01*
X0216284Y0244259D02*
X0218759Y0244259D01*
X0218758Y0244267D02*
X0216285Y0244267D01*
X0216286Y0244276D02*
X0218757Y0244276D01*
X0218756Y0244284D02*
X0216287Y0244284D01*
X0216288Y0244293D02*
X0218755Y0244293D01*
X0218754Y0244301D02*
X0216289Y0244301D01*
X0216290Y0244310D02*
X0218753Y0244310D01*
X0218752Y0244318D02*
X0216291Y0244318D01*
X0216292Y0244327D02*
X0218751Y0244327D01*
X0218750Y0244335D02*
X0216293Y0244335D01*
X0216293Y0244344D02*
X0218749Y0244344D01*
X0218748Y0244352D02*
X0216294Y0244352D01*
X0216295Y0244361D02*
X0218747Y0244361D01*
X0218746Y0244369D02*
X0216296Y0244369D01*
X0216297Y0244378D02*
X0218745Y0244378D01*
X0218744Y0244386D02*
X0216298Y0244386D01*
X0216299Y0244395D02*
X0218743Y0244395D01*
X0218742Y0244404D02*
X0216300Y0244404D01*
X0216301Y0244412D02*
X0218742Y0244412D01*
X0218741Y0244421D02*
X0216302Y0244421D01*
X0216304Y0244429D02*
X0218739Y0244429D01*
X0218736Y0244438D02*
X0216307Y0244438D01*
X0216310Y0244446D02*
X0218733Y0244446D01*
X0218730Y0244455D02*
X0216313Y0244455D01*
X0216316Y0244463D02*
X0218727Y0244463D01*
X0218724Y0244472D02*
X0216319Y0244472D01*
X0216322Y0244480D02*
X0218721Y0244480D01*
X0218718Y0244489D02*
X0216325Y0244489D01*
X0216328Y0244497D02*
X0218715Y0244497D01*
X0218712Y0244506D02*
X0216331Y0244506D01*
X0216334Y0244514D02*
X0218709Y0244514D01*
X0218706Y0244523D02*
X0216337Y0244523D01*
X0216340Y0244531D02*
X0218703Y0244531D01*
X0218700Y0244540D02*
X0216343Y0244540D01*
X0216346Y0244548D02*
X0218697Y0244548D01*
X0218694Y0244557D02*
X0216349Y0244557D01*
X0216352Y0244565D02*
X0218691Y0244565D01*
X0218688Y0244574D02*
X0216355Y0244574D01*
X0216358Y0244582D02*
X0218685Y0244582D01*
X0218682Y0244591D02*
X0216361Y0244591D01*
X0216364Y0244599D02*
X0218679Y0244599D01*
X0218676Y0244608D02*
X0216366Y0244608D01*
X0216369Y0244616D02*
X0218673Y0244616D01*
X0218670Y0244625D02*
X0216372Y0244625D01*
X0216375Y0244633D02*
X0218667Y0244633D01*
X0218664Y0244642D02*
X0216378Y0244642D01*
X0216381Y0244650D02*
X0218661Y0244650D01*
X0218658Y0244659D02*
X0216384Y0244659D01*
X0216387Y0244667D02*
X0218655Y0244667D01*
X0218652Y0244676D02*
X0216390Y0244676D01*
X0216393Y0244684D02*
X0218649Y0244684D01*
X0218645Y0244693D02*
X0216397Y0244693D01*
X0216403Y0244701D02*
X0218640Y0244701D01*
X0218635Y0244710D02*
X0216408Y0244710D01*
X0216413Y0244719D02*
X0218629Y0244719D01*
X0218624Y0244727D02*
X0216419Y0244727D01*
X0216424Y0244736D02*
X0218619Y0244736D01*
X0218613Y0244744D02*
X0216429Y0244744D01*
X0216435Y0244753D02*
X0218608Y0244753D01*
X0218603Y0244761D02*
X0216440Y0244761D01*
X0216445Y0244770D02*
X0218597Y0244770D01*
X0218592Y0244778D02*
X0216451Y0244778D01*
X0216456Y0244787D02*
X0218587Y0244787D01*
X0218581Y0244795D02*
X0216461Y0244795D01*
X0216467Y0244804D02*
X0218576Y0244804D01*
X0218571Y0244812D02*
X0216472Y0244812D01*
X0216477Y0244821D02*
X0218565Y0244821D01*
X0218560Y0244829D02*
X0216483Y0244829D01*
X0216488Y0244838D02*
X0218555Y0244838D01*
X0218549Y0244846D02*
X0216493Y0244846D01*
X0216499Y0244855D02*
X0218544Y0244855D01*
X0218538Y0244863D02*
X0216504Y0244863D01*
X0216510Y0244872D02*
X0218533Y0244872D01*
X0218528Y0244880D02*
X0216515Y0244880D01*
X0216520Y0244889D02*
X0218522Y0244889D01*
X0218517Y0244897D02*
X0216526Y0244897D01*
X0216531Y0244906D02*
X0218512Y0244906D01*
X0218506Y0244914D02*
X0216536Y0244914D01*
X0216542Y0244923D02*
X0218501Y0244923D01*
X0218494Y0244931D02*
X0216549Y0244931D01*
X0216557Y0244940D02*
X0218485Y0244940D01*
X0218477Y0244948D02*
X0216566Y0244948D01*
X0216574Y0244957D02*
X0218468Y0244957D01*
X0218460Y0244965D02*
X0216583Y0244965D01*
X0216591Y0244974D02*
X0218451Y0244974D01*
X0218443Y0244982D02*
X0216600Y0244982D01*
X0216608Y0244991D02*
X0218434Y0244991D01*
X0218426Y0244999D02*
X0216617Y0244999D01*
X0216625Y0245008D02*
X0218417Y0245008D01*
X0218409Y0245016D02*
X0216634Y0245016D01*
X0216642Y0245025D02*
X0218400Y0245025D01*
X0218392Y0245034D02*
X0216651Y0245034D01*
X0216659Y0245042D02*
X0218383Y0245042D01*
X0218375Y0245051D02*
X0216668Y0245051D01*
X0216676Y0245059D02*
X0218366Y0245059D01*
X0218358Y0245068D02*
X0216685Y0245068D01*
X0216693Y0245076D02*
X0218349Y0245076D01*
X0218341Y0245085D02*
X0216702Y0245085D01*
X0216710Y0245093D02*
X0218332Y0245093D01*
X0218324Y0245102D02*
X0216719Y0245102D01*
X0216728Y0245110D02*
X0218315Y0245110D01*
X0218307Y0245119D02*
X0216736Y0245119D01*
X0216746Y0245127D02*
X0218297Y0245127D01*
X0218283Y0245136D02*
X0216760Y0245136D01*
X0216773Y0245144D02*
X0218269Y0245144D01*
X0218256Y0245153D02*
X0216787Y0245153D01*
X0216800Y0245161D02*
X0218242Y0245161D01*
X0218229Y0245170D02*
X0216814Y0245170D01*
X0216827Y0245178D02*
X0218215Y0245178D01*
X0218202Y0245187D02*
X0216841Y0245187D01*
X0216854Y0245195D02*
X0218188Y0245195D01*
X0218175Y0245204D02*
X0216868Y0245204D01*
X0216882Y0245212D02*
X0218161Y0245212D01*
X0218148Y0245221D02*
X0216895Y0245221D01*
X0216909Y0245229D02*
X0218134Y0245229D01*
X0218120Y0245238D02*
X0216922Y0245238D01*
X0216936Y0245246D02*
X0218107Y0245246D01*
X0218093Y0245255D02*
X0216949Y0245255D01*
X0216963Y0245263D02*
X0218080Y0245263D01*
X0218066Y0245272D02*
X0216976Y0245272D01*
X0216999Y0245280D02*
X0218044Y0245280D01*
X0218020Y0245289D02*
X0217023Y0245289D01*
X0217047Y0245297D02*
X0217995Y0245297D01*
X0217971Y0245306D02*
X0217072Y0245306D01*
X0217096Y0245314D02*
X0217947Y0245314D01*
X0217922Y0245323D02*
X0217120Y0245323D01*
X0217145Y0245332D02*
X0217898Y0245332D01*
X0217874Y0245340D02*
X0217169Y0245340D01*
X0217193Y0245349D02*
X0217849Y0245349D01*
X0217825Y0245357D02*
X0217218Y0245357D01*
X0217242Y0245366D02*
X0217801Y0245366D01*
X0217728Y0245374D02*
X0217315Y0245374D01*
X0217391Y0245383D02*
X0217652Y0245383D01*
X0217576Y0245391D02*
X0217466Y0245391D01*
X0216556Y0243356D02*
X0218487Y0243356D01*
X0218478Y0243348D02*
X0216564Y0243348D01*
X0216573Y0243339D02*
X0218470Y0243339D01*
X0218461Y0243331D02*
X0216581Y0243331D01*
X0216590Y0243322D02*
X0218453Y0243322D01*
X0218444Y0243314D02*
X0216598Y0243314D01*
X0216607Y0243305D02*
X0218436Y0243305D01*
X0218427Y0243297D02*
X0216615Y0243297D01*
X0216624Y0243288D02*
X0218419Y0243288D01*
X0218410Y0243280D02*
X0216632Y0243280D01*
X0216641Y0243271D02*
X0218402Y0243271D01*
X0218393Y0243263D02*
X0216649Y0243263D01*
X0216658Y0243254D02*
X0218385Y0243254D01*
X0218376Y0243246D02*
X0216666Y0243246D01*
X0216675Y0243237D02*
X0218368Y0243237D01*
X0218359Y0243229D02*
X0216683Y0243229D01*
X0216692Y0243220D02*
X0218351Y0243220D01*
X0218342Y0243212D02*
X0216700Y0243212D01*
X0216709Y0243203D02*
X0218334Y0243203D01*
X0218325Y0243195D02*
X0216717Y0243195D01*
X0216726Y0243186D02*
X0218317Y0243186D01*
X0218308Y0243178D02*
X0216734Y0243178D01*
X0216744Y0243169D02*
X0218299Y0243169D01*
X0218286Y0243160D02*
X0216757Y0243160D01*
X0216771Y0243152D02*
X0218272Y0243152D01*
X0218258Y0243143D02*
X0216784Y0243143D01*
X0216798Y0243135D02*
X0218245Y0243135D01*
X0218231Y0243126D02*
X0216811Y0243126D01*
X0216825Y0243118D02*
X0218218Y0243118D01*
X0218204Y0243109D02*
X0216838Y0243109D01*
X0216852Y0243101D02*
X0218191Y0243101D01*
X0218177Y0243092D02*
X0216866Y0243092D01*
X0216879Y0243084D02*
X0218164Y0243084D01*
X0218150Y0243075D02*
X0216893Y0243075D01*
X0216906Y0243067D02*
X0218136Y0243067D01*
X0218123Y0243058D02*
X0216920Y0243058D01*
X0216933Y0243050D02*
X0218109Y0243050D01*
X0218096Y0243041D02*
X0216947Y0243041D01*
X0216960Y0243033D02*
X0218082Y0243033D01*
X0218069Y0243024D02*
X0216974Y0243024D01*
X0216994Y0243016D02*
X0218048Y0243016D01*
X0218024Y0243007D02*
X0217019Y0243007D01*
X0217043Y0242999D02*
X0218000Y0242999D01*
X0217975Y0242990D02*
X0217067Y0242990D01*
X0217092Y0242982D02*
X0217951Y0242982D01*
X0217927Y0242973D02*
X0217116Y0242973D01*
X0217140Y0242965D02*
X0217902Y0242965D01*
X0217878Y0242956D02*
X0217165Y0242956D01*
X0217189Y0242948D02*
X0217854Y0242948D01*
X0217829Y0242939D02*
X0217213Y0242939D01*
X0217237Y0242931D02*
X0217805Y0242931D01*
X0217741Y0242922D02*
X0217301Y0242922D01*
X0217377Y0242914D02*
X0217666Y0242914D01*
X0217590Y0242905D02*
X0217452Y0242905D01*
D53*
X0205916Y0278664D03*
X0200877Y0278664D03*
X0195916Y0278664D03*
X0190877Y0278664D03*
X0296247Y0278581D03*
X0302546Y0278581D03*
X0301601Y0118136D03*
X0297192Y0118136D03*
D54*
X0296404Y0278345D03*
X0302388Y0278345D03*
X0282231Y0278373D03*
X0276562Y0278373D03*
X0272231Y0278530D03*
X0266562Y0278530D03*
X0236231Y0278530D03*
X0230562Y0278530D03*
D55*
X0230719Y0278373D03*
X0236073Y0278373D03*
X0266719Y0278373D03*
X0272073Y0278373D03*
X0276719Y0278215D03*
X0282073Y0278215D03*
X0296562Y0278188D03*
X0302231Y0278188D03*
D56*
X0302073Y0278030D03*
X0296719Y0278030D03*
X0281759Y0278058D03*
X0277034Y0278058D03*
X0271759Y0278215D03*
X0267034Y0278215D03*
X0235759Y0278215D03*
X0231034Y0278215D03*
X0231601Y0118845D03*
X0231759Y0118845D03*
X0231916Y0118845D03*
X0232073Y0118845D03*
X0232231Y0118845D03*
X0232388Y0118845D03*
X0232546Y0118845D03*
X0227192Y0118845D03*
X0227034Y0118845D03*
X0226877Y0118845D03*
X0226719Y0118845D03*
X0226562Y0118845D03*
X0226404Y0118845D03*
X0226247Y0118845D03*
D57*
X0231192Y0278136D03*
X0235601Y0278136D03*
X0216546Y0278054D03*
X0210247Y0278054D03*
X0267192Y0278136D03*
X0271601Y0278136D03*
X0277192Y0277979D03*
X0281601Y0277979D03*
X0296877Y0277951D03*
X0301916Y0277951D03*
D58*
X0301759Y0277873D03*
X0297034Y0277873D03*
X0277349Y0277900D03*
X0267349Y0278058D03*
D59*
X0297192Y0277794D03*
X0301601Y0277794D03*
X0181349Y0278176D03*
X0237349Y0123176D03*
X0247349Y0123176D03*
D60*
X0286247Y0117349D03*
X0292546Y0117349D03*
X0161349Y0259747D03*
X0161192Y0280062D03*
X0211507Y0274589D03*
X0214814Y0274432D03*
X0214971Y0274432D03*
X0215286Y0274589D03*
X0221507Y0273747D03*
X0224814Y0273589D03*
X0224971Y0273589D03*
X0267664Y0276247D03*
X0267822Y0276089D03*
X0297349Y0275904D03*
X0298766Y0275274D03*
D61*
X0298609Y0275117D03*
X0297507Y0275589D03*
X0291601Y0279904D03*
X0287192Y0279904D03*
X0278766Y0275459D03*
X0278609Y0275459D03*
X0268766Y0275617D03*
X0268609Y0275617D03*
X0268451Y0275774D03*
X0268294Y0275774D03*
X0261601Y0279747D03*
X0257192Y0279747D03*
X0245601Y0279747D03*
X0241192Y0279747D03*
X0233239Y0275617D03*
X0221979Y0273432D03*
X0212136Y0274117D03*
X0211979Y0274274D03*
X0165444Y0259589D03*
X0163081Y0258959D03*
X0162924Y0258959D03*
X0162766Y0258959D03*
X0161507Y0259432D03*
X0153239Y0260117D03*
X0307192Y0279904D03*
X0311601Y0279904D03*
D62*
X0310184Y0282266D03*
X0307507Y0282266D03*
X0301444Y0282046D03*
X0299869Y0279054D03*
X0297507Y0282046D03*
X0281444Y0282073D03*
X0278924Y0282073D03*
X0280184Y0279396D03*
X0269396Y0277822D03*
X0259711Y0282109D03*
X0259554Y0282109D03*
X0245444Y0282109D03*
X0241507Y0282109D03*
X0225444Y0282251D03*
X0221507Y0282251D03*
X0204026Y0282129D03*
X0195444Y0282129D03*
X0191507Y0282129D03*
X0185129Y0282428D03*
X0181822Y0282428D03*
X0181822Y0269672D03*
X0185129Y0269672D03*
X0164499Y0276440D03*
X0164341Y0276440D03*
X0164184Y0276440D03*
X0162766Y0273605D03*
X0161664Y0269668D03*
X0155444Y0266888D03*
X0154026Y0264054D03*
X0164026Y0263054D03*
X0154656Y0276495D03*
X0154499Y0276495D03*
X0161507Y0282581D03*
X0123369Y0284684D03*
X0123211Y0284684D03*
X0122739Y0284684D03*
X0122581Y0284684D03*
X0120849Y0284999D03*
X0121322Y0288463D03*
X0122581Y0291613D03*
X0122739Y0291613D03*
X0123211Y0291613D03*
X0123369Y0291613D03*
X0120849Y0291928D03*
X0205507Y0242581D03*
X0205664Y0242581D03*
X0208814Y0242581D03*
X0207711Y0226286D03*
X0207711Y0212156D03*
X0314849Y0205577D03*
X0316581Y0205262D03*
X0316739Y0205262D03*
X0317211Y0205262D03*
X0317369Y0205262D03*
X0318451Y0269959D03*
X0320341Y0269959D03*
X0320026Y0273424D03*
X0318924Y0273424D03*
X0327822Y0271542D03*
X0330971Y0271542D03*
X0321129Y0282400D03*
X0251129Y0127428D03*
X0247822Y0127428D03*
X0241129Y0127428D03*
X0237822Y0127428D03*
X0229711Y0122861D03*
X0229554Y0122861D03*
X0227507Y0120341D03*
X0221286Y0119081D03*
X0221286Y0122388D03*
X0221444Y0126640D03*
X0221444Y0114829D03*
X0237822Y0114672D03*
X0241129Y0114672D03*
X0247822Y0114672D03*
X0251129Y0114672D03*
X0257507Y0117349D03*
X0259554Y0114829D03*
X0259711Y0114829D03*
X0287822Y0114829D03*
X0297822Y0114672D03*
X0200499Y0127113D03*
X0198924Y0127113D03*
X0191444Y0114959D03*
X0191286Y0114959D03*
X0191129Y0114959D03*
D63*
X0217349Y0120735D03*
X0165286Y0259353D03*
X0162609Y0258881D03*
X0162294Y0259038D03*
X0162136Y0259038D03*
X0161822Y0259196D03*
X0161664Y0259353D03*
X0155444Y0260668D03*
X0153081Y0260038D03*
X0152924Y0260038D03*
X0152766Y0260038D03*
X0151507Y0260510D03*
X0212294Y0274038D03*
X0212924Y0273881D03*
X0213081Y0273881D03*
X0222136Y0273196D03*
X0223081Y0273038D03*
X0231507Y0276010D03*
X0232924Y0275538D03*
X0233081Y0275538D03*
X0234656Y0275696D03*
X0241034Y0279825D03*
X0245759Y0279825D03*
X0257034Y0279825D03*
X0261759Y0279825D03*
X0268924Y0275538D03*
X0269081Y0275538D03*
X0269239Y0275538D03*
X0271286Y0276010D03*
X0271444Y0276168D03*
X0278136Y0275538D03*
X0278294Y0275538D03*
X0278451Y0275538D03*
X0278924Y0275381D03*
X0279081Y0275381D03*
X0279239Y0275381D03*
X0287034Y0279983D03*
X0291759Y0279983D03*
X0297664Y0275510D03*
X0297822Y0275353D03*
X0298136Y0275196D03*
X0298451Y0275196D03*
X0301286Y0275510D03*
X0301444Y0275668D03*
X0307034Y0279983D03*
X0311759Y0279983D03*
D64*
X0309869Y0282424D03*
X0307822Y0282424D03*
X0301286Y0282203D03*
X0299396Y0282203D03*
X0297664Y0282203D03*
X0281286Y0282231D03*
X0271286Y0282388D03*
X0259081Y0282266D03*
X0251081Y0280940D03*
X0251081Y0278577D03*
X0243239Y0282266D03*
X0241664Y0282266D03*
X0234814Y0282388D03*
X0234656Y0282388D03*
X0225129Y0282408D03*
X0221664Y0282408D03*
X0203711Y0282286D03*
X0201979Y0282286D03*
X0201822Y0282286D03*
X0203396Y0279136D03*
X0193396Y0282286D03*
X0193239Y0282286D03*
X0191822Y0282286D03*
X0191664Y0282286D03*
X0184814Y0282585D03*
X0182136Y0282585D03*
X0175286Y0280444D03*
X0173869Y0276822D03*
X0173711Y0276822D03*
X0173239Y0275404D03*
X0165286Y0271400D03*
X0163081Y0273605D03*
X0163554Y0276597D03*
X0163711Y0276597D03*
X0163396Y0282739D03*
X0163239Y0282739D03*
X0161822Y0282739D03*
X0165129Y0282739D03*
X0154814Y0282636D03*
X0154656Y0282636D03*
X0154026Y0276652D03*
X0153869Y0276652D03*
X0151507Y0266888D03*
X0153869Y0263896D03*
X0163869Y0262896D03*
X0181979Y0269514D03*
X0182136Y0269514D03*
X0184814Y0269514D03*
X0205349Y0242581D03*
X0208971Y0242581D03*
X0208971Y0230381D03*
X0122424Y0284526D03*
X0121164Y0288463D03*
X0122424Y0291455D03*
X0317979Y0282558D03*
X0320814Y0282558D03*
X0320341Y0273266D03*
X0321444Y0273109D03*
X0318609Y0273266D03*
X0318451Y0273266D03*
X0318766Y0270117D03*
X0320026Y0270117D03*
X0327507Y0271699D03*
X0331286Y0271699D03*
X0331444Y0271857D03*
X0316424Y0205105D03*
X0316581Y0201483D03*
X0317369Y0201483D03*
X0316424Y0198018D03*
X0317054Y0194081D03*
X0250814Y0127585D03*
X0248136Y0127585D03*
X0240814Y0127585D03*
X0238136Y0127585D03*
X0229081Y0123018D03*
X0228924Y0123018D03*
X0227349Y0123018D03*
X0227664Y0120341D03*
X0227822Y0120341D03*
X0228609Y0117507D03*
X0228766Y0117507D03*
X0231129Y0118766D03*
X0231444Y0114672D03*
X0237979Y0114514D03*
X0238136Y0114514D03*
X0240814Y0114514D03*
X0247979Y0114514D03*
X0248136Y0114514D03*
X0250814Y0114514D03*
X0257349Y0114672D03*
X0258924Y0114672D03*
X0259081Y0114672D03*
X0257822Y0117349D03*
X0257664Y0117349D03*
X0261444Y0118766D03*
X0279239Y0115904D03*
X0279711Y0117322D03*
X0279869Y0117322D03*
X0281286Y0120944D03*
X0287979Y0114672D03*
X0309711Y0114514D03*
X0310499Y0114514D03*
X0310499Y0118766D03*
X0319711Y0114672D03*
X0329711Y0114514D03*
X0330499Y0114514D03*
X0329869Y0121916D03*
X0221286Y0126798D03*
X0219396Y0126798D03*
X0217664Y0126798D03*
X0219396Y0123176D03*
X0219554Y0123176D03*
X0221129Y0122388D03*
X0221129Y0119081D03*
X0221286Y0114672D03*
X0218766Y0114672D03*
X0217664Y0114672D03*
X0209239Y0120314D03*
X0209711Y0127085D03*
X0210499Y0127085D03*
X0199554Y0118766D03*
X0199396Y0118766D03*
X0190499Y0114802D03*
X0190341Y0114802D03*
X0190184Y0114802D03*
X0191129Y0130550D03*
D65*
X0164656Y0258959D03*
X0164971Y0259117D03*
X0165129Y0259274D03*
X0162451Y0258959D03*
X0161979Y0259117D03*
X0155286Y0260432D03*
X0152609Y0259959D03*
X0152294Y0260117D03*
X0152136Y0260117D03*
X0151822Y0260274D03*
X0151664Y0260432D03*
X0212451Y0273959D03*
X0212609Y0273802D03*
X0212766Y0273802D03*
X0222294Y0273117D03*
X0222609Y0272959D03*
X0222766Y0272959D03*
X0222924Y0272959D03*
X0231664Y0275932D03*
X0231822Y0275774D03*
X0232136Y0275617D03*
X0232294Y0275617D03*
X0232609Y0275459D03*
X0232766Y0275459D03*
X0240877Y0279904D03*
X0245916Y0279904D03*
X0256877Y0279904D03*
X0261916Y0279904D03*
X0270656Y0275617D03*
X0270971Y0275774D03*
X0271129Y0275932D03*
X0277507Y0275774D03*
X0277664Y0275774D03*
X0277822Y0275617D03*
X0277979Y0275617D03*
X0280656Y0275459D03*
X0281286Y0275774D03*
X0281444Y0275932D03*
X0286877Y0280062D03*
X0291916Y0280062D03*
X0297979Y0275274D03*
X0298294Y0275117D03*
X0300656Y0275117D03*
X0300971Y0275274D03*
X0301129Y0275432D03*
X0306877Y0280062D03*
X0311916Y0280062D03*
D66*
X0299239Y0275589D03*
X0299081Y0275589D03*
X0298924Y0275589D03*
X0206546Y0279294D03*
X0200247Y0279294D03*
X0196546Y0279294D03*
X0190247Y0279294D03*
D67*
X0164814Y0259038D03*
X0155129Y0260353D03*
X0154971Y0260196D03*
X0154656Y0260038D03*
X0152451Y0260038D03*
X0151979Y0260196D03*
X0151349Y0272479D03*
X0222451Y0273038D03*
X0231979Y0275696D03*
X0232451Y0275538D03*
X0234814Y0275696D03*
X0234971Y0275696D03*
X0240719Y0279983D03*
X0246073Y0279983D03*
X0256719Y0279983D03*
X0262073Y0279983D03*
X0270814Y0275696D03*
X0280971Y0275538D03*
X0286719Y0280140D03*
X0292073Y0280140D03*
X0300814Y0275196D03*
X0306719Y0280140D03*
X0312073Y0280140D03*
D68*
X0282546Y0278766D03*
X0276247Y0278766D03*
X0272546Y0278924D03*
X0266247Y0278924D03*
X0236546Y0278924D03*
X0230247Y0278924D03*
X0155759Y0279172D03*
X0287192Y0118136D03*
X0291601Y0118136D03*
X0296877Y0117979D03*
X0301916Y0117979D03*
D69*
X0297349Y0118215D03*
X0282388Y0278530D03*
X0276404Y0278530D03*
X0272388Y0278688D03*
X0266404Y0278688D03*
X0236388Y0278688D03*
X0230404Y0278688D03*
X0205759Y0278585D03*
X0201034Y0278585D03*
X0195759Y0278585D03*
X0191034Y0278585D03*
D70*
X0230877Y0278294D03*
X0235916Y0278294D03*
X0266877Y0278294D03*
X0271916Y0278294D03*
X0276877Y0278136D03*
X0281916Y0278136D03*
D71*
X0280026Y0279318D03*
X0279081Y0282152D03*
X0271444Y0282310D03*
X0269239Y0282310D03*
X0259396Y0282188D03*
X0259239Y0282188D03*
X0245286Y0282188D03*
X0234971Y0282310D03*
X0234026Y0279475D03*
X0233869Y0279475D03*
X0234184Y0279318D03*
X0234341Y0279160D03*
X0231507Y0282310D03*
X0225286Y0282329D03*
X0203869Y0282207D03*
X0201664Y0282207D03*
X0195286Y0282207D03*
X0193869Y0279215D03*
X0184971Y0282507D03*
X0181979Y0282507D03*
X0173554Y0276743D03*
X0171664Y0280365D03*
X0165286Y0282660D03*
X0161664Y0282660D03*
X0163869Y0276518D03*
X0164026Y0276518D03*
X0162924Y0273684D03*
X0165444Y0271479D03*
X0161822Y0269747D03*
X0162609Y0264707D03*
X0162766Y0264707D03*
X0152766Y0265707D03*
X0152609Y0265707D03*
X0154656Y0272951D03*
X0154341Y0276573D03*
X0154184Y0276573D03*
X0154971Y0282558D03*
X0151507Y0282558D03*
X0124629Y0288385D03*
X0123054Y0288699D03*
X0122896Y0288542D03*
X0122739Y0288385D03*
X0121007Y0280983D03*
X0184971Y0269593D03*
X0205349Y0230459D03*
X0206609Y0226365D03*
X0207554Y0226365D03*
X0207554Y0212235D03*
X0206609Y0212235D03*
X0205192Y0207983D03*
X0205192Y0200117D03*
X0205192Y0190983D03*
X0207869Y0190983D03*
X0199869Y0132073D03*
X0199711Y0132073D03*
X0199554Y0132073D03*
X0199396Y0132073D03*
X0199239Y0132073D03*
X0199081Y0132073D03*
X0207664Y0131259D03*
X0217507Y0126719D03*
X0219711Y0123097D03*
X0217664Y0120735D03*
X0217507Y0120735D03*
X0217507Y0114751D03*
X0210814Y0120235D03*
X0209554Y0120235D03*
X0209396Y0120235D03*
X0210499Y0121495D03*
X0190971Y0114881D03*
X0190814Y0114881D03*
X0190656Y0114881D03*
X0187664Y0130471D03*
X0229239Y0122940D03*
X0229396Y0122940D03*
X0237979Y0127507D03*
X0240971Y0127507D03*
X0247979Y0127507D03*
X0250971Y0127507D03*
X0250971Y0114593D03*
X0259239Y0114751D03*
X0259396Y0114751D03*
X0240971Y0114593D03*
X0231286Y0118688D03*
X0277664Y0120865D03*
X0279554Y0117243D03*
X0297979Y0114593D03*
X0309554Y0114593D03*
X0319554Y0114751D03*
X0329554Y0114593D03*
X0316581Y0197940D03*
X0316424Y0201562D03*
X0317526Y0201562D03*
X0318609Y0270038D03*
X0320184Y0270038D03*
X0320184Y0273345D03*
X0318766Y0273345D03*
X0317349Y0275865D03*
X0321444Y0275865D03*
X0327349Y0278235D03*
X0331444Y0278235D03*
X0331129Y0271621D03*
X0327664Y0271621D03*
X0320971Y0282479D03*
X0317822Y0282479D03*
X0310026Y0282345D03*
X0307664Y0282345D03*
X0252184Y0269680D03*
X0249507Y0269680D03*
D72*
X0251396Y0274483D03*
X0251554Y0274483D03*
X0259396Y0277542D03*
X0259554Y0277542D03*
X0279396Y0274042D03*
X0309711Y0277699D03*
X0213396Y0272542D03*
X0163396Y0257542D03*
X0207081Y0195786D03*
X0207239Y0195786D03*
X0209081Y0131337D03*
X0210026Y0131180D03*
X0190814Y0129762D03*
X0299081Y0121444D03*
X0310026Y0125223D03*
X0310184Y0125223D03*
X0310341Y0125066D03*
X0310499Y0125066D03*
X0310656Y0125066D03*
X0310814Y0124908D03*
X0310971Y0124908D03*
X0331444Y0124593D03*
X0316896Y0192979D03*
D73*
X0292388Y0117585D03*
X0286404Y0117585D03*
X0267507Y0276483D03*
D74*
X0267979Y0276010D03*
X0268136Y0275853D03*
X0257349Y0279668D03*
X0231349Y0276325D03*
X0225444Y0273825D03*
X0225286Y0273668D03*
X0225129Y0273668D03*
X0221822Y0273510D03*
X0221664Y0273668D03*
X0215444Y0274668D03*
X0215129Y0274510D03*
X0211822Y0274353D03*
X0211664Y0274510D03*
X0163239Y0259038D03*
X0151349Y0260825D03*
X0151192Y0280038D03*
X0287349Y0279825D03*
D75*
X0269081Y0282152D03*
X0259869Y0282030D03*
X0252026Y0269837D03*
X0249664Y0269837D03*
X0251711Y0266373D03*
X0233396Y0277900D03*
X0235129Y0282152D03*
X0231349Y0282152D03*
X0204184Y0282050D03*
X0201507Y0282050D03*
X0181664Y0282349D03*
X0175129Y0280365D03*
X0165444Y0282503D03*
X0164814Y0276361D03*
X0164656Y0276361D03*
X0162609Y0273684D03*
X0162451Y0273684D03*
X0154971Y0276416D03*
X0154814Y0276416D03*
X0154499Y0272951D03*
X0154341Y0272951D03*
X0154184Y0269329D03*
X0152766Y0269329D03*
X0153396Y0262400D03*
X0163396Y0261400D03*
X0181664Y0269751D03*
X0155129Y0282400D03*
X0151349Y0282400D03*
X0124471Y0288385D03*
X0121636Y0288385D03*
X0121479Y0288385D03*
X0122896Y0291692D03*
X0123054Y0291692D03*
X0123054Y0284762D03*
X0122896Y0284762D03*
X0121164Y0281140D03*
X0205507Y0230459D03*
X0208814Y0230459D03*
X0206451Y0226365D03*
X0206451Y0212235D03*
X0208656Y0210188D03*
X0205349Y0208140D03*
X0205349Y0200117D03*
X0205349Y0191140D03*
X0207711Y0191140D03*
X0200341Y0127034D03*
X0200184Y0127034D03*
X0200026Y0127034D03*
X0198766Y0127034D03*
X0198609Y0127034D03*
X0198451Y0127034D03*
X0191601Y0115038D03*
X0229869Y0122782D03*
X0230026Y0122782D03*
X0237664Y0127349D03*
X0247664Y0127349D03*
X0247664Y0114751D03*
X0259869Y0114908D03*
X0260026Y0114908D03*
X0281129Y0120865D03*
X0287664Y0114908D03*
X0289239Y0114908D03*
X0289396Y0114908D03*
X0289554Y0114908D03*
X0289711Y0114908D03*
X0289869Y0114908D03*
X0290026Y0114908D03*
X0290184Y0114908D03*
X0290341Y0114908D03*
X0290499Y0114908D03*
X0290656Y0114908D03*
X0290814Y0114908D03*
X0290971Y0114908D03*
X0291129Y0114908D03*
X0291286Y0114908D03*
X0291444Y0114908D03*
X0297664Y0114751D03*
X0299239Y0114751D03*
X0299396Y0114751D03*
X0299554Y0114751D03*
X0299711Y0114751D03*
X0299869Y0114751D03*
X0300026Y0114751D03*
X0300184Y0114751D03*
X0300341Y0114751D03*
X0300499Y0114751D03*
X0300656Y0114751D03*
X0300814Y0114751D03*
X0300971Y0114751D03*
X0301129Y0114751D03*
X0301286Y0114751D03*
X0237664Y0114751D03*
X0316896Y0205341D03*
X0317054Y0205341D03*
X0318294Y0269881D03*
X0320499Y0269881D03*
X0319869Y0273503D03*
X0319711Y0273503D03*
X0319081Y0273503D03*
X0327979Y0271463D03*
X0330814Y0271463D03*
X0321286Y0282322D03*
X0317664Y0282322D03*
D76*
X0326877Y0277290D03*
X0331916Y0277290D03*
X0226388Y0277448D03*
X0220404Y0277448D03*
X0215759Y0277345D03*
X0211034Y0277345D03*
X0306404Y0119475D03*
X0312388Y0119475D03*
X0316404Y0119633D03*
X0322388Y0119633D03*
X0326404Y0119475D03*
X0332388Y0119475D03*
D77*
X0332231Y0119633D03*
X0326562Y0119633D03*
X0322231Y0119790D03*
X0316562Y0119790D03*
X0312231Y0119633D03*
X0306562Y0119633D03*
X0327192Y0277133D03*
X0331601Y0277133D03*
X0226231Y0277290D03*
X0220562Y0277290D03*
X0211349Y0277188D03*
D78*
X0220719Y0277133D03*
X0226073Y0277133D03*
X0306719Y0119790D03*
X0312073Y0119790D03*
X0316719Y0119948D03*
X0322073Y0119948D03*
X0326719Y0119790D03*
X0332073Y0119790D03*
D79*
X0331916Y0119869D03*
X0326877Y0119869D03*
X0321916Y0120026D03*
X0316877Y0120026D03*
X0311916Y0119869D03*
X0306877Y0119869D03*
X0225916Y0277054D03*
X0220877Y0277054D03*
D80*
X0221034Y0276975D03*
X0225759Y0276975D03*
X0256247Y0120105D03*
X0256404Y0120105D03*
X0256562Y0120105D03*
X0256719Y0120105D03*
X0256877Y0120105D03*
X0257034Y0120105D03*
X0257192Y0120105D03*
X0261601Y0120105D03*
X0261759Y0120105D03*
X0261916Y0120105D03*
X0262073Y0120105D03*
X0262231Y0120105D03*
X0262388Y0120105D03*
X0262546Y0120105D03*
X0307034Y0119948D03*
X0311759Y0119948D03*
X0317034Y0120105D03*
X0321759Y0120105D03*
X0327034Y0119948D03*
X0331759Y0119948D03*
D81*
X0331601Y0120026D03*
X0327192Y0120026D03*
X0321601Y0120184D03*
X0317192Y0120184D03*
X0311601Y0120026D03*
X0307192Y0120026D03*
X0225601Y0276896D03*
X0221192Y0276896D03*
D82*
X0221349Y0275007D03*
X0205601Y0278507D03*
X0201192Y0278507D03*
X0195601Y0278507D03*
X0191192Y0278507D03*
D83*
X0213239Y0274274D03*
X0223239Y0273432D03*
X0296247Y0117349D03*
X0302546Y0117349D03*
D84*
X0257349Y0122782D03*
X0224656Y0273510D03*
X0214656Y0274353D03*
D85*
X0216388Y0277818D03*
X0210404Y0277818D03*
D86*
X0210562Y0277660D03*
X0216231Y0277660D03*
X0326404Y0277605D03*
X0332388Y0277605D03*
D87*
X0332231Y0277448D03*
X0326562Y0277448D03*
X0216073Y0277503D03*
X0210719Y0277503D03*
D88*
X0210877Y0277424D03*
X0215916Y0277424D03*
X0326719Y0277369D03*
X0332073Y0277369D03*
D89*
X0331759Y0277211D03*
X0327034Y0277211D03*
X0215601Y0277266D03*
X0211192Y0277266D03*
D90*
X0307349Y0120105D03*
D91*
X0307664Y0116640D03*
X0309239Y0116640D03*
X0310656Y0116640D03*
X0310814Y0116640D03*
X0310971Y0116640D03*
X0311129Y0116640D03*
X0311286Y0116640D03*
X0311444Y0116640D03*
X0317507Y0116798D03*
X0321286Y0116798D03*
X0321444Y0116798D03*
X0327664Y0116640D03*
X0329239Y0116640D03*
X0330656Y0116640D03*
X0330814Y0116640D03*
X0330971Y0116640D03*
X0331129Y0116640D03*
X0331286Y0116640D03*
X0331444Y0116640D03*
X0312231Y0280298D03*
X0306562Y0280298D03*
X0292231Y0280298D03*
X0286562Y0280298D03*
X0262231Y0280140D03*
X0256562Y0280140D03*
X0246231Y0280140D03*
X0240562Y0280140D03*
D92*
X0191349Y0276617D03*
X0307822Y0116562D03*
X0317664Y0116719D03*
X0319239Y0116719D03*
X0320656Y0116719D03*
X0320814Y0116719D03*
X0320971Y0116719D03*
X0321129Y0116719D03*
X0327822Y0116562D03*
D93*
X0331286Y0124908D03*
X0309711Y0125381D03*
X0309554Y0125381D03*
X0288924Y0121444D03*
X0210499Y0131022D03*
X0201444Y0131207D03*
X0190971Y0129762D03*
X0205192Y0222192D03*
X0205349Y0222192D03*
X0205664Y0222192D03*
X0151664Y0273660D03*
X0151507Y0273660D03*
X0194341Y0275042D03*
X0194499Y0275042D03*
X0194656Y0275042D03*
X0204341Y0275042D03*
X0204499Y0275042D03*
X0204656Y0275042D03*
X0260026Y0277385D03*
X0260184Y0277385D03*
D94*
X0286877Y0117979D03*
X0291916Y0117979D03*
X0317349Y0117979D03*
X0327349Y0117822D03*
D95*
X0318766Y0116247D03*
X0318609Y0116247D03*
D96*
X0212546Y0122203D03*
X0206247Y0122203D03*
D97*
X0206404Y0122282D03*
X0212388Y0122282D03*
D98*
X0212073Y0122518D03*
X0206719Y0122518D03*
D99*
X0207979Y0123148D03*
D100*
X0208294Y0123306D03*
X0161192Y0265888D03*
D101*
X0187822Y0122755D03*
X0211916Y0122597D03*
D102*
X0156546Y0271298D03*
X0150247Y0271298D03*
D103*
X0150404Y0271062D03*
X0156388Y0271062D03*
D104*
X0156231Y0270904D03*
X0150562Y0270904D03*
D105*
X0150719Y0270747D03*
X0156073Y0270747D03*
D106*
X0155916Y0270668D03*
X0160247Y0270770D03*
X0166546Y0270770D03*
X0150877Y0270668D03*
D107*
X0151034Y0270589D03*
D108*
X0151192Y0266573D03*
X0188294Y0122991D03*
D109*
X0155601Y0265629D03*
X0316719Y0275314D03*
X0322073Y0275314D03*
D110*
X0206231Y0278900D03*
X0200562Y0278900D03*
X0196231Y0278900D03*
X0190562Y0278900D03*
X0155601Y0279251D03*
X0287034Y0118058D03*
X0291759Y0118058D03*
X0296719Y0117900D03*
X0302073Y0117900D03*
D111*
X0192231Y0122125D03*
X0186562Y0122125D03*
X0155759Y0265865D03*
X0316562Y0275235D03*
X0322231Y0275235D03*
D112*
X0166388Y0270534D03*
X0160404Y0270534D03*
D113*
X0160562Y0270377D03*
X0166231Y0270377D03*
D114*
X0166073Y0270219D03*
X0160719Y0270219D03*
D115*
X0160877Y0270140D03*
X0165916Y0270140D03*
D116*
X0161034Y0270062D03*
D117*
X0161349Y0269983D03*
X0326247Y0277684D03*
X0332546Y0277684D03*
D118*
X0165601Y0264944D03*
D119*
X0165601Y0279196D03*
X0165759Y0279196D03*
X0190719Y0278743D03*
X0196073Y0278743D03*
X0200719Y0278743D03*
X0206073Y0278743D03*
X0287349Y0118215D03*
X0297034Y0118058D03*
X0301759Y0118058D03*
D120*
X0192546Y0121888D03*
X0186247Y0121888D03*
X0317034Y0275471D03*
X0321759Y0275471D03*
D121*
X0321916Y0275392D03*
X0316877Y0275392D03*
X0192388Y0121967D03*
X0186404Y0121967D03*
D122*
X0186719Y0122203D03*
X0192073Y0122203D03*
X0316404Y0275156D03*
X0322388Y0275156D03*
D123*
X0187979Y0122833D03*
D124*
X0189239Y0130235D03*
X0298924Y0121129D03*
X0290656Y0278172D03*
X0290499Y0278172D03*
X0290341Y0278172D03*
X0258609Y0277857D03*
D125*
X0189554Y0130156D03*
X0189396Y0130156D03*
X0227349Y0116168D03*
D126*
X0222546Y0120735D03*
X0222388Y0120735D03*
X0222231Y0120735D03*
X0222073Y0120735D03*
X0221916Y0120735D03*
X0221759Y0120735D03*
X0221601Y0120735D03*
X0217192Y0120735D03*
X0217034Y0120735D03*
X0216877Y0120735D03*
X0216719Y0120735D03*
X0216562Y0120735D03*
X0216404Y0120735D03*
X0216247Y0120735D03*
D127*
X0286562Y0117743D03*
X0292231Y0117743D03*
X0296404Y0117585D03*
X0302388Y0117585D03*
D128*
X0302231Y0117743D03*
X0296562Y0117743D03*
X0292073Y0117900D03*
X0286719Y0117900D03*
X0206388Y0279058D03*
X0200404Y0279058D03*
X0196388Y0279058D03*
X0190404Y0279058D03*
D129*
X0258924Y0277699D03*
X0259081Y0277699D03*
X0291129Y0278329D03*
X0291444Y0278487D03*
X0309554Y0277857D03*
X0298609Y0121286D03*
X0288766Y0121129D03*
D130*
X0252546Y0121050D03*
X0252388Y0121050D03*
X0252231Y0121050D03*
X0252073Y0121050D03*
X0251916Y0121050D03*
X0251759Y0121050D03*
X0251601Y0121050D03*
X0247192Y0121050D03*
X0247034Y0121050D03*
X0246877Y0121050D03*
X0246719Y0121050D03*
X0246562Y0121050D03*
X0246404Y0121050D03*
X0246247Y0121050D03*
X0242546Y0121050D03*
X0242388Y0121050D03*
X0242231Y0121050D03*
X0242073Y0121050D03*
X0241916Y0121050D03*
X0241759Y0121050D03*
X0241601Y0121050D03*
X0237192Y0121050D03*
X0237034Y0121050D03*
X0236877Y0121050D03*
X0236719Y0121050D03*
X0236562Y0121050D03*
X0236404Y0121050D03*
X0236247Y0121050D03*
X0186546Y0276050D03*
X0186388Y0276050D03*
X0186231Y0276050D03*
X0186073Y0276050D03*
X0185916Y0276050D03*
X0185759Y0276050D03*
X0185601Y0276050D03*
X0181192Y0276050D03*
X0181034Y0276050D03*
X0180877Y0276050D03*
X0180719Y0276050D03*
X0180562Y0276050D03*
X0180404Y0276050D03*
X0180247Y0276050D03*
D131*
X0196247Y0123412D03*
X0196404Y0123412D03*
X0196562Y0123412D03*
X0196719Y0123412D03*
X0196877Y0123412D03*
X0197034Y0123412D03*
X0197192Y0123412D03*
X0201601Y0123412D03*
X0201759Y0123412D03*
X0201916Y0123412D03*
X0202073Y0123412D03*
X0202231Y0123412D03*
X0202388Y0123412D03*
X0202546Y0123412D03*
D132*
X0197349Y0126168D03*
D133*
X0303341Y0202121D02*
X0303144Y0202514D01*
X0303066Y0202908D01*
X0302987Y0203341D01*
X0302987Y0204247D01*
X0303066Y0204680D01*
X0303184Y0205073D01*
X0303341Y0205428D01*
X0303577Y0205743D01*
X0303892Y0205979D01*
X0304286Y0206176D01*
X0304759Y0206255D01*
X0304759Y0204798D01*
X0304562Y0204759D01*
X0304365Y0204680D01*
X0304247Y0204601D01*
X0304168Y0204483D01*
X0304089Y0204325D01*
X0304010Y0204129D01*
X0304010Y0203459D01*
X0304050Y0203341D01*
X0304089Y0203184D01*
X0304129Y0203066D01*
X0304365Y0202908D01*
X0304522Y0202908D01*
X0304680Y0202948D01*
X0304837Y0203066D01*
X0304955Y0203223D01*
X0305073Y0203459D01*
X0305152Y0203696D01*
X0305192Y0204010D01*
X0305428Y0204955D01*
X0305507Y0205310D01*
X0305822Y0205861D01*
X0306018Y0206097D01*
X0306255Y0206255D01*
X0306530Y0206373D01*
X0306885Y0206412D01*
X0307396Y0206333D01*
X0307829Y0206176D01*
X0308144Y0205940D01*
X0308420Y0205625D01*
X0308617Y0205231D01*
X0308735Y0204798D01*
X0308814Y0204325D01*
X0308853Y0203853D01*
X0308814Y0203381D01*
X0308735Y0202908D01*
X0308617Y0202475D01*
X0308420Y0202081D01*
X0308144Y0201766D01*
X0307790Y0201491D01*
X0307396Y0201333D01*
X0306885Y0201255D01*
X0306885Y0202711D01*
X0307121Y0202711D01*
X0307318Y0202790D01*
X0307475Y0202908D01*
X0307711Y0203223D01*
X0307751Y0203459D01*
X0307790Y0203656D01*
X0307829Y0203892D01*
X0307790Y0204050D01*
X0307790Y0204207D01*
X0307751Y0204365D01*
X0307672Y0204522D01*
X0307554Y0204680D01*
X0307436Y0204798D01*
X0307121Y0204877D01*
X0306963Y0204837D01*
X0306806Y0204759D01*
X0306688Y0204601D01*
X0306570Y0204404D01*
X0306491Y0204168D01*
X0306333Y0203538D01*
X0306255Y0203144D01*
X0306176Y0202790D01*
X0306058Y0202475D01*
X0305940Y0202199D01*
X0305782Y0201924D01*
X0305625Y0201688D01*
X0305388Y0201530D01*
X0305113Y0201412D01*
X0304759Y0201373D01*
X0304286Y0201412D01*
X0303892Y0201570D01*
X0303577Y0201845D01*
X0303341Y0202121D01*
X0303311Y0202180D02*
X0305929Y0202180D01*
X0306059Y0202479D02*
X0303162Y0202479D01*
X0303092Y0202777D02*
X0306171Y0202777D01*
X0306239Y0203076D02*
X0304845Y0203076D01*
X0305031Y0203374D02*
X0306301Y0203374D01*
X0306367Y0203673D02*
X0305145Y0203673D01*
X0305187Y0203971D02*
X0306442Y0203971D01*
X0306525Y0204270D02*
X0305256Y0204270D01*
X0305331Y0204569D02*
X0306668Y0204569D01*
X0307082Y0204867D02*
X0305406Y0204867D01*
X0305475Y0205166D02*
X0308635Y0205166D01*
X0308716Y0204867D02*
X0307159Y0204867D01*
X0307637Y0204569D02*
X0308773Y0204569D01*
X0308818Y0204270D02*
X0307774Y0204270D01*
X0307810Y0203971D02*
X0308843Y0203971D01*
X0308838Y0203673D02*
X0307793Y0203673D01*
X0307737Y0203374D02*
X0308813Y0203374D01*
X0308763Y0203076D02*
X0307601Y0203076D01*
X0307286Y0202777D02*
X0308699Y0202777D01*
X0308618Y0202479D02*
X0306885Y0202479D01*
X0306885Y0202180D02*
X0308469Y0202180D01*
X0308245Y0201882D02*
X0306885Y0201882D01*
X0306885Y0201583D02*
X0307909Y0201583D01*
X0307081Y0201285D02*
X0306885Y0201285D01*
X0305754Y0201882D02*
X0303546Y0201882D01*
X0303877Y0201583D02*
X0305468Y0201583D01*
X0304125Y0203076D02*
X0303035Y0203076D01*
X0302987Y0203374D02*
X0304039Y0203374D01*
X0304010Y0203673D02*
X0302987Y0203673D01*
X0302987Y0203971D02*
X0304010Y0203971D01*
X0304067Y0204270D02*
X0302991Y0204270D01*
X0303045Y0204569D02*
X0304225Y0204569D01*
X0304759Y0204867D02*
X0303122Y0204867D01*
X0303225Y0205166D02*
X0304759Y0205166D01*
X0304759Y0205464D02*
X0303368Y0205464D01*
X0303604Y0205763D02*
X0304759Y0205763D01*
X0304759Y0206061D02*
X0304057Y0206061D01*
X0303381Y0207042D02*
X0303341Y0207199D01*
X0303302Y0207396D01*
X0303302Y0207593D01*
X0303262Y0207751D01*
X0303223Y0207948D01*
X0303184Y0208105D01*
X0303105Y0208499D01*
X0303814Y0208499D01*
X0303617Y0208656D01*
X0303459Y0208814D01*
X0303302Y0209010D01*
X0303066Y0209404D01*
X0302987Y0209877D01*
X0302987Y0210152D01*
X0303026Y0210743D01*
X0303223Y0211294D01*
X0303499Y0211727D01*
X0303892Y0212081D01*
X0304325Y0212357D01*
X0304837Y0212514D01*
X0305388Y0212633D01*
X0305979Y0212672D01*
X0305940Y0211136D01*
X0305585Y0211136D01*
X0305270Y0211097D01*
X0304955Y0210979D01*
X0304680Y0210861D01*
X0304444Y0210664D01*
X0304286Y0210428D01*
X0304168Y0210152D01*
X0304129Y0209798D01*
X0304168Y0209483D01*
X0304286Y0209168D01*
X0304444Y0208971D01*
X0304680Y0208774D01*
X0304955Y0208656D01*
X0305270Y0208538D01*
X0305585Y0208499D01*
X0306255Y0208499D01*
X0306885Y0208656D01*
X0307160Y0208774D01*
X0307357Y0208971D01*
X0307554Y0209207D01*
X0307633Y0209483D01*
X0307672Y0209837D01*
X0307633Y0210152D01*
X0307554Y0210467D01*
X0307357Y0210703D01*
X0307160Y0210861D01*
X0306885Y0210979D01*
X0307514Y0212318D01*
X0307948Y0212081D01*
X0308302Y0211727D01*
X0308617Y0211294D01*
X0308774Y0210822D01*
X0308853Y0210231D01*
X0308735Y0209522D01*
X0308617Y0209286D01*
X0308381Y0208892D01*
X0307987Y0208577D01*
X0307987Y0208538D01*
X0312003Y0208538D01*
X0311648Y0208184D01*
X0311176Y0207593D01*
X0310822Y0207239D01*
X0310664Y0207042D01*
X0303381Y0207042D01*
X0303330Y0207255D02*
X0310838Y0207255D01*
X0311136Y0207554D02*
X0303302Y0207554D01*
X0303242Y0207852D02*
X0311383Y0207852D01*
X0311622Y0208151D02*
X0303175Y0208151D01*
X0303115Y0208449D02*
X0311914Y0208449D01*
X0308755Y0209643D02*
X0307650Y0209643D01*
X0307659Y0209942D02*
X0308805Y0209942D01*
X0308852Y0210240D02*
X0307611Y0210240D01*
X0307494Y0210539D02*
X0308812Y0210539D01*
X0308769Y0210837D02*
X0307190Y0210837D01*
X0306885Y0210979D02*
X0307514Y0212318D01*
X0307042Y0212514D01*
X0306530Y0212633D01*
X0305979Y0212672D01*
X0305940Y0211136D01*
X0306255Y0211136D01*
X0306570Y0211097D01*
X0306885Y0210979D01*
X0306958Y0211136D02*
X0308670Y0211136D01*
X0308515Y0211434D02*
X0307099Y0211434D01*
X0305947Y0211434D01*
X0303312Y0211434D01*
X0303167Y0211136D02*
X0305580Y0211136D01*
X0306260Y0211136D02*
X0306958Y0211136D01*
X0307239Y0211733D02*
X0305955Y0211733D01*
X0303505Y0211733D01*
X0303837Y0212031D02*
X0305963Y0212031D01*
X0307380Y0212031D01*
X0307998Y0212031D01*
X0308296Y0211733D02*
X0307239Y0211733D01*
X0307485Y0212330D02*
X0305970Y0212330D01*
X0304283Y0212330D01*
X0304365Y0213381D02*
X0304129Y0213459D01*
X0303971Y0213577D01*
X0303774Y0213696D01*
X0303617Y0213814D01*
X0303499Y0213971D01*
X0303262Y0214365D01*
X0303184Y0214562D01*
X0303144Y0214759D01*
X0303066Y0214995D01*
X0303026Y0215231D01*
X0302987Y0215428D01*
X0302987Y0216333D01*
X0303026Y0216530D01*
X0303026Y0216766D01*
X0303066Y0216963D01*
X0303144Y0217160D01*
X0303184Y0217357D01*
X0303262Y0217554D01*
X0303617Y0218026D01*
X0303774Y0218144D01*
X0303932Y0218223D01*
X0304129Y0218302D01*
X0304325Y0218341D01*
X0307751Y0218341D01*
X0307829Y0218381D01*
X0308184Y0218381D01*
X0308262Y0218420D01*
X0308341Y0218420D01*
X0308420Y0218459D01*
X0308538Y0218459D01*
X0308617Y0218499D01*
X0308656Y0218538D01*
X0308696Y0218538D01*
X0308696Y0217003D01*
X0308656Y0217003D01*
X0308617Y0216963D01*
X0308577Y0216963D01*
X0308538Y0216924D01*
X0308420Y0216924D01*
X0308381Y0216885D01*
X0308144Y0216885D01*
X0308262Y0216806D01*
X0308341Y0216688D01*
X0308420Y0216609D01*
X0308499Y0216491D01*
X0308538Y0216373D01*
X0308617Y0216255D01*
X0308774Y0215782D01*
X0308774Y0215664D01*
X0308814Y0215546D01*
X0308814Y0215388D01*
X0308853Y0215270D01*
X0308853Y0214837D01*
X0308814Y0214640D01*
X0308814Y0214444D01*
X0308774Y0214286D01*
X0308696Y0214089D01*
X0308617Y0213932D01*
X0308538Y0213814D01*
X0308459Y0213656D01*
X0308341Y0213538D01*
X0308223Y0213459D01*
X0308066Y0213341D01*
X0307948Y0213262D01*
X0307751Y0213223D01*
X0307593Y0213144D01*
X0307396Y0213144D01*
X0307199Y0213105D01*
X0306766Y0213184D01*
X0306412Y0213302D01*
X0306136Y0213459D01*
X0305900Y0213735D01*
X0305743Y0214010D01*
X0305625Y0214325D01*
X0305546Y0214640D01*
X0305507Y0214995D01*
X0306333Y0215310D01*
X0306373Y0215192D01*
X0306412Y0215113D01*
X0306451Y0215073D01*
X0306530Y0214916D01*
X0306570Y0214877D01*
X0306609Y0214798D01*
X0306845Y0214680D01*
X0306924Y0214680D01*
X0307003Y0214640D01*
X0307199Y0214640D01*
X0307318Y0214680D01*
X0307396Y0214680D01*
X0307475Y0214719D01*
X0307514Y0214759D01*
X0307593Y0214798D01*
X0307633Y0214877D01*
X0307672Y0214916D01*
X0307751Y0215073D01*
X0307751Y0215152D01*
X0307790Y0215231D01*
X0307790Y0215310D01*
X0307829Y0215388D01*
X0307829Y0215585D01*
X0307790Y0215782D01*
X0307790Y0215979D01*
X0307711Y0216136D01*
X0307672Y0216294D01*
X0307593Y0216412D01*
X0307514Y0216491D01*
X0307396Y0216570D01*
X0307318Y0216648D01*
X0307081Y0216727D01*
X0307003Y0216766D01*
X0306885Y0216806D01*
X0305979Y0216806D01*
X0306058Y0216727D01*
X0306058Y0216648D01*
X0306136Y0216491D01*
X0306136Y0216412D01*
X0306176Y0216333D01*
X0306176Y0216176D01*
X0305388Y0215979D01*
X0305310Y0216255D01*
X0305231Y0216491D01*
X0305113Y0216688D01*
X0304955Y0216806D01*
X0304522Y0216806D01*
X0304286Y0216688D01*
X0304247Y0216648D01*
X0304168Y0216609D01*
X0304050Y0216373D01*
X0304050Y0216294D01*
X0304010Y0216215D01*
X0304010Y0215507D01*
X0304207Y0215113D01*
X0304365Y0214955D01*
X0304444Y0214916D01*
X0304562Y0214877D01*
X0304640Y0214837D01*
X0304837Y0214837D01*
X0304837Y0213302D01*
X0304365Y0213381D01*
X0304043Y0213524D02*
X0304837Y0213524D01*
X0304837Y0213822D02*
X0303610Y0213822D01*
X0303409Y0214121D02*
X0304837Y0214121D01*
X0304837Y0214419D02*
X0303241Y0214419D01*
X0303152Y0214718D02*
X0304837Y0214718D01*
X0304304Y0215016D02*
X0303062Y0215016D01*
X0303009Y0215315D02*
X0304106Y0215315D01*
X0304010Y0215613D02*
X0302987Y0215613D01*
X0302987Y0215912D02*
X0304010Y0215912D01*
X0304010Y0216210D02*
X0302987Y0216210D01*
X0303022Y0216509D02*
X0304118Y0216509D01*
X0305220Y0216509D02*
X0306127Y0216509D01*
X0306176Y0216210D02*
X0305322Y0216210D01*
X0305388Y0215979D02*
X0306176Y0216176D01*
X0306215Y0216097D01*
X0306215Y0216018D01*
X0306255Y0215900D01*
X0306255Y0215743D01*
X0306294Y0215625D01*
X0306294Y0215467D01*
X0306333Y0215388D01*
X0306333Y0215310D01*
X0305507Y0214995D01*
X0305428Y0215703D01*
X0305388Y0215979D01*
X0305398Y0215912D02*
X0306251Y0215912D01*
X0306294Y0215613D02*
X0305438Y0215613D01*
X0305471Y0215315D02*
X0306333Y0215315D01*
X0306480Y0215016D02*
X0305563Y0215016D01*
X0305504Y0215016D01*
X0305537Y0214718D02*
X0306769Y0214718D01*
X0307473Y0214718D02*
X0308829Y0214718D01*
X0308853Y0215016D02*
X0307722Y0215016D01*
X0307793Y0215315D02*
X0308838Y0215315D01*
X0308791Y0215613D02*
X0307824Y0215613D01*
X0307790Y0215912D02*
X0308731Y0215912D01*
X0308631Y0216210D02*
X0307693Y0216210D01*
X0307487Y0216509D02*
X0308487Y0216509D01*
X0308260Y0216807D02*
X0303034Y0216807D01*
X0303123Y0217106D02*
X0308696Y0217106D01*
X0308696Y0217405D02*
X0303203Y0217405D01*
X0303374Y0217703D02*
X0308696Y0217703D01*
X0308696Y0218002D02*
X0303598Y0218002D01*
X0304124Y0218300D02*
X0308696Y0218300D01*
X0308696Y0219207D02*
X0303381Y0219207D01*
X0303341Y0219404D01*
X0303302Y0219562D01*
X0303302Y0219759D01*
X0303262Y0219955D01*
X0303223Y0220113D01*
X0303144Y0220507D01*
X0303105Y0220664D01*
X0304168Y0220664D01*
X0303892Y0220822D01*
X0303696Y0220979D01*
X0303459Y0221176D01*
X0303302Y0221373D01*
X0303144Y0221648D01*
X0303066Y0221885D01*
X0302987Y0222160D01*
X0302987Y0222711D01*
X0303026Y0222751D01*
X0303026Y0222790D01*
X0304444Y0222790D01*
X0304444Y0222751D01*
X0304404Y0222672D01*
X0304404Y0222239D01*
X0304444Y0221845D01*
X0304522Y0221530D01*
X0304680Y0221255D01*
X0304916Y0221058D01*
X0305192Y0220900D01*
X0305467Y0220822D01*
X0305822Y0220743D01*
X0308696Y0220743D01*
X0308696Y0219207D01*
X0308696Y0219494D02*
X0303319Y0219494D01*
X0303295Y0219793D02*
X0308696Y0219793D01*
X0308696Y0220091D02*
X0303229Y0220091D01*
X0303168Y0220390D02*
X0308696Y0220390D01*
X0308696Y0220688D02*
X0304126Y0220688D01*
X0303686Y0220987D02*
X0305040Y0220987D01*
X0304662Y0221285D02*
X0303372Y0221285D01*
X0303181Y0221584D02*
X0304509Y0221584D01*
X0304440Y0221882D02*
X0303066Y0221882D01*
X0302987Y0222181D02*
X0304410Y0222181D01*
X0304404Y0222479D02*
X0302987Y0222479D01*
X0303026Y0222778D02*
X0304444Y0222778D01*
X0305113Y0224916D02*
X0301018Y0224916D01*
X0301845Y0223381D01*
X0308696Y0223381D01*
X0308696Y0224916D01*
X0306766Y0224916D01*
X0306215Y0225507D01*
X0308696Y0227042D01*
X0308696Y0228892D01*
X0305152Y0226570D01*
X0303105Y0228656D01*
X0303105Y0226845D01*
X0305113Y0224916D01*
X0304853Y0225166D02*
X0306533Y0225166D01*
X0306255Y0225464D02*
X0304542Y0225464D01*
X0304231Y0225763D02*
X0306629Y0225763D01*
X0307111Y0226061D02*
X0303921Y0226061D01*
X0303610Y0226360D02*
X0307594Y0226360D01*
X0308076Y0226658D02*
X0305288Y0226658D01*
X0305065Y0226658D02*
X0303299Y0226658D01*
X0303105Y0226957D02*
X0304772Y0226957D01*
X0304479Y0227255D02*
X0303105Y0227255D01*
X0303105Y0227554D02*
X0304186Y0227554D01*
X0303894Y0227852D02*
X0303105Y0227852D01*
X0303105Y0228151D02*
X0303601Y0228151D01*
X0303308Y0228449D02*
X0303105Y0228449D01*
X0303423Y0229046D02*
X0304129Y0229046D01*
X0304129Y0228748D02*
X0303722Y0228748D01*
X0304010Y0228459D02*
X0303381Y0229089D01*
X0303262Y0229247D01*
X0303105Y0229365D01*
X0303105Y0229837D01*
X0302318Y0229837D01*
X0302003Y0229955D01*
X0301727Y0230073D01*
X0301491Y0230270D01*
X0301294Y0230546D01*
X0301136Y0230861D01*
X0301018Y0231255D01*
X0301018Y0232396D01*
X0301058Y0232475D01*
X0302160Y0232475D01*
X0302160Y0231806D01*
X0302199Y0231648D01*
X0302278Y0231491D01*
X0302396Y0231412D01*
X0302475Y0231373D01*
X0302633Y0231373D01*
X0302790Y0231333D01*
X0303105Y0231333D01*
X0303105Y0232396D01*
X0304129Y0232396D01*
X0304129Y0231333D01*
X0308696Y0231333D01*
X0308696Y0229837D01*
X0304129Y0229837D01*
X0304129Y0228302D01*
X0304010Y0228459D01*
X0304018Y0228449D02*
X0304129Y0228449D01*
X0304129Y0229345D02*
X0303131Y0229345D01*
X0303105Y0229643D02*
X0304129Y0229643D01*
X0304129Y0231435D02*
X0303105Y0231435D01*
X0303105Y0231733D02*
X0304129Y0231733D01*
X0304129Y0232032D02*
X0303105Y0232032D01*
X0303105Y0232330D02*
X0304129Y0232330D01*
X0303105Y0232869D02*
X0303105Y0234365D01*
X0306255Y0234365D01*
X0306885Y0234444D01*
X0307121Y0234483D01*
X0307436Y0234719D01*
X0307554Y0234916D01*
X0307593Y0235113D01*
X0307633Y0235349D01*
X0307593Y0235664D01*
X0307554Y0235900D01*
X0307436Y0236097D01*
X0307278Y0236255D01*
X0307042Y0236373D01*
X0306766Y0236491D01*
X0306451Y0236530D01*
X0303105Y0236530D01*
X0303105Y0238066D01*
X0308696Y0238066D01*
X0308696Y0236609D01*
X0307908Y0236609D01*
X0307908Y0236570D01*
X0308144Y0236412D01*
X0308341Y0236255D01*
X0308499Y0236058D01*
X0308617Y0235822D01*
X0308696Y0235625D01*
X0308774Y0235388D01*
X0308814Y0235113D01*
X0308853Y0234877D01*
X0308814Y0234325D01*
X0308656Y0233892D01*
X0308459Y0233538D01*
X0308223Y0233262D01*
X0307869Y0233066D01*
X0307475Y0232948D01*
X0307042Y0232869D01*
X0303105Y0232869D01*
X0303105Y0232927D02*
X0307363Y0232927D01*
X0308157Y0233226D02*
X0303105Y0233226D01*
X0303105Y0233524D02*
X0308447Y0233524D01*
X0308617Y0233823D02*
X0303105Y0233823D01*
X0303105Y0234121D02*
X0308739Y0234121D01*
X0308820Y0234420D02*
X0306693Y0234420D01*
X0307434Y0234718D02*
X0308842Y0234718D01*
X0308830Y0235017D02*
X0307574Y0235017D01*
X0307627Y0235315D02*
X0308785Y0235315D01*
X0308699Y0235614D02*
X0307599Y0235614D01*
X0307547Y0235912D02*
X0308571Y0235912D01*
X0308376Y0236211D02*
X0307322Y0236211D01*
X0307999Y0236509D02*
X0306619Y0236509D01*
X0308696Y0236808D02*
X0303105Y0236808D01*
X0303105Y0237106D02*
X0308696Y0237106D01*
X0308696Y0237405D02*
X0303105Y0237405D01*
X0303105Y0237703D02*
X0308696Y0237703D01*
X0308696Y0238002D02*
X0303105Y0238002D01*
X0303105Y0238892D02*
X0308696Y0238892D01*
X0308696Y0240428D01*
X0305388Y0240428D01*
X0305034Y0240467D01*
X0304759Y0240585D01*
X0304562Y0240703D01*
X0304365Y0240861D01*
X0304247Y0241058D01*
X0304207Y0241294D01*
X0304168Y0241609D01*
X0304207Y0241845D01*
X0304247Y0242042D01*
X0304365Y0242239D01*
X0304522Y0242357D01*
X0304719Y0242475D01*
X0304955Y0242514D01*
X0305231Y0242554D01*
X0305546Y0242593D01*
X0308696Y0242593D01*
X0308696Y0244129D01*
X0305270Y0244129D01*
X0304759Y0244089D01*
X0304325Y0244010D01*
X0303932Y0243892D01*
X0303617Y0243696D01*
X0303341Y0243420D01*
X0303144Y0243066D01*
X0303026Y0242633D01*
X0302987Y0242081D01*
X0302987Y0241845D01*
X0303026Y0241609D01*
X0303184Y0241136D01*
X0303341Y0240900D01*
X0303499Y0240703D01*
X0303656Y0240546D01*
X0303892Y0240388D01*
X0303892Y0240349D01*
X0303105Y0240349D01*
X0303105Y0238892D01*
X0303105Y0238897D02*
X0308696Y0238897D01*
X0308696Y0239196D02*
X0303105Y0239196D01*
X0303105Y0239494D02*
X0308696Y0239494D01*
X0308696Y0239793D02*
X0303105Y0239793D01*
X0303105Y0240091D02*
X0308696Y0240091D01*
X0308696Y0240390D02*
X0303890Y0240390D01*
X0303514Y0240688D02*
X0304587Y0240688D01*
X0304289Y0240987D02*
X0303283Y0240987D01*
X0303134Y0241285D02*
X0304209Y0241285D01*
X0304171Y0241584D02*
X0303035Y0241584D01*
X0302987Y0241882D02*
X0304215Y0241882D01*
X0304330Y0242181D02*
X0302994Y0242181D01*
X0303015Y0242479D02*
X0304746Y0242479D01*
X0304197Y0243972D02*
X0308696Y0243972D01*
X0308696Y0243673D02*
X0303595Y0243673D01*
X0303316Y0243375D02*
X0308696Y0243375D01*
X0308696Y0243076D02*
X0303150Y0243076D01*
X0303066Y0242778D02*
X0308696Y0242778D01*
X0302160Y0232330D02*
X0301018Y0232330D01*
X0301018Y0232032D02*
X0302160Y0232032D01*
X0302178Y0231733D02*
X0301018Y0231733D01*
X0301018Y0231435D02*
X0302363Y0231435D01*
X0301054Y0231136D02*
X0308696Y0231136D01*
X0308696Y0230838D02*
X0301148Y0230838D01*
X0301299Y0230539D02*
X0308696Y0230539D01*
X0308696Y0230240D02*
X0301527Y0230240D01*
X0302038Y0229942D02*
X0308696Y0229942D01*
X0308696Y0228748D02*
X0308475Y0228748D01*
X0308696Y0228449D02*
X0308020Y0228449D01*
X0307564Y0228151D02*
X0308696Y0228151D01*
X0308696Y0227852D02*
X0307109Y0227852D01*
X0306654Y0227554D02*
X0308696Y0227554D01*
X0308696Y0227255D02*
X0306198Y0227255D01*
X0305743Y0226957D02*
X0308558Y0226957D01*
X0308696Y0224867D02*
X0301045Y0224867D01*
X0301205Y0224569D02*
X0308696Y0224569D01*
X0308696Y0224270D02*
X0301366Y0224270D01*
X0301527Y0223972D02*
X0308696Y0223972D01*
X0308696Y0223673D02*
X0301688Y0223673D01*
X0301963Y0226530D02*
X0296924Y0226530D01*
X0296215Y0226609D01*
X0295979Y0226688D01*
X0295743Y0226806D01*
X0295546Y0226924D01*
X0295428Y0227121D01*
X0295310Y0227278D01*
X0295152Y0227672D01*
X0295113Y0227908D01*
X0295113Y0228223D01*
X0295152Y0228381D01*
X0295152Y0228459D01*
X0295192Y0228538D01*
X0295231Y0228499D01*
X0295310Y0228341D01*
X0295349Y0228223D01*
X0295507Y0228066D01*
X0295625Y0227987D01*
X0295743Y0227948D01*
X0295861Y0227948D01*
X0295979Y0227987D01*
X0296136Y0228066D01*
X0296255Y0228184D01*
X0296333Y0228302D01*
X0296412Y0228499D01*
X0296451Y0228696D01*
X0296451Y0229010D01*
X0296373Y0229325D01*
X0296215Y0229562D01*
X0296018Y0229719D01*
X0295782Y0229798D01*
X0295507Y0229798D01*
X0295231Y0229680D01*
X0294916Y0229404D01*
X0294562Y0229089D01*
X0294247Y0228814D01*
X0293892Y0228617D01*
X0293538Y0228538D01*
X0293223Y0228538D01*
X0292869Y0228656D01*
X0292593Y0228853D01*
X0292278Y0229207D01*
X0292042Y0229640D01*
X0291963Y0230073D01*
X0291963Y0230467D01*
X0292081Y0230822D01*
X0292199Y0231136D01*
X0292455Y0231136D01*
X0292475Y0231058D02*
X0292436Y0231215D01*
X0292436Y0231333D01*
X0292475Y0231451D01*
X0292475Y0231570D01*
X0292436Y0231530D01*
X0292318Y0231373D01*
X0292199Y0231136D01*
X0292475Y0231058D02*
X0292514Y0230861D01*
X0292593Y0230703D01*
X0292711Y0230546D01*
X0292829Y0230467D01*
X0292948Y0230428D01*
X0293026Y0230388D01*
X0293144Y0230349D01*
X0293262Y0230388D01*
X0293420Y0230428D01*
X0293538Y0230507D01*
X0293696Y0230585D01*
X0293814Y0230703D01*
X0293892Y0230822D01*
X0294010Y0230979D01*
X0294089Y0231097D01*
X0294247Y0231412D01*
X0294247Y0231688D01*
X0294207Y0231806D01*
X0294129Y0231924D01*
X0293892Y0232003D01*
X0293577Y0232003D01*
X0293735Y0232318D01*
X0294089Y0232633D01*
X0294562Y0232908D01*
X0295113Y0233105D01*
X0295743Y0233223D01*
X0296451Y0233184D01*
X0297160Y0232987D01*
X0297869Y0232593D01*
X0298223Y0232318D01*
X0298538Y0232003D01*
X0298814Y0231688D01*
X0299050Y0231294D01*
X0299207Y0230900D01*
X0299325Y0230467D01*
X0299404Y0229995D01*
X0299404Y0229247D01*
X0299444Y0229010D01*
X0299562Y0228814D01*
X0299877Y0228420D01*
X0300113Y0228223D01*
X0300625Y0227711D01*
X0300900Y0227514D01*
X0301136Y0227278D01*
X0301373Y0227081D01*
X0301570Y0226885D01*
X0301727Y0226766D01*
X0301845Y0226648D01*
X0301963Y0226570D01*
X0301963Y0226530D01*
X0301835Y0226658D02*
X0296067Y0226658D01*
X0295526Y0226957D02*
X0301497Y0226957D01*
X0301164Y0227255D02*
X0295327Y0227255D01*
X0295199Y0227554D02*
X0300845Y0227554D01*
X0300484Y0227852D02*
X0295122Y0227852D01*
X0295113Y0228151D02*
X0295421Y0228151D01*
X0295256Y0228449D02*
X0295152Y0228449D01*
X0294513Y0229046D02*
X0292421Y0229046D01*
X0292203Y0229345D02*
X0294849Y0229345D01*
X0295189Y0229643D02*
X0292041Y0229643D01*
X0291987Y0229942D02*
X0299404Y0229942D01*
X0299404Y0229643D02*
X0296113Y0229643D01*
X0296360Y0229345D02*
X0299404Y0229345D01*
X0299438Y0229046D02*
X0296442Y0229046D01*
X0296451Y0228748D02*
X0299614Y0228748D01*
X0299853Y0228449D02*
X0296392Y0228449D01*
X0296222Y0228151D02*
X0300185Y0228151D01*
X0299363Y0230240D02*
X0291963Y0230240D01*
X0291987Y0230539D02*
X0292722Y0230539D01*
X0292526Y0230838D02*
X0292087Y0230838D01*
X0292364Y0231435D02*
X0292469Y0231435D01*
X0293592Y0232032D02*
X0298509Y0232032D01*
X0298774Y0231733D02*
X0294232Y0231733D01*
X0294247Y0231435D02*
X0298966Y0231435D01*
X0299113Y0231136D02*
X0294109Y0231136D01*
X0293904Y0230838D02*
X0299224Y0230838D01*
X0299306Y0230539D02*
X0293603Y0230539D01*
X0293749Y0232330D02*
X0298207Y0232330D01*
X0297805Y0232629D02*
X0294085Y0232629D01*
X0294615Y0232927D02*
X0297268Y0232927D01*
X0294128Y0228748D02*
X0292740Y0228748D01*
X0305601Y0214419D02*
X0308808Y0214419D01*
X0308708Y0214121D02*
X0305701Y0214121D01*
X0305850Y0213822D02*
X0308544Y0213822D01*
X0308320Y0213524D02*
X0306081Y0213524D01*
X0306642Y0213225D02*
X0307762Y0213225D01*
X0306548Y0212628D02*
X0305978Y0212628D01*
X0305369Y0212628D01*
X0304651Y0210837D02*
X0303060Y0210837D01*
X0303013Y0210539D02*
X0304360Y0210539D01*
X0304206Y0210240D02*
X0302993Y0210240D01*
X0302987Y0209942D02*
X0304145Y0209942D01*
X0304148Y0209643D02*
X0303026Y0209643D01*
X0303101Y0209345D02*
X0304220Y0209345D01*
X0304384Y0209046D02*
X0303280Y0209046D01*
X0303525Y0208748D02*
X0304742Y0208748D01*
X0307098Y0208748D02*
X0308200Y0208748D01*
X0308473Y0209046D02*
X0307420Y0209046D01*
X0307593Y0209345D02*
X0308646Y0209345D01*
X0307226Y0206360D02*
X0306500Y0206360D01*
X0305988Y0206061D02*
X0307982Y0206061D01*
X0308299Y0205763D02*
X0305765Y0205763D01*
X0305595Y0205464D02*
X0308500Y0205464D01*
D134*
X0286833Y0153444D03*
D135*
X0286991Y0153444D03*
D136*
X0287148Y0153463D03*
D137*
X0287286Y0153444D03*
D138*
X0287424Y0153522D03*
D139*
X0295455Y0167755D03*
X0298211Y0177951D03*
X0287581Y0177794D03*
X0287581Y0129251D03*
D140*
X0287719Y0128955D03*
X0298073Y0128798D03*
X0290633Y0145136D03*
X0290633Y0156948D03*
X0298073Y0178247D03*
D141*
X0287719Y0178030D03*
X0295593Y0167676D03*
X0295593Y0145353D03*
D142*
X0295022Y0144625D03*
X0295888Y0141711D03*
X0295731Y0141554D03*
X0295455Y0141278D03*
X0295298Y0141121D03*
X0295022Y0140845D03*
X0294865Y0140688D03*
X0294707Y0140530D03*
X0294432Y0140255D03*
X0294274Y0140097D03*
X0293999Y0139822D03*
X0293841Y0139507D03*
X0293566Y0139231D03*
X0290495Y0141869D03*
X0291085Y0144625D03*
X0290928Y0144782D03*
X0290928Y0149310D03*
X0295888Y0167656D03*
X0297936Y0178325D03*
X0288014Y0178444D03*
X0287857Y0128719D03*
X0288014Y0128601D03*
X0288290Y0128286D03*
X0297778Y0128444D03*
X0297936Y0128601D03*
D143*
X0293408Y0139152D03*
X0292542Y0141790D03*
X0290337Y0141633D03*
X0295455Y0145136D03*
X0295298Y0149073D03*
X0290770Y0149073D03*
X0290770Y0157105D03*
X0295298Y0156948D03*
X0295731Y0167735D03*
X0287857Y0178247D03*
D144*
X0288152Y0178601D03*
X0295160Y0157184D03*
X0295160Y0144782D03*
X0295593Y0141436D03*
X0294570Y0140412D03*
X0294136Y0139979D03*
X0293703Y0139388D03*
X0288152Y0128444D03*
D145*
X0288605Y0128089D03*
X0288881Y0127932D03*
X0289314Y0127774D03*
X0297345Y0128089D03*
X0290337Y0136239D03*
X0290928Y0142223D03*
X0291951Y0142223D03*
X0292227Y0142066D03*
X0291951Y0144113D03*
X0291518Y0144270D03*
X0294432Y0144270D03*
X0294865Y0144546D03*
X0291518Y0149664D03*
X0291085Y0157381D03*
X0291361Y0157538D03*
X0291794Y0157814D03*
X0294707Y0157538D03*
X0294865Y0157381D03*
X0290337Y0164822D03*
X0290062Y0164664D03*
X0291518Y0165412D03*
X0292385Y0165845D03*
X0292975Y0166121D03*
X0293251Y0166278D03*
X0293566Y0166436D03*
X0294432Y0166869D03*
X0295022Y0167144D03*
X0294865Y0168325D03*
X0294274Y0168601D03*
X0293999Y0168759D03*
X0292818Y0169349D03*
X0292227Y0169625D03*
X0291951Y0169782D03*
X0291361Y0170058D03*
X0290770Y0170373D03*
X0288290Y0178680D03*
X0289038Y0179113D03*
X0296322Y0179270D03*
X0297188Y0178955D03*
X0297778Y0178522D03*
D146*
X0297503Y0178818D03*
X0297345Y0178818D03*
X0288448Y0178818D03*
X0290495Y0170510D03*
X0292542Y0169487D03*
X0293408Y0169054D03*
X0294707Y0167007D03*
X0293841Y0166573D03*
X0291794Y0165550D03*
X0290928Y0165117D03*
X0291518Y0157676D03*
X0290928Y0157243D03*
X0294432Y0157676D03*
X0295022Y0157243D03*
X0291085Y0149369D03*
X0291361Y0144408D03*
X0292385Y0141928D03*
X0294707Y0144408D03*
X0297503Y0128227D03*
X0288448Y0128227D03*
D147*
X0289471Y0127715D03*
X0289629Y0127715D03*
X0289904Y0127715D03*
X0290062Y0127715D03*
X0290337Y0127715D03*
X0290495Y0127715D03*
X0290770Y0127715D03*
X0290928Y0127715D03*
X0291085Y0127715D03*
X0291361Y0127715D03*
X0291518Y0127715D03*
X0291794Y0127715D03*
X0291951Y0127715D03*
X0292227Y0127715D03*
X0292385Y0127715D03*
X0292542Y0127715D03*
X0292818Y0127715D03*
X0292975Y0127715D03*
X0293251Y0127715D03*
X0293408Y0127715D03*
X0293566Y0127715D03*
X0293841Y0127715D03*
X0293999Y0127715D03*
X0294274Y0127715D03*
X0294432Y0127715D03*
X0294707Y0127715D03*
X0294865Y0127715D03*
X0295022Y0127715D03*
X0295298Y0127715D03*
X0295455Y0127715D03*
X0295731Y0127715D03*
X0295888Y0127715D03*
X0296164Y0127715D03*
X0296322Y0127715D03*
X0296479Y0127715D03*
X0296164Y0136180D03*
X0295888Y0136180D03*
X0295731Y0136180D03*
X0295455Y0136180D03*
X0295298Y0136180D03*
X0295022Y0136180D03*
X0294865Y0136180D03*
X0294707Y0136180D03*
X0294432Y0136180D03*
X0294274Y0136180D03*
X0293999Y0136180D03*
X0293841Y0136180D03*
X0293566Y0136180D03*
X0293408Y0136180D03*
X0293251Y0136180D03*
X0292975Y0136180D03*
X0292818Y0136180D03*
X0292542Y0136180D03*
X0292385Y0136180D03*
X0292227Y0136180D03*
X0291951Y0136180D03*
X0291794Y0136180D03*
X0291518Y0136180D03*
X0291361Y0136180D03*
X0291085Y0136180D03*
X0290928Y0136180D03*
X0290770Y0136180D03*
X0290495Y0136180D03*
X0292542Y0143896D03*
X0292385Y0144054D03*
X0292227Y0144054D03*
X0292818Y0143896D03*
X0292975Y0143896D03*
X0293251Y0143896D03*
X0293408Y0143896D03*
X0293566Y0143896D03*
X0293841Y0144054D03*
X0293999Y0144054D03*
X0296164Y0141849D03*
X0295022Y0149290D03*
X0291951Y0149881D03*
X0291794Y0149881D03*
X0294274Y0157755D03*
X0289904Y0164605D03*
X0290770Y0165038D03*
X0291085Y0165196D03*
X0291951Y0165629D03*
X0292818Y0166062D03*
X0293999Y0166652D03*
X0294865Y0167085D03*
X0296164Y0167676D03*
X0294432Y0168542D03*
X0293566Y0168975D03*
X0293251Y0169133D03*
X0292385Y0169566D03*
X0291518Y0169999D03*
X0290337Y0170589D03*
X0288605Y0178896D03*
X0289629Y0179329D03*
X0289904Y0179329D03*
X0290062Y0179329D03*
X0290337Y0179329D03*
X0290495Y0179329D03*
X0290770Y0179329D03*
X0290928Y0179329D03*
X0291085Y0179329D03*
X0291361Y0179329D03*
X0291518Y0179329D03*
X0291794Y0179329D03*
X0291951Y0179329D03*
X0292227Y0179329D03*
X0292385Y0179329D03*
X0292542Y0179329D03*
X0292818Y0179329D03*
X0292975Y0179329D03*
X0293251Y0179329D03*
X0293408Y0179329D03*
X0293566Y0179329D03*
X0293841Y0179329D03*
X0293999Y0179329D03*
X0294274Y0179329D03*
X0294432Y0179329D03*
X0294707Y0179329D03*
X0294865Y0179329D03*
X0295022Y0179329D03*
X0295298Y0179329D03*
X0295455Y0179329D03*
X0295731Y0179329D03*
X0295888Y0179329D03*
X0296164Y0179329D03*
D148*
X0296617Y0179192D03*
X0297050Y0179034D03*
X0289176Y0179192D03*
X0291223Y0170136D03*
X0292089Y0169703D03*
X0294136Y0168680D03*
X0295160Y0167223D03*
X0293113Y0166199D03*
X0290199Y0164743D03*
X0292680Y0158050D03*
X0293113Y0158050D03*
X0293703Y0158050D03*
X0294136Y0157892D03*
X0292089Y0157892D03*
X0292089Y0152066D03*
X0291656Y0152066D03*
X0291223Y0152066D03*
X0290633Y0152066D03*
X0292680Y0152066D03*
X0293113Y0152066D03*
X0293703Y0152066D03*
X0294136Y0152066D03*
X0294570Y0152066D03*
X0295160Y0152066D03*
X0295593Y0152066D03*
X0292680Y0150018D03*
X0291656Y0142302D03*
X0291223Y0142302D03*
X0292089Y0142144D03*
X0288743Y0128010D03*
X0289176Y0127853D03*
D149*
X0296617Y0127774D03*
X0297050Y0127932D03*
X0297640Y0128365D03*
X0296026Y0141790D03*
X0294136Y0144113D03*
X0291656Y0144270D03*
X0291223Y0144546D03*
X0290633Y0142066D03*
X0291223Y0149507D03*
X0292089Y0149940D03*
X0295160Y0149231D03*
X0291223Y0157538D03*
X0290633Y0164979D03*
X0291223Y0165255D03*
X0292089Y0165688D03*
X0292680Y0166003D03*
X0294136Y0166711D03*
X0295160Y0168168D03*
X0294570Y0168483D03*
X0293703Y0168916D03*
X0293113Y0169192D03*
X0291656Y0169940D03*
X0290199Y0170648D03*
X0296026Y0167735D03*
X0297640Y0178680D03*
X0288743Y0178955D03*
D150*
X0288881Y0179034D03*
X0289314Y0179192D03*
X0289471Y0179192D03*
X0296479Y0179192D03*
X0296755Y0179192D03*
X0296912Y0179034D03*
X0291794Y0169861D03*
X0291085Y0170136D03*
X0290928Y0170294D03*
X0290062Y0170727D03*
X0289904Y0170727D03*
X0292975Y0169270D03*
X0293841Y0168837D03*
X0294707Y0168404D03*
X0295022Y0168247D03*
X0294274Y0166790D03*
X0293408Y0166357D03*
X0292542Y0165924D03*
X0292227Y0165766D03*
X0291361Y0165333D03*
X0290495Y0164900D03*
X0292227Y0158050D03*
X0292385Y0158050D03*
X0292542Y0158050D03*
X0292818Y0158050D03*
X0292975Y0158050D03*
X0293251Y0158050D03*
X0293408Y0158050D03*
X0293566Y0158050D03*
X0293841Y0157892D03*
X0293999Y0157892D03*
X0291951Y0157892D03*
X0291951Y0152066D03*
X0291794Y0152066D03*
X0291518Y0152066D03*
X0291361Y0152066D03*
X0291085Y0152066D03*
X0290928Y0152066D03*
X0290770Y0152066D03*
X0290495Y0152066D03*
X0290337Y0152066D03*
X0292227Y0152066D03*
X0292385Y0152066D03*
X0292542Y0152066D03*
X0292818Y0152066D03*
X0292975Y0152066D03*
X0293251Y0152066D03*
X0293408Y0152066D03*
X0293566Y0152066D03*
X0293841Y0152066D03*
X0293999Y0152066D03*
X0294274Y0152066D03*
X0294432Y0152066D03*
X0294707Y0152066D03*
X0294865Y0152066D03*
X0295022Y0152066D03*
X0295298Y0152066D03*
X0295455Y0152066D03*
X0292542Y0150018D03*
X0292385Y0150018D03*
X0292227Y0150018D03*
X0291361Y0149585D03*
X0291794Y0144192D03*
X0291794Y0142302D03*
X0291518Y0142302D03*
X0291361Y0142302D03*
X0291085Y0142302D03*
X0290770Y0142144D03*
X0294274Y0144192D03*
X0297188Y0128010D03*
X0296912Y0127853D03*
X0296755Y0127853D03*
X0289038Y0127853D03*
D151*
X0289629Y0138562D03*
D152*
X0296322Y0141928D03*
X0289629Y0147046D03*
X0296322Y0167755D03*
D153*
X0289629Y0153581D03*
X0290062Y0147046D03*
X0292975Y0140196D03*
D154*
X0289629Y0164605D03*
D155*
X0291656Y0165471D03*
X0293703Y0166495D03*
X0294570Y0166928D03*
X0292680Y0169408D03*
X0290633Y0170432D03*
X0290633Y0179329D03*
X0290199Y0179329D03*
X0289766Y0179329D03*
X0291223Y0179329D03*
X0291656Y0179329D03*
X0292089Y0179329D03*
X0292680Y0179329D03*
X0293113Y0179329D03*
X0293703Y0179329D03*
X0294136Y0179329D03*
X0294570Y0179329D03*
X0295160Y0179329D03*
X0295593Y0179329D03*
X0296026Y0179329D03*
X0291656Y0157755D03*
X0291656Y0149723D03*
X0292089Y0144054D03*
X0292680Y0143896D03*
X0293113Y0143896D03*
X0293703Y0144054D03*
X0294570Y0144329D03*
X0294570Y0136180D03*
X0294136Y0136180D03*
X0293703Y0136180D03*
X0293113Y0136180D03*
X0292680Y0136180D03*
X0292089Y0136180D03*
X0291656Y0136180D03*
X0291223Y0136180D03*
X0290633Y0136180D03*
X0295160Y0136180D03*
X0295593Y0136180D03*
X0296026Y0136180D03*
X0296026Y0127715D03*
X0295593Y0127715D03*
X0295160Y0127715D03*
X0294570Y0127715D03*
X0294136Y0127715D03*
X0293703Y0127715D03*
X0293113Y0127715D03*
X0292680Y0127715D03*
X0292089Y0127715D03*
X0291656Y0127715D03*
X0291223Y0127715D03*
X0290633Y0127715D03*
X0290199Y0127715D03*
X0289766Y0127715D03*
D156*
X0289766Y0138719D03*
D157*
X0289766Y0147026D03*
D158*
X0289766Y0153896D03*
D159*
X0289766Y0164684D03*
X0289766Y0170786D03*
D160*
X0289904Y0147026D03*
X0293251Y0139900D03*
D161*
X0289904Y0154113D03*
D162*
X0290062Y0138936D03*
D163*
X0290062Y0154251D03*
X0295888Y0154251D03*
D164*
X0290199Y0139014D03*
D165*
X0290199Y0146948D03*
D166*
X0290199Y0154329D03*
D167*
X0290337Y0156219D03*
D168*
X0290495Y0156731D03*
X0295455Y0156731D03*
X0295455Y0148857D03*
X0290495Y0148699D03*
X0290495Y0145353D03*
X0298211Y0129014D03*
D169*
X0290633Y0148936D03*
D170*
X0290770Y0144920D03*
X0295298Y0144920D03*
D171*
X0292680Y0140392D03*
D172*
X0292680Y0161751D03*
D173*
X0292818Y0161849D03*
X0292975Y0161849D03*
D174*
X0293113Y0140038D03*
D175*
X0293113Y0147538D03*
D176*
X0296026Y0146967D03*
X0293113Y0161849D03*
D177*
X0293251Y0161829D03*
D178*
X0294570Y0157676D03*
D179*
X0294865Y0149290D03*
X0296322Y0136180D03*
D180*
X0295160Y0140983D03*
D181*
X0295298Y0167676D03*
D182*
X0295593Y0148621D03*
D183*
X0295593Y0156436D03*
D184*
X0295731Y0154329D03*
D185*
X0296026Y0154113D03*
D186*
X0296164Y0146967D03*
D187*
X0296164Y0153975D03*
D188*
X0296322Y0153739D03*
D189*
X0298507Y0153522D03*
D190*
X0298644Y0153444D03*
D191*
X0298802Y0153522D03*
D192*
X0298959Y0153522D03*
M02*
