%
M48
M72
T01C0.0138
T02C0.0150
T03C0.0256
T04C0.0800
T05C0.1300
%
T01
X20190Y15102
X23940Y17852
X24440Y17852
X25440Y17752
T02
X25645Y18012
X25645Y18302
X25235Y18302
X25235Y18012
X24940Y17802
X24685Y18552
X24240Y18802
X23940Y18802
X23690Y18052
X23440Y17802
X22040Y17952
X22040Y18302
X22040Y18652
X21940Y17352
X21740Y16902
X21440Y16702
X22045Y16547
X22500Y16302
X22500Y15952
X22440Y15352
X21290Y14852
X21290Y13852
X22440Y13352
X22940Y12602
X23440Y13352
X23940Y13602
X24440Y13852
X24840Y14802
X23390Y15502
X20940Y17552
X19940Y17852
X19940Y18352
X20340Y19752
X20340Y20502
X21790Y21202
X22290Y20602
X23391Y20600
X23890Y20802
X23650Y21342
X22940Y21852
X22640Y21902
X22290Y22252
X22290Y22547
X22040Y22702
X21740Y22722
X22090Y23402
X22235Y23667
X22035Y23952
X22235Y24202
X21790Y24397
X21490Y24452
X21990Y25352
X22290Y25352
X22590Y25352
X22890Y25352
X23190Y25352
X23395Y24952
X23395Y24652
X23880Y25112
X23790Y25552
X24840Y24702
X25140Y24952
X25390Y24702
X25240Y24452
X25940Y24702
X25690Y25052
X25940Y25202
X26240Y25202
X26490Y25402
X27135Y26157
X28940Y26352
X28940Y27852
X29940Y27852
X30940Y27852
X27940Y27852
X26940Y27852
X25940Y27852
X25390Y25202
X26690Y24107
X25885Y23852
X26581Y23261
X27190Y22840
X26490Y22152
X26149Y21662
X26540Y21352
X25611Y20902
X24990Y20914
X24737Y21120
X24940Y22352
X24440Y22352
X23940Y22352
X23940Y22852
X24440Y22852
X24940Y22852
X24940Y23352
X24440Y23352
X23940Y23352
X22470Y23083
X22590Y22402
X20290Y21952
X19007Y21935
X20290Y23502
X19695Y24827
X20035Y25147
X21440Y25602
X18590Y26852
X17590Y27102
X15690Y26902
X12690Y26402
X10940Y25652
X10940Y23902
X10940Y22852
X11840Y21952
X13440Y21352
X13940Y22352
X14940Y21102
X15440Y21602
X13940Y19352
X13140Y18302
X10940Y18352
X10940Y18852
X10440Y18852
X9940Y18852
X9440Y18852
X8940Y18852
X8940Y18352
X8440Y18352
X8440Y18852
X8440Y17852
X8940Y17852
X8940Y17352
X8440Y17352
X8440Y16852
X8940Y16852
X9440Y16852
X9940Y16852
X10440Y16852
X10940Y16852
X10940Y17352
X10940Y17852
X14090Y15652
X13440Y14352
X15940Y16352
X15140Y17352
X15440Y18602
X20440Y16352
X19940Y13352
X18440Y12602
X17340Y12602
X19940Y10352
X21940Y10352
X25940Y11852
X27940Y12852
X31440Y14852
X32440Y14852
X32015Y15777
X32230Y16443
X33740Y16402
X30440Y16852
X28440Y18852
X26440Y17852
X25140Y19102
X25140Y19502
X25140Y19902
X28090Y21852
X28740Y23464
X28840Y24452
X28290Y24402
X29940Y23702
X30940Y23102
X30940Y24852
X30440Y24852
X31440Y21352
X18440Y24352
X17590Y24102
X11440Y28852
X8940Y21852
X8440Y21852
X9590Y12152
X9590Y11652
X9090Y11652
X9590Y11152
T03
X9871Y23714
X9871Y25990
T04
X10540Y12752
X8740Y12752
T05
X13440Y10352
X33940Y12352
X33940Y23352
X13940Y29352
M30
