%
M48
M72
T01C0.0120
T02C0.0138
T03C0.0150
T04C0.0256
T05C0.0400
T06C0.0800
T07C0.1300
%
T01
X10040Y24552
X10140Y24952
T02
X12190Y23952
X11340Y23402
X10990Y22202
X14970Y20133
X15190Y19902
X14895Y19808
X15690Y20052
X16540Y19352
X17440Y19352
X18037Y19952
X17789Y20152
X17560Y20352
X17240Y20352
X19440Y21309
X19440Y22502
X20940Y23852
X21217Y23852
X23051Y22972
X24540Y21452
X23740Y20202
X25041Y18718
X25455Y18918
X25745Y19502
X26940Y18702
X27105Y18468
X26940Y17852
X26440Y17852
X26340Y18602
X25440Y17852
X25240Y18152
X28840Y18502
X28790Y19252
X29890Y19202
X29890Y18502
X27590Y21402
X27840Y21752
X28040Y21552
X28040Y21952
X27840Y22152
X28040Y22352
X27839Y22552
X28040Y22752
X27640Y23002
X27817Y24252
X27490Y24602
X26947Y24827
X26752Y25040
X26532Y25213
X25440Y25852
X25740Y26052
X25740Y26352
X25740Y26652
X25740Y26952
X25740Y27252
X25140Y25652
X24840Y25452
X25247Y24776
X25040Y24491
X26540Y21352
X27140Y21152
X21240Y16302
X20440Y16852
X19440Y17852
X20190Y18152
X18366Y18176
X17690Y17852
X16940Y17352
X19639Y19897
X20190Y14602
X13440Y14352
X18565Y26227
X19440Y26656
X19940Y26852
X19340Y29352
T03
X18740Y29352
X17940Y29352
X17940Y27852
X17590Y26352
X15690Y26902
X16409Y24102
X13940Y22352
X13940Y21902
X13440Y21902
X13440Y21352
X13940Y21352
X14840Y20952
X16490Y20096
X15440Y18996
X13940Y18959
X13140Y17909
X10940Y17852
X10940Y17352
X10940Y16852
X10440Y16852
X9940Y16852
X9440Y16852
X8940Y16852
X8440Y16852
X8440Y17352
X8940Y17352
X8940Y17852
X8440Y17852
X8440Y18352
X8940Y18352
X8940Y18852
X9440Y18852
X9940Y18852
X10440Y18852
X10940Y18852
X10940Y18352
X8440Y18852
X8190Y21552
X8190Y22052
X8190Y22552
X9940Y22352
X10890Y23902
X10940Y25652
X11690Y26902
X11440Y28852
X20290Y23502
X20940Y21352
X21440Y20602
X21440Y19852
X21240Y18802
X21440Y18102
X21440Y17602
X21440Y16852
X20740Y15802
X21290Y14352
X21290Y13352
X19940Y13352
X18440Y12602
X17340Y12602
X19940Y10352
X21940Y10352
X22940Y12602
X22940Y13852
X23940Y15352
X23940Y15702
X24890Y15502
X26340Y14802
X27940Y12852
X25940Y11852
X31440Y14852
X32440Y14852
X32230Y16443
X33740Y16402
X28440Y18852
X27940Y17852
X27290Y19102
X27290Y19852
X26990Y20702
X28590Y21352
X26440Y22352
X25940Y22352
X25440Y22352
X25440Y22852
X25940Y22852
X26440Y22852
X26440Y23352
X25940Y23352
X25440Y23352
X24090Y24352
X24140Y22152
X23090Y21352
X24740Y20552
X24440Y19452
X24440Y18702
X23890Y17952
X23040Y16802
X15940Y15959
X15140Y16959
X14090Y15259
X9590Y12152
X9590Y11652
X9090Y11652
X9590Y11152
X30290Y24902
X30440Y26352
T04
X9871Y25990
X9871Y23714
T05
X17766Y17057
X18766Y17057
X18766Y16057
X17766Y16057
X17766Y15057
X18766Y15057
T06
X10540Y12752
X8740Y12752
T07
X13440Y10352
X33940Y12352
X33940Y23352
X13940Y29352
M30
