G75*
%MOIN*%
%OFA0B0*%
%FSLAX25Y25*%
%IPPOS*%
%LPD*%
%AMOC8*
5,1,8,0,0,1.08239X$1,22.5*
%
%ADD10C,0.00800*%
%ADD11C,0.01000*%
%ADD12C,0.01000*%
%ADD13R,0.00157X0.16220*%
%ADD14R,0.00157X0.17165*%
%ADD15R,0.00157X0.17795*%
%ADD16R,0.00157X0.18425*%
%ADD17R,0.00157X0.18740*%
%ADD18R,0.00157X0.19055*%
%ADD19R,0.00157X0.11654*%
%ADD20R,0.00157X0.00945*%
%ADD21R,0.00157X0.05669*%
%ADD22R,0.00157X0.04252*%
%ADD23R,0.00157X0.06614*%
%ADD24R,0.00157X0.00630*%
%ADD25R,0.00157X0.03937*%
%ADD26R,0.00157X0.06142*%
%ADD27R,0.00157X0.00472*%
%ADD28R,0.00157X0.05827*%
%ADD29R,0.00157X0.03622*%
%ADD30R,0.00157X0.05984*%
%ADD31R,0.00157X0.03465*%
%ADD32R,0.00157X0.05512*%
%ADD33R,0.00157X0.13858*%
%ADD34R,0.00157X0.03307*%
%ADD35R,0.00157X0.01102*%
%ADD36R,0.00157X0.13701*%
%ADD37R,0.00157X0.01417*%
%ADD38R,0.00157X0.00787*%
%ADD39R,0.00157X0.03780*%
%ADD40R,0.00157X0.01732*%
%ADD41R,0.00157X0.00315*%
%ADD42R,0.00157X0.01890*%
%ADD43R,0.00157X0.02047*%
%ADD44R,0.00157X0.03150*%
%ADD45R,0.00157X0.00157*%
%ADD46R,0.00157X0.04882*%
%ADD47R,0.00157X0.04567*%
%ADD48R,0.00157X0.02992*%
%ADD49R,0.00157X0.01260*%
%ADD50R,0.00157X0.02835*%
%ADD51R,0.00157X0.01575*%
%ADD52R,0.00157X0.19370*%
%ADD53C,0.00010*%
%ADD54R,0.00157X0.09449*%
%ADD55R,0.00157X0.09921*%
%ADD56R,0.00157X0.10236*%
%ADD57R,0.00157X0.10551*%
%ADD58R,0.00157X0.10709*%
%ADD59R,0.00157X0.10866*%
%ADD60R,0.00157X0.11024*%
%ADD61R,0.00157X0.07559*%
%ADD62R,0.00157X0.07244*%
%ADD63R,0.00157X0.02520*%
%ADD64R,0.00157X0.07087*%
%ADD65R,0.00157X0.02205*%
%ADD66R,0.00157X0.06929*%
%ADD67R,0.00157X0.08189*%
%ADD68R,0.00157X0.06772*%
%ADD69R,0.00157X0.09134*%
%ADD70R,0.00157X0.09606*%
%ADD71R,0.00157X0.10394*%
%ADD72R,0.00157X0.02362*%
%ADD73R,0.00157X0.04409*%
%ADD74R,0.00157X0.08031*%
%ADD75R,0.00157X0.07402*%
%ADD76R,0.00157X0.02677*%
%ADD77R,0.00157X0.12126*%
%ADD78R,0.00157X0.12441*%
%ADD79R,0.00157X0.12756*%
%ADD80R,0.00157X0.12913*%
%ADD81R,0.00157X0.13071*%
%ADD82R,0.00157X0.13228*%
%ADD83R,0.00157X0.09764*%
%ADD84R,0.00157X0.07874*%
%ADD85R,0.00157X0.07717*%
%ADD86R,0.00157X0.11181*%
%ADD87R,0.00157X0.11496*%
%ADD88R,0.00157X0.11811*%
%ADD89R,0.00157X0.11969*%
%ADD90R,0.00157X0.12283*%
%ADD91R,0.00157X0.13386*%
%ADD92R,0.00157X0.06457*%
%ADD93R,0.00157X0.06299*%
%ADD94R,0.00157X0.04094*%
%ADD95R,0.00157X0.08819*%
%ADD96R,0.00157X0.05354*%
%ADD97R,0.00157X0.17323*%
%ADD98R,0.00157X0.17480*%
%ADD99R,0.00157X0.17953*%
%ADD100R,0.00157X0.19213*%
%ADD101R,0.00157X0.19528*%
%ADD102R,0.00157X0.18110*%
%ADD103R,0.00157X0.24882*%
%ADD104R,0.00157X0.25354*%
%ADD105R,0.00157X0.25669*%
%ADD106R,0.00157X0.25984*%
%ADD107R,0.00157X0.26142*%
%ADD108R,0.00157X0.26299*%
%ADD109R,0.00157X0.18583*%
%ADD110R,0.00157X0.16693*%
%ADD111R,0.00157X0.08976*%
%ADD112R,0.00157X0.16850*%
%ADD113R,0.00157X0.26614*%
%ADD114R,0.00157X0.26929*%
%ADD115R,0.00157X0.27244*%
%ADD116R,0.00157X0.27402*%
%ADD117R,0.00157X0.27559*%
%ADD118R,0.00157X0.11339*%
%ADD119R,0.00157X0.17638*%
%ADD120R,0.00157X0.09291*%
%ADD121R,0.00157X0.16378*%
%ADD122R,0.00157X0.16535*%
%ADD123R,0.00157X0.17008*%
%ADD124R,0.00157X0.18268*%
%ADD125R,0.00157X0.05039*%
%ADD126R,0.00157X0.05197*%
%ADD127R,0.00157X0.14331*%
%ADD128R,0.00157X0.08346*%
%ADD129R,0.00157X0.08661*%
%ADD130R,0.00157X0.04724*%
%ADD131R,0.00157X0.15276*%
%ADD132R,0.00157X0.19685*%
%ADD133R,0.00157X0.14173*%
%ADD134C,0.00300*%
%ADD135R,0.00157X0.46929*%
%ADD136R,0.00157X0.48110*%
%ADD137R,0.00157X0.48701*%
%ADD138R,0.00118X0.49291*%
%ADD139R,0.00157X0.49685*%
%ADD140R,0.00157X0.01457*%
%ADD141R,0.00118X0.01181*%
%ADD142R,0.00118X0.01299*%
%ADD143R,0.00157X0.01024*%
%ADD144R,0.00157X0.01181*%
%ADD145R,0.00118X0.01024*%
%ADD146R,0.00157X0.00866*%
%ADD147R,0.00157X0.00906*%
%ADD148R,0.00157X0.00748*%
%ADD149R,0.00118X0.00709*%
%ADD150R,0.00118X0.00866*%
%ADD151R,0.00157X0.00709*%
%ADD152R,0.00157X0.04961*%
%ADD153R,0.00157X0.00591*%
%ADD154R,0.00157X0.03504*%
%ADD155R,0.00157X0.00118*%
%ADD156R,0.00118X0.00748*%
%ADD157R,0.00118X0.05512*%
%ADD158R,0.00118X0.02047*%
%ADD159R,0.00118X0.04370*%
%ADD160R,0.00118X0.00591*%
%ADD161R,0.00157X0.02913*%
%ADD162R,0.00157X0.04803*%
%ADD163R,0.00157X0.06260*%
%ADD164R,0.00157X0.05079*%
%ADD165R,0.00118X0.06417*%
%ADD166R,0.00118X0.03937*%
%ADD167R,0.00118X0.05236*%
%ADD168R,0.00157X0.01772*%
%ADD169R,0.00157X0.01299*%
%ADD170R,0.00118X0.01142*%
%ADD171R,0.00157X0.00984*%
%ADD172R,0.00118X0.03661*%
%ADD173R,0.00118X0.02913*%
%ADD174R,0.00157X0.03346*%
%ADD175R,0.00118X0.03189*%
%ADD176R,0.00118X0.05669*%
%ADD177R,0.00118X0.03346*%
%ADD178R,0.00157X0.03071*%
%ADD179R,0.00118X0.00906*%
%ADD180R,0.00157X0.00433*%
%ADD181R,0.00118X0.00984*%
%ADD182R,0.00157X0.01614*%
%ADD183R,0.00118X0.01457*%
%ADD184R,0.00118X0.01575*%
%ADD185R,0.00157X0.05236*%
%ADD186R,0.00118X0.04803*%
%ADD187R,0.00157X0.02795*%
%ADD188R,0.00157X0.04528*%
%ADD189R,0.00157X0.03819*%
%ADD190R,0.00118X0.49449*%
%ADD191R,0.00157X0.48976*%
%ADD192R,0.00157X0.48583*%
%ADD193R,0.00157X0.47717*%
D10*
X0073617Y0109806D02*
X0079522Y0109806D01*
X0073617Y0109806D02*
X0073617Y0117680D01*
X0087396Y0117680D01*
X0095270Y0109806D02*
X0103538Y0109806D01*
X0119286Y0109806D02*
X0125979Y0109806D01*
X0125979Y0145239D01*
X0119680Y0145239D01*
X0136688Y0135577D02*
X0138459Y0135577D01*
X0136688Y0135577D02*
X0136688Y0117467D01*
X0138459Y0117467D01*
X0146333Y0117467D02*
X0148105Y0117467D01*
X0148105Y0135577D01*
X0146333Y0135577D01*
X0146333Y0139022D02*
X0138459Y0139022D01*
X0149896Y0148022D02*
X0149896Y0154022D01*
X0157706Y0158522D02*
X0161087Y0158522D01*
X0162187Y0162466D02*
X0162187Y0164579D01*
X0161087Y0168522D02*
X0157706Y0168522D01*
X0154948Y0192835D02*
X0154948Y0198209D01*
X0144396Y0195213D02*
X0144396Y0191832D01*
X0140453Y0196313D02*
X0138340Y0196313D01*
X0134396Y0195213D02*
X0134396Y0191832D01*
X0115896Y0191422D02*
X0115896Y0165622D01*
X0102896Y0165622D01*
X0102896Y0191422D01*
X0115896Y0191422D01*
X0107152Y0194010D02*
X0104003Y0194010D01*
X0107152Y0194010D02*
X0107152Y0196373D01*
X0107152Y0202672D02*
X0107152Y0205034D01*
X0104003Y0205034D01*
X0111896Y0208022D02*
X0111896Y0214022D01*
X0123677Y0227822D02*
X0126996Y0227822D01*
X0126996Y0228022D02*
X0126998Y0228120D01*
X0127004Y0228218D01*
X0127013Y0228316D01*
X0127027Y0228413D01*
X0127044Y0228510D01*
X0127065Y0228606D01*
X0127090Y0228701D01*
X0127118Y0228795D01*
X0127151Y0228887D01*
X0127186Y0228979D01*
X0127226Y0229069D01*
X0127268Y0229157D01*
X0127315Y0229244D01*
X0127364Y0229328D01*
X0127417Y0229411D01*
X0127473Y0229491D01*
X0127533Y0229570D01*
X0127595Y0229646D01*
X0127660Y0229719D01*
X0127728Y0229790D01*
X0127799Y0229858D01*
X0127872Y0229923D01*
X0127948Y0229985D01*
X0128027Y0230045D01*
X0128107Y0230101D01*
X0128190Y0230154D01*
X0128274Y0230203D01*
X0128361Y0230250D01*
X0128449Y0230292D01*
X0128539Y0230332D01*
X0128631Y0230367D01*
X0128723Y0230400D01*
X0128817Y0230428D01*
X0128912Y0230453D01*
X0129008Y0230474D01*
X0129105Y0230491D01*
X0129202Y0230505D01*
X0129300Y0230514D01*
X0129398Y0230520D01*
X0129496Y0230522D01*
X0129594Y0230520D01*
X0129692Y0230514D01*
X0129790Y0230505D01*
X0129887Y0230491D01*
X0129984Y0230474D01*
X0130080Y0230453D01*
X0130175Y0230428D01*
X0130269Y0230400D01*
X0130361Y0230367D01*
X0130453Y0230332D01*
X0130543Y0230292D01*
X0130631Y0230250D01*
X0130718Y0230203D01*
X0130802Y0230154D01*
X0130885Y0230101D01*
X0130965Y0230045D01*
X0131044Y0229985D01*
X0131120Y0229923D01*
X0131193Y0229858D01*
X0131264Y0229790D01*
X0131332Y0229719D01*
X0131397Y0229646D01*
X0131459Y0229570D01*
X0131519Y0229491D01*
X0131575Y0229411D01*
X0131628Y0229328D01*
X0131677Y0229244D01*
X0131724Y0229157D01*
X0131766Y0229069D01*
X0131806Y0228979D01*
X0131841Y0228887D01*
X0131874Y0228795D01*
X0131902Y0228701D01*
X0131927Y0228606D01*
X0131948Y0228510D01*
X0131965Y0228413D01*
X0131979Y0228316D01*
X0131988Y0228218D01*
X0131994Y0228120D01*
X0131996Y0228022D01*
X0131996Y0227822D02*
X0135953Y0227822D01*
X0135953Y0227823D02*
X0136023Y0227835D01*
X0136093Y0227852D01*
X0136161Y0227872D01*
X0136229Y0227895D01*
X0136295Y0227923D01*
X0136359Y0227954D01*
X0136421Y0227988D01*
X0136482Y0228026D01*
X0136541Y0228066D01*
X0136597Y0228110D01*
X0136650Y0228157D01*
X0136702Y0228207D01*
X0136750Y0228260D01*
X0136795Y0228315D01*
X0136838Y0228372D01*
X0136877Y0228432D01*
X0136913Y0228494D01*
X0136945Y0228557D01*
X0136974Y0228622D01*
X0137000Y0228689D01*
X0137022Y0228757D01*
X0137040Y0228826D01*
X0137054Y0228896D01*
X0137064Y0228967D01*
X0137071Y0229038D01*
X0137074Y0229109D01*
X0137073Y0229180D01*
X0137068Y0229252D01*
X0137059Y0229322D01*
X0137059Y0268116D01*
X0137047Y0268186D01*
X0137030Y0268256D01*
X0137010Y0268324D01*
X0136986Y0268391D01*
X0136959Y0268457D01*
X0136928Y0268522D01*
X0136894Y0268584D01*
X0136856Y0268645D01*
X0136815Y0268703D01*
X0136771Y0268760D01*
X0136724Y0268813D01*
X0136674Y0268864D01*
X0136622Y0268913D01*
X0136567Y0268958D01*
X0136509Y0269001D01*
X0136450Y0269040D01*
X0136388Y0269076D01*
X0136324Y0269108D01*
X0136259Y0269137D01*
X0136193Y0269163D01*
X0136125Y0269184D01*
X0136055Y0269203D01*
X0135986Y0269217D01*
X0135915Y0269227D01*
X0135844Y0269234D01*
X0135773Y0269237D01*
X0135701Y0269236D01*
X0135630Y0269231D01*
X0135559Y0269222D01*
X0123234Y0269222D01*
X0123233Y0269223D02*
X0123157Y0269221D01*
X0123082Y0269215D01*
X0123006Y0269206D01*
X0122931Y0269192D01*
X0122857Y0269175D01*
X0122784Y0269154D01*
X0122712Y0269130D01*
X0122642Y0269102D01*
X0122573Y0269070D01*
X0122505Y0269035D01*
X0122440Y0268996D01*
X0122376Y0268954D01*
X0122315Y0268909D01*
X0122256Y0268861D01*
X0122200Y0268810D01*
X0122146Y0268756D01*
X0122095Y0268700D01*
X0122047Y0268641D01*
X0122002Y0268580D01*
X0121960Y0268516D01*
X0121921Y0268451D01*
X0121886Y0268383D01*
X0121854Y0268314D01*
X0121826Y0268244D01*
X0121802Y0268172D01*
X0121781Y0268099D01*
X0121764Y0268025D01*
X0121750Y0267950D01*
X0121741Y0267874D01*
X0121735Y0267799D01*
X0121733Y0267723D01*
X0121734Y0267722D02*
X0121734Y0229322D01*
X0121733Y0229323D02*
X0121745Y0229242D01*
X0121760Y0229162D01*
X0121779Y0229083D01*
X0121801Y0229005D01*
X0121828Y0228928D01*
X0121857Y0228852D01*
X0121891Y0228778D01*
X0121928Y0228706D01*
X0121968Y0228635D01*
X0122012Y0228567D01*
X0122059Y0228500D01*
X0122109Y0228436D01*
X0122162Y0228375D01*
X0122218Y0228316D01*
X0122277Y0228259D01*
X0122338Y0228206D01*
X0122402Y0228155D01*
X0122468Y0228108D01*
X0122536Y0228064D01*
X0122606Y0228023D01*
X0122678Y0227985D01*
X0122752Y0227951D01*
X0122828Y0227921D01*
X0122904Y0227894D01*
X0122982Y0227871D01*
X0123061Y0227851D01*
X0123141Y0227836D01*
X0123222Y0227824D01*
X0123302Y0227816D01*
X0123384Y0227812D01*
X0123465Y0227811D01*
X0123546Y0227815D01*
X0123627Y0227822D01*
X0095735Y0231514D02*
X0088648Y0231514D01*
X0088648Y0265530D02*
X0095735Y0265530D01*
X0087585Y0276711D02*
X0087585Y0300333D01*
X0111207Y0300333D01*
X0111207Y0276711D01*
X0087585Y0276711D01*
X0092506Y0288522D02*
X0092508Y0288691D01*
X0092514Y0288860D01*
X0092525Y0289029D01*
X0092539Y0289197D01*
X0092558Y0289365D01*
X0092581Y0289533D01*
X0092607Y0289700D01*
X0092638Y0289866D01*
X0092673Y0290032D01*
X0092712Y0290196D01*
X0092756Y0290360D01*
X0092803Y0290522D01*
X0092854Y0290683D01*
X0092909Y0290843D01*
X0092968Y0291002D01*
X0093030Y0291159D01*
X0093097Y0291314D01*
X0093168Y0291468D01*
X0093242Y0291620D01*
X0093320Y0291770D01*
X0093401Y0291918D01*
X0093486Y0292064D01*
X0093575Y0292208D01*
X0093667Y0292350D01*
X0093763Y0292489D01*
X0093862Y0292626D01*
X0093964Y0292761D01*
X0094070Y0292893D01*
X0094179Y0293022D01*
X0094291Y0293149D01*
X0094406Y0293273D01*
X0094524Y0293394D01*
X0094645Y0293512D01*
X0094769Y0293627D01*
X0094896Y0293739D01*
X0095025Y0293848D01*
X0095157Y0293954D01*
X0095292Y0294056D01*
X0095429Y0294155D01*
X0095568Y0294251D01*
X0095710Y0294343D01*
X0095854Y0294432D01*
X0096000Y0294517D01*
X0096148Y0294598D01*
X0096298Y0294676D01*
X0096450Y0294750D01*
X0096604Y0294821D01*
X0096759Y0294888D01*
X0096916Y0294950D01*
X0097075Y0295009D01*
X0097235Y0295064D01*
X0097396Y0295115D01*
X0097558Y0295162D01*
X0097722Y0295206D01*
X0097886Y0295245D01*
X0098052Y0295280D01*
X0098218Y0295311D01*
X0098385Y0295337D01*
X0098553Y0295360D01*
X0098721Y0295379D01*
X0098889Y0295393D01*
X0099058Y0295404D01*
X0099227Y0295410D01*
X0099396Y0295412D01*
X0099565Y0295410D01*
X0099734Y0295404D01*
X0099903Y0295393D01*
X0100071Y0295379D01*
X0100239Y0295360D01*
X0100407Y0295337D01*
X0100574Y0295311D01*
X0100740Y0295280D01*
X0100906Y0295245D01*
X0101070Y0295206D01*
X0101234Y0295162D01*
X0101396Y0295115D01*
X0101557Y0295064D01*
X0101717Y0295009D01*
X0101876Y0294950D01*
X0102033Y0294888D01*
X0102188Y0294821D01*
X0102342Y0294750D01*
X0102494Y0294676D01*
X0102644Y0294598D01*
X0102792Y0294517D01*
X0102938Y0294432D01*
X0103082Y0294343D01*
X0103224Y0294251D01*
X0103363Y0294155D01*
X0103500Y0294056D01*
X0103635Y0293954D01*
X0103767Y0293848D01*
X0103896Y0293739D01*
X0104023Y0293627D01*
X0104147Y0293512D01*
X0104268Y0293394D01*
X0104386Y0293273D01*
X0104501Y0293149D01*
X0104613Y0293022D01*
X0104722Y0292893D01*
X0104828Y0292761D01*
X0104930Y0292626D01*
X0105029Y0292489D01*
X0105125Y0292350D01*
X0105217Y0292208D01*
X0105306Y0292064D01*
X0105391Y0291918D01*
X0105472Y0291770D01*
X0105550Y0291620D01*
X0105624Y0291468D01*
X0105695Y0291314D01*
X0105762Y0291159D01*
X0105824Y0291002D01*
X0105883Y0290843D01*
X0105938Y0290683D01*
X0105989Y0290522D01*
X0106036Y0290360D01*
X0106080Y0290196D01*
X0106119Y0290032D01*
X0106154Y0289866D01*
X0106185Y0289700D01*
X0106211Y0289533D01*
X0106234Y0289365D01*
X0106253Y0289197D01*
X0106267Y0289029D01*
X0106278Y0288860D01*
X0106284Y0288691D01*
X0106286Y0288522D01*
X0106284Y0288353D01*
X0106278Y0288184D01*
X0106267Y0288015D01*
X0106253Y0287847D01*
X0106234Y0287679D01*
X0106211Y0287511D01*
X0106185Y0287344D01*
X0106154Y0287178D01*
X0106119Y0287012D01*
X0106080Y0286848D01*
X0106036Y0286684D01*
X0105989Y0286522D01*
X0105938Y0286361D01*
X0105883Y0286201D01*
X0105824Y0286042D01*
X0105762Y0285885D01*
X0105695Y0285730D01*
X0105624Y0285576D01*
X0105550Y0285424D01*
X0105472Y0285274D01*
X0105391Y0285126D01*
X0105306Y0284980D01*
X0105217Y0284836D01*
X0105125Y0284694D01*
X0105029Y0284555D01*
X0104930Y0284418D01*
X0104828Y0284283D01*
X0104722Y0284151D01*
X0104613Y0284022D01*
X0104501Y0283895D01*
X0104386Y0283771D01*
X0104268Y0283650D01*
X0104147Y0283532D01*
X0104023Y0283417D01*
X0103896Y0283305D01*
X0103767Y0283196D01*
X0103635Y0283090D01*
X0103500Y0282988D01*
X0103363Y0282889D01*
X0103224Y0282793D01*
X0103082Y0282701D01*
X0102938Y0282612D01*
X0102792Y0282527D01*
X0102644Y0282446D01*
X0102494Y0282368D01*
X0102342Y0282294D01*
X0102188Y0282223D01*
X0102033Y0282156D01*
X0101876Y0282094D01*
X0101717Y0282035D01*
X0101557Y0281980D01*
X0101396Y0281929D01*
X0101234Y0281882D01*
X0101070Y0281838D01*
X0100906Y0281799D01*
X0100740Y0281764D01*
X0100574Y0281733D01*
X0100407Y0281707D01*
X0100239Y0281684D01*
X0100071Y0281665D01*
X0099903Y0281651D01*
X0099734Y0281640D01*
X0099565Y0281634D01*
X0099396Y0281632D01*
X0099227Y0281634D01*
X0099058Y0281640D01*
X0098889Y0281651D01*
X0098721Y0281665D01*
X0098553Y0281684D01*
X0098385Y0281707D01*
X0098218Y0281733D01*
X0098052Y0281764D01*
X0097886Y0281799D01*
X0097722Y0281838D01*
X0097558Y0281882D01*
X0097396Y0281929D01*
X0097235Y0281980D01*
X0097075Y0282035D01*
X0096916Y0282094D01*
X0096759Y0282156D01*
X0096604Y0282223D01*
X0096450Y0282294D01*
X0096298Y0282368D01*
X0096148Y0282446D01*
X0096000Y0282527D01*
X0095854Y0282612D01*
X0095710Y0282701D01*
X0095568Y0282793D01*
X0095429Y0282889D01*
X0095292Y0282988D01*
X0095157Y0283090D01*
X0095025Y0283196D01*
X0094896Y0283305D01*
X0094769Y0283417D01*
X0094645Y0283532D01*
X0094524Y0283650D01*
X0094406Y0283771D01*
X0094291Y0283895D01*
X0094179Y0284022D01*
X0094070Y0284151D01*
X0093964Y0284283D01*
X0093862Y0284418D01*
X0093763Y0284555D01*
X0093667Y0284694D01*
X0093575Y0284836D01*
X0093486Y0284980D01*
X0093401Y0285126D01*
X0093320Y0285274D01*
X0093242Y0285424D01*
X0093168Y0285576D01*
X0093097Y0285730D01*
X0093030Y0285885D01*
X0092968Y0286042D01*
X0092909Y0286201D01*
X0092854Y0286361D01*
X0092803Y0286522D01*
X0092756Y0286684D01*
X0092712Y0286848D01*
X0092673Y0287012D01*
X0092638Y0287178D01*
X0092607Y0287344D01*
X0092581Y0287511D01*
X0092558Y0287679D01*
X0092539Y0287847D01*
X0092525Y0288015D01*
X0092514Y0288184D01*
X0092508Y0288353D01*
X0092506Y0288522D01*
X0148003Y0288601D02*
X0150050Y0288601D01*
X0148003Y0288601D02*
X0148003Y0298444D01*
X0150550Y0298444D01*
X0156503Y0298444D02*
X0160290Y0298444D01*
X0166503Y0298444D02*
X0170290Y0298444D01*
X0176503Y0298444D02*
X0180290Y0298444D01*
X0186503Y0298444D02*
X0190290Y0298444D01*
X0196503Y0298444D02*
X0200290Y0298444D01*
X0206503Y0298444D02*
X0210290Y0298444D01*
X0216503Y0298444D02*
X0220290Y0298444D01*
X0226503Y0298444D02*
X0230290Y0298444D01*
X0236503Y0298444D02*
X0240290Y0298444D01*
X0246743Y0298444D02*
X0248790Y0298444D01*
X0248790Y0288601D01*
X0246243Y0288601D01*
X0240629Y0288601D02*
X0236164Y0288601D01*
X0230629Y0288601D02*
X0226164Y0288601D01*
X0220629Y0288601D02*
X0216164Y0288601D01*
X0210629Y0288601D02*
X0206164Y0288601D01*
X0200629Y0288601D02*
X0196164Y0288601D01*
X0190629Y0288601D02*
X0186164Y0288601D01*
X0180629Y0288601D02*
X0176164Y0288601D01*
X0170629Y0288601D02*
X0166164Y0288601D01*
X0160629Y0288601D02*
X0156164Y0288601D01*
X0166945Y0244209D02*
X0166945Y0238835D01*
X0154948Y0228709D02*
X0154948Y0223335D01*
X0161848Y0213709D02*
X0161848Y0208335D01*
X0232585Y0216711D02*
X0234062Y0216711D01*
X0232585Y0216711D02*
X0232585Y0218188D01*
X0254731Y0216711D02*
X0256207Y0216711D01*
X0256207Y0218188D01*
X0271797Y0211126D02*
X0276915Y0211126D01*
X0276915Y0225889D02*
X0271797Y0225889D01*
X0256207Y0238759D02*
X0254633Y0240333D01*
X0234062Y0240333D02*
X0232585Y0240333D01*
X0232585Y0238857D01*
X0254003Y0288601D02*
X0256050Y0288601D01*
X0254003Y0288601D02*
X0254003Y0298444D01*
X0256550Y0298444D01*
X0262164Y0298444D02*
X0266629Y0298444D01*
X0272164Y0298444D02*
X0276629Y0298444D01*
X0282164Y0298444D02*
X0286629Y0298444D01*
X0292164Y0298444D02*
X0296629Y0298444D01*
X0302164Y0298444D02*
X0306629Y0298444D01*
X0312164Y0298444D02*
X0316629Y0298444D01*
X0322164Y0298444D02*
X0326629Y0298444D01*
X0332743Y0298444D02*
X0334790Y0298444D01*
X0334790Y0288601D01*
X0332243Y0288601D01*
X0326290Y0288601D02*
X0322503Y0288601D01*
X0316290Y0288601D02*
X0312503Y0288601D01*
X0306290Y0288601D02*
X0302503Y0288601D01*
X0296290Y0288601D02*
X0292503Y0288601D01*
X0286290Y0288601D02*
X0282503Y0288601D01*
X0276290Y0288601D02*
X0272503Y0288601D01*
X0266290Y0288601D02*
X0262503Y0288601D01*
X0294803Y0261185D02*
X0313596Y0261185D01*
X0313597Y0261185D02*
X0313667Y0261194D01*
X0313739Y0261199D01*
X0313810Y0261200D01*
X0313881Y0261197D01*
X0313952Y0261190D01*
X0314023Y0261180D01*
X0314093Y0261166D01*
X0314162Y0261148D01*
X0314230Y0261126D01*
X0314297Y0261100D01*
X0314362Y0261071D01*
X0314425Y0261039D01*
X0314487Y0261003D01*
X0314547Y0260964D01*
X0314604Y0260921D01*
X0314659Y0260876D01*
X0314712Y0260828D01*
X0314762Y0260776D01*
X0314809Y0260723D01*
X0314853Y0260667D01*
X0314893Y0260608D01*
X0314931Y0260547D01*
X0314965Y0260485D01*
X0314996Y0260421D01*
X0315024Y0260355D01*
X0315047Y0260287D01*
X0315067Y0260219D01*
X0315084Y0260149D01*
X0315096Y0260079D01*
X0315096Y0256122D01*
X0314896Y0256122D02*
X0314798Y0256120D01*
X0314700Y0256114D01*
X0314602Y0256105D01*
X0314505Y0256091D01*
X0314408Y0256074D01*
X0314312Y0256053D01*
X0314217Y0256028D01*
X0314123Y0256000D01*
X0314031Y0255967D01*
X0313939Y0255932D01*
X0313849Y0255892D01*
X0313761Y0255850D01*
X0313674Y0255803D01*
X0313590Y0255754D01*
X0313507Y0255701D01*
X0313427Y0255645D01*
X0313348Y0255585D01*
X0313272Y0255523D01*
X0313199Y0255458D01*
X0313128Y0255390D01*
X0313060Y0255319D01*
X0312995Y0255246D01*
X0312933Y0255170D01*
X0312873Y0255091D01*
X0312817Y0255011D01*
X0312764Y0254928D01*
X0312715Y0254844D01*
X0312668Y0254757D01*
X0312626Y0254669D01*
X0312586Y0254579D01*
X0312551Y0254487D01*
X0312518Y0254395D01*
X0312490Y0254301D01*
X0312465Y0254206D01*
X0312444Y0254110D01*
X0312427Y0254013D01*
X0312413Y0253916D01*
X0312404Y0253818D01*
X0312398Y0253720D01*
X0312396Y0253622D01*
X0312398Y0253524D01*
X0312404Y0253426D01*
X0312413Y0253328D01*
X0312427Y0253231D01*
X0312444Y0253134D01*
X0312465Y0253038D01*
X0312490Y0252943D01*
X0312518Y0252849D01*
X0312551Y0252757D01*
X0312586Y0252665D01*
X0312626Y0252575D01*
X0312668Y0252487D01*
X0312715Y0252400D01*
X0312764Y0252316D01*
X0312817Y0252233D01*
X0312873Y0252153D01*
X0312933Y0252074D01*
X0312995Y0251998D01*
X0313060Y0251925D01*
X0313128Y0251854D01*
X0313199Y0251786D01*
X0313272Y0251721D01*
X0313348Y0251659D01*
X0313427Y0251599D01*
X0313507Y0251543D01*
X0313590Y0251490D01*
X0313674Y0251441D01*
X0313761Y0251394D01*
X0313849Y0251352D01*
X0313939Y0251312D01*
X0314031Y0251277D01*
X0314123Y0251244D01*
X0314217Y0251216D01*
X0314312Y0251191D01*
X0314408Y0251170D01*
X0314505Y0251153D01*
X0314602Y0251139D01*
X0314700Y0251130D01*
X0314798Y0251124D01*
X0314896Y0251122D01*
X0315096Y0251122D02*
X0315096Y0247803D01*
X0315097Y0247753D02*
X0315104Y0247672D01*
X0315108Y0247591D01*
X0315107Y0247510D01*
X0315103Y0247428D01*
X0315095Y0247348D01*
X0315083Y0247267D01*
X0315068Y0247187D01*
X0315048Y0247108D01*
X0315025Y0247030D01*
X0314998Y0246954D01*
X0314968Y0246878D01*
X0314934Y0246804D01*
X0314896Y0246732D01*
X0314855Y0246662D01*
X0314811Y0246594D01*
X0314764Y0246528D01*
X0314713Y0246464D01*
X0314660Y0246403D01*
X0314603Y0246344D01*
X0314544Y0246288D01*
X0314483Y0246235D01*
X0314419Y0246185D01*
X0314352Y0246138D01*
X0314284Y0246094D01*
X0314213Y0246054D01*
X0314141Y0246017D01*
X0314067Y0245983D01*
X0313991Y0245954D01*
X0313914Y0245927D01*
X0313836Y0245905D01*
X0313757Y0245886D01*
X0313677Y0245871D01*
X0313596Y0245859D01*
X0313596Y0245860D02*
X0295196Y0245860D01*
X0295196Y0245859D02*
X0295120Y0245861D01*
X0295045Y0245867D01*
X0294969Y0245876D01*
X0294894Y0245890D01*
X0294820Y0245907D01*
X0294747Y0245928D01*
X0294675Y0245952D01*
X0294605Y0245980D01*
X0294536Y0246012D01*
X0294468Y0246047D01*
X0294403Y0246086D01*
X0294339Y0246128D01*
X0294278Y0246173D01*
X0294219Y0246221D01*
X0294163Y0246272D01*
X0294109Y0246326D01*
X0294058Y0246382D01*
X0294010Y0246441D01*
X0293965Y0246502D01*
X0293923Y0246566D01*
X0293884Y0246631D01*
X0293849Y0246699D01*
X0293817Y0246768D01*
X0293789Y0246838D01*
X0293765Y0246910D01*
X0293744Y0246983D01*
X0293727Y0247057D01*
X0293713Y0247132D01*
X0293704Y0247208D01*
X0293698Y0247283D01*
X0293696Y0247359D01*
X0293696Y0247360D02*
X0293696Y0259685D01*
X0293687Y0259756D01*
X0293682Y0259827D01*
X0293681Y0259899D01*
X0293684Y0259970D01*
X0293691Y0260041D01*
X0293701Y0260112D01*
X0293715Y0260181D01*
X0293734Y0260251D01*
X0293755Y0260319D01*
X0293781Y0260385D01*
X0293810Y0260450D01*
X0293842Y0260514D01*
X0293878Y0260576D01*
X0293917Y0260635D01*
X0293960Y0260693D01*
X0294005Y0260748D01*
X0294054Y0260800D01*
X0294105Y0260850D01*
X0294158Y0260897D01*
X0294215Y0260941D01*
X0294273Y0260982D01*
X0294334Y0261020D01*
X0294396Y0261054D01*
X0294461Y0261085D01*
X0294527Y0261112D01*
X0294594Y0261136D01*
X0294662Y0261156D01*
X0294732Y0261173D01*
X0294802Y0261185D01*
X0322585Y0210333D02*
X0322585Y0186711D01*
X0346207Y0186711D01*
X0346207Y0210333D01*
X0322585Y0210333D01*
X0327506Y0198522D02*
X0327508Y0198691D01*
X0327514Y0198860D01*
X0327525Y0199029D01*
X0327539Y0199197D01*
X0327558Y0199365D01*
X0327581Y0199533D01*
X0327607Y0199700D01*
X0327638Y0199866D01*
X0327673Y0200032D01*
X0327712Y0200196D01*
X0327756Y0200360D01*
X0327803Y0200522D01*
X0327854Y0200683D01*
X0327909Y0200843D01*
X0327968Y0201002D01*
X0328030Y0201159D01*
X0328097Y0201314D01*
X0328168Y0201468D01*
X0328242Y0201620D01*
X0328320Y0201770D01*
X0328401Y0201918D01*
X0328486Y0202064D01*
X0328575Y0202208D01*
X0328667Y0202350D01*
X0328763Y0202489D01*
X0328862Y0202626D01*
X0328964Y0202761D01*
X0329070Y0202893D01*
X0329179Y0203022D01*
X0329291Y0203149D01*
X0329406Y0203273D01*
X0329524Y0203394D01*
X0329645Y0203512D01*
X0329769Y0203627D01*
X0329896Y0203739D01*
X0330025Y0203848D01*
X0330157Y0203954D01*
X0330292Y0204056D01*
X0330429Y0204155D01*
X0330568Y0204251D01*
X0330710Y0204343D01*
X0330854Y0204432D01*
X0331000Y0204517D01*
X0331148Y0204598D01*
X0331298Y0204676D01*
X0331450Y0204750D01*
X0331604Y0204821D01*
X0331759Y0204888D01*
X0331916Y0204950D01*
X0332075Y0205009D01*
X0332235Y0205064D01*
X0332396Y0205115D01*
X0332558Y0205162D01*
X0332722Y0205206D01*
X0332886Y0205245D01*
X0333052Y0205280D01*
X0333218Y0205311D01*
X0333385Y0205337D01*
X0333553Y0205360D01*
X0333721Y0205379D01*
X0333889Y0205393D01*
X0334058Y0205404D01*
X0334227Y0205410D01*
X0334396Y0205412D01*
X0334565Y0205410D01*
X0334734Y0205404D01*
X0334903Y0205393D01*
X0335071Y0205379D01*
X0335239Y0205360D01*
X0335407Y0205337D01*
X0335574Y0205311D01*
X0335740Y0205280D01*
X0335906Y0205245D01*
X0336070Y0205206D01*
X0336234Y0205162D01*
X0336396Y0205115D01*
X0336557Y0205064D01*
X0336717Y0205009D01*
X0336876Y0204950D01*
X0337033Y0204888D01*
X0337188Y0204821D01*
X0337342Y0204750D01*
X0337494Y0204676D01*
X0337644Y0204598D01*
X0337792Y0204517D01*
X0337938Y0204432D01*
X0338082Y0204343D01*
X0338224Y0204251D01*
X0338363Y0204155D01*
X0338500Y0204056D01*
X0338635Y0203954D01*
X0338767Y0203848D01*
X0338896Y0203739D01*
X0339023Y0203627D01*
X0339147Y0203512D01*
X0339268Y0203394D01*
X0339386Y0203273D01*
X0339501Y0203149D01*
X0339613Y0203022D01*
X0339722Y0202893D01*
X0339828Y0202761D01*
X0339930Y0202626D01*
X0340029Y0202489D01*
X0340125Y0202350D01*
X0340217Y0202208D01*
X0340306Y0202064D01*
X0340391Y0201918D01*
X0340472Y0201770D01*
X0340550Y0201620D01*
X0340624Y0201468D01*
X0340695Y0201314D01*
X0340762Y0201159D01*
X0340824Y0201002D01*
X0340883Y0200843D01*
X0340938Y0200683D01*
X0340989Y0200522D01*
X0341036Y0200360D01*
X0341080Y0200196D01*
X0341119Y0200032D01*
X0341154Y0199866D01*
X0341185Y0199700D01*
X0341211Y0199533D01*
X0341234Y0199365D01*
X0341253Y0199197D01*
X0341267Y0199029D01*
X0341278Y0198860D01*
X0341284Y0198691D01*
X0341286Y0198522D01*
X0341284Y0198353D01*
X0341278Y0198184D01*
X0341267Y0198015D01*
X0341253Y0197847D01*
X0341234Y0197679D01*
X0341211Y0197511D01*
X0341185Y0197344D01*
X0341154Y0197178D01*
X0341119Y0197012D01*
X0341080Y0196848D01*
X0341036Y0196684D01*
X0340989Y0196522D01*
X0340938Y0196361D01*
X0340883Y0196201D01*
X0340824Y0196042D01*
X0340762Y0195885D01*
X0340695Y0195730D01*
X0340624Y0195576D01*
X0340550Y0195424D01*
X0340472Y0195274D01*
X0340391Y0195126D01*
X0340306Y0194980D01*
X0340217Y0194836D01*
X0340125Y0194694D01*
X0340029Y0194555D01*
X0339930Y0194418D01*
X0339828Y0194283D01*
X0339722Y0194151D01*
X0339613Y0194022D01*
X0339501Y0193895D01*
X0339386Y0193771D01*
X0339268Y0193650D01*
X0339147Y0193532D01*
X0339023Y0193417D01*
X0338896Y0193305D01*
X0338767Y0193196D01*
X0338635Y0193090D01*
X0338500Y0192988D01*
X0338363Y0192889D01*
X0338224Y0192793D01*
X0338082Y0192701D01*
X0337938Y0192612D01*
X0337792Y0192527D01*
X0337644Y0192446D01*
X0337494Y0192368D01*
X0337342Y0192294D01*
X0337188Y0192223D01*
X0337033Y0192156D01*
X0336876Y0192094D01*
X0336717Y0192035D01*
X0336557Y0191980D01*
X0336396Y0191929D01*
X0336234Y0191882D01*
X0336070Y0191838D01*
X0335906Y0191799D01*
X0335740Y0191764D01*
X0335574Y0191733D01*
X0335407Y0191707D01*
X0335239Y0191684D01*
X0335071Y0191665D01*
X0334903Y0191651D01*
X0334734Y0191640D01*
X0334565Y0191634D01*
X0334396Y0191632D01*
X0334227Y0191634D01*
X0334058Y0191640D01*
X0333889Y0191651D01*
X0333721Y0191665D01*
X0333553Y0191684D01*
X0333385Y0191707D01*
X0333218Y0191733D01*
X0333052Y0191764D01*
X0332886Y0191799D01*
X0332722Y0191838D01*
X0332558Y0191882D01*
X0332396Y0191929D01*
X0332235Y0191980D01*
X0332075Y0192035D01*
X0331916Y0192094D01*
X0331759Y0192156D01*
X0331604Y0192223D01*
X0331450Y0192294D01*
X0331298Y0192368D01*
X0331148Y0192446D01*
X0331000Y0192527D01*
X0330854Y0192612D01*
X0330710Y0192701D01*
X0330568Y0192793D01*
X0330429Y0192889D01*
X0330292Y0192988D01*
X0330157Y0193090D01*
X0330025Y0193196D01*
X0329896Y0193305D01*
X0329769Y0193417D01*
X0329645Y0193532D01*
X0329524Y0193650D01*
X0329406Y0193771D01*
X0329291Y0193895D01*
X0329179Y0194022D01*
X0329070Y0194151D01*
X0328964Y0194283D01*
X0328862Y0194418D01*
X0328763Y0194555D01*
X0328667Y0194694D01*
X0328575Y0194836D01*
X0328486Y0194980D01*
X0328401Y0195126D01*
X0328320Y0195274D01*
X0328242Y0195424D01*
X0328168Y0195576D01*
X0328097Y0195730D01*
X0328030Y0195885D01*
X0327968Y0196042D01*
X0327909Y0196201D01*
X0327854Y0196361D01*
X0327803Y0196522D01*
X0327756Y0196684D01*
X0327712Y0196848D01*
X0327673Y0197012D01*
X0327638Y0197178D01*
X0327607Y0197344D01*
X0327581Y0197511D01*
X0327558Y0197679D01*
X0327539Y0197847D01*
X0327525Y0198015D01*
X0327514Y0198184D01*
X0327508Y0198353D01*
X0327506Y0198522D01*
X0330774Y0170333D02*
X0337270Y0170333D01*
X0330774Y0170333D02*
X0330774Y0167381D01*
X0347507Y0164428D02*
X0347507Y0152617D01*
X0337270Y0146711D02*
X0330774Y0146711D01*
X0330774Y0149664D01*
X0327815Y0148680D02*
X0327817Y0148720D01*
X0327823Y0148759D01*
X0327833Y0148798D01*
X0327846Y0148835D01*
X0327864Y0148871D01*
X0327885Y0148905D01*
X0327909Y0148937D01*
X0327936Y0148966D01*
X0327966Y0148993D01*
X0327998Y0149016D01*
X0328033Y0149036D01*
X0328069Y0149052D01*
X0328107Y0149065D01*
X0328146Y0149074D01*
X0328185Y0149079D01*
X0328225Y0149080D01*
X0328265Y0149077D01*
X0328304Y0149070D01*
X0328342Y0149059D01*
X0328380Y0149045D01*
X0328415Y0149026D01*
X0328448Y0149005D01*
X0328480Y0148980D01*
X0328508Y0148952D01*
X0328534Y0148922D01*
X0328556Y0148889D01*
X0328575Y0148854D01*
X0328591Y0148817D01*
X0328603Y0148779D01*
X0328611Y0148740D01*
X0328615Y0148700D01*
X0328615Y0148660D01*
X0328611Y0148620D01*
X0328603Y0148581D01*
X0328591Y0148543D01*
X0328575Y0148506D01*
X0328556Y0148471D01*
X0328534Y0148438D01*
X0328508Y0148408D01*
X0328480Y0148380D01*
X0328448Y0148355D01*
X0328415Y0148334D01*
X0328380Y0148315D01*
X0328342Y0148301D01*
X0328304Y0148290D01*
X0328265Y0148283D01*
X0328225Y0148280D01*
X0328185Y0148281D01*
X0328146Y0148286D01*
X0328107Y0148295D01*
X0328069Y0148308D01*
X0328033Y0148324D01*
X0327998Y0148344D01*
X0327966Y0148367D01*
X0327936Y0148394D01*
X0327909Y0148423D01*
X0327885Y0148455D01*
X0327864Y0148489D01*
X0327846Y0148525D01*
X0327833Y0148562D01*
X0327823Y0148601D01*
X0327817Y0148640D01*
X0327815Y0148680D01*
X0326290Y0108444D02*
X0322503Y0108444D01*
X0316290Y0108444D02*
X0312503Y0108444D01*
X0306290Y0108444D02*
X0302503Y0108444D01*
X0296290Y0108444D02*
X0292503Y0108444D01*
X0286290Y0108444D02*
X0282503Y0108444D01*
X0276522Y0108444D02*
X0274003Y0108444D01*
X0274003Y0098601D01*
X0276522Y0098601D01*
X0282503Y0098444D02*
X0286290Y0098444D01*
X0292503Y0098444D02*
X0296290Y0098444D01*
X0302503Y0098444D02*
X0306290Y0098444D01*
X0312503Y0098444D02*
X0316290Y0098444D01*
X0322503Y0098444D02*
X0326290Y0098444D01*
X0332152Y0098601D02*
X0334790Y0098601D01*
X0334790Y0108444D01*
X0332152Y0108444D01*
X0268294Y0152892D02*
X0268294Y0174152D01*
X0261995Y0174152D01*
X0261995Y0152892D02*
X0268294Y0152892D01*
X0251759Y0152105D02*
X0251759Y0150136D01*
X0247034Y0150136D01*
X0247034Y0152105D01*
X0236798Y0152892D02*
X0230499Y0152892D01*
X0230499Y0174152D01*
X0236798Y0174152D01*
X0234829Y0151318D02*
X0234831Y0151357D01*
X0234837Y0151396D01*
X0234847Y0151434D01*
X0234860Y0151471D01*
X0234877Y0151506D01*
X0234897Y0151540D01*
X0234921Y0151571D01*
X0234948Y0151600D01*
X0234977Y0151626D01*
X0235009Y0151649D01*
X0235043Y0151669D01*
X0235079Y0151685D01*
X0235116Y0151697D01*
X0235155Y0151706D01*
X0235194Y0151711D01*
X0235233Y0151712D01*
X0235272Y0151709D01*
X0235311Y0151702D01*
X0235348Y0151691D01*
X0235385Y0151677D01*
X0235420Y0151659D01*
X0235453Y0151638D01*
X0235484Y0151613D01*
X0235512Y0151586D01*
X0235537Y0151556D01*
X0235559Y0151523D01*
X0235578Y0151489D01*
X0235593Y0151453D01*
X0235605Y0151415D01*
X0235613Y0151377D01*
X0235617Y0151338D01*
X0235617Y0151298D01*
X0235613Y0151259D01*
X0235605Y0151221D01*
X0235593Y0151183D01*
X0235578Y0151147D01*
X0235559Y0151113D01*
X0235537Y0151080D01*
X0235512Y0151050D01*
X0235484Y0151023D01*
X0235453Y0150998D01*
X0235420Y0150977D01*
X0235385Y0150959D01*
X0235348Y0150945D01*
X0235311Y0150934D01*
X0235272Y0150927D01*
X0235233Y0150924D01*
X0235194Y0150925D01*
X0235155Y0150930D01*
X0235116Y0150939D01*
X0235079Y0150951D01*
X0235043Y0150967D01*
X0235009Y0150987D01*
X0234977Y0151010D01*
X0234948Y0151036D01*
X0234921Y0151065D01*
X0234897Y0151096D01*
X0234877Y0151130D01*
X0234860Y0151165D01*
X0234847Y0151202D01*
X0234837Y0151240D01*
X0234831Y0151279D01*
X0234829Y0151318D01*
X0236629Y0108444D02*
X0232164Y0108444D01*
X0226629Y0108444D02*
X0222164Y0108444D01*
X0216629Y0108444D02*
X0212164Y0108444D01*
X0206629Y0108444D02*
X0202164Y0108444D01*
X0196629Y0108444D02*
X0192164Y0108444D01*
X0186550Y0108444D02*
X0184003Y0108444D01*
X0184003Y0098601D01*
X0186050Y0098601D01*
X0192503Y0098601D02*
X0196290Y0098601D01*
X0202503Y0098601D02*
X0206290Y0098601D01*
X0212503Y0098601D02*
X0216290Y0098601D01*
X0222503Y0098601D02*
X0226290Y0098601D01*
X0232503Y0098601D02*
X0236290Y0098601D01*
X0242503Y0098601D02*
X0246290Y0098601D01*
X0252503Y0098601D02*
X0256290Y0098601D01*
X0262243Y0098601D02*
X0264790Y0098601D01*
X0264790Y0108444D01*
X0262743Y0108444D01*
X0256629Y0108444D02*
X0252164Y0108444D01*
X0246629Y0108444D02*
X0242164Y0108444D01*
X0177192Y0103727D02*
X0168136Y0103727D01*
X0160656Y0103727D02*
X0151601Y0103727D01*
X0151601Y0122625D01*
X0158294Y0129318D01*
X0160656Y0129318D01*
X0168136Y0129318D02*
X0170499Y0129318D01*
X0177192Y0122625D01*
X0177192Y0103727D01*
X0160656Y0104907D02*
X0160373Y0105002D01*
X0160092Y0105104D01*
X0159815Y0105213D01*
X0159539Y0105328D01*
X0159267Y0105450D01*
X0158998Y0105579D01*
X0158732Y0105714D01*
X0158470Y0105856D01*
X0158211Y0106004D01*
X0157955Y0106158D01*
X0157704Y0106319D01*
X0157456Y0106486D01*
X0157213Y0106658D01*
X0156974Y0106837D01*
X0156739Y0107021D01*
X0156509Y0107211D01*
X0156284Y0107407D01*
X0156064Y0107608D01*
X0155848Y0107814D01*
X0155638Y0108026D01*
X0155433Y0108242D01*
X0155233Y0108464D01*
X0155039Y0108691D01*
X0154850Y0108922D01*
X0154667Y0109157D01*
X0154490Y0109397D01*
X0154319Y0109642D01*
X0154154Y0109890D01*
X0153995Y0110143D01*
X0153842Y0110399D01*
X0153695Y0110659D01*
X0153555Y0110922D01*
X0153421Y0111189D01*
X0153294Y0111459D01*
X0153174Y0111732D01*
X0153060Y0112007D01*
X0152953Y0112286D01*
X0152853Y0112567D01*
X0152760Y0112850D01*
X0152673Y0113136D01*
X0152594Y0113424D01*
X0152522Y0113713D01*
X0152457Y0114004D01*
X0152399Y0114297D01*
X0152348Y0114591D01*
X0152304Y0114886D01*
X0152268Y0115182D01*
X0152239Y0115479D01*
X0152217Y0115777D01*
X0152202Y0116075D01*
X0152195Y0116373D01*
X0152195Y0116671D01*
X0152202Y0116969D01*
X0152217Y0117267D01*
X0152239Y0117565D01*
X0152268Y0117862D01*
X0152304Y0118158D01*
X0152348Y0118453D01*
X0152399Y0118747D01*
X0152457Y0119040D01*
X0152522Y0119331D01*
X0152594Y0119620D01*
X0152673Y0119908D01*
X0152760Y0120194D01*
X0152853Y0120477D01*
X0152953Y0120758D01*
X0153060Y0121037D01*
X0153174Y0121312D01*
X0153294Y0121585D01*
X0153421Y0121855D01*
X0153555Y0122122D01*
X0153695Y0122385D01*
X0153842Y0122645D01*
X0153995Y0122901D01*
X0154154Y0123154D01*
X0154319Y0123402D01*
X0154490Y0123647D01*
X0154667Y0123887D01*
X0154850Y0124122D01*
X0155039Y0124353D01*
X0155233Y0124580D01*
X0155433Y0124802D01*
X0155638Y0125018D01*
X0155848Y0125230D01*
X0156064Y0125436D01*
X0156284Y0125637D01*
X0156509Y0125833D01*
X0156739Y0126023D01*
X0156974Y0126207D01*
X0157213Y0126386D01*
X0157456Y0126558D01*
X0157704Y0126725D01*
X0157955Y0126886D01*
X0158211Y0127040D01*
X0158470Y0127188D01*
X0158732Y0127330D01*
X0158998Y0127465D01*
X0159267Y0127594D01*
X0159539Y0127716D01*
X0159815Y0127831D01*
X0160092Y0127940D01*
X0160373Y0128042D01*
X0160656Y0128137D01*
X0168136Y0128137D02*
X0168419Y0128042D01*
X0168700Y0127940D01*
X0168977Y0127831D01*
X0169253Y0127716D01*
X0169525Y0127594D01*
X0169794Y0127465D01*
X0170060Y0127330D01*
X0170322Y0127188D01*
X0170581Y0127040D01*
X0170837Y0126886D01*
X0171088Y0126725D01*
X0171336Y0126558D01*
X0171579Y0126386D01*
X0171818Y0126207D01*
X0172053Y0126023D01*
X0172283Y0125833D01*
X0172508Y0125637D01*
X0172728Y0125436D01*
X0172944Y0125230D01*
X0173154Y0125018D01*
X0173359Y0124802D01*
X0173559Y0124580D01*
X0173753Y0124353D01*
X0173942Y0124122D01*
X0174125Y0123887D01*
X0174302Y0123647D01*
X0174473Y0123402D01*
X0174638Y0123154D01*
X0174797Y0122901D01*
X0174950Y0122645D01*
X0175097Y0122385D01*
X0175237Y0122122D01*
X0175371Y0121855D01*
X0175498Y0121585D01*
X0175618Y0121312D01*
X0175732Y0121037D01*
X0175839Y0120758D01*
X0175939Y0120477D01*
X0176032Y0120194D01*
X0176119Y0119908D01*
X0176198Y0119620D01*
X0176270Y0119331D01*
X0176335Y0119040D01*
X0176393Y0118747D01*
X0176444Y0118453D01*
X0176488Y0118158D01*
X0176524Y0117862D01*
X0176553Y0117565D01*
X0176575Y0117267D01*
X0176590Y0116969D01*
X0176597Y0116671D01*
X0176597Y0116373D01*
X0176590Y0116075D01*
X0176575Y0115777D01*
X0176553Y0115479D01*
X0176524Y0115182D01*
X0176488Y0114886D01*
X0176444Y0114591D01*
X0176393Y0114297D01*
X0176335Y0114004D01*
X0176270Y0113713D01*
X0176198Y0113424D01*
X0176119Y0113136D01*
X0176032Y0112850D01*
X0175939Y0112567D01*
X0175839Y0112286D01*
X0175732Y0112007D01*
X0175618Y0111732D01*
X0175498Y0111459D01*
X0175371Y0111189D01*
X0175237Y0110922D01*
X0175097Y0110659D01*
X0174950Y0110399D01*
X0174797Y0110143D01*
X0174638Y0109890D01*
X0174473Y0109642D01*
X0174302Y0109397D01*
X0174125Y0109157D01*
X0173942Y0108922D01*
X0173753Y0108691D01*
X0173559Y0108464D01*
X0173359Y0108242D01*
X0173154Y0108026D01*
X0172944Y0107814D01*
X0172728Y0107608D01*
X0172508Y0107407D01*
X0172283Y0107211D01*
X0172053Y0107021D01*
X0171818Y0106837D01*
X0171579Y0106658D01*
X0171336Y0106486D01*
X0171088Y0106319D01*
X0170837Y0106158D01*
X0170581Y0106004D01*
X0170322Y0105856D01*
X0170060Y0105714D01*
X0169794Y0105579D01*
X0169525Y0105450D01*
X0169253Y0105328D01*
X0168977Y0105213D01*
X0168700Y0105104D01*
X0168419Y0105002D01*
X0168136Y0104907D01*
X0103538Y0145239D02*
X0095270Y0145239D01*
X0087396Y0137365D02*
X0073617Y0137365D01*
X0073617Y0117680D01*
X0087396Y0117679D02*
X0087624Y0117692D01*
X0087851Y0117711D01*
X0088078Y0117735D01*
X0088304Y0117764D01*
X0088529Y0117799D01*
X0088753Y0117839D01*
X0088976Y0117885D01*
X0089199Y0117936D01*
X0089419Y0117992D01*
X0089639Y0118054D01*
X0089857Y0118121D01*
X0090073Y0118193D01*
X0090287Y0118271D01*
X0090499Y0118353D01*
X0090710Y0118441D01*
X0090918Y0118534D01*
X0091124Y0118632D01*
X0091327Y0118734D01*
X0091528Y0118842D01*
X0091726Y0118954D01*
X0091922Y0119072D01*
X0092114Y0119193D01*
X0092304Y0119320D01*
X0092491Y0119451D01*
X0092674Y0119586D01*
X0092854Y0119726D01*
X0093030Y0119871D01*
X0093203Y0120019D01*
X0093372Y0120172D01*
X0093538Y0120328D01*
X0093700Y0120489D01*
X0093858Y0120653D01*
X0094011Y0120821D01*
X0094161Y0120993D01*
X0094307Y0121169D01*
X0094448Y0121348D01*
X0094585Y0121530D01*
X0094717Y0121715D01*
X0094845Y0121904D01*
X0094968Y0122096D01*
X0095087Y0122290D01*
X0095201Y0122488D01*
X0095310Y0122688D01*
X0095414Y0122890D01*
X0095513Y0123096D01*
X0095607Y0123303D01*
X0095697Y0123513D01*
X0095781Y0123725D01*
X0095860Y0123938D01*
X0095934Y0124154D01*
X0096002Y0124371D01*
X0096066Y0124590D01*
X0096124Y0124811D01*
X0096176Y0125032D01*
X0096224Y0125255D01*
X0096266Y0125479D01*
X0096302Y0125704D01*
X0096333Y0125930D01*
X0096359Y0126157D01*
X0096379Y0126384D01*
X0096393Y0126611D01*
X0096402Y0126839D01*
X0096406Y0127067D01*
X0096404Y0127294D01*
X0096397Y0127522D01*
X0096397Y0127523D02*
X0096404Y0127751D01*
X0096406Y0127978D01*
X0096402Y0128206D01*
X0096393Y0128434D01*
X0096379Y0128661D01*
X0096359Y0128888D01*
X0096333Y0129115D01*
X0096302Y0129341D01*
X0096266Y0129566D01*
X0096224Y0129790D01*
X0096176Y0130013D01*
X0096124Y0130234D01*
X0096066Y0130455D01*
X0096002Y0130674D01*
X0095934Y0130891D01*
X0095860Y0131107D01*
X0095781Y0131320D01*
X0095697Y0131532D01*
X0095607Y0131742D01*
X0095513Y0131949D01*
X0095414Y0132155D01*
X0095310Y0132357D01*
X0095201Y0132557D01*
X0095087Y0132755D01*
X0094968Y0132949D01*
X0094845Y0133141D01*
X0094717Y0133330D01*
X0094585Y0133515D01*
X0094448Y0133697D01*
X0094307Y0133876D01*
X0094161Y0134052D01*
X0094011Y0134224D01*
X0093858Y0134392D01*
X0093700Y0134556D01*
X0093538Y0134717D01*
X0093372Y0134873D01*
X0093203Y0135026D01*
X0093030Y0135174D01*
X0092854Y0135319D01*
X0092674Y0135459D01*
X0092491Y0135594D01*
X0092304Y0135725D01*
X0092114Y0135852D01*
X0091922Y0135973D01*
X0091726Y0136091D01*
X0091528Y0136203D01*
X0091327Y0136311D01*
X0091124Y0136413D01*
X0090918Y0136511D01*
X0090710Y0136604D01*
X0090499Y0136692D01*
X0090287Y0136774D01*
X0090073Y0136852D01*
X0089857Y0136924D01*
X0089639Y0136991D01*
X0089419Y0137053D01*
X0089199Y0137109D01*
X0088976Y0137160D01*
X0088753Y0137206D01*
X0088529Y0137246D01*
X0088304Y0137281D01*
X0088078Y0137310D01*
X0087851Y0137334D01*
X0087624Y0137353D01*
X0087396Y0137366D01*
X0079522Y0145239D02*
X0073617Y0145239D01*
X0073617Y0137365D01*
D11*
X0133096Y0189522D03*
X0155396Y0169822D03*
X0256196Y0240322D03*
D12*
X0138896Y0226022D02*
X0138898Y0226066D01*
X0138904Y0226110D01*
X0138914Y0226153D01*
X0138927Y0226195D01*
X0138944Y0226236D01*
X0138965Y0226275D01*
X0138989Y0226312D01*
X0139016Y0226347D01*
X0139046Y0226379D01*
X0139079Y0226409D01*
X0139115Y0226435D01*
X0139152Y0226459D01*
X0139192Y0226478D01*
X0139233Y0226495D01*
X0139276Y0226507D01*
X0139319Y0226516D01*
X0139363Y0226521D01*
X0139407Y0226522D01*
X0139451Y0226519D01*
X0139495Y0226512D01*
X0139538Y0226501D01*
X0139580Y0226487D01*
X0139620Y0226469D01*
X0139659Y0226447D01*
X0139695Y0226423D01*
X0139729Y0226395D01*
X0139761Y0226364D01*
X0139790Y0226330D01*
X0139816Y0226294D01*
X0139838Y0226256D01*
X0139857Y0226216D01*
X0139872Y0226174D01*
X0139884Y0226132D01*
X0139892Y0226088D01*
X0139896Y0226044D01*
X0139896Y0226000D01*
X0139892Y0225956D01*
X0139884Y0225912D01*
X0139872Y0225870D01*
X0139857Y0225828D01*
X0139838Y0225788D01*
X0139816Y0225750D01*
X0139790Y0225714D01*
X0139761Y0225680D01*
X0139729Y0225649D01*
X0139695Y0225621D01*
X0139659Y0225597D01*
X0139620Y0225575D01*
X0139580Y0225557D01*
X0139538Y0225543D01*
X0139495Y0225532D01*
X0139451Y0225525D01*
X0139407Y0225522D01*
X0139363Y0225523D01*
X0139319Y0225528D01*
X0139276Y0225537D01*
X0139233Y0225549D01*
X0139192Y0225566D01*
X0139152Y0225585D01*
X0139115Y0225609D01*
X0139079Y0225635D01*
X0139046Y0225665D01*
X0139016Y0225697D01*
X0138989Y0225732D01*
X0138965Y0225769D01*
X0138944Y0225808D01*
X0138927Y0225849D01*
X0138914Y0225891D01*
X0138904Y0225934D01*
X0138898Y0225978D01*
X0138896Y0226022D01*
D13*
X0317192Y0275550D03*
X0321601Y0275550D03*
X0324046Y0158467D03*
X0317747Y0158467D03*
D14*
X0317904Y0158467D03*
X0323888Y0158467D03*
X0191916Y0122282D03*
X0316247Y0275077D03*
X0322546Y0275077D03*
D15*
X0323731Y0158467D03*
X0318062Y0158467D03*
X0212231Y0122440D03*
X0206562Y0122440D03*
X0165759Y0265180D03*
D16*
X0318219Y0158467D03*
X0323573Y0158467D03*
X0188136Y0122912D03*
D17*
X0318377Y0158467D03*
X0323416Y0158467D03*
D18*
X0323259Y0158467D03*
X0318534Y0158467D03*
X0207822Y0123070D03*
D19*
X0306247Y0119239D03*
X0312546Y0119239D03*
X0316247Y0119396D03*
X0322546Y0119396D03*
X0326247Y0119239D03*
X0332546Y0119239D03*
X0318692Y0154609D03*
X0226546Y0277684D03*
X0220247Y0277684D03*
D20*
X0221664Y0278786D03*
X0225129Y0278786D03*
X0232609Y0280341D03*
X0244026Y0280062D03*
X0249507Y0281570D03*
X0252184Y0279837D03*
X0253286Y0281570D03*
X0249507Y0278105D03*
X0249507Y0276688D03*
X0249664Y0276688D03*
X0249664Y0274483D03*
X0249507Y0272278D03*
X0250766Y0271176D03*
X0250924Y0271176D03*
X0250924Y0268971D03*
X0251081Y0268971D03*
X0251239Y0268971D03*
X0250766Y0268971D03*
X0250609Y0268971D03*
X0250451Y0268971D03*
X0252499Y0268971D03*
X0252656Y0268971D03*
X0252814Y0268971D03*
X0252971Y0268971D03*
X0253129Y0268971D03*
X0253286Y0268971D03*
X0252499Y0266766D03*
X0253129Y0273381D03*
X0253286Y0273381D03*
X0253286Y0275585D03*
X0253129Y0275585D03*
X0279869Y0278766D03*
X0298609Y0279999D03*
X0300341Y0277951D03*
X0308609Y0280219D03*
X0308924Y0280219D03*
X0309081Y0280219D03*
X0309239Y0280062D03*
X0317664Y0278306D03*
X0318766Y0277518D03*
X0320026Y0277518D03*
X0320656Y0275786D03*
X0318451Y0279881D03*
X0327664Y0275794D03*
X0328766Y0276424D03*
X0330341Y0276266D03*
X0330656Y0278156D03*
X0330184Y0280046D03*
X0328609Y0280046D03*
X0328451Y0274219D03*
X0330499Y0274219D03*
X0317841Y0204475D03*
X0317684Y0204475D03*
X0317526Y0204475D03*
X0316266Y0204475D03*
X0316109Y0204475D03*
X0315951Y0204475D03*
X0318786Y0203058D03*
X0318786Y0200853D03*
X0318629Y0200853D03*
X0318471Y0200853D03*
X0318314Y0200853D03*
X0318156Y0200853D03*
X0317999Y0200853D03*
X0317841Y0200853D03*
X0317684Y0200853D03*
X0316266Y0200853D03*
X0316109Y0200853D03*
X0315951Y0200853D03*
X0315794Y0200853D03*
X0315636Y0200853D03*
X0315479Y0200853D03*
X0315322Y0200853D03*
X0315164Y0200853D03*
X0315007Y0200853D03*
X0315164Y0198018D03*
X0315164Y0195184D03*
X0315007Y0195184D03*
X0315164Y0192979D03*
X0318629Y0194081D03*
X0318786Y0194081D03*
X0318786Y0191877D03*
X0318786Y0196444D03*
X0321211Y0164688D03*
X0320424Y0163113D03*
X0322629Y0163113D03*
X0322156Y0159806D03*
X0321999Y0159806D03*
X0318692Y0161538D03*
X0321684Y0155711D03*
X0321999Y0155711D03*
X0322629Y0156026D03*
X0322944Y0154451D03*
X0320026Y0122703D03*
X0321286Y0121286D03*
X0329554Y0121286D03*
X0311286Y0121286D03*
X0311129Y0121286D03*
X0310971Y0121286D03*
X0310814Y0121286D03*
X0310656Y0121286D03*
X0310499Y0121286D03*
X0301286Y0117507D03*
X0300341Y0118924D03*
X0300184Y0118924D03*
X0298294Y0117507D03*
X0298136Y0117507D03*
X0281286Y0115274D03*
X0281129Y0115274D03*
X0280971Y0115274D03*
X0280814Y0115274D03*
X0280656Y0115274D03*
X0280499Y0115274D03*
X0280341Y0115274D03*
X0280184Y0115274D03*
X0280026Y0115274D03*
X0279869Y0115274D03*
X0279711Y0115274D03*
X0279554Y0115274D03*
X0279396Y0115274D03*
X0277507Y0115274D03*
X0277507Y0117951D03*
X0280499Y0121731D03*
X0260341Y0122703D03*
X0258609Y0123491D03*
X0258924Y0119396D03*
X0259081Y0119396D03*
X0259081Y0117349D03*
X0259239Y0117349D03*
X0251286Y0118924D03*
X0250499Y0120814D03*
X0248609Y0121444D03*
X0248451Y0121444D03*
X0248451Y0124908D03*
X0249239Y0116562D03*
X0249396Y0116562D03*
X0249554Y0116562D03*
X0249711Y0116562D03*
X0241286Y0118924D03*
X0240499Y0120814D03*
X0238609Y0121444D03*
X0238451Y0121444D03*
X0238451Y0124908D03*
X0239239Y0116562D03*
X0239396Y0116562D03*
X0239554Y0116562D03*
X0239711Y0116562D03*
X0229239Y0120341D03*
X0229081Y0120341D03*
X0218924Y0118609D03*
X0211759Y0121416D03*
X0210814Y0122518D03*
X0209869Y0120944D03*
X0208451Y0121416D03*
X0209396Y0116692D03*
X0209554Y0116692D03*
X0209711Y0116692D03*
X0209869Y0116692D03*
X0211286Y0116692D03*
X0211444Y0116692D03*
X0200814Y0116719D03*
X0198136Y0116719D03*
X0197979Y0116719D03*
X0198451Y0118766D03*
X0197979Y0120656D03*
X0198451Y0122703D03*
X0197664Y0124278D03*
X0200499Y0122703D03*
X0200656Y0122703D03*
X0200971Y0120656D03*
X0199396Y0127900D03*
X0191444Y0125038D03*
X0190656Y0126298D03*
X0189554Y0126298D03*
X0188766Y0125038D03*
X0188609Y0125038D03*
X0190026Y0123306D03*
X0190184Y0123306D03*
X0191444Y0119526D03*
X0191444Y0117636D03*
X0191286Y0117636D03*
X0191129Y0117636D03*
X0188924Y0116692D03*
X0188766Y0116692D03*
X0188766Y0118581D03*
X0188924Y0118581D03*
X0179286Y0190274D03*
X0179129Y0190274D03*
X0178971Y0190274D03*
X0178814Y0190274D03*
X0178656Y0190274D03*
X0178499Y0190274D03*
X0177239Y0190274D03*
X0177081Y0190274D03*
X0176924Y0190274D03*
X0176766Y0190274D03*
X0176609Y0190274D03*
X0176451Y0190274D03*
X0176766Y0192479D03*
X0176924Y0192479D03*
X0175507Y0193581D03*
X0175664Y0195786D03*
X0175664Y0197991D03*
X0175507Y0197991D03*
X0179129Y0196888D03*
X0179286Y0196888D03*
X0179286Y0194684D03*
X0179129Y0194684D03*
X0179286Y0201613D03*
X0179286Y0207274D03*
X0179129Y0207274D03*
X0178971Y0207274D03*
X0178814Y0207274D03*
X0178656Y0207274D03*
X0178499Y0207274D03*
X0177239Y0207274D03*
X0177081Y0207274D03*
X0176924Y0207274D03*
X0176766Y0207274D03*
X0176609Y0207274D03*
X0176451Y0207274D03*
X0176766Y0209479D03*
X0176924Y0209479D03*
X0175507Y0210739D03*
X0179286Y0210739D03*
X0179286Y0209479D03*
X0179286Y0213731D03*
X0179286Y0214991D03*
X0175664Y0214991D03*
X0175507Y0214991D03*
X0176294Y0222192D03*
X0176451Y0222192D03*
X0176609Y0222192D03*
X0176766Y0222192D03*
X0176924Y0222192D03*
X0177081Y0222192D03*
X0177239Y0222192D03*
X0177396Y0222192D03*
X0177554Y0222192D03*
X0177711Y0222192D03*
X0177869Y0222192D03*
X0178026Y0222192D03*
X0178184Y0222192D03*
X0178341Y0222192D03*
X0178499Y0222192D03*
X0178656Y0222192D03*
X0178814Y0222192D03*
X0178971Y0222192D03*
X0179129Y0222192D03*
X0179286Y0222192D03*
X0179286Y0224869D03*
X0179286Y0227861D03*
X0175349Y0230381D03*
X0177711Y0231955D03*
X0175507Y0224869D03*
X0178184Y0241479D03*
X0175349Y0242581D03*
X0165286Y0265416D03*
X0163239Y0265416D03*
X0162451Y0265416D03*
X0162294Y0265416D03*
X0161664Y0265416D03*
X0162451Y0263999D03*
X0162451Y0267306D03*
X0163081Y0269825D03*
X0163239Y0269825D03*
X0162924Y0276282D03*
X0161664Y0279117D03*
X0164026Y0280534D03*
X0164184Y0280534D03*
X0164341Y0280534D03*
X0164499Y0280534D03*
X0165286Y0279117D03*
X0171507Y0277451D03*
X0171507Y0274774D03*
X0173396Y0274774D03*
X0173554Y0274774D03*
X0173711Y0274774D03*
X0173869Y0274774D03*
X0174026Y0274774D03*
X0174184Y0274774D03*
X0174341Y0274774D03*
X0174499Y0274774D03*
X0174656Y0274774D03*
X0174814Y0274774D03*
X0174971Y0274774D03*
X0175129Y0274774D03*
X0175286Y0274774D03*
X0182451Y0276444D03*
X0182609Y0276444D03*
X0184499Y0275814D03*
X0185286Y0273924D03*
X0183711Y0271562D03*
X0183554Y0271562D03*
X0183396Y0271562D03*
X0183239Y0271562D03*
X0182451Y0279908D03*
X0174499Y0281231D03*
X0191664Y0278507D03*
X0192766Y0278507D03*
X0192766Y0279924D03*
X0192609Y0280081D03*
X0192451Y0280081D03*
X0194499Y0280081D03*
X0195286Y0278507D03*
X0201664Y0278507D03*
X0203081Y0279924D03*
X0204184Y0278507D03*
X0211979Y0279786D03*
X0154814Y0266731D03*
X0152451Y0266416D03*
X0152451Y0264999D03*
X0151507Y0270196D03*
X0152924Y0276495D03*
X0153081Y0276495D03*
X0151979Y0276967D03*
X0151822Y0277125D03*
X0152609Y0280589D03*
X0124786Y0280274D03*
X0124786Y0282479D03*
X0123841Y0283896D03*
X0123684Y0283896D03*
X0123526Y0283896D03*
X0122266Y0283896D03*
X0122109Y0283896D03*
X0121951Y0283896D03*
X0121951Y0287518D03*
X0121794Y0289093D03*
X0121951Y0290825D03*
X0122109Y0290825D03*
X0122266Y0290825D03*
X0123526Y0290825D03*
X0123684Y0290825D03*
X0123841Y0290825D03*
D21*
X0240247Y0280534D03*
X0246546Y0280534D03*
X0256247Y0280534D03*
X0262546Y0280534D03*
X0286247Y0280692D03*
X0292546Y0280692D03*
X0306247Y0280692D03*
X0312546Y0280692D03*
X0292349Y0174152D03*
X0292073Y0174152D03*
X0291916Y0174152D03*
X0318692Y0165318D03*
X0318849Y0165475D03*
X0319322Y0157444D03*
X0318294Y0116404D03*
X0309081Y0116247D03*
X0308294Y0116247D03*
X0328294Y0116247D03*
X0329081Y0116247D03*
D22*
X0311444Y0124672D03*
X0311286Y0124829D03*
X0311129Y0124829D03*
X0309869Y0125302D03*
X0298451Y0121365D03*
X0318849Y0150751D03*
X0210341Y0131101D03*
X0210184Y0131101D03*
X0153396Y0258621D03*
X0193239Y0274963D03*
X0193396Y0274963D03*
X0193554Y0274963D03*
X0193711Y0274963D03*
X0193869Y0274963D03*
X0194026Y0274963D03*
X0194184Y0274963D03*
X0203239Y0274963D03*
X0203396Y0274963D03*
X0203554Y0274963D03*
X0203711Y0274963D03*
X0203869Y0274963D03*
X0204026Y0274963D03*
X0204184Y0274963D03*
X0223396Y0271621D03*
X0233396Y0274121D03*
X0259711Y0277463D03*
X0259869Y0277463D03*
X0269396Y0274121D03*
X0299396Y0273621D03*
X0309869Y0277621D03*
D23*
X0317349Y0270904D03*
X0281129Y0275617D03*
X0280814Y0275459D03*
X0235444Y0275932D03*
X0235286Y0275774D03*
X0235129Y0275774D03*
X0154814Y0260117D03*
X0318849Y0156971D03*
X0327507Y0116719D03*
X0307507Y0116719D03*
D24*
X0309554Y0117192D03*
X0310499Y0116404D03*
X0317822Y0121286D03*
X0317979Y0121286D03*
X0319081Y0121286D03*
X0319396Y0121286D03*
X0321129Y0121286D03*
X0319554Y0117349D03*
X0320499Y0116562D03*
X0327822Y0121129D03*
X0327979Y0121129D03*
X0329239Y0121129D03*
X0330656Y0121129D03*
X0329554Y0117192D03*
X0300814Y0117349D03*
X0300656Y0117349D03*
X0300026Y0118924D03*
X0298924Y0117349D03*
X0298766Y0117349D03*
X0291286Y0117507D03*
X0290341Y0117507D03*
X0289869Y0117507D03*
X0290499Y0118766D03*
X0288136Y0117507D03*
X0287979Y0117507D03*
X0287822Y0117507D03*
X0287664Y0117507D03*
X0260026Y0122546D03*
X0259869Y0122546D03*
X0259081Y0123648D03*
X0257507Y0120971D03*
X0257507Y0119554D03*
X0258294Y0119554D03*
X0258451Y0119554D03*
X0259396Y0117349D03*
X0259554Y0117349D03*
X0251129Y0118924D03*
X0249081Y0118924D03*
X0248294Y0118924D03*
X0248136Y0118924D03*
X0247979Y0118924D03*
X0247822Y0118924D03*
X0250026Y0120656D03*
X0248924Y0121601D03*
X0247507Y0123176D03*
X0250499Y0124751D03*
X0251286Y0123176D03*
X0241286Y0123176D03*
X0240499Y0124751D03*
X0237507Y0123176D03*
X0238924Y0121601D03*
X0240026Y0120656D03*
X0239081Y0118924D03*
X0238294Y0118924D03*
X0238136Y0118924D03*
X0237979Y0118924D03*
X0237822Y0118924D03*
X0241129Y0118924D03*
X0229869Y0116562D03*
X0227507Y0118136D03*
X0229396Y0120341D03*
X0229554Y0120341D03*
X0218609Y0118609D03*
X0218451Y0118609D03*
X0218136Y0118451D03*
X0217822Y0118294D03*
X0211759Y0118109D03*
X0210499Y0117951D03*
X0208766Y0117951D03*
X0208766Y0121259D03*
X0209239Y0122518D03*
X0209081Y0123778D03*
X0208609Y0123778D03*
X0210026Y0123778D03*
X0210971Y0122518D03*
X0217822Y0123176D03*
X0218136Y0123018D03*
X0218294Y0123018D03*
X0201444Y0128215D03*
X0200499Y0124436D03*
X0200341Y0124436D03*
X0200184Y0124436D03*
X0199711Y0124436D03*
X0198136Y0124436D03*
X0197979Y0124436D03*
X0198294Y0120814D03*
X0198451Y0120814D03*
X0200499Y0120814D03*
X0200656Y0120814D03*
X0200499Y0116562D03*
X0200341Y0116562D03*
X0200184Y0116562D03*
X0198766Y0116562D03*
X0198609Y0116562D03*
X0198451Y0116562D03*
X0190971Y0117636D03*
X0190814Y0117636D03*
X0190656Y0117636D03*
X0189396Y0116692D03*
X0189239Y0116692D03*
X0189239Y0118581D03*
X0189396Y0118581D03*
X0190656Y0123463D03*
X0190814Y0123463D03*
X0191759Y0123621D03*
X0191129Y0124881D03*
X0190971Y0126455D03*
X0189239Y0126455D03*
X0189081Y0124881D03*
X0197507Y0128215D03*
X0179444Y0190274D03*
X0179444Y0194684D03*
X0179444Y0196888D03*
X0175507Y0195786D03*
X0179444Y0207274D03*
X0179444Y0209479D03*
X0179444Y0210739D03*
X0179444Y0213731D03*
X0179444Y0222192D03*
X0179444Y0224869D03*
X0179444Y0227861D03*
X0179601Y0242581D03*
X0163554Y0260692D03*
X0163554Y0265573D03*
X0163711Y0265573D03*
X0164814Y0265573D03*
X0164971Y0265573D03*
X0164971Y0269038D03*
X0164814Y0269196D03*
X0164499Y0269353D03*
X0164184Y0269510D03*
X0163869Y0269668D03*
X0163711Y0269668D03*
X0163711Y0271400D03*
X0162451Y0276440D03*
X0162136Y0278959D03*
X0161979Y0278959D03*
X0162924Y0278959D03*
X0163081Y0278959D03*
X0163554Y0278959D03*
X0164971Y0278959D03*
X0163869Y0280534D03*
X0162766Y0280534D03*
X0162609Y0280534D03*
X0162451Y0280534D03*
X0155286Y0279014D03*
X0154656Y0279172D03*
X0153396Y0279172D03*
X0153239Y0279172D03*
X0151822Y0279172D03*
X0152294Y0280589D03*
X0152451Y0276652D03*
X0152609Y0276495D03*
X0152766Y0276495D03*
X0154814Y0273818D03*
X0154499Y0270353D03*
X0152451Y0270353D03*
X0151664Y0270353D03*
X0153396Y0266416D03*
X0154499Y0266731D03*
X0154656Y0266731D03*
X0181822Y0273924D03*
X0181979Y0273924D03*
X0182136Y0273924D03*
X0182294Y0273924D03*
X0183081Y0273924D03*
X0184026Y0275656D03*
X0182924Y0276601D03*
X0181507Y0278176D03*
X0184499Y0279751D03*
X0185286Y0278176D03*
X0185129Y0273924D03*
X0192136Y0278349D03*
X0192294Y0278349D03*
X0192451Y0278349D03*
X0194026Y0278349D03*
X0194814Y0278349D03*
X0201979Y0278349D03*
X0202136Y0278349D03*
X0203239Y0278349D03*
X0204499Y0278349D03*
X0205444Y0278349D03*
X0212294Y0279629D03*
X0213554Y0275692D03*
X0214499Y0274904D03*
X0222136Y0278629D03*
X0222294Y0278629D03*
X0224656Y0278629D03*
X0224814Y0278629D03*
X0223554Y0274692D03*
X0232294Y0280341D03*
X0249507Y0274483D03*
X0253444Y0275585D03*
X0253444Y0273381D03*
X0253444Y0268971D03*
X0252499Y0265349D03*
X0269711Y0278609D03*
X0269869Y0278609D03*
X0270026Y0278609D03*
X0279554Y0277192D03*
X0280499Y0276404D03*
X0279711Y0278609D03*
X0279869Y0280184D03*
X0288136Y0280377D03*
X0288294Y0280377D03*
X0288451Y0280377D03*
X0288609Y0280377D03*
X0317979Y0278148D03*
X0318136Y0277991D03*
X0318294Y0277833D03*
X0320341Y0277676D03*
X0320499Y0277833D03*
X0320656Y0277991D03*
X0320971Y0278148D03*
X0327979Y0275951D03*
X0328136Y0276109D03*
X0330656Y0276109D03*
X0330499Y0280203D03*
X0328294Y0280203D03*
X0318944Y0202900D03*
X0318944Y0199436D03*
X0318944Y0196444D03*
X0318944Y0194081D03*
X0318944Y0191877D03*
X0320739Y0162955D03*
X0320896Y0162955D03*
X0322156Y0162955D03*
X0322314Y0162955D03*
X0322786Y0161538D03*
X0321369Y0159963D03*
X0321211Y0159963D03*
X0320266Y0161538D03*
X0319479Y0161538D03*
X0318849Y0161538D03*
X0320424Y0156971D03*
X0320581Y0156971D03*
X0320896Y0155554D03*
X0321054Y0155554D03*
X0321211Y0155554D03*
X0322314Y0156026D03*
X0322629Y0157759D03*
X0124944Y0282479D03*
D25*
X0121479Y0295786D03*
X0121322Y0295786D03*
X0121164Y0295786D03*
X0121007Y0295786D03*
X0151822Y0273581D03*
X0151979Y0273581D03*
X0153554Y0258463D03*
X0163554Y0257306D03*
X0191507Y0275278D03*
X0194814Y0275121D03*
X0194971Y0275121D03*
X0201507Y0275278D03*
X0204814Y0275121D03*
X0204971Y0275121D03*
X0213554Y0272306D03*
X0233554Y0273963D03*
X0260341Y0277463D03*
X0269554Y0273963D03*
X0279554Y0273806D03*
X0299554Y0273463D03*
X0310026Y0277463D03*
X0318156Y0197940D03*
X0294987Y0173562D03*
X0319007Y0150436D03*
X0322944Y0150593D03*
X0309396Y0125459D03*
X0309239Y0125459D03*
X0299239Y0121680D03*
X0210656Y0121022D03*
X0210656Y0130944D03*
X0201286Y0131286D03*
X0201129Y0131286D03*
X0200971Y0131286D03*
X0200814Y0131286D03*
X0200656Y0131286D03*
X0200499Y0131286D03*
X0200341Y0131286D03*
X0200184Y0131286D03*
X0200026Y0131286D03*
X0198766Y0131286D03*
X0198609Y0131286D03*
X0198451Y0131286D03*
X0189711Y0130786D03*
D26*
X0317822Y0116640D03*
X0319007Y0157207D03*
X0201349Y0276538D03*
X0240404Y0280298D03*
X0246388Y0280298D03*
X0256404Y0280298D03*
X0262388Y0280298D03*
X0286404Y0280455D03*
X0292388Y0280455D03*
X0306404Y0280455D03*
X0312388Y0280455D03*
D27*
X0318451Y0275865D03*
X0320341Y0275865D03*
X0320814Y0278070D03*
X0318136Y0273818D03*
X0317507Y0273818D03*
X0328451Y0278235D03*
X0330341Y0278235D03*
X0330656Y0280282D03*
X0331286Y0280282D03*
X0328136Y0280282D03*
X0327507Y0280282D03*
X0299554Y0276770D03*
X0298294Y0280077D03*
X0287979Y0280455D03*
X0287822Y0280455D03*
X0287664Y0280455D03*
X0269554Y0277270D03*
X0249349Y0276609D03*
X0242766Y0280140D03*
X0242294Y0280140D03*
X0233554Y0277270D03*
X0232924Y0280420D03*
X0224499Y0280282D03*
X0224499Y0278550D03*
X0224341Y0278550D03*
X0224184Y0278550D03*
X0224026Y0278550D03*
X0223869Y0278550D03*
X0223711Y0278550D03*
X0223239Y0278550D03*
X0223081Y0278550D03*
X0222924Y0278550D03*
X0222766Y0278550D03*
X0222609Y0278550D03*
X0222451Y0278550D03*
X0213081Y0279550D03*
X0212451Y0279550D03*
X0205286Y0278270D03*
X0205129Y0278270D03*
X0204971Y0278270D03*
X0204814Y0278270D03*
X0204656Y0278270D03*
X0203081Y0278270D03*
X0202924Y0278270D03*
X0202766Y0278270D03*
X0202609Y0278270D03*
X0202451Y0278270D03*
X0202294Y0278270D03*
X0194656Y0278270D03*
X0194499Y0278270D03*
X0194341Y0278270D03*
X0194184Y0278270D03*
X0185129Y0278097D03*
X0184971Y0278097D03*
X0184814Y0278097D03*
X0184656Y0278097D03*
X0184499Y0278097D03*
X0184341Y0278097D03*
X0184184Y0278097D03*
X0184026Y0278097D03*
X0183869Y0278097D03*
X0183711Y0278097D03*
X0183554Y0278097D03*
X0183396Y0278097D03*
X0183239Y0278097D03*
X0183081Y0278097D03*
X0182924Y0278097D03*
X0182766Y0278097D03*
X0182609Y0278097D03*
X0182451Y0278097D03*
X0182294Y0278097D03*
X0182136Y0278097D03*
X0181979Y0278097D03*
X0181822Y0278097D03*
X0181664Y0278097D03*
X0183081Y0276680D03*
X0183239Y0276680D03*
X0183869Y0275577D03*
X0183869Y0274003D03*
X0184026Y0274003D03*
X0184184Y0274003D03*
X0184341Y0274003D03*
X0184499Y0274003D03*
X0184656Y0274003D03*
X0184814Y0274003D03*
X0184971Y0274003D03*
X0183711Y0274003D03*
X0183554Y0274003D03*
X0183396Y0274003D03*
X0183239Y0274003D03*
X0174341Y0281310D03*
X0172609Y0281310D03*
X0164814Y0278881D03*
X0164656Y0278881D03*
X0164499Y0278881D03*
X0164341Y0278881D03*
X0164026Y0278881D03*
X0163869Y0278881D03*
X0163711Y0278881D03*
X0162766Y0278881D03*
X0162609Y0278881D03*
X0162451Y0278881D03*
X0162294Y0278881D03*
X0164814Y0273684D03*
X0164971Y0273684D03*
X0165444Y0273526D03*
X0163554Y0271479D03*
X0164026Y0269589D03*
X0164341Y0269432D03*
X0164656Y0269274D03*
X0164656Y0265652D03*
X0164499Y0265652D03*
X0164341Y0265652D03*
X0164184Y0265652D03*
X0164026Y0265652D03*
X0163869Y0265652D03*
X0162294Y0263920D03*
X0154341Y0266652D03*
X0154184Y0266652D03*
X0153711Y0266495D03*
X0153554Y0266495D03*
X0152294Y0264920D03*
X0153554Y0261770D03*
X0154656Y0270432D03*
X0154814Y0270432D03*
X0154971Y0270432D03*
X0155129Y0270432D03*
X0152294Y0270432D03*
X0152136Y0270432D03*
X0151979Y0270432D03*
X0151822Y0270432D03*
X0154971Y0273896D03*
X0154971Y0279093D03*
X0154814Y0279093D03*
X0155129Y0279093D03*
X0153081Y0279093D03*
X0152924Y0279093D03*
X0152294Y0279093D03*
X0152136Y0279093D03*
X0151979Y0279093D03*
X0152924Y0280668D03*
X0123684Y0287440D03*
X0121951Y0289172D03*
X0176766Y0241715D03*
X0179601Y0230459D03*
X0175349Y0227782D03*
X0175349Y0224948D03*
X0175349Y0213652D03*
X0175349Y0210818D03*
X0175349Y0197912D03*
X0251396Y0265900D03*
X0314849Y0202979D03*
X0321054Y0164609D03*
X0321999Y0164609D03*
X0321999Y0162877D03*
X0321841Y0162877D03*
X0321684Y0162877D03*
X0321526Y0162877D03*
X0321369Y0162877D03*
X0321211Y0162877D03*
X0321054Y0162877D03*
X0321054Y0161459D03*
X0321211Y0161459D03*
X0321369Y0161459D03*
X0321526Y0161459D03*
X0321684Y0161459D03*
X0321841Y0161459D03*
X0321999Y0161459D03*
X0322156Y0161459D03*
X0322314Y0161459D03*
X0322471Y0161459D03*
X0322629Y0161459D03*
X0320896Y0161459D03*
X0320739Y0161459D03*
X0320581Y0161459D03*
X0320424Y0161459D03*
X0319322Y0161459D03*
X0319164Y0161459D03*
X0319007Y0161459D03*
X0320739Y0160042D03*
X0320896Y0160042D03*
X0321054Y0160042D03*
X0320896Y0158625D03*
X0320739Y0158625D03*
X0320581Y0158625D03*
X0320739Y0157050D03*
X0320739Y0155475D03*
X0320581Y0155475D03*
X0320424Y0155475D03*
X0320266Y0155475D03*
X0322314Y0157837D03*
X0322471Y0157837D03*
X0318766Y0122782D03*
X0318294Y0122782D03*
X0318294Y0121207D03*
X0318451Y0121207D03*
X0318609Y0121207D03*
X0318766Y0121207D03*
X0318924Y0121207D03*
X0319554Y0121207D03*
X0319711Y0121207D03*
X0320814Y0121207D03*
X0320971Y0121207D03*
X0318136Y0121207D03*
X0320341Y0116483D03*
X0328136Y0121050D03*
X0328294Y0121050D03*
X0328451Y0121050D03*
X0328766Y0121050D03*
X0328924Y0121050D03*
X0329081Y0121050D03*
X0328924Y0122625D03*
X0328294Y0122625D03*
X0330814Y0121050D03*
X0330971Y0121050D03*
X0331129Y0121050D03*
X0331286Y0121050D03*
X0308294Y0121050D03*
X0307507Y0121050D03*
X0300499Y0117270D03*
X0300341Y0117270D03*
X0300184Y0117270D03*
X0300026Y0117270D03*
X0299869Y0117270D03*
X0299711Y0117270D03*
X0299554Y0117270D03*
X0299396Y0117270D03*
X0299239Y0117270D03*
X0299081Y0117270D03*
X0291129Y0117428D03*
X0290499Y0117428D03*
X0289711Y0117428D03*
X0289396Y0117428D03*
X0289239Y0117428D03*
X0289081Y0117428D03*
X0288924Y0117428D03*
X0288766Y0117428D03*
X0288609Y0117428D03*
X0288451Y0117428D03*
X0288294Y0117428D03*
X0289869Y0118845D03*
X0280341Y0121810D03*
X0278609Y0121810D03*
X0261286Y0121050D03*
X0261129Y0121050D03*
X0260971Y0121050D03*
X0260814Y0121050D03*
X0260656Y0121050D03*
X0260499Y0121050D03*
X0260341Y0121050D03*
X0260184Y0121050D03*
X0260026Y0121050D03*
X0259869Y0121050D03*
X0259711Y0121050D03*
X0259554Y0121050D03*
X0259396Y0121050D03*
X0259239Y0121050D03*
X0259081Y0121050D03*
X0258924Y0121050D03*
X0258766Y0121050D03*
X0258609Y0121050D03*
X0258451Y0121050D03*
X0258294Y0121050D03*
X0258136Y0121050D03*
X0257979Y0121050D03*
X0257822Y0121050D03*
X0257664Y0121050D03*
X0257664Y0119633D03*
X0257822Y0119633D03*
X0257979Y0119633D03*
X0258136Y0119633D03*
X0259711Y0122467D03*
X0259239Y0123727D03*
X0251129Y0123097D03*
X0250971Y0123097D03*
X0250814Y0123097D03*
X0250656Y0123097D03*
X0250499Y0123097D03*
X0250341Y0123097D03*
X0250184Y0123097D03*
X0250026Y0123097D03*
X0249869Y0123097D03*
X0249711Y0123097D03*
X0249554Y0123097D03*
X0249396Y0123097D03*
X0249239Y0123097D03*
X0249081Y0123097D03*
X0248924Y0123097D03*
X0248766Y0123097D03*
X0248609Y0123097D03*
X0248451Y0123097D03*
X0248294Y0123097D03*
X0248136Y0123097D03*
X0247979Y0123097D03*
X0247822Y0123097D03*
X0247664Y0123097D03*
X0249081Y0121680D03*
X0249239Y0121680D03*
X0249869Y0120577D03*
X0249869Y0119003D03*
X0250026Y0119003D03*
X0250184Y0119003D03*
X0250341Y0119003D03*
X0250499Y0119003D03*
X0250656Y0119003D03*
X0250814Y0119003D03*
X0250971Y0119003D03*
X0249711Y0119003D03*
X0249554Y0119003D03*
X0249396Y0119003D03*
X0249239Y0119003D03*
X0240971Y0119003D03*
X0240814Y0119003D03*
X0240656Y0119003D03*
X0240499Y0119003D03*
X0240341Y0119003D03*
X0240184Y0119003D03*
X0240026Y0119003D03*
X0239869Y0119003D03*
X0239711Y0119003D03*
X0239554Y0119003D03*
X0239396Y0119003D03*
X0239239Y0119003D03*
X0239869Y0120577D03*
X0239239Y0121680D03*
X0239081Y0121680D03*
X0239081Y0123097D03*
X0238924Y0123097D03*
X0238766Y0123097D03*
X0238609Y0123097D03*
X0238451Y0123097D03*
X0238294Y0123097D03*
X0238136Y0123097D03*
X0237979Y0123097D03*
X0237822Y0123097D03*
X0237664Y0123097D03*
X0239239Y0123097D03*
X0239396Y0123097D03*
X0239554Y0123097D03*
X0239711Y0123097D03*
X0239869Y0123097D03*
X0240026Y0123097D03*
X0240184Y0123097D03*
X0240341Y0123097D03*
X0240499Y0123097D03*
X0240656Y0123097D03*
X0240814Y0123097D03*
X0240971Y0123097D03*
X0241129Y0123097D03*
X0228136Y0118058D03*
X0227979Y0118058D03*
X0227822Y0118058D03*
X0227664Y0118058D03*
X0219711Y0120735D03*
X0219554Y0120735D03*
X0218294Y0118530D03*
X0217979Y0118373D03*
X0211444Y0121180D03*
X0211286Y0121180D03*
X0209081Y0121180D03*
X0208924Y0121180D03*
X0208924Y0123857D03*
X0208766Y0123857D03*
X0210184Y0123857D03*
X0211286Y0123857D03*
X0211444Y0123857D03*
X0217979Y0123097D03*
X0210814Y0118030D03*
X0210656Y0118030D03*
X0210341Y0118030D03*
X0208924Y0118030D03*
X0200026Y0116483D03*
X0199869Y0116483D03*
X0199711Y0116483D03*
X0199554Y0116483D03*
X0199396Y0116483D03*
X0199239Y0116483D03*
X0199081Y0116483D03*
X0198924Y0116483D03*
X0198924Y0120892D03*
X0198766Y0120892D03*
X0198609Y0120892D03*
X0200026Y0120892D03*
X0200184Y0120892D03*
X0200341Y0120892D03*
X0200656Y0124514D03*
X0200814Y0124514D03*
X0199554Y0124514D03*
X0199396Y0124514D03*
X0199239Y0124514D03*
X0198451Y0124514D03*
X0198294Y0124514D03*
X0198294Y0128136D03*
X0198136Y0128136D03*
X0197979Y0128136D03*
X0197822Y0128136D03*
X0197664Y0128136D03*
X0200656Y0128136D03*
X0200814Y0128136D03*
X0200971Y0128136D03*
X0201129Y0128136D03*
X0201286Y0128136D03*
X0191601Y0126534D03*
X0191129Y0126534D03*
X0190971Y0124802D03*
X0190971Y0123542D03*
X0191129Y0123542D03*
X0190341Y0121810D03*
X0190184Y0121810D03*
X0189239Y0124802D03*
X0189081Y0126534D03*
X0188609Y0126534D03*
X0189554Y0118503D03*
X0189554Y0116770D03*
D28*
X0308136Y0116325D03*
X0318136Y0116483D03*
X0328136Y0116325D03*
X0319164Y0157365D03*
X0319164Y0165554D03*
X0319007Y0165554D03*
X0327349Y0273668D03*
D29*
X0299869Y0273306D03*
X0299711Y0273306D03*
X0299396Y0277873D03*
X0280499Y0273806D03*
X0279869Y0273648D03*
X0269869Y0273806D03*
X0269711Y0273806D03*
X0260971Y0277463D03*
X0260814Y0277463D03*
X0243396Y0277148D03*
X0243081Y0277148D03*
X0241507Y0277621D03*
X0233869Y0273806D03*
X0233711Y0273806D03*
X0223711Y0271306D03*
X0214499Y0272306D03*
X0213869Y0272148D03*
X0202136Y0274806D03*
X0201979Y0274963D03*
X0192136Y0274806D03*
X0191979Y0274963D03*
X0161664Y0273684D03*
X0161349Y0278251D03*
X0152609Y0273424D03*
X0152451Y0273424D03*
X0151349Y0278463D03*
X0153711Y0258306D03*
X0153869Y0258306D03*
X0163869Y0257148D03*
X0164026Y0257148D03*
X0164499Y0257306D03*
X0176294Y0230459D03*
X0121636Y0295786D03*
X0291916Y0166869D03*
X0319164Y0150278D03*
X0319322Y0150121D03*
X0321211Y0167129D03*
X0317999Y0197940D03*
X0317841Y0197940D03*
X0319081Y0125774D03*
X0319396Y0125774D03*
X0317507Y0125302D03*
X0308924Y0125617D03*
X0308766Y0125617D03*
X0299554Y0121837D03*
X0289239Y0121680D03*
X0327507Y0125144D03*
X0330184Y0125617D03*
X0330499Y0125459D03*
X0330656Y0125459D03*
X0330814Y0125302D03*
X0210971Y0130786D03*
X0190026Y0130786D03*
D30*
X0289003Y0165412D03*
X0319322Y0165633D03*
X0319479Y0165633D03*
X0317979Y0116562D03*
X0307979Y0116404D03*
X0327979Y0116404D03*
D31*
X0329554Y0125696D03*
X0329711Y0125696D03*
X0329869Y0125696D03*
X0330026Y0125696D03*
X0330341Y0125538D03*
X0321444Y0125223D03*
X0321286Y0125381D03*
X0319711Y0125853D03*
X0319554Y0125853D03*
X0318924Y0125853D03*
X0318766Y0125853D03*
X0318609Y0125853D03*
X0308609Y0125696D03*
X0301444Y0121286D03*
X0299711Y0121916D03*
X0298294Y0121759D03*
X0289396Y0121759D03*
X0261444Y0115302D03*
X0231444Y0122388D03*
X0230184Y0115302D03*
X0219869Y0115302D03*
X0211129Y0130707D03*
X0190499Y0130550D03*
X0190341Y0130707D03*
X0190184Y0130707D03*
X0175349Y0222192D03*
X0178656Y0230381D03*
X0164184Y0257070D03*
X0164341Y0257227D03*
X0154499Y0258385D03*
X0154184Y0258227D03*
X0154026Y0258227D03*
X0152924Y0273345D03*
X0152766Y0273345D03*
X0192294Y0274727D03*
X0193081Y0274570D03*
X0202294Y0274727D03*
X0203081Y0274570D03*
X0214026Y0272070D03*
X0214184Y0272070D03*
X0214341Y0272227D03*
X0223869Y0271227D03*
X0224026Y0271227D03*
X0224499Y0271385D03*
X0234026Y0273727D03*
X0234184Y0273727D03*
X0234499Y0273885D03*
X0242609Y0277070D03*
X0242766Y0277070D03*
X0242924Y0277070D03*
X0243554Y0277070D03*
X0243711Y0277070D03*
X0245444Y0277699D03*
X0261129Y0277542D03*
X0261286Y0277542D03*
X0261444Y0277699D03*
X0270026Y0273727D03*
X0270184Y0273727D03*
X0270499Y0273885D03*
X0280026Y0273570D03*
X0280184Y0273570D03*
X0280341Y0273727D03*
X0288609Y0277227D03*
X0288766Y0277227D03*
X0288924Y0277227D03*
X0288294Y0277385D03*
X0288136Y0277385D03*
X0300026Y0273227D03*
X0300184Y0273227D03*
X0300499Y0273385D03*
X0307507Y0277699D03*
X0310341Y0277385D03*
X0317349Y0281928D03*
X0327349Y0281621D03*
X0328924Y0271070D03*
X0329081Y0271070D03*
X0329239Y0271070D03*
X0329396Y0271070D03*
X0329554Y0271070D03*
X0329711Y0271070D03*
X0329869Y0271070D03*
X0321286Y0269487D03*
X0321054Y0167207D03*
X0320266Y0167207D03*
X0322629Y0150199D03*
X0322471Y0150042D03*
X0322156Y0149885D03*
X0320109Y0149727D03*
X0319794Y0149885D03*
X0319636Y0149885D03*
X0319479Y0150042D03*
D32*
X0319479Y0157522D03*
X0319081Y0116325D03*
X0318924Y0116325D03*
X0318451Y0116325D03*
X0308924Y0116168D03*
X0308766Y0116168D03*
X0308609Y0116168D03*
X0308451Y0116168D03*
X0328451Y0116168D03*
X0328609Y0116168D03*
X0328766Y0116168D03*
X0328924Y0116168D03*
X0175822Y0222900D03*
D33*
X0319636Y0161853D03*
X0319794Y0161853D03*
D34*
X0320424Y0167286D03*
X0320581Y0167286D03*
X0320739Y0167286D03*
X0320896Y0167286D03*
X0321999Y0167129D03*
X0322314Y0149963D03*
X0321999Y0149806D03*
X0321841Y0149806D03*
X0321684Y0149648D03*
X0321526Y0149648D03*
X0321369Y0149648D03*
X0321211Y0149648D03*
X0320739Y0149648D03*
X0320581Y0149648D03*
X0320424Y0149648D03*
X0320266Y0149648D03*
X0319951Y0149806D03*
X0320026Y0125932D03*
X0319869Y0125932D03*
X0320184Y0125932D03*
X0320971Y0125617D03*
X0318451Y0125774D03*
X0318294Y0125774D03*
X0318136Y0125774D03*
X0317979Y0125617D03*
X0317822Y0125617D03*
X0317664Y0125459D03*
X0308451Y0125617D03*
X0301286Y0121522D03*
X0300184Y0121995D03*
X0300026Y0121995D03*
X0299869Y0121995D03*
X0298136Y0121837D03*
X0291444Y0121207D03*
X0291286Y0121365D03*
X0290184Y0121837D03*
X0290026Y0121837D03*
X0289869Y0121837D03*
X0289711Y0121837D03*
X0289554Y0121837D03*
X0288294Y0121680D03*
X0280656Y0120707D03*
X0278294Y0120707D03*
X0261286Y0115223D03*
X0261129Y0115223D03*
X0247349Y0115066D03*
X0237349Y0115066D03*
X0230026Y0115223D03*
X0231129Y0122467D03*
X0231286Y0122467D03*
X0241444Y0127034D03*
X0251444Y0127034D03*
X0211286Y0130629D03*
X0208924Y0131888D03*
X0209396Y0126534D03*
X0209554Y0126534D03*
X0210656Y0126534D03*
X0210814Y0126534D03*
X0189081Y0131101D03*
X0188924Y0131101D03*
X0177396Y0200432D03*
X0176136Y0230459D03*
X0178814Y0230459D03*
X0154341Y0258306D03*
X0151349Y0266967D03*
X0153081Y0273266D03*
X0153239Y0273266D03*
X0161822Y0273684D03*
X0161979Y0273684D03*
X0172294Y0280207D03*
X0174656Y0280207D03*
X0185444Y0282034D03*
X0192451Y0274648D03*
X0192609Y0274491D03*
X0192766Y0274491D03*
X0192924Y0274491D03*
X0202451Y0274648D03*
X0202609Y0274491D03*
X0202766Y0274491D03*
X0202924Y0274491D03*
X0223396Y0275715D03*
X0224341Y0271306D03*
X0224184Y0271148D03*
X0234341Y0273806D03*
X0241822Y0277306D03*
X0241979Y0277306D03*
X0242136Y0277148D03*
X0242294Y0277148D03*
X0242451Y0277148D03*
X0241664Y0277463D03*
X0243869Y0276991D03*
X0244026Y0276991D03*
X0244184Y0276991D03*
X0245286Y0277463D03*
X0235444Y0281837D03*
X0258294Y0277148D03*
X0261444Y0281715D03*
X0268924Y0281837D03*
X0278451Y0281680D03*
X0278609Y0281680D03*
X0278766Y0281680D03*
X0287507Y0277621D03*
X0287664Y0277621D03*
X0287822Y0277463D03*
X0287979Y0277463D03*
X0288451Y0277306D03*
X0289081Y0277148D03*
X0289239Y0277148D03*
X0289396Y0277148D03*
X0289554Y0277148D03*
X0290026Y0277148D03*
X0290184Y0277148D03*
X0300341Y0273306D03*
X0307664Y0277621D03*
X0307822Y0277463D03*
X0308136Y0277306D03*
X0308609Y0277148D03*
X0308924Y0277148D03*
X0309081Y0277148D03*
X0309239Y0277148D03*
X0310499Y0277306D03*
X0321129Y0269566D03*
X0328766Y0271148D03*
X0330026Y0271148D03*
X0270341Y0273806D03*
X0315322Y0205656D03*
X0315479Y0205656D03*
X0318471Y0205656D03*
X0318629Y0205656D03*
X0317684Y0197940D03*
X0317526Y0197940D03*
X0328609Y0125774D03*
X0328766Y0125774D03*
X0328924Y0125774D03*
X0329081Y0125774D03*
X0329239Y0125774D03*
X0329396Y0125774D03*
X0328451Y0125617D03*
X0328294Y0125617D03*
X0328136Y0125617D03*
X0327979Y0125459D03*
X0327822Y0125459D03*
X0327664Y0125302D03*
X0329396Y0118215D03*
X0181349Y0270066D03*
X0155444Y0282085D03*
X0124629Y0285077D03*
X0124471Y0285077D03*
X0121479Y0285077D03*
X0121322Y0285077D03*
X0121322Y0292007D03*
X0121479Y0292007D03*
X0124471Y0292007D03*
X0124629Y0292007D03*
X0120849Y0295786D03*
D35*
X0121794Y0295786D03*
X0121951Y0295786D03*
X0122109Y0295786D03*
X0122266Y0295786D03*
X0122424Y0295786D03*
X0122581Y0295786D03*
X0122739Y0295786D03*
X0122896Y0295786D03*
X0123054Y0295786D03*
X0123211Y0295786D03*
X0123369Y0295786D03*
X0123526Y0295786D03*
X0123684Y0295786D03*
X0123841Y0295786D03*
X0123999Y0295786D03*
X0124156Y0295786D03*
X0124314Y0295786D03*
X0124471Y0295786D03*
X0124629Y0295786D03*
X0124786Y0295786D03*
X0123841Y0289487D03*
X0123684Y0289487D03*
X0123999Y0289329D03*
X0122266Y0287597D03*
X0122109Y0287440D03*
X0121794Y0287597D03*
X0120849Y0288385D03*
X0122266Y0282558D03*
X0122424Y0282558D03*
X0122581Y0282558D03*
X0122739Y0282400D03*
X0122109Y0282400D03*
X0123999Y0282243D03*
X0124156Y0282400D03*
X0124314Y0282400D03*
X0124629Y0282558D03*
X0124629Y0280353D03*
X0124471Y0280353D03*
X0124314Y0280353D03*
X0124156Y0280353D03*
X0123999Y0280353D03*
X0122739Y0280353D03*
X0122581Y0280353D03*
X0122424Y0280353D03*
X0122266Y0280353D03*
X0122109Y0280353D03*
X0121951Y0280353D03*
X0151507Y0279251D03*
X0151664Y0277203D03*
X0153711Y0279408D03*
X0161507Y0279196D03*
X0161822Y0276991D03*
X0161979Y0276833D03*
X0163081Y0276361D03*
X0164184Y0273684D03*
X0164341Y0273684D03*
X0162924Y0269904D03*
X0162766Y0269904D03*
X0164341Y0267385D03*
X0164341Y0263920D03*
X0164184Y0262188D03*
X0164341Y0262030D03*
X0164499Y0261873D03*
X0161507Y0265337D03*
X0154971Y0266810D03*
X0154341Y0264920D03*
X0154184Y0263188D03*
X0154341Y0263030D03*
X0154499Y0262873D03*
X0152294Y0266495D03*
X0152136Y0266652D03*
X0152451Y0268857D03*
X0171664Y0274853D03*
X0171822Y0274853D03*
X0171822Y0277373D03*
X0171979Y0277373D03*
X0172136Y0277373D03*
X0172294Y0277373D03*
X0172451Y0277373D03*
X0172609Y0277373D03*
X0172766Y0277373D03*
X0172924Y0277373D03*
X0173081Y0277373D03*
X0173239Y0277373D03*
X0173396Y0277373D03*
X0173396Y0278790D03*
X0173239Y0278790D03*
X0173081Y0278790D03*
X0172766Y0278948D03*
X0173554Y0278790D03*
X0173711Y0278790D03*
X0173869Y0278790D03*
X0174026Y0278948D03*
X0174184Y0278948D03*
X0175286Y0277373D03*
X0171664Y0277373D03*
X0182294Y0276365D03*
X0184656Y0275892D03*
X0184341Y0279987D03*
X0182609Y0279987D03*
X0182451Y0272270D03*
X0183081Y0271640D03*
X0194341Y0280003D03*
X0202609Y0280003D03*
X0202766Y0280003D03*
X0202924Y0280003D03*
X0203239Y0279845D03*
X0204026Y0278585D03*
X0211822Y0279865D03*
X0213396Y0275613D03*
X0222766Y0280282D03*
X0222924Y0280282D03*
X0223081Y0280282D03*
X0223239Y0280282D03*
X0223396Y0280282D03*
X0223554Y0280282D03*
X0223711Y0280282D03*
X0223869Y0280282D03*
X0224026Y0280282D03*
X0224184Y0280282D03*
X0225286Y0278865D03*
X0244184Y0280140D03*
X0244341Y0280140D03*
X0249664Y0281491D03*
X0251396Y0281491D03*
X0251554Y0281491D03*
X0251711Y0281491D03*
X0251869Y0281491D03*
X0252026Y0281491D03*
X0252184Y0281491D03*
X0252341Y0281491D03*
X0252499Y0281491D03*
X0252656Y0281491D03*
X0252814Y0281491D03*
X0252971Y0281491D03*
X0253129Y0281491D03*
X0252026Y0279759D03*
X0252026Y0278026D03*
X0251869Y0278026D03*
X0251711Y0278026D03*
X0251554Y0278026D03*
X0251396Y0278026D03*
X0252184Y0278026D03*
X0252341Y0278026D03*
X0252499Y0278026D03*
X0252656Y0278026D03*
X0252814Y0278026D03*
X0252971Y0278026D03*
X0253129Y0278026D03*
X0253286Y0278026D03*
X0251239Y0276294D03*
X0251081Y0276294D03*
X0250924Y0276294D03*
X0250766Y0276451D03*
X0250609Y0276451D03*
X0250451Y0276451D03*
X0250294Y0276609D03*
X0250136Y0276609D03*
X0249979Y0276609D03*
X0249822Y0276766D03*
X0249664Y0278026D03*
X0249822Y0274404D03*
X0250451Y0272514D03*
X0250609Y0272514D03*
X0250766Y0272514D03*
X0250924Y0272672D03*
X0251081Y0272672D03*
X0251239Y0272672D03*
X0250294Y0272357D03*
X0250136Y0272357D03*
X0249979Y0272357D03*
X0249822Y0272199D03*
X0249664Y0272199D03*
X0250609Y0271097D03*
X0251081Y0271097D03*
X0251239Y0271097D03*
X0270341Y0278530D03*
X0279396Y0278373D03*
X0279396Y0277113D03*
X0280341Y0280105D03*
X0298766Y0279920D03*
X0300341Y0280077D03*
X0308766Y0280298D03*
X0318136Y0275865D03*
X0318924Y0277440D03*
X0319081Y0277440D03*
X0319239Y0277282D03*
X0319711Y0277282D03*
X0319869Y0277440D03*
X0328136Y0278235D03*
X0328766Y0279967D03*
X0330026Y0279967D03*
X0328924Y0276503D03*
X0329239Y0274298D03*
X0330656Y0274298D03*
X0330814Y0274298D03*
X0318629Y0202979D03*
X0318629Y0199514D03*
X0318786Y0199514D03*
X0318314Y0199357D03*
X0317211Y0198885D03*
X0317054Y0198727D03*
X0316896Y0198727D03*
X0316739Y0197310D03*
X0317054Y0197152D03*
X0318314Y0196522D03*
X0318629Y0196365D03*
X0316739Y0194633D03*
X0316581Y0194790D03*
X0316424Y0194790D03*
X0316266Y0194790D03*
X0316109Y0194948D03*
X0315951Y0194948D03*
X0315794Y0194948D03*
X0315636Y0195105D03*
X0315479Y0195105D03*
X0315322Y0195105D03*
X0315322Y0192900D03*
X0315951Y0191010D03*
X0316109Y0191010D03*
X0316266Y0191010D03*
X0316424Y0191168D03*
X0316581Y0191168D03*
X0316739Y0191168D03*
X0315794Y0190853D03*
X0315636Y0190853D03*
X0315322Y0190696D03*
X0315164Y0190696D03*
X0318471Y0191798D03*
X0318629Y0191798D03*
X0315322Y0197940D03*
X0315164Y0202979D03*
X0320266Y0163192D03*
X0322786Y0163192D03*
X0322471Y0159727D03*
X0322314Y0159727D03*
X0322944Y0157837D03*
X0322786Y0156105D03*
X0321841Y0155633D03*
X0320109Y0157050D03*
X0320109Y0158625D03*
X0319951Y0153270D03*
X0320184Y0122782D03*
X0320341Y0122782D03*
X0319396Y0117270D03*
X0327507Y0121365D03*
X0329711Y0121365D03*
X0310341Y0121365D03*
X0310184Y0121365D03*
X0310026Y0121365D03*
X0309396Y0117113D03*
X0297979Y0117585D03*
X0291444Y0117585D03*
X0290341Y0118688D03*
X0281286Y0117873D03*
X0279396Y0117873D03*
X0279239Y0117873D03*
X0279081Y0117873D03*
X0278924Y0117873D03*
X0278766Y0117873D03*
X0278609Y0117873D03*
X0278451Y0117873D03*
X0278294Y0117873D03*
X0278136Y0117873D03*
X0277979Y0117873D03*
X0277822Y0117873D03*
X0277664Y0117873D03*
X0278766Y0119448D03*
X0279081Y0119290D03*
X0279239Y0119290D03*
X0279396Y0119290D03*
X0279554Y0119290D03*
X0279711Y0119290D03*
X0279869Y0119290D03*
X0280026Y0119448D03*
X0280184Y0119448D03*
X0277822Y0115353D03*
X0277664Y0115353D03*
X0260656Y0122782D03*
X0260499Y0122782D03*
X0258451Y0123412D03*
X0259239Y0119318D03*
X0259396Y0119318D03*
X0250656Y0120892D03*
X0248294Y0121365D03*
X0248609Y0124987D03*
X0250341Y0124987D03*
X0248451Y0117270D03*
X0249081Y0116640D03*
X0240656Y0120892D03*
X0238294Y0121365D03*
X0238609Y0124987D03*
X0240341Y0124987D03*
X0238451Y0117270D03*
X0239081Y0116640D03*
X0230341Y0116483D03*
X0220341Y0116798D03*
X0220184Y0116798D03*
X0218766Y0116640D03*
X0218609Y0116798D03*
X0217507Y0118215D03*
X0219081Y0118688D03*
X0219081Y0120735D03*
X0218924Y0120735D03*
X0217507Y0123255D03*
X0218766Y0124514D03*
X0218609Y0124672D03*
X0220184Y0124672D03*
X0220341Y0124672D03*
X0211759Y0123699D03*
X0210026Y0121022D03*
X0209711Y0120865D03*
X0208451Y0123699D03*
X0201129Y0122782D03*
X0200971Y0122782D03*
X0200814Y0122782D03*
X0199239Y0122782D03*
X0199081Y0122782D03*
X0198924Y0122782D03*
X0198766Y0122782D03*
X0198609Y0122782D03*
X0197822Y0120577D03*
X0201129Y0120577D03*
X0200971Y0116798D03*
X0197822Y0116798D03*
X0191286Y0119605D03*
X0191129Y0119605D03*
X0190971Y0119762D03*
X0190814Y0119762D03*
X0190499Y0119920D03*
X0188609Y0118503D03*
X0188609Y0116770D03*
X0189554Y0123227D03*
X0189711Y0123227D03*
X0189869Y0123227D03*
X0188451Y0125117D03*
X0189711Y0126219D03*
X0190499Y0126219D03*
X0191601Y0125117D03*
X0191759Y0125117D03*
X0199081Y0127822D03*
X0199239Y0127822D03*
X0199554Y0127822D03*
X0199711Y0127822D03*
X0199869Y0127822D03*
X0211601Y0116770D03*
X0177239Y0192400D03*
X0177081Y0192400D03*
X0176609Y0192400D03*
X0176294Y0193660D03*
X0176136Y0193660D03*
X0175979Y0193660D03*
X0175822Y0193503D03*
X0175664Y0193503D03*
X0176451Y0193818D03*
X0176609Y0193818D03*
X0176766Y0193818D03*
X0176924Y0193975D03*
X0177081Y0193975D03*
X0177239Y0193975D03*
X0175822Y0195707D03*
X0176451Y0197755D03*
X0176609Y0197755D03*
X0176766Y0197755D03*
X0176924Y0197597D03*
X0177081Y0197597D03*
X0177239Y0197597D03*
X0176294Y0197912D03*
X0176136Y0197912D03*
X0175979Y0197912D03*
X0175822Y0198070D03*
X0176451Y0199329D03*
X0176609Y0199329D03*
X0176766Y0199329D03*
X0176924Y0199329D03*
X0177081Y0199329D03*
X0177239Y0199329D03*
X0178499Y0199329D03*
X0178656Y0199329D03*
X0178814Y0199329D03*
X0178971Y0199329D03*
X0179129Y0199329D03*
X0179286Y0199329D03*
X0178656Y0201377D03*
X0178499Y0201377D03*
X0178971Y0201534D03*
X0179129Y0201534D03*
X0177081Y0201534D03*
X0176924Y0201534D03*
X0176766Y0201534D03*
X0176609Y0201534D03*
X0176609Y0209400D03*
X0177081Y0209400D03*
X0177239Y0209400D03*
X0178499Y0209243D03*
X0178814Y0209400D03*
X0179129Y0209558D03*
X0179129Y0210818D03*
X0179129Y0213652D03*
X0179129Y0215070D03*
X0178971Y0215070D03*
X0178814Y0215070D03*
X0178656Y0215070D03*
X0178499Y0215070D03*
X0178341Y0215070D03*
X0178184Y0215070D03*
X0178026Y0215070D03*
X0177869Y0215070D03*
X0177711Y0215070D03*
X0177554Y0215070D03*
X0177396Y0215070D03*
X0177239Y0215070D03*
X0177081Y0215070D03*
X0176924Y0215070D03*
X0176766Y0215070D03*
X0176609Y0215070D03*
X0176451Y0215070D03*
X0176294Y0215070D03*
X0176136Y0215070D03*
X0175979Y0215070D03*
X0175822Y0215070D03*
X0175664Y0213652D03*
X0175664Y0210818D03*
X0175664Y0224948D03*
X0175664Y0227782D03*
X0176924Y0228885D03*
X0177081Y0228885D03*
X0177239Y0228885D03*
X0177396Y0228885D03*
X0177554Y0228885D03*
X0177711Y0228885D03*
X0177869Y0228885D03*
X0178184Y0229042D03*
X0176766Y0229042D03*
X0179129Y0227782D03*
X0179129Y0224948D03*
X0178026Y0231877D03*
X0177869Y0231877D03*
X0177554Y0232034D03*
X0177396Y0232034D03*
X0177239Y0232034D03*
X0177081Y0231877D03*
X0176924Y0231877D03*
X0177239Y0240140D03*
X0177396Y0240140D03*
X0177554Y0240140D03*
X0177711Y0240140D03*
X0177869Y0240140D03*
X0178026Y0240140D03*
X0178184Y0240140D03*
X0178341Y0240140D03*
X0178499Y0240140D03*
X0178656Y0240140D03*
X0178814Y0240140D03*
X0178971Y0240140D03*
X0179129Y0240140D03*
X0179286Y0240140D03*
X0178341Y0241558D03*
X0176451Y0241715D03*
X0175664Y0240140D03*
X0176766Y0243448D03*
X0176609Y0243605D03*
X0178026Y0243605D03*
X0178184Y0243605D03*
X0178341Y0243605D03*
D36*
X0319951Y0161932D03*
D37*
X0320109Y0163349D03*
X0322944Y0163349D03*
X0321841Y0153270D03*
X0320109Y0153270D03*
X0309554Y0121522D03*
X0309396Y0121522D03*
X0301444Y0117585D03*
X0319869Y0119160D03*
X0280814Y0117715D03*
X0280341Y0119605D03*
X0278136Y0115510D03*
X0260026Y0119160D03*
X0259869Y0119160D03*
X0258609Y0117270D03*
X0257979Y0123255D03*
X0260971Y0122940D03*
X0251129Y0121050D03*
X0247979Y0121207D03*
X0247822Y0121207D03*
X0248924Y0125144D03*
X0249869Y0125144D03*
X0250026Y0125144D03*
X0250184Y0117113D03*
X0241129Y0121050D03*
X0237979Y0121207D03*
X0237822Y0121207D03*
X0238924Y0125144D03*
X0239869Y0125144D03*
X0240026Y0125144D03*
X0240184Y0117113D03*
X0230341Y0118688D03*
X0230184Y0118688D03*
X0229081Y0118058D03*
X0228609Y0120420D03*
X0220184Y0119003D03*
X0220026Y0119003D03*
X0219711Y0118845D03*
X0218609Y0120735D03*
X0220184Y0122467D03*
X0211444Y0127479D03*
X0211286Y0127479D03*
X0211129Y0127479D03*
X0209081Y0127479D03*
X0209711Y0123385D03*
X0201444Y0122782D03*
X0201286Y0122782D03*
X0201286Y0120577D03*
X0198609Y0118688D03*
X0197664Y0116955D03*
X0201286Y0116955D03*
X0197507Y0124199D03*
X0190184Y0126062D03*
X0190026Y0126062D03*
X0189081Y0123070D03*
X0188924Y0123070D03*
X0188924Y0120550D03*
X0189081Y0120550D03*
X0189239Y0120392D03*
X0189396Y0120392D03*
X0189711Y0120235D03*
X0188451Y0118503D03*
X0188451Y0116770D03*
X0191759Y0117558D03*
X0175349Y0190825D03*
X0176294Y0195707D03*
X0175349Y0199959D03*
X0175822Y0210818D03*
X0176136Y0210975D03*
X0176294Y0211133D03*
X0176451Y0211290D03*
X0176609Y0211448D03*
X0177396Y0212235D03*
X0176609Y0213022D03*
X0176294Y0213180D03*
X0176136Y0213337D03*
X0175979Y0213495D03*
X0178341Y0213022D03*
X0178499Y0213180D03*
X0178656Y0213337D03*
X0178814Y0213495D03*
X0178341Y0211290D03*
X0178656Y0211133D03*
X0178814Y0210975D03*
X0178971Y0224948D03*
X0178814Y0225105D03*
X0178656Y0225262D03*
X0178341Y0225420D03*
X0177396Y0226365D03*
X0176609Y0227152D03*
X0176294Y0227310D03*
X0176136Y0227467D03*
X0175979Y0227625D03*
X0176609Y0225577D03*
X0176451Y0225420D03*
X0176294Y0225262D03*
X0176136Y0225105D03*
X0178341Y0227152D03*
X0178499Y0227310D03*
X0178656Y0227467D03*
X0178814Y0227625D03*
X0178499Y0229357D03*
X0176451Y0231562D03*
X0175979Y0239983D03*
X0177869Y0243448D03*
X0163554Y0262345D03*
X0163081Y0265180D03*
X0162924Y0267542D03*
X0162766Y0267542D03*
X0164026Y0267542D03*
X0162609Y0269904D03*
X0162451Y0269904D03*
X0163869Y0273684D03*
X0164026Y0273684D03*
X0161507Y0277148D03*
X0165444Y0279196D03*
X0172136Y0275010D03*
X0174814Y0277215D03*
X0174341Y0279105D03*
X0181822Y0276207D03*
X0181979Y0276207D03*
X0185129Y0276050D03*
X0184184Y0272113D03*
X0184026Y0280144D03*
X0183869Y0280144D03*
X0182924Y0280144D03*
X0203869Y0278743D03*
X0213711Y0277503D03*
X0213869Y0277503D03*
X0215286Y0279865D03*
X0225444Y0278865D03*
X0233711Y0279003D03*
X0249979Y0278184D03*
X0251869Y0279759D03*
X0250136Y0281333D03*
X0249979Y0281333D03*
X0250294Y0274404D03*
X0249349Y0269522D03*
X0280499Y0278373D03*
X0317507Y0278385D03*
X0318609Y0279959D03*
X0320341Y0279959D03*
X0320971Y0275865D03*
X0317979Y0275865D03*
X0318136Y0269093D03*
X0329239Y0276660D03*
X0329711Y0276503D03*
X0330026Y0276345D03*
X0330971Y0278235D03*
X0329711Y0279810D03*
X0329239Y0279810D03*
X0327979Y0278235D03*
X0318314Y0202822D03*
X0318156Y0202664D03*
X0317999Y0202507D03*
X0317841Y0202349D03*
X0317684Y0202192D03*
X0316266Y0202192D03*
X0316109Y0202349D03*
X0315951Y0202507D03*
X0315794Y0202664D03*
X0315636Y0202664D03*
X0315479Y0202822D03*
X0315636Y0197940D03*
X0315794Y0192900D03*
X0317999Y0191798D03*
X0318156Y0191798D03*
X0155129Y0266810D03*
X0154341Y0268857D03*
X0152609Y0268857D03*
X0151822Y0266810D03*
X0153554Y0263345D03*
X0124944Y0288385D03*
X0122424Y0287755D03*
D38*
X0123841Y0287440D03*
X0124944Y0280353D03*
X0124944Y0295786D03*
X0152451Y0280668D03*
X0152766Y0280668D03*
X0153554Y0279251D03*
X0151664Y0279251D03*
X0152136Y0276888D03*
X0152294Y0276731D03*
X0155444Y0279093D03*
X0161822Y0279038D03*
X0163239Y0279038D03*
X0163396Y0279038D03*
X0165129Y0279038D03*
X0162766Y0276361D03*
X0162609Y0276361D03*
X0162294Y0276518D03*
X0162136Y0276676D03*
X0164499Y0273684D03*
X0164656Y0273684D03*
X0163554Y0269747D03*
X0163396Y0269747D03*
X0165129Y0268959D03*
X0164499Y0267227D03*
X0165129Y0265495D03*
X0164499Y0263920D03*
X0163396Y0265495D03*
X0162136Y0265495D03*
X0161979Y0265495D03*
X0161822Y0265495D03*
X0164499Y0259983D03*
X0154499Y0260983D03*
X0154499Y0264920D03*
X0153239Y0266337D03*
X0154499Y0268857D03*
X0154341Y0270274D03*
X0155286Y0270274D03*
X0152609Y0270274D03*
X0171349Y0280365D03*
X0172451Y0281310D03*
X0175444Y0277373D03*
X0175444Y0274696D03*
X0181664Y0273845D03*
X0182451Y0273845D03*
X0184184Y0275735D03*
X0184341Y0275735D03*
X0182766Y0276522D03*
X0185444Y0278097D03*
X0191822Y0278428D03*
X0191979Y0278428D03*
X0192609Y0278428D03*
X0194971Y0278428D03*
X0195129Y0278428D03*
X0201822Y0278428D03*
X0202451Y0280003D03*
X0204341Y0278428D03*
X0212136Y0279707D03*
X0221822Y0278707D03*
X0221979Y0278707D03*
X0222451Y0280282D03*
X0222609Y0280282D03*
X0224341Y0280282D03*
X0224971Y0278707D03*
X0224499Y0273983D03*
X0232451Y0280420D03*
X0232766Y0280420D03*
X0234499Y0276483D03*
X0242451Y0280140D03*
X0242609Y0280140D03*
X0243869Y0280140D03*
X0244499Y0280140D03*
X0252341Y0279759D03*
X0253444Y0281491D03*
X0253444Y0278026D03*
X0251554Y0267318D03*
X0252341Y0265270D03*
X0270499Y0276483D03*
X0270184Y0278530D03*
X0269554Y0278530D03*
X0270026Y0280420D03*
X0270184Y0280420D03*
X0270341Y0280420D03*
X0270499Y0280420D03*
X0279554Y0278530D03*
X0280499Y0280105D03*
X0287507Y0280455D03*
X0288766Y0280298D03*
X0288924Y0280298D03*
X0289081Y0280298D03*
X0289239Y0280298D03*
X0298451Y0280077D03*
X0300499Y0280077D03*
X0300026Y0278188D03*
X0300184Y0278030D03*
X0300499Y0275983D03*
X0308451Y0280298D03*
X0317822Y0278227D03*
X0318451Y0277755D03*
X0318609Y0277597D03*
X0320184Y0277597D03*
X0321129Y0278227D03*
X0320499Y0279959D03*
X0320499Y0275865D03*
X0318294Y0275865D03*
X0327822Y0275873D03*
X0328294Y0276188D03*
X0328451Y0276345D03*
X0328609Y0276345D03*
X0330499Y0276188D03*
X0331444Y0276188D03*
X0330499Y0278235D03*
X0330341Y0280125D03*
X0331444Y0280282D03*
X0328451Y0280125D03*
X0328294Y0278235D03*
X0315007Y0202979D03*
X0318944Y0200774D03*
X0315007Y0197940D03*
X0315007Y0192900D03*
X0315007Y0190696D03*
X0320581Y0163034D03*
X0320109Y0161459D03*
X0320109Y0160042D03*
X0321526Y0159885D03*
X0321684Y0159885D03*
X0321841Y0159885D03*
X0320424Y0158625D03*
X0320266Y0158625D03*
X0320266Y0157050D03*
X0320109Y0155475D03*
X0321369Y0155633D03*
X0321526Y0155633D03*
X0322156Y0155948D03*
X0322471Y0156105D03*
X0322786Y0157837D03*
X0322944Y0161459D03*
X0322471Y0163034D03*
X0321999Y0153270D03*
X0320499Y0122782D03*
X0319869Y0122782D03*
X0318609Y0122782D03*
X0318451Y0122782D03*
X0317664Y0121365D03*
X0319239Y0121365D03*
X0327664Y0121207D03*
X0328451Y0122625D03*
X0328609Y0122625D03*
X0328766Y0122625D03*
X0329396Y0121207D03*
X0331444Y0121050D03*
X0330499Y0116483D03*
X0301129Y0117428D03*
X0300971Y0117428D03*
X0300499Y0119003D03*
X0298609Y0117428D03*
X0298451Y0117428D03*
X0287507Y0117585D03*
X0281444Y0117873D03*
X0281444Y0115196D03*
X0277349Y0120865D03*
X0278451Y0121810D03*
X0261444Y0121050D03*
X0260184Y0122625D03*
X0258924Y0123570D03*
X0258766Y0123570D03*
X0258766Y0119475D03*
X0258609Y0119475D03*
X0251444Y0123097D03*
X0250341Y0120735D03*
X0250184Y0120735D03*
X0248766Y0121522D03*
X0248451Y0118845D03*
X0247664Y0118845D03*
X0250499Y0117270D03*
X0240499Y0117270D03*
X0238451Y0118845D03*
X0237664Y0118845D03*
X0238766Y0121522D03*
X0240184Y0120735D03*
X0240341Y0120735D03*
X0241444Y0123097D03*
X0230499Y0116483D03*
X0228294Y0118058D03*
X0220499Y0116798D03*
X0218451Y0116798D03*
X0217664Y0118215D03*
X0218766Y0118688D03*
X0219239Y0120735D03*
X0219396Y0120735D03*
X0218609Y0122940D03*
X0218451Y0122940D03*
X0217664Y0123255D03*
X0218451Y0124672D03*
X0220499Y0124672D03*
X0211601Y0123699D03*
X0209869Y0123699D03*
X0209239Y0123699D03*
X0208609Y0121337D03*
X0211601Y0121337D03*
X0208609Y0117873D03*
X0209239Y0116613D03*
X0210026Y0116613D03*
X0210971Y0116613D03*
X0211129Y0116613D03*
X0200656Y0116640D03*
X0200499Y0118688D03*
X0200814Y0120735D03*
X0198136Y0120735D03*
X0197822Y0124357D03*
X0199869Y0124357D03*
X0200026Y0124357D03*
X0201444Y0124514D03*
X0198294Y0116640D03*
X0189081Y0116770D03*
X0189081Y0118503D03*
X0190341Y0123385D03*
X0190499Y0123385D03*
X0191286Y0124959D03*
X0190814Y0126377D03*
X0191759Y0126534D03*
X0189396Y0126377D03*
X0188451Y0126534D03*
X0188924Y0124959D03*
X0179444Y0199329D03*
X0179444Y0201534D03*
X0175507Y0213652D03*
X0179444Y0215070D03*
X0175507Y0227782D03*
X0175507Y0240140D03*
X0176609Y0241715D03*
X0178026Y0241558D03*
X0179444Y0240140D03*
X0184499Y0272270D03*
D39*
X0191664Y0275199D03*
X0191822Y0275042D03*
X0195129Y0275199D03*
X0195286Y0275199D03*
X0195444Y0275357D03*
X0201664Y0275199D03*
X0201822Y0275042D03*
X0205129Y0275199D03*
X0205286Y0275199D03*
X0205444Y0275357D03*
X0213711Y0272227D03*
X0223554Y0271385D03*
X0241349Y0277857D03*
X0243239Y0277227D03*
X0260499Y0277385D03*
X0260656Y0277385D03*
X0279711Y0273727D03*
X0307349Y0278014D03*
X0310184Y0277385D03*
X0321444Y0269487D03*
X0320109Y0167050D03*
X0322786Y0150357D03*
X0319239Y0125696D03*
X0317349Y0125066D03*
X0309081Y0125538D03*
X0299396Y0121759D03*
X0289081Y0121601D03*
X0327349Y0124908D03*
X0330971Y0125223D03*
X0331129Y0125066D03*
X0210814Y0130865D03*
X0198924Y0131365D03*
X0189869Y0130865D03*
X0176136Y0222192D03*
X0163711Y0257227D03*
X0161507Y0273605D03*
X0152294Y0273503D03*
X0152136Y0273503D03*
D40*
X0154341Y0279723D03*
X0153869Y0282873D03*
X0153711Y0282873D03*
X0153554Y0282873D03*
X0153396Y0282873D03*
X0153239Y0282873D03*
X0152766Y0282873D03*
X0152609Y0282873D03*
X0152451Y0282873D03*
X0152294Y0282873D03*
X0152136Y0282873D03*
X0163554Y0273684D03*
X0163711Y0273684D03*
X0164814Y0271479D03*
X0165444Y0268802D03*
X0162294Y0269904D03*
X0151664Y0266810D03*
X0172609Y0275168D03*
X0174341Y0277058D03*
X0174499Y0277058D03*
X0171507Y0280365D03*
X0182766Y0282822D03*
X0182924Y0282822D03*
X0183081Y0282822D03*
X0183239Y0282822D03*
X0183396Y0282822D03*
X0183554Y0282822D03*
X0183711Y0282822D03*
X0183869Y0282822D03*
X0184026Y0282822D03*
X0185286Y0276050D03*
X0183869Y0269278D03*
X0183711Y0269278D03*
X0183554Y0269278D03*
X0183396Y0269278D03*
X0183239Y0269278D03*
X0183081Y0269278D03*
X0182924Y0269278D03*
X0192924Y0278900D03*
X0193711Y0278900D03*
X0194026Y0282522D03*
X0194184Y0282522D03*
X0194341Y0282522D03*
X0194499Y0282522D03*
X0203711Y0278900D03*
X0204656Y0282522D03*
X0204814Y0282522D03*
X0204971Y0282522D03*
X0205129Y0282522D03*
X0205286Y0282522D03*
X0214341Y0277345D03*
X0223554Y0276503D03*
X0224184Y0276503D03*
X0224184Y0282644D03*
X0224341Y0282644D03*
X0224026Y0282644D03*
X0223869Y0282644D03*
X0223711Y0282644D03*
X0223554Y0282644D03*
X0223396Y0282644D03*
X0223239Y0282644D03*
X0223081Y0282644D03*
X0222924Y0282644D03*
X0222766Y0282644D03*
X0222609Y0282644D03*
X0232136Y0282625D03*
X0232294Y0282625D03*
X0232451Y0282625D03*
X0232609Y0282625D03*
X0232766Y0282625D03*
X0233239Y0282625D03*
X0233396Y0282625D03*
X0233554Y0282625D03*
X0233711Y0282625D03*
X0233869Y0282625D03*
X0243869Y0282503D03*
X0244026Y0282503D03*
X0244184Y0282503D03*
X0244341Y0282503D03*
X0244499Y0282503D03*
X0244656Y0282503D03*
X0250451Y0281176D03*
X0251711Y0279759D03*
X0250451Y0278341D03*
X0250766Y0274404D03*
X0257507Y0282503D03*
X0257664Y0282503D03*
X0257822Y0282503D03*
X0257979Y0282503D03*
X0258136Y0282503D03*
X0258294Y0282503D03*
X0267664Y0282625D03*
X0267822Y0282625D03*
X0267979Y0282625D03*
X0268136Y0282625D03*
X0269711Y0282625D03*
X0269869Y0282625D03*
X0270026Y0282625D03*
X0270499Y0282625D03*
X0270656Y0282625D03*
X0270814Y0282625D03*
X0279869Y0282467D03*
X0280026Y0282467D03*
X0280184Y0282467D03*
X0280341Y0282467D03*
X0280499Y0282467D03*
X0287664Y0282660D03*
X0287822Y0282660D03*
X0287979Y0282660D03*
X0288136Y0282660D03*
X0288294Y0282660D03*
X0288451Y0282660D03*
X0288609Y0282660D03*
X0288766Y0282660D03*
X0288924Y0282660D03*
X0289081Y0282660D03*
X0289239Y0282660D03*
X0289396Y0282660D03*
X0289554Y0282660D03*
X0289711Y0282660D03*
X0289869Y0282660D03*
X0290026Y0282660D03*
X0290184Y0282660D03*
X0290341Y0282660D03*
X0290499Y0282660D03*
X0290656Y0282660D03*
X0290814Y0282660D03*
X0290971Y0282660D03*
X0291129Y0282660D03*
X0298451Y0282440D03*
X0298609Y0282440D03*
X0298766Y0282440D03*
X0299869Y0282440D03*
X0300026Y0282440D03*
X0300184Y0282440D03*
X0300341Y0282440D03*
X0300499Y0282440D03*
X0300656Y0282440D03*
X0308609Y0282660D03*
X0308766Y0282660D03*
X0308924Y0282660D03*
X0309081Y0282660D03*
X0310656Y0282660D03*
X0311444Y0282660D03*
X0318766Y0282794D03*
X0318924Y0282794D03*
X0319081Y0282794D03*
X0319239Y0282794D03*
X0319396Y0282794D03*
X0319554Y0282794D03*
X0319711Y0282794D03*
X0319869Y0282794D03*
X0320026Y0282794D03*
X0320184Y0279959D03*
X0318766Y0279959D03*
X0321444Y0278385D03*
X0321129Y0275865D03*
X0321129Y0273030D03*
X0321286Y0273030D03*
X0320971Y0273030D03*
X0320814Y0273030D03*
X0317664Y0268778D03*
X0331129Y0278235D03*
X0297467Y0204270D03*
X0315951Y0197940D03*
X0316266Y0192900D03*
X0317526Y0191798D03*
X0317684Y0191798D03*
X0294829Y0174822D03*
X0294829Y0172341D03*
X0289436Y0172341D03*
X0289436Y0174822D03*
X0297467Y0156003D03*
X0320266Y0153270D03*
X0321526Y0153270D03*
X0321684Y0153270D03*
X0330341Y0121680D03*
X0330184Y0119003D03*
X0329554Y0119003D03*
X0320184Y0119003D03*
X0319554Y0119003D03*
X0310184Y0119003D03*
X0310026Y0119003D03*
X0309554Y0119003D03*
X0309081Y0121680D03*
X0308924Y0121680D03*
X0298924Y0114278D03*
X0298766Y0114278D03*
X0298609Y0114278D03*
X0298451Y0114278D03*
X0288924Y0114436D03*
X0288766Y0114436D03*
X0288609Y0114436D03*
X0288451Y0114436D03*
X0280499Y0117558D03*
X0280341Y0117558D03*
X0278609Y0115668D03*
X0277507Y0120865D03*
X0261286Y0125774D03*
X0261129Y0125774D03*
X0260971Y0125774D03*
X0260814Y0125774D03*
X0260656Y0125774D03*
X0260499Y0125774D03*
X0260341Y0125774D03*
X0260184Y0125774D03*
X0260026Y0125774D03*
X0259869Y0125774D03*
X0259711Y0125774D03*
X0259554Y0125774D03*
X0259396Y0125774D03*
X0259239Y0125774D03*
X0259081Y0125774D03*
X0258924Y0125774D03*
X0258766Y0125774D03*
X0258609Y0125774D03*
X0258451Y0125774D03*
X0258294Y0125774D03*
X0258136Y0125774D03*
X0257979Y0125774D03*
X0257822Y0125774D03*
X0257664Y0125774D03*
X0257664Y0123097D03*
X0257507Y0123097D03*
X0260499Y0119003D03*
X0260656Y0119003D03*
X0258294Y0117270D03*
X0258136Y0114436D03*
X0257979Y0114436D03*
X0257664Y0114436D03*
X0249869Y0114278D03*
X0249711Y0114278D03*
X0249554Y0114278D03*
X0249396Y0114278D03*
X0249239Y0114278D03*
X0249081Y0114278D03*
X0248924Y0114278D03*
X0251286Y0121050D03*
X0250026Y0127822D03*
X0249869Y0127822D03*
X0249711Y0127822D03*
X0249554Y0127822D03*
X0249396Y0127822D03*
X0249239Y0127822D03*
X0249081Y0127822D03*
X0248924Y0127822D03*
X0248766Y0127822D03*
X0240026Y0127822D03*
X0239869Y0127822D03*
X0239711Y0127822D03*
X0239554Y0127822D03*
X0239396Y0127822D03*
X0239239Y0127822D03*
X0239081Y0127822D03*
X0238924Y0127822D03*
X0238766Y0127822D03*
X0241286Y0121050D03*
X0239869Y0114278D03*
X0239711Y0114278D03*
X0239554Y0114278D03*
X0239396Y0114278D03*
X0239239Y0114278D03*
X0239081Y0114278D03*
X0238924Y0114278D03*
X0231129Y0114436D03*
X0230971Y0114436D03*
X0230656Y0114436D03*
X0229711Y0114436D03*
X0229554Y0114436D03*
X0229396Y0114436D03*
X0229239Y0114436D03*
X0229081Y0114436D03*
X0228924Y0114436D03*
X0230656Y0118688D03*
X0228294Y0120420D03*
X0228136Y0123255D03*
X0227979Y0123255D03*
X0227664Y0123255D03*
X0220814Y0122310D03*
X0220656Y0122310D03*
X0218294Y0120735D03*
X0220656Y0119160D03*
X0220814Y0119160D03*
X0220814Y0114436D03*
X0220656Y0114436D03*
X0220499Y0114436D03*
X0220341Y0114436D03*
X0220184Y0114436D03*
X0207664Y0114408D03*
X0206877Y0114408D03*
X0201286Y0114436D03*
X0201129Y0114436D03*
X0200971Y0114436D03*
X0200814Y0114436D03*
X0200656Y0114436D03*
X0200499Y0114436D03*
X0200341Y0114436D03*
X0200184Y0114436D03*
X0200026Y0114436D03*
X0199869Y0114436D03*
X0199711Y0114436D03*
X0199554Y0114436D03*
X0199396Y0114436D03*
X0199239Y0114436D03*
X0199081Y0114436D03*
X0198924Y0114436D03*
X0198766Y0114436D03*
X0198609Y0114436D03*
X0198451Y0114436D03*
X0198294Y0114436D03*
X0198136Y0114436D03*
X0197979Y0114436D03*
X0197822Y0114436D03*
X0197664Y0114436D03*
X0197507Y0114436D03*
X0198766Y0118688D03*
X0197507Y0120420D03*
X0201444Y0120420D03*
X0191601Y0121810D03*
X0191444Y0121810D03*
X0189081Y0114566D03*
X0188924Y0114566D03*
X0188766Y0114566D03*
X0188609Y0114566D03*
X0187664Y0114566D03*
X0186877Y0114566D03*
X0187349Y0130471D03*
X0191601Y0130314D03*
X0197507Y0132388D03*
X0197664Y0132388D03*
X0197822Y0132388D03*
X0197979Y0132388D03*
X0198136Y0132388D03*
X0198294Y0132388D03*
X0207192Y0131101D03*
X0211759Y0127479D03*
X0218294Y0127034D03*
X0218451Y0127034D03*
X0218609Y0127034D03*
X0218766Y0127034D03*
X0219869Y0127034D03*
X0220026Y0127034D03*
X0220184Y0127034D03*
X0220341Y0127034D03*
X0220499Y0127034D03*
X0220656Y0127034D03*
X0220814Y0127034D03*
X0176766Y0195707D03*
X0177239Y0212235D03*
X0177554Y0212235D03*
X0177554Y0226365D03*
X0177239Y0226365D03*
X0175507Y0230459D03*
X0179444Y0230459D03*
X0177554Y0242975D03*
X0177239Y0242975D03*
X0176924Y0243133D03*
X0175507Y0242503D03*
D41*
X0164341Y0259904D03*
X0154341Y0260904D03*
X0154026Y0266573D03*
X0153869Y0266573D03*
X0155444Y0273660D03*
X0155286Y0273818D03*
X0155129Y0273818D03*
X0152766Y0279014D03*
X0152609Y0279014D03*
X0152451Y0279014D03*
X0162294Y0280534D03*
X0164184Y0278802D03*
X0165129Y0273605D03*
X0165286Y0273605D03*
X0163396Y0271400D03*
X0171349Y0274774D03*
X0175601Y0280444D03*
X0183396Y0276759D03*
X0183554Y0275499D03*
X0183711Y0275499D03*
X0192294Y0280081D03*
X0212609Y0279471D03*
X0212766Y0279471D03*
X0212924Y0279471D03*
X0214341Y0274904D03*
X0223396Y0278471D03*
X0223554Y0278471D03*
X0224341Y0273904D03*
X0234341Y0276404D03*
X0249349Y0272436D03*
X0251396Y0267239D03*
X0270341Y0276404D03*
X0270656Y0280341D03*
X0280341Y0276404D03*
X0300341Y0275904D03*
X0317979Y0273739D03*
X0327664Y0280361D03*
X0327822Y0280361D03*
X0327979Y0280361D03*
X0330814Y0280361D03*
X0330971Y0280361D03*
X0331129Y0280361D03*
X0331129Y0276109D03*
X0331286Y0276109D03*
X0330971Y0276109D03*
X0330814Y0276109D03*
X0314849Y0200853D03*
X0314849Y0195026D03*
X0314849Y0190774D03*
X0320266Y0160121D03*
X0320424Y0160121D03*
X0320581Y0160121D03*
X0322156Y0157759D03*
X0321054Y0156971D03*
X0320896Y0156971D03*
X0322786Y0154451D03*
X0320656Y0121129D03*
X0320499Y0121129D03*
X0320341Y0121129D03*
X0320184Y0121129D03*
X0320026Y0121129D03*
X0319869Y0121129D03*
X0328609Y0120971D03*
X0330341Y0116404D03*
X0310341Y0116404D03*
X0308136Y0120971D03*
X0307979Y0120971D03*
X0307822Y0120971D03*
X0307664Y0120971D03*
X0300656Y0118924D03*
X0290971Y0117349D03*
X0290814Y0117349D03*
X0290656Y0117349D03*
X0289554Y0117349D03*
X0281601Y0120944D03*
X0277349Y0115274D03*
X0259869Y0117349D03*
X0259711Y0117349D03*
X0259554Y0122388D03*
X0259554Y0123806D03*
X0259396Y0123806D03*
X0249396Y0121759D03*
X0249554Y0120499D03*
X0249711Y0120499D03*
X0239711Y0120499D03*
X0239554Y0120499D03*
X0239396Y0121759D03*
X0229869Y0120341D03*
X0229711Y0120341D03*
X0218294Y0116877D03*
X0211286Y0118109D03*
X0211129Y0118109D03*
X0210971Y0118109D03*
X0210184Y0118109D03*
X0210026Y0118109D03*
X0209869Y0118109D03*
X0209711Y0118109D03*
X0209554Y0118109D03*
X0209396Y0118109D03*
X0209239Y0118109D03*
X0209081Y0118109D03*
X0211129Y0121101D03*
X0211129Y0123936D03*
X0210971Y0123936D03*
X0210814Y0123936D03*
X0210656Y0123936D03*
X0210499Y0123936D03*
X0210341Y0123936D03*
X0208924Y0126928D03*
X0208766Y0126928D03*
X0208609Y0126928D03*
X0208451Y0126928D03*
X0201286Y0124593D03*
X0201129Y0124593D03*
X0200971Y0124593D03*
X0199081Y0124593D03*
X0198924Y0124593D03*
X0198766Y0124593D03*
X0198609Y0124593D03*
X0199081Y0120971D03*
X0199239Y0120971D03*
X0199396Y0120971D03*
X0199554Y0120971D03*
X0199711Y0120971D03*
X0199869Y0120971D03*
X0191601Y0123621D03*
X0191444Y0123621D03*
X0191286Y0123621D03*
X0190814Y0124723D03*
X0189396Y0124723D03*
X0188924Y0126613D03*
X0188766Y0126613D03*
X0191286Y0126613D03*
X0191444Y0126613D03*
X0190026Y0121731D03*
X0189869Y0118581D03*
X0189711Y0118581D03*
X0190184Y0117636D03*
X0190341Y0117636D03*
X0190499Y0117636D03*
X0189869Y0116692D03*
X0189711Y0116692D03*
X0218294Y0124751D03*
X0175349Y0193739D03*
X0175349Y0214991D03*
X0125101Y0288463D03*
D42*
X0121007Y0288463D03*
X0151979Y0282794D03*
X0154026Y0282794D03*
X0154184Y0282794D03*
X0154341Y0282794D03*
X0154184Y0279802D03*
X0153396Y0276810D03*
X0153239Y0276810D03*
X0155286Y0266888D03*
X0152924Y0265786D03*
X0161979Y0269825D03*
X0162136Y0269825D03*
X0164971Y0271400D03*
X0163396Y0273605D03*
X0172766Y0275247D03*
X0174184Y0276979D03*
X0181507Y0276129D03*
X0185444Y0276129D03*
X0184341Y0282743D03*
X0184184Y0282743D03*
X0182609Y0282743D03*
X0182451Y0282743D03*
X0192136Y0282444D03*
X0192294Y0282444D03*
X0192451Y0282444D03*
X0192609Y0282444D03*
X0192766Y0282444D03*
X0192924Y0282444D03*
X0193711Y0282444D03*
X0193869Y0282444D03*
X0194656Y0282444D03*
X0194814Y0282444D03*
X0202451Y0282444D03*
X0202609Y0282444D03*
X0202766Y0282444D03*
X0202924Y0282444D03*
X0203081Y0282444D03*
X0203239Y0282444D03*
X0205444Y0282444D03*
X0203554Y0278979D03*
X0211507Y0282463D03*
X0211664Y0282463D03*
X0211822Y0282463D03*
X0211979Y0282463D03*
X0212136Y0282463D03*
X0212294Y0282463D03*
X0212451Y0282463D03*
X0212609Y0282463D03*
X0212766Y0282463D03*
X0212924Y0282463D03*
X0213081Y0282463D03*
X0213239Y0282463D03*
X0213396Y0282463D03*
X0213554Y0282463D03*
X0213711Y0282463D03*
X0213869Y0282463D03*
X0214026Y0282463D03*
X0214184Y0282463D03*
X0214341Y0282463D03*
X0214499Y0282463D03*
X0214656Y0282463D03*
X0214814Y0282463D03*
X0214971Y0282463D03*
X0215129Y0282463D03*
X0215286Y0282463D03*
X0215444Y0282463D03*
X0222136Y0282566D03*
X0222294Y0282566D03*
X0222451Y0282566D03*
X0224499Y0282566D03*
X0224656Y0282566D03*
X0224814Y0282566D03*
X0231979Y0282546D03*
X0234026Y0282546D03*
X0234184Y0282546D03*
X0234341Y0282546D03*
X0242136Y0282424D03*
X0242294Y0282424D03*
X0242451Y0282424D03*
X0242609Y0282424D03*
X0242766Y0282424D03*
X0242924Y0282424D03*
X0243554Y0282424D03*
X0243711Y0282424D03*
X0244814Y0282424D03*
X0250609Y0281097D03*
X0250766Y0281097D03*
X0251554Y0279837D03*
X0250609Y0278420D03*
X0251711Y0275585D03*
X0251869Y0275585D03*
X0252026Y0275585D03*
X0251081Y0274483D03*
X0250924Y0274483D03*
X0251869Y0273381D03*
X0252026Y0273381D03*
X0258451Y0282424D03*
X0258609Y0282424D03*
X0267507Y0282546D03*
X0268294Y0282546D03*
X0269554Y0282546D03*
X0270971Y0282546D03*
X0277507Y0282388D03*
X0277664Y0282388D03*
X0277822Y0282388D03*
X0277979Y0282388D03*
X0278136Y0282388D03*
X0279554Y0282388D03*
X0279711Y0282388D03*
X0280656Y0282388D03*
X0280814Y0282388D03*
X0287507Y0282581D03*
X0291286Y0282581D03*
X0291444Y0282581D03*
X0297979Y0282361D03*
X0298136Y0282361D03*
X0298294Y0282361D03*
X0298924Y0282361D03*
X0299081Y0282361D03*
X0299711Y0282361D03*
X0300814Y0282361D03*
X0300971Y0282361D03*
X0299711Y0278739D03*
X0308136Y0282581D03*
X0308294Y0282581D03*
X0308451Y0282581D03*
X0309239Y0282581D03*
X0309396Y0282581D03*
X0309554Y0282581D03*
X0318451Y0282715D03*
X0318609Y0282715D03*
X0320184Y0282715D03*
X0320341Y0282715D03*
X0320499Y0282715D03*
X0320026Y0279881D03*
X0318924Y0279881D03*
X0317664Y0275786D03*
X0320656Y0273109D03*
X0327664Y0278156D03*
X0327664Y0282408D03*
X0327507Y0282408D03*
X0327822Y0282408D03*
X0327979Y0282408D03*
X0328136Y0282408D03*
X0328294Y0282408D03*
X0328451Y0282408D03*
X0328609Y0282408D03*
X0328766Y0282408D03*
X0328924Y0282408D03*
X0329081Y0282408D03*
X0329239Y0282408D03*
X0329396Y0282408D03*
X0329554Y0282408D03*
X0329711Y0282408D03*
X0329869Y0282408D03*
X0330026Y0282408D03*
X0330184Y0282408D03*
X0330341Y0282408D03*
X0330499Y0282408D03*
X0330656Y0282408D03*
X0330814Y0282408D03*
X0330971Y0282408D03*
X0331129Y0282408D03*
X0331286Y0282408D03*
X0317054Y0201325D03*
X0316896Y0201325D03*
X0316109Y0198018D03*
X0317211Y0194081D03*
X0317369Y0194081D03*
X0317526Y0194081D03*
X0316581Y0192979D03*
X0316424Y0192979D03*
X0317369Y0191877D03*
X0320424Y0153192D03*
X0330184Y0121759D03*
X0330341Y0118924D03*
X0330184Y0114357D03*
X0320341Y0114514D03*
X0320184Y0114514D03*
X0320026Y0114514D03*
X0320341Y0118924D03*
X0319396Y0118924D03*
X0310341Y0118924D03*
X0308766Y0121759D03*
X0310026Y0114357D03*
X0310184Y0114357D03*
X0299081Y0114357D03*
X0298294Y0114357D03*
X0297507Y0117979D03*
X0289081Y0114514D03*
X0288294Y0114514D03*
X0280184Y0117479D03*
X0278766Y0115747D03*
X0261444Y0123018D03*
X0261444Y0125696D03*
X0257507Y0125696D03*
X0250341Y0127743D03*
X0250184Y0127743D03*
X0248609Y0127743D03*
X0248451Y0127743D03*
X0247507Y0121129D03*
X0251444Y0121129D03*
X0250341Y0114357D03*
X0250184Y0114357D03*
X0250026Y0114357D03*
X0248766Y0114357D03*
X0248609Y0114357D03*
X0248451Y0114357D03*
X0240341Y0114357D03*
X0240184Y0114357D03*
X0240026Y0114357D03*
X0238766Y0114357D03*
X0238609Y0114357D03*
X0238451Y0114357D03*
X0237507Y0121129D03*
X0241444Y0121129D03*
X0240341Y0127743D03*
X0240184Y0127743D03*
X0238609Y0127743D03*
X0238451Y0127743D03*
X0228451Y0123176D03*
X0228294Y0123176D03*
X0227507Y0123176D03*
X0227979Y0120341D03*
X0228136Y0120341D03*
X0230814Y0118766D03*
X0230499Y0114514D03*
X0228766Y0114514D03*
X0228609Y0114514D03*
X0228451Y0114514D03*
X0228294Y0114514D03*
X0228136Y0114514D03*
X0227979Y0114514D03*
X0227822Y0114514D03*
X0220971Y0114514D03*
X0220026Y0114514D03*
X0218609Y0114514D03*
X0218451Y0114514D03*
X0218294Y0114514D03*
X0218136Y0114514D03*
X0217979Y0114514D03*
X0211759Y0114487D03*
X0211601Y0114487D03*
X0211444Y0114487D03*
X0211286Y0114487D03*
X0211129Y0114487D03*
X0210971Y0114487D03*
X0210814Y0114487D03*
X0210656Y0114487D03*
X0210499Y0114487D03*
X0210341Y0114487D03*
X0210184Y0114487D03*
X0210026Y0114487D03*
X0209869Y0114487D03*
X0209711Y0114487D03*
X0209554Y0114487D03*
X0209396Y0114487D03*
X0209239Y0114487D03*
X0209081Y0114487D03*
X0208924Y0114487D03*
X0208766Y0114487D03*
X0208609Y0114487D03*
X0208451Y0114487D03*
X0201444Y0114514D03*
X0201444Y0117034D03*
X0200026Y0118766D03*
X0198924Y0118766D03*
X0189554Y0114644D03*
X0189396Y0114644D03*
X0189239Y0114644D03*
X0188451Y0114644D03*
X0188451Y0120629D03*
X0188451Y0122991D03*
X0191444Y0130392D03*
X0207349Y0131180D03*
X0209869Y0127243D03*
X0210026Y0127243D03*
X0210184Y0127243D03*
X0210341Y0127243D03*
X0209554Y0123148D03*
X0209396Y0123148D03*
X0218136Y0120814D03*
X0218924Y0123333D03*
X0218924Y0126955D03*
X0219081Y0126955D03*
X0219554Y0126955D03*
X0219711Y0126955D03*
X0220971Y0126955D03*
X0218136Y0126955D03*
X0217979Y0126955D03*
X0257979Y0117349D03*
X0258136Y0117349D03*
X0258294Y0114514D03*
X0258451Y0114514D03*
X0257507Y0114514D03*
X0260814Y0118924D03*
X0260971Y0118924D03*
X0178026Y0194684D03*
X0177869Y0194684D03*
X0177081Y0195786D03*
X0176924Y0195786D03*
X0177711Y0196888D03*
X0177869Y0196888D03*
X0178026Y0196888D03*
X0177081Y0239747D03*
X0176294Y0239747D03*
X0177081Y0243054D03*
X0177711Y0243054D03*
X0182451Y0269357D03*
X0182609Y0269357D03*
X0182766Y0269357D03*
X0184026Y0269357D03*
X0184184Y0269357D03*
X0184341Y0269357D03*
X0164814Y0282896D03*
X0164656Y0282896D03*
X0164499Y0282896D03*
X0164341Y0282896D03*
X0164184Y0282896D03*
X0164026Y0282896D03*
X0163869Y0282896D03*
X0163711Y0282896D03*
X0162766Y0282896D03*
X0162609Y0282896D03*
X0162451Y0282896D03*
X0213396Y0277266D03*
X0224341Y0276424D03*
D43*
X0224499Y0276345D03*
X0224971Y0282487D03*
X0221979Y0282487D03*
X0221822Y0282487D03*
X0214499Y0277188D03*
X0203554Y0282365D03*
X0203396Y0282365D03*
X0202294Y0282365D03*
X0202136Y0282365D03*
X0195129Y0282365D03*
X0194971Y0282365D03*
X0193554Y0282365D03*
X0193081Y0282365D03*
X0191979Y0282365D03*
X0184656Y0282664D03*
X0184499Y0282664D03*
X0182294Y0282664D03*
X0174026Y0276900D03*
X0173081Y0275325D03*
X0172924Y0275325D03*
X0165129Y0271479D03*
X0163239Y0273684D03*
X0163239Y0276676D03*
X0163396Y0276676D03*
X0163554Y0282818D03*
X0163081Y0282818D03*
X0162924Y0282818D03*
X0162294Y0282818D03*
X0162136Y0282818D03*
X0161979Y0282818D03*
X0164971Y0282818D03*
X0154499Y0282715D03*
X0151822Y0282715D03*
X0151664Y0282715D03*
X0153869Y0279881D03*
X0154026Y0279881D03*
X0153711Y0276731D03*
X0153554Y0276731D03*
X0162924Y0264865D03*
X0182294Y0269436D03*
X0184499Y0269436D03*
X0184656Y0269436D03*
X0176924Y0239668D03*
X0176766Y0239668D03*
X0176609Y0239668D03*
X0176451Y0239668D03*
X0177081Y0226365D03*
X0177711Y0226365D03*
X0177711Y0212235D03*
X0177081Y0212235D03*
X0177239Y0195707D03*
X0177711Y0194605D03*
X0178341Y0190825D03*
X0187507Y0130471D03*
X0191286Y0130471D03*
X0191759Y0121810D03*
X0190026Y0114723D03*
X0189869Y0114723D03*
X0189711Y0114723D03*
X0199081Y0118688D03*
X0199239Y0118688D03*
X0199711Y0118688D03*
X0199869Y0118688D03*
X0210971Y0120235D03*
X0217822Y0120735D03*
X0217979Y0120735D03*
X0219081Y0123255D03*
X0219239Y0123255D03*
X0220971Y0122310D03*
X0220971Y0119160D03*
X0221129Y0114593D03*
X0217822Y0114593D03*
X0227507Y0114593D03*
X0227664Y0114593D03*
X0229869Y0114593D03*
X0230341Y0114593D03*
X0231286Y0114593D03*
X0228451Y0117428D03*
X0230971Y0118688D03*
X0238294Y0114436D03*
X0240499Y0114436D03*
X0240656Y0114436D03*
X0248294Y0114436D03*
X0250499Y0114436D03*
X0250656Y0114436D03*
X0258609Y0114593D03*
X0258766Y0114593D03*
X0261129Y0118845D03*
X0261286Y0118845D03*
X0250656Y0127664D03*
X0250499Y0127664D03*
X0248294Y0127664D03*
X0240656Y0127664D03*
X0240499Y0127664D03*
X0238294Y0127664D03*
X0228766Y0123097D03*
X0228609Y0123097D03*
X0221129Y0126877D03*
X0219239Y0126877D03*
X0217822Y0126877D03*
X0207507Y0131259D03*
X0278924Y0115825D03*
X0279081Y0115825D03*
X0280026Y0117400D03*
X0288136Y0114593D03*
X0290026Y0118215D03*
X0290184Y0118215D03*
X0298136Y0114436D03*
X0309869Y0114436D03*
X0310341Y0114436D03*
X0309396Y0118845D03*
X0308609Y0121837D03*
X0308451Y0121837D03*
X0320499Y0118845D03*
X0320499Y0114593D03*
X0319869Y0114593D03*
X0329869Y0114436D03*
X0330026Y0114436D03*
X0330341Y0114436D03*
X0330499Y0118845D03*
X0330026Y0121837D03*
X0321369Y0153270D03*
X0321211Y0153270D03*
X0321054Y0153270D03*
X0320896Y0153270D03*
X0320739Y0153270D03*
X0320581Y0153270D03*
X0295420Y0173640D03*
X0317054Y0191798D03*
X0317211Y0191798D03*
X0316739Y0192900D03*
X0316266Y0197940D03*
X0316739Y0201404D03*
X0317211Y0201404D03*
X0317507Y0268778D03*
X0318924Y0270196D03*
X0319081Y0270196D03*
X0319239Y0270196D03*
X0319396Y0270196D03*
X0319554Y0270196D03*
X0319711Y0270196D03*
X0319869Y0270196D03*
X0320499Y0273188D03*
X0318294Y0273188D03*
X0317507Y0275865D03*
X0317349Y0278542D03*
X0319081Y0279959D03*
X0319239Y0279959D03*
X0319396Y0279959D03*
X0319554Y0279959D03*
X0319711Y0279959D03*
X0319869Y0279959D03*
X0320656Y0282636D03*
X0318294Y0282636D03*
X0318136Y0282636D03*
X0321286Y0275865D03*
X0327507Y0278235D03*
X0331286Y0278235D03*
X0331444Y0282329D03*
X0309711Y0282503D03*
X0307979Y0282503D03*
X0301129Y0282282D03*
X0299554Y0282282D03*
X0299239Y0282282D03*
X0297822Y0282282D03*
X0299554Y0278660D03*
X0281129Y0282310D03*
X0280971Y0282310D03*
X0279396Y0282310D03*
X0279239Y0282310D03*
X0278294Y0282310D03*
X0271129Y0282467D03*
X0269396Y0282467D03*
X0258924Y0282345D03*
X0258766Y0282345D03*
X0251396Y0279759D03*
X0250924Y0281018D03*
X0250924Y0278499D03*
X0250766Y0278499D03*
X0251239Y0274404D03*
X0251711Y0273302D03*
X0252341Y0269522D03*
X0245129Y0282345D03*
X0244971Y0282345D03*
X0243396Y0282345D03*
X0243081Y0282345D03*
X0241979Y0282345D03*
X0241822Y0282345D03*
X0234499Y0282467D03*
X0231822Y0282467D03*
X0231664Y0282467D03*
X0234499Y0278845D03*
X0124786Y0288385D03*
X0123211Y0288857D03*
X0122581Y0288070D03*
D44*
X0121794Y0284999D03*
X0121636Y0284999D03*
X0121164Y0284999D03*
X0121007Y0284999D03*
X0124156Y0284999D03*
X0124314Y0284999D03*
X0124786Y0284999D03*
X0124944Y0284999D03*
X0123054Y0281377D03*
X0122896Y0281377D03*
X0121794Y0281377D03*
X0121794Y0291928D03*
X0121636Y0291928D03*
X0121164Y0291928D03*
X0121007Y0291928D03*
X0124156Y0291928D03*
X0124314Y0291928D03*
X0124786Y0291928D03*
X0124944Y0291928D03*
X0153396Y0273188D03*
X0153554Y0273188D03*
X0155444Y0276337D03*
X0165444Y0276282D03*
X0172136Y0280286D03*
X0174814Y0280286D03*
X0185444Y0269987D03*
X0204499Y0281814D03*
X0244341Y0277070D03*
X0244499Y0277070D03*
X0244656Y0277070D03*
X0244814Y0277227D03*
X0244971Y0277227D03*
X0245129Y0277385D03*
X0250294Y0270073D03*
X0251396Y0270073D03*
X0258136Y0277070D03*
X0260814Y0281794D03*
X0260971Y0281794D03*
X0261129Y0281794D03*
X0261286Y0281794D03*
X0268766Y0281916D03*
X0289711Y0277070D03*
X0289869Y0277070D03*
X0307979Y0277385D03*
X0308294Y0277227D03*
X0308451Y0277227D03*
X0308766Y0277070D03*
X0310656Y0277227D03*
X0320971Y0269644D03*
X0328451Y0271227D03*
X0328609Y0271227D03*
X0330184Y0271227D03*
X0330341Y0271227D03*
X0318944Y0205577D03*
X0318786Y0205577D03*
X0318314Y0205577D03*
X0318156Y0205577D03*
X0315794Y0205577D03*
X0315636Y0205577D03*
X0315164Y0205577D03*
X0315007Y0205577D03*
X0322156Y0167207D03*
X0322944Y0166735D03*
X0321054Y0149570D03*
X0320896Y0149570D03*
X0320656Y0125853D03*
X0320499Y0125853D03*
X0320341Y0125853D03*
X0320814Y0125696D03*
X0321129Y0125538D03*
X0308294Y0125696D03*
X0308136Y0125696D03*
X0301129Y0121601D03*
X0300971Y0121759D03*
X0300814Y0121759D03*
X0300656Y0121916D03*
X0300499Y0121916D03*
X0300341Y0121916D03*
X0297979Y0121759D03*
X0297822Y0121759D03*
X0291129Y0121444D03*
X0290971Y0121601D03*
X0290656Y0121759D03*
X0290499Y0121759D03*
X0290341Y0121759D03*
X0288136Y0121759D03*
X0280814Y0120786D03*
X0278136Y0120786D03*
X0260971Y0115144D03*
X0260814Y0115144D03*
X0251444Y0114987D03*
X0241444Y0114987D03*
X0230971Y0122546D03*
X0230814Y0122546D03*
X0210971Y0126613D03*
X0209239Y0126613D03*
X0211444Y0130550D03*
X0208766Y0131810D03*
X0188766Y0131022D03*
X0177396Y0191377D03*
X0176294Y0191377D03*
X0176294Y0200353D03*
X0176136Y0200353D03*
X0177554Y0200353D03*
X0177711Y0200353D03*
X0177396Y0208377D03*
X0176294Y0208377D03*
X0178656Y0242581D03*
D45*
X0177239Y0239196D03*
X0175349Y0240140D03*
X0163711Y0260770D03*
X0153711Y0261770D03*
X0163239Y0271479D03*
X0163081Y0277621D03*
X0171349Y0277373D03*
X0183396Y0275420D03*
X0183554Y0276837D03*
X0213711Y0275770D03*
X0223081Y0277290D03*
X0223711Y0274770D03*
X0233711Y0277270D03*
X0249349Y0278026D03*
X0249349Y0281491D03*
X0269081Y0280262D03*
X0269711Y0277270D03*
X0279711Y0277270D03*
X0299711Y0276770D03*
X0317664Y0273818D03*
X0317822Y0273818D03*
X0318609Y0275865D03*
X0320184Y0275865D03*
X0328609Y0278235D03*
X0330184Y0278235D03*
X0314849Y0197940D03*
X0314849Y0192900D03*
X0295577Y0173562D03*
X0321054Y0158625D03*
X0321211Y0158625D03*
X0321999Y0157837D03*
X0329081Y0119790D03*
X0329711Y0117270D03*
X0319711Y0117270D03*
X0309711Y0117270D03*
X0309081Y0119790D03*
X0299081Y0118688D03*
X0299081Y0116010D03*
X0289081Y0116168D03*
X0277349Y0117873D03*
X0259396Y0122310D03*
X0249554Y0121837D03*
X0249396Y0120420D03*
X0239554Y0121837D03*
X0239396Y0120420D03*
X0220026Y0120735D03*
X0219869Y0120735D03*
X0211601Y0118188D03*
X0211444Y0118188D03*
X0190026Y0118503D03*
X0190026Y0116770D03*
X0189869Y0121810D03*
X0189554Y0124644D03*
X0190656Y0124644D03*
X0288727Y0197341D03*
D46*
X0321369Y0166499D03*
X0321526Y0166499D03*
X0321684Y0166499D03*
X0298766Y0121207D03*
X0288609Y0121050D03*
X0197349Y0116010D03*
X0258766Y0277778D03*
X0258451Y0277936D03*
X0290814Y0278251D03*
X0290971Y0278251D03*
X0291286Y0278408D03*
X0309396Y0277936D03*
D47*
X0259239Y0277621D03*
X0251239Y0279759D03*
X0321841Y0166499D03*
X0288451Y0121050D03*
X0209869Y0131259D03*
X0209711Y0131259D03*
X0209554Y0131259D03*
X0209396Y0131259D03*
X0209239Y0131259D03*
X0190656Y0129841D03*
D48*
X0188609Y0130944D03*
X0188451Y0130944D03*
X0208451Y0131731D03*
X0208609Y0131731D03*
X0211601Y0130471D03*
X0219869Y0123412D03*
X0221444Y0122467D03*
X0221444Y0119003D03*
X0230499Y0122625D03*
X0230656Y0122625D03*
X0237507Y0127192D03*
X0238766Y0117743D03*
X0238924Y0117743D03*
X0237507Y0114908D03*
X0247507Y0114908D03*
X0248766Y0117743D03*
X0248924Y0117743D03*
X0260499Y0115066D03*
X0260656Y0115066D03*
X0247507Y0127192D03*
X0277979Y0120865D03*
X0280971Y0120865D03*
X0287507Y0121522D03*
X0287822Y0121680D03*
X0287979Y0121680D03*
X0290814Y0121680D03*
X0297507Y0121680D03*
X0297664Y0121680D03*
X0307822Y0125617D03*
X0307979Y0125617D03*
X0322314Y0167129D03*
X0322471Y0167129D03*
X0322786Y0166971D03*
X0317369Y0197940D03*
X0252184Y0266215D03*
X0251869Y0266373D03*
X0251711Y0269995D03*
X0251554Y0269995D03*
X0250136Y0269995D03*
X0249979Y0269995D03*
X0257507Y0277306D03*
X0257822Y0277148D03*
X0257979Y0277148D03*
X0260341Y0281873D03*
X0260499Y0281873D03*
X0260656Y0281873D03*
X0268609Y0281995D03*
X0307349Y0282030D03*
X0310499Y0282030D03*
X0310814Y0277306D03*
X0319396Y0273660D03*
X0320814Y0269723D03*
X0328294Y0271306D03*
X0330499Y0271306D03*
X0321444Y0282164D03*
X0201349Y0281892D03*
X0191349Y0281892D03*
X0181507Y0282192D03*
X0174971Y0280365D03*
X0171979Y0280365D03*
X0165286Y0276203D03*
X0162294Y0273684D03*
X0162136Y0273684D03*
X0161507Y0269589D03*
X0153711Y0269172D03*
X0153554Y0269172D03*
X0153396Y0269172D03*
X0153239Y0269172D03*
X0153711Y0273109D03*
X0153869Y0273109D03*
X0155286Y0276416D03*
X0181507Y0269908D03*
X0182766Y0272743D03*
X0182924Y0272743D03*
X0178971Y0230459D03*
X0175979Y0230459D03*
X0175979Y0208298D03*
X0176136Y0208298D03*
X0177554Y0208298D03*
X0177711Y0208298D03*
X0178341Y0208298D03*
X0178341Y0200274D03*
X0178184Y0200274D03*
X0178026Y0200274D03*
X0177869Y0200274D03*
X0175979Y0200274D03*
X0175979Y0191298D03*
X0176136Y0191298D03*
X0177554Y0191298D03*
X0177711Y0191298D03*
X0123841Y0281298D03*
X0123684Y0281298D03*
X0123211Y0281298D03*
X0121636Y0281298D03*
X0121479Y0281298D03*
X0124156Y0288385D03*
X0124314Y0288385D03*
D49*
X0123999Y0287518D03*
X0123526Y0289408D03*
X0124471Y0282479D03*
X0121951Y0282322D03*
X0151507Y0277282D03*
X0154499Y0279487D03*
X0161664Y0277070D03*
X0165286Y0268881D03*
X0164184Y0267463D03*
X0162609Y0267463D03*
X0165444Y0265259D03*
X0164184Y0263841D03*
X0154184Y0264841D03*
X0153081Y0266101D03*
X0151979Y0266731D03*
X0155444Y0270196D03*
X0171979Y0274932D03*
X0173396Y0276034D03*
X0174971Y0277294D03*
X0175129Y0277294D03*
X0172924Y0278869D03*
X0172609Y0279026D03*
X0182136Y0276286D03*
X0181507Y0273766D03*
X0184341Y0272192D03*
X0185444Y0273766D03*
X0184971Y0275971D03*
X0184814Y0275971D03*
X0184184Y0280066D03*
X0182766Y0280066D03*
X0191507Y0278664D03*
X0194026Y0279924D03*
X0194184Y0280081D03*
X0195444Y0278664D03*
X0201507Y0278664D03*
X0211664Y0279944D03*
X0213239Y0279944D03*
X0213396Y0279944D03*
X0213554Y0279944D03*
X0213711Y0279944D03*
X0213869Y0279944D03*
X0214026Y0279944D03*
X0214184Y0279944D03*
X0214341Y0279944D03*
X0214499Y0279944D03*
X0214656Y0279944D03*
X0214814Y0279944D03*
X0214971Y0279944D03*
X0215129Y0279944D03*
X0221507Y0278944D03*
X0233554Y0278766D03*
X0249822Y0278105D03*
X0249822Y0281412D03*
X0252656Y0275585D03*
X0252814Y0275585D03*
X0252971Y0275585D03*
X0252971Y0273381D03*
X0252814Y0273381D03*
X0252656Y0273381D03*
X0250136Y0274483D03*
X0249979Y0274483D03*
X0250451Y0271018D03*
X0251554Y0265822D03*
X0270499Y0278451D03*
X0280341Y0278609D03*
X0300026Y0279999D03*
X0300184Y0279999D03*
X0300499Y0277951D03*
X0319396Y0277203D03*
X0319554Y0277203D03*
X0320814Y0275786D03*
X0321286Y0278306D03*
X0327507Y0275794D03*
X0329081Y0276581D03*
X0330184Y0276266D03*
X0330814Y0278156D03*
X0329869Y0279888D03*
X0329081Y0279888D03*
X0328924Y0279888D03*
X0328924Y0274377D03*
X0329081Y0274377D03*
X0328766Y0274377D03*
X0328609Y0274377D03*
X0330971Y0274377D03*
X0331129Y0274377D03*
X0331286Y0274377D03*
X0318471Y0202900D03*
X0315322Y0202900D03*
X0316739Y0198648D03*
X0315479Y0198018D03*
X0316896Y0197231D03*
X0317211Y0197073D03*
X0318471Y0196444D03*
X0318471Y0194081D03*
X0318314Y0194081D03*
X0318156Y0194081D03*
X0318314Y0191877D03*
X0315636Y0192979D03*
X0315479Y0192979D03*
X0315479Y0190774D03*
X0318471Y0199436D03*
X0322629Y0159648D03*
X0322786Y0159648D03*
X0322944Y0156026D03*
X0321444Y0121444D03*
X0317507Y0121444D03*
X0311444Y0121286D03*
X0309869Y0121444D03*
X0309711Y0121444D03*
X0297822Y0117664D03*
X0281129Y0117794D03*
X0280971Y0117794D03*
X0279396Y0116534D03*
X0277979Y0115432D03*
X0278924Y0119369D03*
X0278609Y0119526D03*
X0260814Y0122861D03*
X0258294Y0123333D03*
X0258136Y0123333D03*
X0259554Y0119239D03*
X0259711Y0119239D03*
X0258924Y0117349D03*
X0258766Y0117349D03*
X0251444Y0118766D03*
X0250341Y0117192D03*
X0247507Y0118766D03*
X0248136Y0121286D03*
X0250814Y0120971D03*
X0250971Y0120971D03*
X0250184Y0125066D03*
X0248766Y0125066D03*
X0240184Y0125066D03*
X0238766Y0125066D03*
X0238136Y0121286D03*
X0237507Y0118766D03*
X0240341Y0117192D03*
X0241444Y0118766D03*
X0240971Y0120971D03*
X0240814Y0120971D03*
X0230026Y0118609D03*
X0229869Y0118609D03*
X0229711Y0118451D03*
X0229554Y0118451D03*
X0229396Y0118294D03*
X0229239Y0118294D03*
X0228924Y0120341D03*
X0228766Y0120341D03*
X0220026Y0116719D03*
X0219239Y0118609D03*
X0219554Y0118766D03*
X0219869Y0118924D03*
X0218766Y0120814D03*
X0218766Y0123018D03*
X0220026Y0124593D03*
X0211759Y0116692D03*
X0208451Y0117794D03*
X0210184Y0121101D03*
X0201129Y0116877D03*
X0200341Y0118766D03*
X0197664Y0120499D03*
X0191601Y0119526D03*
X0190656Y0119841D03*
X0190341Y0119999D03*
X0190184Y0119999D03*
X0190026Y0120156D03*
X0189869Y0120156D03*
X0189554Y0120314D03*
X0191129Y0121731D03*
X0189396Y0123148D03*
X0189239Y0123148D03*
X0189869Y0126140D03*
X0190341Y0126140D03*
X0191601Y0117636D03*
X0176451Y0192322D03*
X0178656Y0194684D03*
X0178814Y0194684D03*
X0178971Y0194684D03*
X0178971Y0196888D03*
X0178814Y0196888D03*
X0178656Y0196888D03*
X0176136Y0195786D03*
X0175979Y0195786D03*
X0176451Y0201455D03*
X0177239Y0201455D03*
X0178814Y0201455D03*
X0178656Y0209322D03*
X0178499Y0211211D03*
X0178971Y0213573D03*
X0176451Y0213101D03*
X0175822Y0213573D03*
X0175979Y0210896D03*
X0176451Y0209322D03*
X0175979Y0225026D03*
X0176451Y0227231D03*
X0175822Y0227703D03*
X0176609Y0229121D03*
X0176451Y0229278D03*
X0178026Y0228963D03*
X0178341Y0229121D03*
X0178971Y0227703D03*
X0178499Y0225341D03*
X0178341Y0231640D03*
X0178184Y0231798D03*
X0176766Y0231798D03*
X0176609Y0231798D03*
X0175822Y0240062D03*
X0178499Y0241636D03*
X0178499Y0243526D03*
X0176451Y0243526D03*
X0330499Y0121444D03*
D50*
X0329396Y0114829D03*
X0319396Y0114987D03*
X0309396Y0114829D03*
X0301444Y0114829D03*
X0297507Y0114829D03*
X0287507Y0114987D03*
X0287664Y0121601D03*
X0277822Y0120944D03*
X0260341Y0114987D03*
X0260184Y0114987D03*
X0257349Y0117349D03*
X0251286Y0114829D03*
X0248609Y0117822D03*
X0241286Y0114829D03*
X0238609Y0117822D03*
X0231444Y0118609D03*
X0230341Y0122703D03*
X0230184Y0122703D03*
X0227349Y0120341D03*
X0219711Y0114987D03*
X0219554Y0114987D03*
X0219396Y0114987D03*
X0219239Y0114987D03*
X0219081Y0114987D03*
X0218924Y0114987D03*
X0217349Y0114987D03*
X0217349Y0126483D03*
X0211759Y0130392D03*
X0191759Y0115117D03*
X0241286Y0127270D03*
X0251286Y0127270D03*
X0307507Y0125538D03*
X0307664Y0125538D03*
X0322629Y0167050D03*
X0317999Y0205420D03*
X0252026Y0266294D03*
X0251869Y0269916D03*
X0249822Y0269916D03*
X0257664Y0277227D03*
X0260026Y0281951D03*
X0260184Y0281951D03*
X0268451Y0282073D03*
X0241349Y0281951D03*
X0235286Y0282073D03*
X0221349Y0282093D03*
X0204341Y0281971D03*
X0185286Y0282270D03*
X0182609Y0272822D03*
X0185286Y0269829D03*
X0171822Y0280444D03*
X0165129Y0276282D03*
X0164971Y0276282D03*
X0161349Y0282424D03*
X0155286Y0282322D03*
X0155129Y0276337D03*
X0154184Y0273030D03*
X0154026Y0273030D03*
X0154026Y0269251D03*
X0153869Y0269251D03*
X0153081Y0269251D03*
X0152924Y0269251D03*
X0123999Y0284841D03*
X0123526Y0281219D03*
X0123369Y0281219D03*
X0121322Y0281219D03*
X0123999Y0291770D03*
X0176136Y0242581D03*
X0176294Y0242581D03*
X0178814Y0242581D03*
X0178971Y0242581D03*
X0178184Y0226286D03*
X0178184Y0212156D03*
X0178184Y0208219D03*
X0178026Y0208219D03*
X0177869Y0208219D03*
X0175822Y0208219D03*
X0175822Y0200196D03*
X0175822Y0191219D03*
X0177869Y0191219D03*
X0297349Y0281888D03*
X0310341Y0282109D03*
X0311444Y0277542D03*
X0311286Y0277385D03*
X0311129Y0277385D03*
X0310971Y0277227D03*
X0317507Y0282243D03*
X0319239Y0273581D03*
X0319554Y0273581D03*
X0320656Y0269802D03*
X0328136Y0271385D03*
X0330656Y0271385D03*
D51*
X0331444Y0274377D03*
X0329869Y0276424D03*
X0329554Y0276581D03*
X0329396Y0276739D03*
X0327822Y0278156D03*
X0329396Y0279731D03*
X0329554Y0279731D03*
X0317822Y0275786D03*
X0317979Y0269014D03*
X0317822Y0268857D03*
X0311286Y0282739D03*
X0311129Y0282739D03*
X0310971Y0282739D03*
X0310814Y0282739D03*
X0270341Y0282703D03*
X0270184Y0282703D03*
X0252499Y0275585D03*
X0252341Y0275585D03*
X0252184Y0275585D03*
X0250609Y0274483D03*
X0250451Y0274483D03*
X0252184Y0273381D03*
X0252341Y0273381D03*
X0252499Y0273381D03*
X0250294Y0278262D03*
X0250136Y0278262D03*
X0250294Y0281255D03*
X0233081Y0282703D03*
X0232924Y0282703D03*
X0224026Y0276581D03*
X0223869Y0276581D03*
X0223711Y0276581D03*
X0215444Y0279944D03*
X0214184Y0277424D03*
X0214026Y0277424D03*
X0213554Y0277424D03*
X0211507Y0279944D03*
X0193554Y0278822D03*
X0193396Y0278822D03*
X0193239Y0278822D03*
X0193081Y0278822D03*
X0183711Y0280223D03*
X0183554Y0280223D03*
X0183396Y0280223D03*
X0183239Y0280223D03*
X0183081Y0280223D03*
X0181664Y0276129D03*
X0183869Y0272034D03*
X0184026Y0272034D03*
X0174656Y0277136D03*
X0174499Y0279341D03*
X0175444Y0280444D03*
X0172451Y0279184D03*
X0172451Y0275089D03*
X0172294Y0275089D03*
X0164656Y0271400D03*
X0163869Y0267621D03*
X0163711Y0267621D03*
X0163554Y0267621D03*
X0163396Y0267621D03*
X0163239Y0267621D03*
X0163081Y0267621D03*
X0163711Y0262581D03*
X0153711Y0263581D03*
X0153081Y0282951D03*
X0152924Y0282951D03*
X0123369Y0289093D03*
X0120849Y0280904D03*
X0177396Y0242896D03*
X0179444Y0242581D03*
X0176136Y0239904D03*
X0178499Y0231483D03*
X0175349Y0207904D03*
X0178184Y0196888D03*
X0178341Y0196888D03*
X0178499Y0196888D03*
X0176609Y0195786D03*
X0176451Y0195786D03*
X0178184Y0194684D03*
X0178341Y0194684D03*
X0178499Y0194684D03*
X0187192Y0130392D03*
X0187034Y0130235D03*
X0186877Y0130077D03*
X0191759Y0130235D03*
X0188766Y0122991D03*
X0188609Y0122991D03*
X0188609Y0120629D03*
X0188766Y0120629D03*
X0191286Y0121731D03*
X0191759Y0119526D03*
X0197507Y0117034D03*
X0200184Y0118766D03*
X0207034Y0114329D03*
X0207192Y0114329D03*
X0207349Y0114329D03*
X0207507Y0114329D03*
X0210341Y0121259D03*
X0211601Y0127558D03*
X0207034Y0131022D03*
X0206877Y0130865D03*
X0218451Y0120814D03*
X0220026Y0122546D03*
X0220341Y0122388D03*
X0220499Y0122388D03*
X0220499Y0119081D03*
X0220341Y0119081D03*
X0219396Y0118609D03*
X0228451Y0120341D03*
X0228924Y0117979D03*
X0230499Y0118766D03*
X0230814Y0114357D03*
X0239869Y0117034D03*
X0240026Y0117034D03*
X0237664Y0121129D03*
X0239081Y0125223D03*
X0239239Y0125223D03*
X0239396Y0125223D03*
X0239554Y0125223D03*
X0239711Y0125223D03*
X0247664Y0121129D03*
X0249081Y0125223D03*
X0249239Y0125223D03*
X0249396Y0125223D03*
X0249554Y0125223D03*
X0249711Y0125223D03*
X0249869Y0117034D03*
X0250026Y0117034D03*
X0257822Y0114357D03*
X0258451Y0117349D03*
X0260184Y0119081D03*
X0260341Y0119081D03*
X0261129Y0123018D03*
X0261286Y0123018D03*
X0257822Y0123176D03*
X0278451Y0119684D03*
X0280499Y0119841D03*
X0281444Y0120944D03*
X0280656Y0117636D03*
X0278451Y0115589D03*
X0278294Y0115589D03*
X0297664Y0117822D03*
X0309711Y0119081D03*
X0309869Y0119081D03*
X0309239Y0121601D03*
X0319711Y0119081D03*
X0320026Y0119081D03*
X0329711Y0119081D03*
X0329869Y0119081D03*
X0330026Y0119081D03*
X0322944Y0159648D03*
X0317841Y0191877D03*
X0316109Y0192979D03*
X0315951Y0192979D03*
X0317684Y0194081D03*
X0317841Y0194081D03*
X0317999Y0194081D03*
X0315794Y0198018D03*
X0252341Y0266766D03*
X0227822Y0123333D03*
X0187507Y0114487D03*
X0187349Y0114487D03*
X0187192Y0114487D03*
X0187034Y0114487D03*
D52*
X0208136Y0123227D03*
X0323101Y0158467D03*
D53*
X0316271Y0261647D02*
X0315993Y0261679D01*
X0315729Y0261771D01*
X0315492Y0261920D01*
X0315294Y0262118D01*
X0315145Y0262355D01*
X0315053Y0262619D01*
X0315021Y0262897D01*
X0315053Y0263175D01*
X0315145Y0263440D01*
X0315294Y0263677D01*
X0315492Y0263875D01*
X0315729Y0264024D01*
X0315993Y0264116D01*
X0316271Y0264147D01*
X0316549Y0264116D01*
X0316814Y0264024D01*
X0317051Y0263875D01*
X0317249Y0263677D01*
X0317398Y0263440D01*
X0317490Y0263175D01*
X0317521Y0262897D01*
X0317490Y0262619D01*
X0317398Y0262355D01*
X0317249Y0262118D01*
X0317051Y0261920D01*
X0316814Y0261771D01*
X0316549Y0261679D01*
X0316271Y0261647D01*
X0316226Y0261652D02*
X0316317Y0261652D01*
X0316392Y0261661D02*
X0316150Y0261661D01*
X0316075Y0261669D02*
X0316468Y0261669D01*
X0316543Y0261678D02*
X0315999Y0261678D01*
X0315971Y0261686D02*
X0316572Y0261686D01*
X0316596Y0261695D02*
X0315946Y0261695D01*
X0315922Y0261704D02*
X0316621Y0261704D01*
X0316645Y0261712D02*
X0315898Y0261712D01*
X0315873Y0261721D02*
X0316669Y0261721D01*
X0316694Y0261729D02*
X0315849Y0261729D01*
X0315825Y0261738D02*
X0316718Y0261738D01*
X0316742Y0261746D02*
X0315800Y0261746D01*
X0315776Y0261755D02*
X0316766Y0261755D01*
X0316791Y0261763D02*
X0315752Y0261763D01*
X0315728Y0261772D02*
X0316814Y0261772D01*
X0316828Y0261780D02*
X0315715Y0261780D01*
X0315701Y0261789D02*
X0316842Y0261789D01*
X0316855Y0261797D02*
X0315687Y0261797D01*
X0315674Y0261806D02*
X0316869Y0261806D01*
X0316882Y0261814D02*
X0315660Y0261814D01*
X0315647Y0261823D02*
X0316896Y0261823D01*
X0316909Y0261831D02*
X0315633Y0261831D01*
X0315620Y0261840D02*
X0316923Y0261840D01*
X0316936Y0261848D02*
X0315606Y0261848D01*
X0315593Y0261857D02*
X0316950Y0261857D01*
X0316964Y0261865D02*
X0315579Y0261865D01*
X0315566Y0261874D02*
X0316977Y0261874D01*
X0316991Y0261882D02*
X0315552Y0261882D01*
X0315538Y0261891D02*
X0317004Y0261891D01*
X0317018Y0261899D02*
X0315525Y0261899D01*
X0315511Y0261908D02*
X0317031Y0261908D01*
X0317045Y0261916D02*
X0315498Y0261916D01*
X0315487Y0261925D02*
X0317056Y0261925D01*
X0317064Y0261933D02*
X0315479Y0261933D01*
X0315470Y0261942D02*
X0317073Y0261942D01*
X0317081Y0261950D02*
X0315462Y0261950D01*
X0315453Y0261959D02*
X0317090Y0261959D01*
X0317098Y0261967D02*
X0315445Y0261967D01*
X0315436Y0261976D02*
X0317107Y0261976D01*
X0317115Y0261984D02*
X0315428Y0261984D01*
X0315419Y0261993D02*
X0317124Y0261993D01*
X0317132Y0262001D02*
X0315410Y0262001D01*
X0315402Y0262010D02*
X0317141Y0262010D01*
X0317149Y0262019D02*
X0315393Y0262019D01*
X0315385Y0262027D02*
X0317158Y0262027D01*
X0317166Y0262036D02*
X0315376Y0262036D01*
X0315368Y0262044D02*
X0317175Y0262044D01*
X0317183Y0262053D02*
X0315359Y0262053D01*
X0315351Y0262061D02*
X0317192Y0262061D01*
X0317200Y0262070D02*
X0315342Y0262070D01*
X0315334Y0262078D02*
X0317209Y0262078D01*
X0317217Y0262087D02*
X0315325Y0262087D01*
X0315317Y0262095D02*
X0317226Y0262095D01*
X0317234Y0262104D02*
X0315308Y0262104D01*
X0315300Y0262112D02*
X0317243Y0262112D01*
X0317250Y0262121D02*
X0315292Y0262121D01*
X0315287Y0262129D02*
X0317256Y0262129D01*
X0317261Y0262138D02*
X0315282Y0262138D01*
X0315276Y0262146D02*
X0317266Y0262146D01*
X0317272Y0262155D02*
X0315271Y0262155D01*
X0315266Y0262163D02*
X0317277Y0262163D01*
X0317282Y0262172D02*
X0315260Y0262172D01*
X0315255Y0262180D02*
X0317288Y0262180D01*
X0317293Y0262189D02*
X0315250Y0262189D01*
X0315244Y0262197D02*
X0317298Y0262197D01*
X0317304Y0262206D02*
X0315239Y0262206D01*
X0315233Y0262214D02*
X0317309Y0262214D01*
X0317315Y0262223D02*
X0315228Y0262223D01*
X0315223Y0262231D02*
X0317320Y0262231D01*
X0317325Y0262240D02*
X0315217Y0262240D01*
X0315212Y0262248D02*
X0317331Y0262248D01*
X0317336Y0262257D02*
X0315207Y0262257D01*
X0315201Y0262265D02*
X0317341Y0262265D01*
X0317347Y0262274D02*
X0315196Y0262274D01*
X0315191Y0262282D02*
X0317352Y0262282D01*
X0317357Y0262291D02*
X0315185Y0262291D01*
X0315180Y0262299D02*
X0317363Y0262299D01*
X0317368Y0262308D02*
X0315175Y0262308D01*
X0315169Y0262316D02*
X0317373Y0262316D01*
X0317379Y0262325D02*
X0315164Y0262325D01*
X0315159Y0262334D02*
X0317384Y0262334D01*
X0317389Y0262342D02*
X0315153Y0262342D01*
X0315148Y0262351D02*
X0317395Y0262351D01*
X0317399Y0262359D02*
X0315144Y0262359D01*
X0315141Y0262368D02*
X0317402Y0262368D01*
X0317405Y0262376D02*
X0315138Y0262376D01*
X0315135Y0262385D02*
X0317408Y0262385D01*
X0317411Y0262393D02*
X0315132Y0262393D01*
X0315129Y0262402D02*
X0317414Y0262402D01*
X0317417Y0262410D02*
X0315126Y0262410D01*
X0315123Y0262419D02*
X0317420Y0262419D01*
X0317423Y0262427D02*
X0315120Y0262427D01*
X0315117Y0262436D02*
X0317426Y0262436D01*
X0317429Y0262444D02*
X0315114Y0262444D01*
X0315111Y0262453D02*
X0317432Y0262453D01*
X0317435Y0262461D02*
X0315108Y0262461D01*
X0315105Y0262470D02*
X0317438Y0262470D01*
X0317441Y0262478D02*
X0315102Y0262478D01*
X0315099Y0262487D02*
X0317444Y0262487D01*
X0317447Y0262495D02*
X0315096Y0262495D01*
X0315093Y0262504D02*
X0317450Y0262504D01*
X0317453Y0262512D02*
X0315090Y0262512D01*
X0315087Y0262521D02*
X0317456Y0262521D01*
X0317459Y0262529D02*
X0315084Y0262529D01*
X0315081Y0262538D02*
X0317462Y0262538D01*
X0317465Y0262546D02*
X0315078Y0262546D01*
X0315075Y0262555D02*
X0317467Y0262555D01*
X0317470Y0262563D02*
X0315072Y0262563D01*
X0315069Y0262572D02*
X0317473Y0262572D01*
X0317476Y0262580D02*
X0315066Y0262580D01*
X0315063Y0262589D02*
X0317479Y0262589D01*
X0317482Y0262597D02*
X0315060Y0262597D01*
X0315057Y0262606D02*
X0317485Y0262606D01*
X0317488Y0262614D02*
X0315054Y0262614D01*
X0315052Y0262623D02*
X0317490Y0262623D01*
X0317491Y0262632D02*
X0315051Y0262632D01*
X0315050Y0262640D02*
X0317492Y0262640D01*
X0317493Y0262649D02*
X0315049Y0262649D01*
X0315048Y0262657D02*
X0317494Y0262657D01*
X0317495Y0262666D02*
X0315047Y0262666D01*
X0315046Y0262674D02*
X0317496Y0262674D01*
X0317497Y0262683D02*
X0315046Y0262683D01*
X0315045Y0262691D02*
X0317498Y0262691D01*
X0317499Y0262700D02*
X0315044Y0262700D01*
X0315043Y0262708D02*
X0317500Y0262708D01*
X0317501Y0262717D02*
X0315042Y0262717D01*
X0315041Y0262725D02*
X0317502Y0262725D01*
X0317503Y0262734D02*
X0315040Y0262734D01*
X0315039Y0262742D02*
X0317504Y0262742D01*
X0317505Y0262751D02*
X0315038Y0262751D01*
X0315037Y0262759D02*
X0317506Y0262759D01*
X0317507Y0262768D02*
X0315036Y0262768D01*
X0315035Y0262776D02*
X0317508Y0262776D01*
X0317509Y0262785D02*
X0315034Y0262785D01*
X0315033Y0262793D02*
X0317510Y0262793D01*
X0317511Y0262802D02*
X0315032Y0262802D01*
X0315031Y0262810D02*
X0317512Y0262810D01*
X0317512Y0262819D02*
X0315030Y0262819D01*
X0315029Y0262827D02*
X0317513Y0262827D01*
X0317514Y0262836D02*
X0315028Y0262836D01*
X0315027Y0262844D02*
X0317515Y0262844D01*
X0317516Y0262853D02*
X0315026Y0262853D01*
X0315025Y0262861D02*
X0317517Y0262861D01*
X0317518Y0262870D02*
X0315024Y0262870D01*
X0315023Y0262878D02*
X0317519Y0262878D01*
X0317520Y0262887D02*
X0315022Y0262887D01*
X0315022Y0262895D02*
X0317521Y0262895D01*
X0317521Y0262904D02*
X0315022Y0262904D01*
X0315023Y0262912D02*
X0317520Y0262912D01*
X0317519Y0262921D02*
X0315024Y0262921D01*
X0315025Y0262929D02*
X0317518Y0262929D01*
X0317517Y0262938D02*
X0315026Y0262938D01*
X0315027Y0262947D02*
X0317516Y0262947D01*
X0317515Y0262955D02*
X0315028Y0262955D01*
X0315029Y0262964D02*
X0317514Y0262964D01*
X0317513Y0262972D02*
X0315030Y0262972D01*
X0315031Y0262981D02*
X0317512Y0262981D01*
X0317511Y0262989D02*
X0315032Y0262989D01*
X0315033Y0262998D02*
X0317510Y0262998D01*
X0317509Y0263006D02*
X0315034Y0263006D01*
X0315035Y0263015D02*
X0317508Y0263015D01*
X0317507Y0263023D02*
X0315036Y0263023D01*
X0315036Y0263032D02*
X0317506Y0263032D01*
X0317505Y0263040D02*
X0315037Y0263040D01*
X0315038Y0263049D02*
X0317504Y0263049D01*
X0317503Y0263057D02*
X0315039Y0263057D01*
X0315040Y0263066D02*
X0317502Y0263066D01*
X0317501Y0263074D02*
X0315041Y0263074D01*
X0315042Y0263083D02*
X0317500Y0263083D01*
X0317499Y0263091D02*
X0315043Y0263091D01*
X0315044Y0263100D02*
X0317499Y0263100D01*
X0317498Y0263108D02*
X0315045Y0263108D01*
X0315046Y0263117D02*
X0317497Y0263117D01*
X0317496Y0263125D02*
X0315047Y0263125D01*
X0315048Y0263134D02*
X0317495Y0263134D01*
X0317494Y0263142D02*
X0315049Y0263142D01*
X0315050Y0263151D02*
X0317493Y0263151D01*
X0317492Y0263159D02*
X0315051Y0263159D01*
X0315052Y0263168D02*
X0317491Y0263168D01*
X0317490Y0263176D02*
X0315053Y0263176D01*
X0315056Y0263185D02*
X0317487Y0263185D01*
X0317484Y0263193D02*
X0315059Y0263193D01*
X0315062Y0263202D02*
X0317481Y0263202D01*
X0317478Y0263210D02*
X0315065Y0263210D01*
X0315068Y0263219D02*
X0317475Y0263219D01*
X0317472Y0263227D02*
X0315071Y0263227D01*
X0315074Y0263236D02*
X0317469Y0263236D01*
X0317466Y0263245D02*
X0315077Y0263245D01*
X0315080Y0263253D02*
X0317463Y0263253D01*
X0317460Y0263262D02*
X0315083Y0263262D01*
X0315086Y0263270D02*
X0317457Y0263270D01*
X0317454Y0263279D02*
X0315089Y0263279D01*
X0315092Y0263287D02*
X0317451Y0263287D01*
X0317448Y0263296D02*
X0315095Y0263296D01*
X0315098Y0263304D02*
X0317445Y0263304D01*
X0317442Y0263313D02*
X0315101Y0263313D01*
X0315104Y0263321D02*
X0317439Y0263321D01*
X0317436Y0263330D02*
X0315107Y0263330D01*
X0315110Y0263338D02*
X0317433Y0263338D01*
X0317430Y0263347D02*
X0315113Y0263347D01*
X0315116Y0263355D02*
X0317427Y0263355D01*
X0317424Y0263364D02*
X0315119Y0263364D01*
X0315122Y0263372D02*
X0317421Y0263372D01*
X0317418Y0263381D02*
X0315124Y0263381D01*
X0315127Y0263389D02*
X0317415Y0263389D01*
X0317412Y0263398D02*
X0315130Y0263398D01*
X0315133Y0263406D02*
X0317409Y0263406D01*
X0317406Y0263415D02*
X0315136Y0263415D01*
X0315139Y0263423D02*
X0317403Y0263423D01*
X0317400Y0263432D02*
X0315142Y0263432D01*
X0315146Y0263440D02*
X0317397Y0263440D01*
X0317392Y0263449D02*
X0315151Y0263449D01*
X0315156Y0263457D02*
X0317386Y0263457D01*
X0317381Y0263466D02*
X0315162Y0263466D01*
X0315167Y0263474D02*
X0317376Y0263474D01*
X0317370Y0263483D02*
X0315172Y0263483D01*
X0315178Y0263491D02*
X0317365Y0263491D01*
X0317360Y0263500D02*
X0315183Y0263500D01*
X0315188Y0263508D02*
X0317354Y0263508D01*
X0317349Y0263517D02*
X0315194Y0263517D01*
X0315199Y0263525D02*
X0317344Y0263525D01*
X0317338Y0263534D02*
X0315204Y0263534D01*
X0315210Y0263542D02*
X0317333Y0263542D01*
X0317328Y0263551D02*
X0315215Y0263551D01*
X0315220Y0263560D02*
X0317322Y0263560D01*
X0317317Y0263568D02*
X0315226Y0263568D01*
X0315231Y0263577D02*
X0317312Y0263577D01*
X0317306Y0263585D02*
X0315236Y0263585D01*
X0315242Y0263594D02*
X0317301Y0263594D01*
X0317295Y0263602D02*
X0315247Y0263602D01*
X0315253Y0263611D02*
X0317290Y0263611D01*
X0317285Y0263619D02*
X0315258Y0263619D01*
X0315263Y0263628D02*
X0317279Y0263628D01*
X0317274Y0263636D02*
X0315269Y0263636D01*
X0315274Y0263645D02*
X0317269Y0263645D01*
X0317263Y0263653D02*
X0315279Y0263653D01*
X0315285Y0263662D02*
X0317258Y0263662D01*
X0317253Y0263670D02*
X0315290Y0263670D01*
X0315296Y0263679D02*
X0317247Y0263679D01*
X0317238Y0263687D02*
X0315305Y0263687D01*
X0315313Y0263696D02*
X0317230Y0263696D01*
X0317221Y0263704D02*
X0315322Y0263704D01*
X0315330Y0263713D02*
X0317213Y0263713D01*
X0317204Y0263721D02*
X0315339Y0263721D01*
X0315347Y0263730D02*
X0317195Y0263730D01*
X0317187Y0263738D02*
X0315356Y0263738D01*
X0315364Y0263747D02*
X0317178Y0263747D01*
X0317170Y0263755D02*
X0315373Y0263755D01*
X0315381Y0263764D02*
X0317161Y0263764D01*
X0317153Y0263772D02*
X0315390Y0263772D01*
X0315398Y0263781D02*
X0317144Y0263781D01*
X0317136Y0263789D02*
X0315407Y0263789D01*
X0315415Y0263798D02*
X0317127Y0263798D01*
X0317119Y0263806D02*
X0315424Y0263806D01*
X0315432Y0263815D02*
X0317110Y0263815D01*
X0317102Y0263823D02*
X0315441Y0263823D01*
X0315449Y0263832D02*
X0317093Y0263832D01*
X0317085Y0263840D02*
X0315458Y0263840D01*
X0315466Y0263849D02*
X0317076Y0263849D01*
X0317068Y0263857D02*
X0315475Y0263857D01*
X0315483Y0263866D02*
X0317059Y0263866D01*
X0317051Y0263875D02*
X0315492Y0263875D01*
X0315505Y0263883D02*
X0317037Y0263883D01*
X0317024Y0263892D02*
X0315519Y0263892D01*
X0315532Y0263900D02*
X0317010Y0263900D01*
X0316997Y0263909D02*
X0315546Y0263909D01*
X0315560Y0263917D02*
X0316983Y0263917D01*
X0316970Y0263926D02*
X0315573Y0263926D01*
X0315587Y0263934D02*
X0316956Y0263934D01*
X0316942Y0263943D02*
X0315600Y0263943D01*
X0315614Y0263951D02*
X0316929Y0263951D01*
X0316915Y0263960D02*
X0315627Y0263960D01*
X0315641Y0263968D02*
X0316902Y0263968D01*
X0316888Y0263977D02*
X0315654Y0263977D01*
X0315668Y0263985D02*
X0316875Y0263985D01*
X0316861Y0263994D02*
X0315682Y0263994D01*
X0315695Y0264002D02*
X0316848Y0264002D01*
X0316834Y0264011D02*
X0315709Y0264011D01*
X0315722Y0264019D02*
X0316820Y0264019D01*
X0316802Y0264028D02*
X0315741Y0264028D01*
X0315765Y0264036D02*
X0316777Y0264036D01*
X0316753Y0264045D02*
X0315790Y0264045D01*
X0315814Y0264053D02*
X0316729Y0264053D01*
X0316704Y0264062D02*
X0315838Y0264062D01*
X0315863Y0264070D02*
X0316680Y0264070D01*
X0316656Y0264079D02*
X0315887Y0264079D01*
X0315911Y0264087D02*
X0316631Y0264087D01*
X0316607Y0264096D02*
X0315936Y0264096D01*
X0315960Y0264104D02*
X0316583Y0264104D01*
X0316558Y0264113D02*
X0315984Y0264113D01*
X0316042Y0264121D02*
X0316501Y0264121D01*
X0316426Y0264130D02*
X0316117Y0264130D01*
X0316193Y0264138D02*
X0316350Y0264138D01*
X0316274Y0264147D02*
X0316268Y0264147D01*
D54*
X0302546Y0278581D03*
X0296247Y0278581D03*
X0205916Y0278664D03*
X0200877Y0278664D03*
X0195916Y0278664D03*
X0190877Y0278664D03*
X0297192Y0118136D03*
X0301601Y0118136D03*
D55*
X0302388Y0278345D03*
X0296404Y0278345D03*
X0282231Y0278373D03*
X0276562Y0278373D03*
X0272231Y0278530D03*
X0266562Y0278530D03*
X0236231Y0278530D03*
X0230562Y0278530D03*
D56*
X0230719Y0278373D03*
X0236073Y0278373D03*
X0266719Y0278373D03*
X0272073Y0278373D03*
X0276719Y0278215D03*
X0282073Y0278215D03*
X0296562Y0278188D03*
X0302231Y0278188D03*
D57*
X0302073Y0278030D03*
X0296719Y0278030D03*
X0281759Y0278058D03*
X0277034Y0278058D03*
X0271759Y0278215D03*
X0267034Y0278215D03*
X0235759Y0278215D03*
X0231034Y0278215D03*
X0231601Y0118845D03*
X0231759Y0118845D03*
X0231916Y0118845D03*
X0232073Y0118845D03*
X0232231Y0118845D03*
X0232388Y0118845D03*
X0232546Y0118845D03*
X0227192Y0118845D03*
X0227034Y0118845D03*
X0226877Y0118845D03*
X0226719Y0118845D03*
X0226562Y0118845D03*
X0226404Y0118845D03*
X0226247Y0118845D03*
D58*
X0231192Y0278136D03*
X0235601Y0278136D03*
X0216546Y0278054D03*
X0210247Y0278054D03*
X0267192Y0278136D03*
X0271601Y0278136D03*
X0277192Y0277979D03*
X0281601Y0277979D03*
X0296877Y0277951D03*
X0301916Y0277951D03*
D59*
X0301759Y0277873D03*
X0297034Y0277873D03*
X0277349Y0277900D03*
X0267349Y0278058D03*
D60*
X0297192Y0277794D03*
X0301601Y0277794D03*
X0181349Y0278176D03*
X0237349Y0123176D03*
X0247349Y0123176D03*
D61*
X0286247Y0117349D03*
X0292546Y0117349D03*
X0161349Y0259747D03*
X0161192Y0280062D03*
X0211507Y0274589D03*
X0214814Y0274432D03*
X0214971Y0274432D03*
X0215286Y0274589D03*
X0221507Y0273747D03*
X0224814Y0273589D03*
X0224971Y0273589D03*
X0267664Y0276247D03*
X0267822Y0276089D03*
X0297349Y0275904D03*
X0298766Y0275274D03*
D62*
X0298609Y0275117D03*
X0297507Y0275589D03*
X0291601Y0279904D03*
X0287192Y0279904D03*
X0278766Y0275459D03*
X0278609Y0275459D03*
X0268766Y0275617D03*
X0268609Y0275617D03*
X0268451Y0275774D03*
X0268294Y0275774D03*
X0261601Y0279747D03*
X0257192Y0279747D03*
X0245601Y0279747D03*
X0241192Y0279747D03*
X0233239Y0275617D03*
X0221979Y0273432D03*
X0212136Y0274117D03*
X0211979Y0274274D03*
X0165444Y0259589D03*
X0163081Y0258959D03*
X0162924Y0258959D03*
X0162766Y0258959D03*
X0161507Y0259432D03*
X0153239Y0260117D03*
X0307192Y0279904D03*
X0311601Y0279904D03*
D63*
X0310184Y0282266D03*
X0307507Y0282266D03*
X0301444Y0282046D03*
X0299869Y0279054D03*
X0297507Y0282046D03*
X0281444Y0282073D03*
X0278924Y0282073D03*
X0280184Y0279396D03*
X0269396Y0277822D03*
X0259711Y0282109D03*
X0259554Y0282109D03*
X0245444Y0282109D03*
X0241507Y0282109D03*
X0225444Y0282251D03*
X0221507Y0282251D03*
X0204026Y0282129D03*
X0195444Y0282129D03*
X0191507Y0282129D03*
X0185129Y0282428D03*
X0181822Y0282428D03*
X0181822Y0269672D03*
X0185129Y0269672D03*
X0164499Y0276440D03*
X0164341Y0276440D03*
X0164184Y0276440D03*
X0162766Y0273605D03*
X0161664Y0269668D03*
X0155444Y0266888D03*
X0154026Y0264054D03*
X0164026Y0263054D03*
X0154656Y0276495D03*
X0154499Y0276495D03*
X0161507Y0282581D03*
X0123369Y0284684D03*
X0123211Y0284684D03*
X0122739Y0284684D03*
X0122581Y0284684D03*
X0120849Y0284999D03*
X0121322Y0288463D03*
X0122581Y0291613D03*
X0122739Y0291613D03*
X0123211Y0291613D03*
X0123369Y0291613D03*
X0120849Y0291928D03*
X0175822Y0242581D03*
X0175979Y0242581D03*
X0179129Y0242581D03*
X0178026Y0226286D03*
X0178026Y0212156D03*
X0198924Y0127113D03*
X0200499Y0127113D03*
X0191444Y0114959D03*
X0191286Y0114959D03*
X0191129Y0114959D03*
X0221444Y0114829D03*
X0221286Y0119081D03*
X0221286Y0122388D03*
X0227507Y0120341D03*
X0229554Y0122861D03*
X0229711Y0122861D03*
X0221444Y0126640D03*
X0237822Y0127428D03*
X0241129Y0127428D03*
X0247822Y0127428D03*
X0251129Y0127428D03*
X0257507Y0117349D03*
X0259554Y0114829D03*
X0259711Y0114829D03*
X0251129Y0114672D03*
X0247822Y0114672D03*
X0241129Y0114672D03*
X0237822Y0114672D03*
X0287822Y0114829D03*
X0297822Y0114672D03*
X0314849Y0205577D03*
X0316581Y0205262D03*
X0316739Y0205262D03*
X0317211Y0205262D03*
X0317369Y0205262D03*
X0318451Y0269959D03*
X0320341Y0269959D03*
X0320026Y0273424D03*
X0318924Y0273424D03*
X0327822Y0271542D03*
X0330971Y0271542D03*
X0321129Y0282400D03*
D64*
X0311759Y0279983D03*
X0307034Y0279983D03*
X0301444Y0275668D03*
X0301286Y0275510D03*
X0298451Y0275196D03*
X0298136Y0275196D03*
X0297822Y0275353D03*
X0297664Y0275510D03*
X0291759Y0279983D03*
X0287034Y0279983D03*
X0279239Y0275381D03*
X0279081Y0275381D03*
X0278924Y0275381D03*
X0278451Y0275538D03*
X0278294Y0275538D03*
X0278136Y0275538D03*
X0271444Y0276168D03*
X0271286Y0276010D03*
X0269239Y0275538D03*
X0269081Y0275538D03*
X0268924Y0275538D03*
X0261759Y0279825D03*
X0257034Y0279825D03*
X0245759Y0279825D03*
X0241034Y0279825D03*
X0234656Y0275696D03*
X0233081Y0275538D03*
X0232924Y0275538D03*
X0231507Y0276010D03*
X0223081Y0273038D03*
X0222136Y0273196D03*
X0213081Y0273881D03*
X0212924Y0273881D03*
X0212294Y0274038D03*
X0165286Y0259353D03*
X0162609Y0258881D03*
X0162294Y0259038D03*
X0162136Y0259038D03*
X0161822Y0259196D03*
X0161664Y0259353D03*
X0155444Y0260668D03*
X0153081Y0260038D03*
X0152924Y0260038D03*
X0152766Y0260038D03*
X0151507Y0260510D03*
X0217349Y0120735D03*
D65*
X0219396Y0123176D03*
X0219554Y0123176D03*
X0221129Y0122388D03*
X0221129Y0119081D03*
X0221286Y0114672D03*
X0218766Y0114672D03*
X0217664Y0114672D03*
X0209239Y0120314D03*
X0209711Y0127085D03*
X0210499Y0127085D03*
X0217664Y0126798D03*
X0219396Y0126798D03*
X0221286Y0126798D03*
X0227349Y0123018D03*
X0228924Y0123018D03*
X0229081Y0123018D03*
X0227822Y0120341D03*
X0227664Y0120341D03*
X0228609Y0117507D03*
X0228766Y0117507D03*
X0231129Y0118766D03*
X0231444Y0114672D03*
X0237979Y0114514D03*
X0238136Y0114514D03*
X0240814Y0114514D03*
X0247979Y0114514D03*
X0248136Y0114514D03*
X0250814Y0114514D03*
X0257349Y0114672D03*
X0258924Y0114672D03*
X0259081Y0114672D03*
X0257822Y0117349D03*
X0257664Y0117349D03*
X0261444Y0118766D03*
X0250814Y0127585D03*
X0248136Y0127585D03*
X0240814Y0127585D03*
X0238136Y0127585D03*
X0199554Y0118766D03*
X0199396Y0118766D03*
X0190499Y0114802D03*
X0190341Y0114802D03*
X0190184Y0114802D03*
X0191129Y0130550D03*
X0279239Y0115904D03*
X0279711Y0117322D03*
X0279869Y0117322D03*
X0281286Y0120944D03*
X0287979Y0114672D03*
X0309711Y0114514D03*
X0310499Y0114514D03*
X0310499Y0118766D03*
X0319711Y0114672D03*
X0329711Y0114514D03*
X0330499Y0114514D03*
X0329869Y0121916D03*
X0317054Y0194081D03*
X0316424Y0198018D03*
X0316581Y0201483D03*
X0317369Y0201483D03*
X0316424Y0205105D03*
X0318766Y0270117D03*
X0320026Y0270117D03*
X0320341Y0273266D03*
X0321444Y0273109D03*
X0318609Y0273266D03*
X0318451Y0273266D03*
X0327507Y0271699D03*
X0331286Y0271699D03*
X0331444Y0271857D03*
X0320814Y0282558D03*
X0317979Y0282558D03*
X0309869Y0282424D03*
X0307822Y0282424D03*
X0301286Y0282203D03*
X0299396Y0282203D03*
X0297664Y0282203D03*
X0281286Y0282231D03*
X0271286Y0282388D03*
X0259081Y0282266D03*
X0251081Y0280940D03*
X0251081Y0278577D03*
X0243239Y0282266D03*
X0241664Y0282266D03*
X0234814Y0282388D03*
X0234656Y0282388D03*
X0225129Y0282408D03*
X0221664Y0282408D03*
X0203711Y0282286D03*
X0201979Y0282286D03*
X0201822Y0282286D03*
X0203396Y0279136D03*
X0193396Y0282286D03*
X0193239Y0282286D03*
X0191822Y0282286D03*
X0191664Y0282286D03*
X0184814Y0282585D03*
X0182136Y0282585D03*
X0175286Y0280444D03*
X0173869Y0276822D03*
X0173711Y0276822D03*
X0173239Y0275404D03*
X0165286Y0271400D03*
X0163081Y0273605D03*
X0163554Y0276597D03*
X0163711Y0276597D03*
X0163396Y0282739D03*
X0163239Y0282739D03*
X0161822Y0282739D03*
X0165129Y0282739D03*
X0154814Y0282636D03*
X0154656Y0282636D03*
X0154026Y0276652D03*
X0153869Y0276652D03*
X0151507Y0266888D03*
X0153869Y0263896D03*
X0163869Y0262896D03*
X0181979Y0269514D03*
X0182136Y0269514D03*
X0184814Y0269514D03*
X0179286Y0242581D03*
X0175664Y0242581D03*
X0179286Y0230381D03*
X0122424Y0284526D03*
X0121164Y0288463D03*
X0122424Y0291455D03*
D66*
X0151664Y0260432D03*
X0151822Y0260274D03*
X0152136Y0260117D03*
X0152294Y0260117D03*
X0152609Y0259959D03*
X0155286Y0260432D03*
X0161979Y0259117D03*
X0162451Y0258959D03*
X0164656Y0258959D03*
X0164971Y0259117D03*
X0165129Y0259274D03*
X0212451Y0273959D03*
X0212609Y0273802D03*
X0212766Y0273802D03*
X0222294Y0273117D03*
X0222609Y0272959D03*
X0222766Y0272959D03*
X0222924Y0272959D03*
X0231664Y0275932D03*
X0231822Y0275774D03*
X0232136Y0275617D03*
X0232294Y0275617D03*
X0232609Y0275459D03*
X0232766Y0275459D03*
X0240877Y0279904D03*
X0245916Y0279904D03*
X0256877Y0279904D03*
X0261916Y0279904D03*
X0270656Y0275617D03*
X0270971Y0275774D03*
X0271129Y0275932D03*
X0277507Y0275774D03*
X0277664Y0275774D03*
X0277822Y0275617D03*
X0277979Y0275617D03*
X0280656Y0275459D03*
X0281286Y0275774D03*
X0281444Y0275932D03*
X0286877Y0280062D03*
X0291916Y0280062D03*
X0297979Y0275274D03*
X0298294Y0275117D03*
X0300656Y0275117D03*
X0300971Y0275274D03*
X0301129Y0275432D03*
X0306877Y0280062D03*
X0311916Y0280062D03*
D67*
X0299239Y0275589D03*
X0299081Y0275589D03*
X0298924Y0275589D03*
X0206546Y0279294D03*
X0200247Y0279294D03*
X0196546Y0279294D03*
X0190247Y0279294D03*
D68*
X0164814Y0259038D03*
X0155129Y0260353D03*
X0154971Y0260196D03*
X0154656Y0260038D03*
X0152451Y0260038D03*
X0151979Y0260196D03*
X0151349Y0272479D03*
X0222451Y0273038D03*
X0231979Y0275696D03*
X0232451Y0275538D03*
X0234814Y0275696D03*
X0234971Y0275696D03*
X0240719Y0279983D03*
X0246073Y0279983D03*
X0256719Y0279983D03*
X0262073Y0279983D03*
X0270814Y0275696D03*
X0280971Y0275538D03*
X0286719Y0280140D03*
X0292073Y0280140D03*
X0300814Y0275196D03*
X0306719Y0280140D03*
X0312073Y0280140D03*
D69*
X0282546Y0278766D03*
X0276247Y0278766D03*
X0272546Y0278924D03*
X0266247Y0278924D03*
X0236546Y0278924D03*
X0230247Y0278924D03*
X0155759Y0279172D03*
X0287192Y0118136D03*
X0291601Y0118136D03*
X0296877Y0117979D03*
X0301916Y0117979D03*
D70*
X0297349Y0118215D03*
X0282388Y0278530D03*
X0276404Y0278530D03*
X0272388Y0278688D03*
X0266404Y0278688D03*
X0236388Y0278688D03*
X0230404Y0278688D03*
X0205759Y0278585D03*
X0201034Y0278585D03*
X0195759Y0278585D03*
X0191034Y0278585D03*
D71*
X0230877Y0278294D03*
X0235916Y0278294D03*
X0266877Y0278294D03*
X0271916Y0278294D03*
X0276877Y0278136D03*
X0281916Y0278136D03*
D72*
X0280026Y0279318D03*
X0279081Y0282152D03*
X0271444Y0282310D03*
X0269239Y0282310D03*
X0259396Y0282188D03*
X0259239Y0282188D03*
X0245286Y0282188D03*
X0234971Y0282310D03*
X0234026Y0279475D03*
X0233869Y0279475D03*
X0234184Y0279318D03*
X0234341Y0279160D03*
X0231507Y0282310D03*
X0225286Y0282329D03*
X0203869Y0282207D03*
X0201664Y0282207D03*
X0195286Y0282207D03*
X0193869Y0279215D03*
X0184971Y0282507D03*
X0181979Y0282507D03*
X0173554Y0276743D03*
X0171664Y0280365D03*
X0165286Y0282660D03*
X0161664Y0282660D03*
X0163869Y0276518D03*
X0164026Y0276518D03*
X0162924Y0273684D03*
X0165444Y0271479D03*
X0161822Y0269747D03*
X0162609Y0264707D03*
X0162766Y0264707D03*
X0152766Y0265707D03*
X0152609Y0265707D03*
X0154656Y0272951D03*
X0154341Y0276573D03*
X0154184Y0276573D03*
X0154971Y0282558D03*
X0151507Y0282558D03*
X0124629Y0288385D03*
X0123054Y0288699D03*
X0122896Y0288542D03*
X0122739Y0288385D03*
X0121007Y0280983D03*
X0184971Y0269593D03*
X0175664Y0230459D03*
X0176924Y0226365D03*
X0177869Y0226365D03*
X0177869Y0212235D03*
X0176924Y0212235D03*
X0175507Y0207983D03*
X0175507Y0200117D03*
X0175507Y0190983D03*
X0178184Y0190983D03*
X0187664Y0130471D03*
X0199081Y0132073D03*
X0199239Y0132073D03*
X0199396Y0132073D03*
X0199554Y0132073D03*
X0199711Y0132073D03*
X0199869Y0132073D03*
X0207664Y0131259D03*
X0217507Y0126719D03*
X0219711Y0123097D03*
X0217664Y0120735D03*
X0217507Y0120735D03*
X0217507Y0114751D03*
X0210814Y0120235D03*
X0209554Y0120235D03*
X0209396Y0120235D03*
X0210499Y0121495D03*
X0190971Y0114881D03*
X0190814Y0114881D03*
X0190656Y0114881D03*
X0229239Y0122940D03*
X0229396Y0122940D03*
X0237979Y0127507D03*
X0240971Y0127507D03*
X0247979Y0127507D03*
X0250971Y0127507D03*
X0250971Y0114593D03*
X0259239Y0114751D03*
X0259396Y0114751D03*
X0240971Y0114593D03*
X0231286Y0118688D03*
X0277664Y0120865D03*
X0279554Y0117243D03*
X0297979Y0114593D03*
X0309554Y0114593D03*
X0319554Y0114751D03*
X0329554Y0114593D03*
X0316581Y0197940D03*
X0316424Y0201562D03*
X0317526Y0201562D03*
X0318609Y0270038D03*
X0320184Y0270038D03*
X0320184Y0273345D03*
X0318766Y0273345D03*
X0317349Y0275865D03*
X0321444Y0275865D03*
X0327349Y0278235D03*
X0331444Y0278235D03*
X0331129Y0271621D03*
X0327664Y0271621D03*
X0320971Y0282479D03*
X0317822Y0282479D03*
X0310026Y0282345D03*
X0307664Y0282345D03*
X0252184Y0269680D03*
X0249507Y0269680D03*
D73*
X0251396Y0274483D03*
X0251554Y0274483D03*
X0259396Y0277542D03*
X0259554Y0277542D03*
X0279396Y0274042D03*
X0309711Y0277699D03*
X0213396Y0272542D03*
X0163396Y0257542D03*
X0177396Y0195786D03*
X0177554Y0195786D03*
X0209081Y0131337D03*
X0210026Y0131180D03*
X0190814Y0129762D03*
X0299081Y0121444D03*
X0310026Y0125223D03*
X0310184Y0125223D03*
X0310341Y0125066D03*
X0310499Y0125066D03*
X0310656Y0125066D03*
X0310814Y0124908D03*
X0310971Y0124908D03*
X0331444Y0124593D03*
X0316896Y0192979D03*
D74*
X0292388Y0117585D03*
X0286404Y0117585D03*
X0267507Y0276483D03*
D75*
X0267979Y0276010D03*
X0268136Y0275853D03*
X0257349Y0279668D03*
X0231349Y0276325D03*
X0225444Y0273825D03*
X0225286Y0273668D03*
X0225129Y0273668D03*
X0221822Y0273510D03*
X0221664Y0273668D03*
X0215444Y0274668D03*
X0215129Y0274510D03*
X0211822Y0274353D03*
X0211664Y0274510D03*
X0163239Y0259038D03*
X0151349Y0260825D03*
X0151192Y0280038D03*
X0287349Y0279825D03*
D76*
X0269081Y0282152D03*
X0259869Y0282030D03*
X0252026Y0269837D03*
X0249664Y0269837D03*
X0251711Y0266373D03*
X0233396Y0277900D03*
X0235129Y0282152D03*
X0231349Y0282152D03*
X0204184Y0282050D03*
X0201507Y0282050D03*
X0181664Y0282349D03*
X0175129Y0280365D03*
X0165444Y0282503D03*
X0164814Y0276361D03*
X0164656Y0276361D03*
X0162609Y0273684D03*
X0162451Y0273684D03*
X0154971Y0276416D03*
X0154814Y0276416D03*
X0154499Y0272951D03*
X0154341Y0272951D03*
X0154184Y0269329D03*
X0152766Y0269329D03*
X0153396Y0262400D03*
X0163396Y0261400D03*
X0181664Y0269751D03*
X0155129Y0282400D03*
X0151349Y0282400D03*
X0124471Y0288385D03*
X0121636Y0288385D03*
X0121479Y0288385D03*
X0122896Y0291692D03*
X0123054Y0291692D03*
X0123054Y0284762D03*
X0122896Y0284762D03*
X0121164Y0281140D03*
X0175822Y0230459D03*
X0179129Y0230459D03*
X0176766Y0226365D03*
X0176766Y0212235D03*
X0178971Y0210188D03*
X0175664Y0208140D03*
X0175664Y0200117D03*
X0175664Y0191140D03*
X0178026Y0191140D03*
X0198451Y0127034D03*
X0198609Y0127034D03*
X0198766Y0127034D03*
X0200026Y0127034D03*
X0200184Y0127034D03*
X0200341Y0127034D03*
X0191601Y0115038D03*
X0229869Y0122782D03*
X0230026Y0122782D03*
X0237664Y0127349D03*
X0247664Y0127349D03*
X0247664Y0114751D03*
X0259869Y0114908D03*
X0260026Y0114908D03*
X0281129Y0120865D03*
X0287664Y0114908D03*
X0289239Y0114908D03*
X0289396Y0114908D03*
X0289554Y0114908D03*
X0289711Y0114908D03*
X0289869Y0114908D03*
X0290026Y0114908D03*
X0290184Y0114908D03*
X0290341Y0114908D03*
X0290499Y0114908D03*
X0290656Y0114908D03*
X0290814Y0114908D03*
X0290971Y0114908D03*
X0291129Y0114908D03*
X0291286Y0114908D03*
X0291444Y0114908D03*
X0297664Y0114751D03*
X0299239Y0114751D03*
X0299396Y0114751D03*
X0299554Y0114751D03*
X0299711Y0114751D03*
X0299869Y0114751D03*
X0300026Y0114751D03*
X0300184Y0114751D03*
X0300341Y0114751D03*
X0300499Y0114751D03*
X0300656Y0114751D03*
X0300814Y0114751D03*
X0300971Y0114751D03*
X0301129Y0114751D03*
X0301286Y0114751D03*
X0237664Y0114751D03*
X0316896Y0205341D03*
X0317054Y0205341D03*
X0318294Y0269881D03*
X0320499Y0269881D03*
X0319869Y0273503D03*
X0319711Y0273503D03*
X0319081Y0273503D03*
X0327979Y0271463D03*
X0330814Y0271463D03*
X0321286Y0282322D03*
X0317664Y0282322D03*
D77*
X0326877Y0277290D03*
X0331916Y0277290D03*
X0226388Y0277448D03*
X0220404Y0277448D03*
X0215759Y0277345D03*
X0211034Y0277345D03*
X0306404Y0119475D03*
X0312388Y0119475D03*
X0316404Y0119633D03*
X0322388Y0119633D03*
X0326404Y0119475D03*
X0332388Y0119475D03*
D78*
X0332231Y0119633D03*
X0326562Y0119633D03*
X0322231Y0119790D03*
X0316562Y0119790D03*
X0312231Y0119633D03*
X0306562Y0119633D03*
X0327192Y0277133D03*
X0331601Y0277133D03*
X0226231Y0277290D03*
X0220562Y0277290D03*
X0211349Y0277188D03*
D79*
X0220719Y0277133D03*
X0226073Y0277133D03*
X0306719Y0119790D03*
X0312073Y0119790D03*
X0316719Y0119948D03*
X0322073Y0119948D03*
X0326719Y0119790D03*
X0332073Y0119790D03*
D80*
X0331916Y0119869D03*
X0326877Y0119869D03*
X0321916Y0120026D03*
X0316877Y0120026D03*
X0311916Y0119869D03*
X0306877Y0119869D03*
X0225916Y0277054D03*
X0220877Y0277054D03*
D81*
X0221034Y0276975D03*
X0225759Y0276975D03*
X0256247Y0120105D03*
X0256404Y0120105D03*
X0256562Y0120105D03*
X0256719Y0120105D03*
X0256877Y0120105D03*
X0257034Y0120105D03*
X0257192Y0120105D03*
X0261601Y0120105D03*
X0261759Y0120105D03*
X0261916Y0120105D03*
X0262073Y0120105D03*
X0262231Y0120105D03*
X0262388Y0120105D03*
X0262546Y0120105D03*
X0307034Y0119948D03*
X0311759Y0119948D03*
X0317034Y0120105D03*
X0321759Y0120105D03*
X0327034Y0119948D03*
X0331759Y0119948D03*
D82*
X0331601Y0120026D03*
X0327192Y0120026D03*
X0321601Y0120184D03*
X0317192Y0120184D03*
X0311601Y0120026D03*
X0307192Y0120026D03*
X0225601Y0276896D03*
X0221192Y0276896D03*
D83*
X0221349Y0275007D03*
X0205601Y0278507D03*
X0201192Y0278507D03*
X0195601Y0278507D03*
X0191192Y0278507D03*
D84*
X0213239Y0274274D03*
X0223239Y0273432D03*
X0296247Y0117349D03*
X0302546Y0117349D03*
D85*
X0257349Y0122782D03*
X0224656Y0273510D03*
X0214656Y0274353D03*
D86*
X0216388Y0277818D03*
X0210404Y0277818D03*
D87*
X0210562Y0277660D03*
X0216231Y0277660D03*
X0326404Y0277605D03*
X0332388Y0277605D03*
D88*
X0332231Y0277448D03*
X0326562Y0277448D03*
X0216073Y0277503D03*
X0210719Y0277503D03*
D89*
X0210877Y0277424D03*
X0215916Y0277424D03*
X0326719Y0277369D03*
X0332073Y0277369D03*
D90*
X0331759Y0277211D03*
X0327034Y0277211D03*
X0215601Y0277266D03*
X0211192Y0277266D03*
D91*
X0307349Y0120105D03*
D92*
X0307664Y0116640D03*
X0309239Y0116640D03*
X0310656Y0116640D03*
X0310814Y0116640D03*
X0310971Y0116640D03*
X0311129Y0116640D03*
X0311286Y0116640D03*
X0311444Y0116640D03*
X0317507Y0116798D03*
X0321286Y0116798D03*
X0321444Y0116798D03*
X0327664Y0116640D03*
X0329239Y0116640D03*
X0330656Y0116640D03*
X0330814Y0116640D03*
X0330971Y0116640D03*
X0331129Y0116640D03*
X0331286Y0116640D03*
X0331444Y0116640D03*
X0312231Y0280298D03*
X0306562Y0280298D03*
X0292231Y0280298D03*
X0286562Y0280298D03*
X0262231Y0280140D03*
X0256562Y0280140D03*
X0246231Y0280140D03*
X0240562Y0280140D03*
D93*
X0191349Y0276617D03*
X0307822Y0116562D03*
X0317664Y0116719D03*
X0319239Y0116719D03*
X0320656Y0116719D03*
X0320814Y0116719D03*
X0320971Y0116719D03*
X0321129Y0116719D03*
X0327822Y0116562D03*
D94*
X0331286Y0124908D03*
X0309711Y0125381D03*
X0309554Y0125381D03*
X0288924Y0121444D03*
X0210499Y0131022D03*
X0201444Y0131207D03*
X0190971Y0129762D03*
X0175979Y0222192D03*
X0175664Y0222192D03*
X0175507Y0222192D03*
X0151664Y0273660D03*
X0151507Y0273660D03*
X0194341Y0275042D03*
X0194499Y0275042D03*
X0194656Y0275042D03*
X0204341Y0275042D03*
X0204499Y0275042D03*
X0204656Y0275042D03*
X0260026Y0277385D03*
X0260184Y0277385D03*
D95*
X0286877Y0117979D03*
X0291916Y0117979D03*
X0317349Y0117979D03*
X0327349Y0117822D03*
D96*
X0318766Y0116247D03*
X0318609Y0116247D03*
D97*
X0212546Y0122203D03*
X0206247Y0122203D03*
D98*
X0206404Y0122282D03*
X0212388Y0122282D03*
D99*
X0212073Y0122518D03*
X0206719Y0122518D03*
D100*
X0207979Y0123148D03*
D101*
X0208294Y0123306D03*
X0161192Y0265888D03*
D102*
X0187822Y0122755D03*
X0211916Y0122597D03*
D103*
X0156546Y0271298D03*
X0150247Y0271298D03*
D104*
X0150404Y0271062D03*
X0156388Y0271062D03*
D105*
X0156231Y0270904D03*
X0150562Y0270904D03*
D106*
X0150719Y0270747D03*
X0156073Y0270747D03*
D107*
X0155916Y0270668D03*
X0160247Y0270770D03*
X0166546Y0270770D03*
X0150877Y0270668D03*
D108*
X0151034Y0270589D03*
D109*
X0151192Y0266573D03*
X0188294Y0122991D03*
D110*
X0155601Y0265629D03*
X0316719Y0275314D03*
X0322073Y0275314D03*
D111*
X0206231Y0278900D03*
X0200562Y0278900D03*
X0196231Y0278900D03*
X0190562Y0278900D03*
X0155601Y0279251D03*
X0287034Y0118058D03*
X0291759Y0118058D03*
X0296719Y0117900D03*
X0302073Y0117900D03*
D112*
X0192231Y0122125D03*
X0186562Y0122125D03*
X0155759Y0265865D03*
X0316562Y0275235D03*
X0322231Y0275235D03*
D113*
X0166388Y0270534D03*
X0160404Y0270534D03*
D114*
X0160562Y0270377D03*
X0166231Y0270377D03*
D115*
X0166073Y0270219D03*
X0160719Y0270219D03*
D116*
X0160877Y0270140D03*
X0165916Y0270140D03*
D117*
X0161034Y0270062D03*
D118*
X0161349Y0269983D03*
X0326247Y0277684D03*
X0332546Y0277684D03*
D119*
X0165601Y0264944D03*
D120*
X0165601Y0279196D03*
X0165759Y0279196D03*
X0190719Y0278743D03*
X0196073Y0278743D03*
X0200719Y0278743D03*
X0206073Y0278743D03*
X0287349Y0118215D03*
X0297034Y0118058D03*
X0301759Y0118058D03*
D121*
X0192546Y0121888D03*
X0186247Y0121888D03*
X0317034Y0275471D03*
X0321759Y0275471D03*
D122*
X0321916Y0275392D03*
X0316877Y0275392D03*
X0192388Y0121967D03*
X0186404Y0121967D03*
D123*
X0186719Y0122203D03*
X0192073Y0122203D03*
X0316404Y0275156D03*
X0322388Y0275156D03*
D124*
X0187979Y0122833D03*
D125*
X0189239Y0130235D03*
X0298924Y0121129D03*
X0290656Y0278172D03*
X0290499Y0278172D03*
X0290341Y0278172D03*
X0258609Y0277857D03*
D126*
X0189554Y0130156D03*
X0189396Y0130156D03*
X0227349Y0116168D03*
D127*
X0222546Y0120735D03*
X0222388Y0120735D03*
X0222231Y0120735D03*
X0222073Y0120735D03*
X0221916Y0120735D03*
X0221759Y0120735D03*
X0221601Y0120735D03*
X0217192Y0120735D03*
X0217034Y0120735D03*
X0216877Y0120735D03*
X0216719Y0120735D03*
X0216562Y0120735D03*
X0216404Y0120735D03*
X0216247Y0120735D03*
D128*
X0286562Y0117743D03*
X0292231Y0117743D03*
X0296404Y0117585D03*
X0302388Y0117585D03*
D129*
X0302231Y0117743D03*
X0296562Y0117743D03*
X0292073Y0117900D03*
X0286719Y0117900D03*
X0206388Y0279058D03*
X0200404Y0279058D03*
X0196388Y0279058D03*
X0190404Y0279058D03*
D130*
X0258924Y0277699D03*
X0259081Y0277699D03*
X0291129Y0278329D03*
X0291444Y0278487D03*
X0309554Y0277857D03*
X0298609Y0121286D03*
X0288766Y0121129D03*
D131*
X0252546Y0121050D03*
X0252388Y0121050D03*
X0252231Y0121050D03*
X0252073Y0121050D03*
X0251916Y0121050D03*
X0251759Y0121050D03*
X0251601Y0121050D03*
X0247192Y0121050D03*
X0247034Y0121050D03*
X0246877Y0121050D03*
X0246719Y0121050D03*
X0246562Y0121050D03*
X0246404Y0121050D03*
X0246247Y0121050D03*
X0242546Y0121050D03*
X0242388Y0121050D03*
X0242231Y0121050D03*
X0242073Y0121050D03*
X0241916Y0121050D03*
X0241759Y0121050D03*
X0241601Y0121050D03*
X0237192Y0121050D03*
X0237034Y0121050D03*
X0236877Y0121050D03*
X0236719Y0121050D03*
X0236562Y0121050D03*
X0236404Y0121050D03*
X0236247Y0121050D03*
X0186546Y0276050D03*
X0186388Y0276050D03*
X0186231Y0276050D03*
X0186073Y0276050D03*
X0185916Y0276050D03*
X0185759Y0276050D03*
X0185601Y0276050D03*
X0181192Y0276050D03*
X0181034Y0276050D03*
X0180877Y0276050D03*
X0180719Y0276050D03*
X0180562Y0276050D03*
X0180404Y0276050D03*
X0180247Y0276050D03*
D132*
X0196247Y0123412D03*
X0196404Y0123412D03*
X0196562Y0123412D03*
X0196719Y0123412D03*
X0196877Y0123412D03*
X0197034Y0123412D03*
X0197192Y0123412D03*
X0201601Y0123412D03*
X0201759Y0123412D03*
X0201916Y0123412D03*
X0202073Y0123412D03*
X0202231Y0123412D03*
X0202388Y0123412D03*
X0202546Y0123412D03*
D133*
X0197349Y0126168D03*
D134*
X0185790Y0141991D02*
X0185396Y0141833D01*
X0184885Y0141755D01*
X0184885Y0143211D01*
X0185121Y0143211D01*
X0185318Y0143290D01*
X0185475Y0143408D01*
X0185711Y0143723D01*
X0185751Y0143959D01*
X0185790Y0144156D01*
X0185829Y0144392D01*
X0185790Y0144550D01*
X0185790Y0144707D01*
X0185751Y0144865D01*
X0185672Y0145022D01*
X0185554Y0145180D01*
X0185436Y0145298D01*
X0185121Y0145377D01*
X0184963Y0145337D01*
X0184806Y0145259D01*
X0184688Y0145101D01*
X0184570Y0144904D01*
X0184491Y0144668D01*
X0184333Y0144038D01*
X0184255Y0143644D01*
X0184176Y0143290D01*
X0184058Y0142975D01*
X0183940Y0142699D01*
X0183782Y0142424D01*
X0183625Y0142188D01*
X0183388Y0142030D01*
X0183113Y0141912D01*
X0182759Y0141873D01*
X0182286Y0141912D01*
X0181892Y0142070D01*
X0181577Y0142345D01*
X0181341Y0142621D01*
X0181144Y0143014D01*
X0181066Y0143408D01*
X0180987Y0143841D01*
X0180987Y0144747D01*
X0181066Y0145180D01*
X0181184Y0145573D01*
X0181341Y0145928D01*
X0181577Y0146243D01*
X0181892Y0146479D01*
X0182286Y0146676D01*
X0182759Y0146755D01*
X0182759Y0145298D01*
X0182562Y0145259D01*
X0182365Y0145180D01*
X0182247Y0145101D01*
X0182168Y0144983D01*
X0182089Y0144825D01*
X0182010Y0144629D01*
X0182010Y0143959D01*
X0182050Y0143841D01*
X0182089Y0143684D01*
X0182129Y0143566D01*
X0182365Y0143408D01*
X0182522Y0143408D01*
X0182680Y0143448D01*
X0182837Y0143566D01*
X0182955Y0143723D01*
X0183073Y0143959D01*
X0183152Y0144196D01*
X0183192Y0144510D01*
X0183428Y0145455D01*
X0183507Y0145810D01*
X0183822Y0146361D01*
X0184018Y0146597D01*
X0184255Y0146755D01*
X0184530Y0146873D01*
X0184885Y0146912D01*
X0185396Y0146833D01*
X0185829Y0146676D01*
X0186144Y0146440D01*
X0186420Y0146125D01*
X0186617Y0145731D01*
X0186735Y0145298D01*
X0186814Y0144825D01*
X0186853Y0144353D01*
X0186814Y0143881D01*
X0186735Y0143408D01*
X0186617Y0142975D01*
X0186420Y0142581D01*
X0186144Y0142266D01*
X0185790Y0141991D01*
X0185516Y0141881D02*
X0184885Y0141881D01*
X0184885Y0142180D02*
X0186033Y0142180D01*
X0186330Y0142478D02*
X0184885Y0142478D01*
X0184885Y0142777D02*
X0186518Y0142777D01*
X0186644Y0143075D02*
X0184885Y0143075D01*
X0185429Y0143374D02*
X0186726Y0143374D01*
X0186779Y0143672D02*
X0185673Y0143672D01*
X0185753Y0143971D02*
X0186821Y0143971D01*
X0186846Y0144269D02*
X0185809Y0144269D01*
X0185790Y0144568D02*
X0186835Y0144568D01*
X0186807Y0144866D02*
X0185750Y0144866D01*
X0185565Y0145165D02*
X0186757Y0145165D01*
X0186690Y0145463D02*
X0183430Y0145463D01*
X0183496Y0145762D02*
X0186601Y0145762D01*
X0186452Y0146060D02*
X0183650Y0146060D01*
X0183820Y0146359D02*
X0186215Y0146359D01*
X0185854Y0146657D02*
X0184109Y0146657D01*
X0182759Y0146657D02*
X0182249Y0146657D01*
X0182759Y0146359D02*
X0181732Y0146359D01*
X0181441Y0146060D02*
X0182759Y0146060D01*
X0182759Y0145762D02*
X0181267Y0145762D01*
X0181151Y0145463D02*
X0182759Y0145463D01*
X0182342Y0145165D02*
X0181063Y0145165D01*
X0181009Y0144866D02*
X0182110Y0144866D01*
X0182010Y0144568D02*
X0180987Y0144568D01*
X0180987Y0144269D02*
X0182010Y0144269D01*
X0182010Y0143971D02*
X0180987Y0143971D01*
X0181018Y0143672D02*
X0182093Y0143672D01*
X0182917Y0143672D02*
X0184260Y0143672D01*
X0184320Y0143971D02*
X0183077Y0143971D01*
X0183161Y0144269D02*
X0184391Y0144269D01*
X0184466Y0144568D02*
X0183206Y0144568D01*
X0183281Y0144866D02*
X0184557Y0144866D01*
X0184735Y0145165D02*
X0183355Y0145165D01*
X0184194Y0143374D02*
X0181073Y0143374D01*
X0181132Y0143075D02*
X0184095Y0143075D01*
X0183973Y0142777D02*
X0181263Y0142777D01*
X0181463Y0142478D02*
X0183813Y0142478D01*
X0183613Y0142180D02*
X0181767Y0142180D01*
X0182657Y0141881D02*
X0182834Y0141881D01*
X0181381Y0147542D02*
X0181341Y0147699D01*
X0181302Y0147896D01*
X0181302Y0148093D01*
X0181262Y0148251D01*
X0181223Y0148448D01*
X0189460Y0148448D01*
X0189648Y0148684D02*
X0189176Y0148093D01*
X0188822Y0147739D01*
X0188664Y0147542D01*
X0181381Y0147542D01*
X0181378Y0147553D02*
X0188673Y0147553D01*
X0188934Y0147851D02*
X0181311Y0147851D01*
X0181288Y0148150D02*
X0189221Y0148150D01*
X0189648Y0148684D02*
X0190003Y0149038D01*
X0185987Y0149038D01*
X0185987Y0149077D01*
X0186381Y0149392D01*
X0186617Y0149786D01*
X0186735Y0150022D01*
X0186853Y0150731D01*
X0186774Y0151322D01*
X0186617Y0151794D01*
X0186302Y0152227D01*
X0185948Y0152581D01*
X0185514Y0152818D01*
X0184885Y0151479D01*
X0185160Y0151361D01*
X0185357Y0151203D01*
X0185554Y0150967D01*
X0185633Y0150652D01*
X0185672Y0150337D01*
X0185633Y0149983D01*
X0185554Y0149707D01*
X0185357Y0149471D01*
X0185160Y0149274D01*
X0184885Y0149156D01*
X0184255Y0148999D01*
X0183585Y0148999D01*
X0183270Y0149038D01*
X0182955Y0149156D01*
X0182680Y0149274D01*
X0182444Y0149471D01*
X0182286Y0149668D01*
X0182168Y0149983D01*
X0182129Y0150298D01*
X0182168Y0150652D01*
X0182286Y0150928D01*
X0182444Y0151164D01*
X0182680Y0151361D01*
X0182955Y0151479D01*
X0183270Y0151597D01*
X0183585Y0151636D01*
X0183940Y0151636D01*
X0183979Y0153172D01*
X0183388Y0153133D01*
X0182837Y0153014D01*
X0182325Y0152857D01*
X0181892Y0152581D01*
X0181499Y0152227D01*
X0181223Y0151794D01*
X0181026Y0151243D01*
X0180987Y0150652D01*
X0180987Y0150377D01*
X0181066Y0149904D01*
X0181302Y0149510D01*
X0181459Y0149314D01*
X0181617Y0149156D01*
X0181814Y0148999D01*
X0181105Y0148999D01*
X0181184Y0148605D01*
X0181223Y0148448D01*
X0181155Y0148747D02*
X0189711Y0148747D01*
X0186694Y0149941D02*
X0185621Y0149941D01*
X0185661Y0150239D02*
X0186771Y0150239D01*
X0186821Y0150538D02*
X0185647Y0150538D01*
X0185586Y0150836D02*
X0186839Y0150836D01*
X0186799Y0151135D02*
X0185414Y0151135D01*
X0184991Y0151434D02*
X0186737Y0151434D01*
X0186637Y0151732D02*
X0185004Y0151732D01*
X0183942Y0151732D01*
X0181201Y0151732D01*
X0181094Y0151434D02*
X0182849Y0151434D01*
X0182424Y0151135D02*
X0181019Y0151135D01*
X0180999Y0150836D02*
X0182247Y0150836D01*
X0182155Y0150538D02*
X0180987Y0150538D01*
X0181010Y0150239D02*
X0182136Y0150239D01*
X0182184Y0149941D02*
X0181059Y0149941D01*
X0181223Y0149642D02*
X0182307Y0149642D01*
X0182596Y0149344D02*
X0181435Y0149344D01*
X0181755Y0149045D02*
X0183251Y0149045D01*
X0184441Y0149045D02*
X0185987Y0149045D01*
X0186320Y0149344D02*
X0185230Y0149344D01*
X0185500Y0149642D02*
X0186531Y0149642D01*
X0186445Y0152031D02*
X0185144Y0152031D01*
X0183950Y0152031D01*
X0181374Y0152031D01*
X0181612Y0152329D02*
X0183957Y0152329D01*
X0185285Y0152329D01*
X0186200Y0152329D01*
X0185863Y0152628D02*
X0185425Y0152628D01*
X0183965Y0152628D01*
X0181965Y0152628D01*
X0182550Y0152926D02*
X0183973Y0152926D01*
X0185254Y0152926D01*
X0185042Y0153014D02*
X0185514Y0152818D01*
X0184885Y0151479D01*
X0184570Y0151597D01*
X0184255Y0151636D01*
X0183940Y0151636D01*
X0183979Y0153172D01*
X0184530Y0153133D01*
X0185042Y0153014D01*
X0185199Y0153605D02*
X0184766Y0153684D01*
X0184412Y0153802D01*
X0184136Y0153959D01*
X0183900Y0154235D01*
X0183743Y0154510D01*
X0183625Y0154825D01*
X0183546Y0155140D01*
X0183507Y0155495D01*
X0184333Y0155810D01*
X0184373Y0155692D01*
X0184412Y0155613D01*
X0184451Y0155573D01*
X0184530Y0155416D01*
X0184570Y0155377D01*
X0184609Y0155298D01*
X0184845Y0155180D01*
X0184924Y0155180D01*
X0185003Y0155140D01*
X0185199Y0155140D01*
X0185318Y0155180D01*
X0185396Y0155180D01*
X0185475Y0155219D01*
X0185514Y0155259D01*
X0185593Y0155298D01*
X0185633Y0155377D01*
X0185672Y0155416D01*
X0185751Y0155573D01*
X0185751Y0155652D01*
X0185790Y0155731D01*
X0185790Y0155810D01*
X0185829Y0155888D01*
X0185829Y0156085D01*
X0185790Y0156282D01*
X0185790Y0156479D01*
X0185711Y0156636D01*
X0185672Y0156794D01*
X0185593Y0156912D01*
X0185514Y0156991D01*
X0185396Y0157070D01*
X0185318Y0157148D01*
X0185081Y0157227D01*
X0185003Y0157266D01*
X0184885Y0157306D01*
X0183979Y0157306D01*
X0184058Y0157227D01*
X0184058Y0157148D01*
X0184136Y0156991D01*
X0184136Y0156912D01*
X0184176Y0156833D01*
X0184176Y0156676D01*
X0183388Y0156479D01*
X0183310Y0156755D01*
X0183231Y0156991D01*
X0183113Y0157188D01*
X0182955Y0157306D01*
X0182522Y0157306D01*
X0182286Y0157188D01*
X0182247Y0157148D01*
X0182168Y0157109D01*
X0182050Y0156873D01*
X0182050Y0156794D01*
X0182010Y0156715D01*
X0182010Y0156007D01*
X0182207Y0155613D01*
X0182365Y0155455D01*
X0182444Y0155416D01*
X0182562Y0155377D01*
X0182640Y0155337D01*
X0182837Y0155337D01*
X0182837Y0153802D01*
X0182365Y0153881D01*
X0182129Y0153959D01*
X0181971Y0154077D01*
X0181774Y0154196D01*
X0181617Y0154314D01*
X0181499Y0154471D01*
X0181262Y0154865D01*
X0181184Y0155062D01*
X0181144Y0155259D01*
X0181066Y0155495D01*
X0181026Y0155731D01*
X0180987Y0155928D01*
X0180987Y0156833D01*
X0181026Y0157030D01*
X0181026Y0157266D01*
X0181066Y0157463D01*
X0181144Y0157660D01*
X0181184Y0157857D01*
X0181262Y0158054D01*
X0181617Y0158526D01*
X0181774Y0158644D01*
X0181932Y0158723D01*
X0182129Y0158802D01*
X0182325Y0158841D01*
X0185751Y0158841D01*
X0185829Y0158881D01*
X0186184Y0158881D01*
X0186262Y0158920D01*
X0186341Y0158920D01*
X0186420Y0158959D01*
X0186538Y0158959D01*
X0186617Y0158999D01*
X0186656Y0159038D01*
X0186696Y0159038D01*
X0186696Y0157503D01*
X0186656Y0157503D01*
X0186617Y0157463D01*
X0186577Y0157463D01*
X0186538Y0157424D01*
X0186420Y0157424D01*
X0186381Y0157385D01*
X0186144Y0157385D01*
X0186262Y0157306D01*
X0186341Y0157188D01*
X0186420Y0157109D01*
X0186499Y0156991D01*
X0186538Y0156873D01*
X0186617Y0156755D01*
X0186774Y0156282D01*
X0186774Y0156164D01*
X0186814Y0156046D01*
X0186814Y0155888D01*
X0186853Y0155770D01*
X0186853Y0155337D01*
X0186814Y0155140D01*
X0186814Y0154944D01*
X0186774Y0154786D01*
X0186696Y0154589D01*
X0186617Y0154432D01*
X0186538Y0154314D01*
X0186459Y0154156D01*
X0186341Y0154038D01*
X0186223Y0153959D01*
X0186066Y0153841D01*
X0185948Y0153762D01*
X0185751Y0153723D01*
X0185593Y0153644D01*
X0185396Y0153644D01*
X0185199Y0153605D01*
X0184377Y0153822D02*
X0186036Y0153822D01*
X0186423Y0154120D02*
X0183999Y0154120D01*
X0183795Y0154419D02*
X0186608Y0154419D01*
X0186747Y0154717D02*
X0183665Y0154717D01*
X0183577Y0155016D02*
X0186814Y0155016D01*
X0186848Y0155314D02*
X0185601Y0155314D01*
X0185751Y0155613D02*
X0186853Y0155613D01*
X0186814Y0155911D02*
X0185829Y0155911D01*
X0185805Y0156210D02*
X0186774Y0156210D01*
X0186699Y0156508D02*
X0185775Y0156508D01*
X0185663Y0156807D02*
X0186582Y0156807D01*
X0186422Y0157105D02*
X0185361Y0157105D01*
X0186400Y0157404D02*
X0181054Y0157404D01*
X0181026Y0157105D02*
X0182166Y0157105D01*
X0182050Y0156807D02*
X0180987Y0156807D01*
X0180987Y0156508D02*
X0182010Y0156508D01*
X0182010Y0156210D02*
X0180987Y0156210D01*
X0180990Y0155911D02*
X0182058Y0155911D01*
X0182208Y0155613D02*
X0181046Y0155613D01*
X0181126Y0155314D02*
X0182837Y0155314D01*
X0182837Y0155016D02*
X0181202Y0155016D01*
X0181351Y0154717D02*
X0182837Y0154717D01*
X0182837Y0154419D02*
X0181538Y0154419D01*
X0181900Y0154120D02*
X0182837Y0154120D01*
X0182837Y0153822D02*
X0182719Y0153822D01*
X0183527Y0155314D02*
X0184601Y0155314D01*
X0184412Y0155613D02*
X0183816Y0155613D01*
X0183493Y0155613D01*
X0183507Y0155495D02*
X0184333Y0155810D01*
X0184333Y0155888D01*
X0184294Y0155967D01*
X0184294Y0156125D01*
X0184255Y0156243D01*
X0184255Y0156400D01*
X0184215Y0156518D01*
X0184215Y0156597D01*
X0184176Y0156676D01*
X0183388Y0156479D01*
X0183428Y0156203D01*
X0183507Y0155495D01*
X0183460Y0155911D02*
X0184322Y0155911D01*
X0184266Y0156210D02*
X0183427Y0156210D01*
X0183380Y0156508D02*
X0183505Y0156508D01*
X0184219Y0156508D01*
X0184176Y0156807D02*
X0183292Y0156807D01*
X0183162Y0157105D02*
X0184079Y0157105D01*
X0186696Y0157702D02*
X0181153Y0157702D01*
X0181241Y0158001D02*
X0186696Y0158001D01*
X0186696Y0158299D02*
X0181447Y0158299D01*
X0181712Y0158598D02*
X0186696Y0158598D01*
X0186696Y0158896D02*
X0186215Y0158896D01*
X0186696Y0159707D02*
X0181381Y0159707D01*
X0181341Y0159904D01*
X0181302Y0160062D01*
X0181302Y0160259D01*
X0181262Y0160455D01*
X0181223Y0160613D01*
X0181144Y0161007D01*
X0181105Y0161164D01*
X0182168Y0161164D01*
X0181892Y0161322D01*
X0181696Y0161479D01*
X0181459Y0161676D01*
X0181302Y0161873D01*
X0181144Y0162148D01*
X0181066Y0162385D01*
X0180987Y0162660D01*
X0180987Y0163211D01*
X0181026Y0163251D01*
X0181026Y0163290D01*
X0182444Y0163290D01*
X0182444Y0163251D01*
X0182404Y0163172D01*
X0182404Y0162739D01*
X0182444Y0162345D01*
X0182522Y0162030D01*
X0182680Y0161755D01*
X0182916Y0161558D01*
X0183192Y0161400D01*
X0183467Y0161322D01*
X0183822Y0161243D01*
X0186696Y0161243D01*
X0186696Y0159707D01*
X0186696Y0159792D02*
X0181364Y0159792D01*
X0181302Y0160090D02*
X0186696Y0160090D01*
X0186696Y0160389D02*
X0181276Y0160389D01*
X0181208Y0160687D02*
X0186696Y0160687D01*
X0186696Y0160986D02*
X0181148Y0160986D01*
X0181571Y0161583D02*
X0182886Y0161583D01*
X0182607Y0161881D02*
X0181297Y0161881D01*
X0181134Y0162180D02*
X0182485Y0162180D01*
X0182430Y0162478D02*
X0181039Y0162478D01*
X0180987Y0162777D02*
X0182404Y0162777D01*
X0182404Y0163075D02*
X0180987Y0163075D01*
X0179845Y0163881D02*
X0186696Y0163881D01*
X0186696Y0165416D01*
X0184766Y0165416D01*
X0184215Y0166007D01*
X0186696Y0167542D01*
X0186696Y0169392D01*
X0183152Y0167070D01*
X0181105Y0169156D01*
X0181105Y0167345D01*
X0183113Y0165416D01*
X0179018Y0165416D01*
X0179845Y0163881D01*
X0179796Y0163971D02*
X0186696Y0163971D01*
X0186696Y0164269D02*
X0179636Y0164269D01*
X0179475Y0164568D02*
X0186696Y0164568D01*
X0186696Y0164867D02*
X0179314Y0164867D01*
X0179154Y0165165D02*
X0186696Y0165165D01*
X0184722Y0165464D02*
X0183063Y0165464D01*
X0182753Y0165762D02*
X0184443Y0165762D01*
X0184302Y0166061D02*
X0182442Y0166061D01*
X0182131Y0166359D02*
X0184785Y0166359D01*
X0185267Y0166658D02*
X0181821Y0166658D01*
X0181510Y0166956D02*
X0185749Y0166956D01*
X0186231Y0167255D02*
X0183434Y0167255D01*
X0182971Y0167255D02*
X0181199Y0167255D01*
X0181105Y0167553D02*
X0182678Y0167553D01*
X0182385Y0167852D02*
X0181105Y0167852D01*
X0181105Y0168150D02*
X0182092Y0168150D01*
X0181799Y0168449D02*
X0181105Y0168449D01*
X0181105Y0168747D02*
X0181506Y0168747D01*
X0181213Y0169046D02*
X0181105Y0169046D01*
X0181626Y0169344D02*
X0182129Y0169344D01*
X0182129Y0169046D02*
X0181924Y0169046D01*
X0182010Y0168959D02*
X0181381Y0169589D01*
X0181262Y0169747D01*
X0181105Y0169865D01*
X0181105Y0170337D01*
X0180318Y0170337D01*
X0180003Y0170455D01*
X0179727Y0170573D01*
X0179491Y0170770D01*
X0179294Y0171046D01*
X0179136Y0171361D01*
X0179018Y0171755D01*
X0179018Y0172896D01*
X0179058Y0172975D01*
X0180160Y0172975D01*
X0180160Y0172306D01*
X0180199Y0172148D01*
X0180278Y0171991D01*
X0180396Y0171912D01*
X0180475Y0171873D01*
X0180633Y0171873D01*
X0180790Y0171833D01*
X0181105Y0171833D01*
X0181105Y0172896D01*
X0182129Y0172896D01*
X0182129Y0171833D01*
X0186696Y0171833D01*
X0186696Y0170337D01*
X0182129Y0170337D01*
X0182129Y0168802D01*
X0182010Y0168959D01*
X0182129Y0169643D02*
X0181340Y0169643D01*
X0181105Y0169941D02*
X0182129Y0169941D01*
X0182129Y0170240D02*
X0181105Y0170240D01*
X0179809Y0170538D02*
X0186696Y0170538D01*
X0186696Y0170837D02*
X0179443Y0170837D01*
X0179249Y0171135D02*
X0186696Y0171135D01*
X0186696Y0171434D02*
X0179115Y0171434D01*
X0179025Y0171732D02*
X0186696Y0171732D01*
X0185869Y0173566D02*
X0185475Y0173448D01*
X0185042Y0173369D01*
X0181105Y0173369D01*
X0181105Y0174865D01*
X0184255Y0174865D01*
X0184885Y0174944D01*
X0185121Y0174983D01*
X0185436Y0175219D01*
X0185554Y0175416D01*
X0185593Y0175613D01*
X0186814Y0175613D01*
X0186853Y0175377D01*
X0186814Y0174825D01*
X0186656Y0174392D01*
X0186459Y0174038D01*
X0186223Y0173762D01*
X0185869Y0173566D01*
X0185728Y0173523D02*
X0181105Y0173523D01*
X0181105Y0173822D02*
X0186274Y0173822D01*
X0186505Y0174120D02*
X0181105Y0174120D01*
X0181105Y0174419D02*
X0186666Y0174419D01*
X0186774Y0174717D02*
X0181105Y0174717D01*
X0180160Y0172926D02*
X0179033Y0172926D01*
X0179018Y0172628D02*
X0180160Y0172628D01*
X0180160Y0172329D02*
X0179018Y0172329D01*
X0179018Y0172031D02*
X0180258Y0172031D01*
X0181105Y0172031D02*
X0182129Y0172031D01*
X0182129Y0172329D02*
X0181105Y0172329D01*
X0181105Y0172628D02*
X0182129Y0172628D01*
X0185165Y0175016D02*
X0186827Y0175016D01*
X0186849Y0175314D02*
X0185493Y0175314D01*
X0185593Y0175613D02*
X0185633Y0175849D01*
X0185593Y0176164D01*
X0185554Y0176400D01*
X0185436Y0176597D01*
X0185278Y0176755D01*
X0185042Y0176873D01*
X0184766Y0176991D01*
X0184451Y0177030D01*
X0181105Y0177030D01*
X0181105Y0178566D01*
X0186696Y0178566D01*
X0186696Y0177109D01*
X0185908Y0177109D01*
X0185908Y0177070D01*
X0186144Y0176912D01*
X0186341Y0176755D01*
X0186499Y0176558D01*
X0186617Y0176322D01*
X0186696Y0176125D01*
X0186774Y0175888D01*
X0186814Y0175613D01*
X0186767Y0175911D02*
X0185625Y0175911D01*
X0185586Y0176210D02*
X0186661Y0176210D01*
X0186523Y0176508D02*
X0185489Y0176508D01*
X0185173Y0176807D02*
X0186276Y0176807D01*
X0185908Y0177105D02*
X0181105Y0177105D01*
X0181105Y0177404D02*
X0186696Y0177404D01*
X0186696Y0177702D02*
X0181105Y0177702D01*
X0181105Y0178001D02*
X0186696Y0178001D01*
X0186696Y0178300D02*
X0181105Y0178300D01*
X0181105Y0179392D02*
X0186696Y0179392D01*
X0186696Y0180928D01*
X0183388Y0180928D01*
X0183034Y0180967D01*
X0182759Y0181085D01*
X0182562Y0181203D01*
X0182365Y0181361D01*
X0182247Y0181558D01*
X0182207Y0181794D01*
X0182168Y0182109D01*
X0182207Y0182345D01*
X0182247Y0182542D01*
X0182365Y0182739D01*
X0182522Y0182857D01*
X0182719Y0182975D01*
X0182955Y0183014D01*
X0183231Y0183054D01*
X0183546Y0183093D01*
X0186696Y0183093D01*
X0186696Y0184629D01*
X0183270Y0184629D01*
X0182759Y0184589D01*
X0182325Y0184510D01*
X0181932Y0184392D01*
X0181617Y0184196D01*
X0181341Y0183920D01*
X0181144Y0183566D01*
X0181026Y0183133D01*
X0180987Y0182581D01*
X0180987Y0182345D01*
X0181026Y0182109D01*
X0181184Y0181636D01*
X0181341Y0181400D01*
X0181499Y0181203D01*
X0181656Y0181046D01*
X0181892Y0180888D01*
X0181892Y0180849D01*
X0181105Y0180849D01*
X0181105Y0179392D01*
X0181105Y0179494D02*
X0186696Y0179494D01*
X0186696Y0179792D02*
X0181105Y0179792D01*
X0181105Y0180091D02*
X0186696Y0180091D01*
X0186696Y0180389D02*
X0181105Y0180389D01*
X0181105Y0180688D02*
X0186696Y0180688D01*
X0186696Y0183374D02*
X0181092Y0183374D01*
X0181022Y0183076D02*
X0183406Y0183076D01*
X0182416Y0182777D02*
X0181001Y0182777D01*
X0180987Y0182479D02*
X0182234Y0182479D01*
X0182180Y0182180D02*
X0181014Y0182180D01*
X0181102Y0181882D02*
X0182196Y0181882D01*
X0182242Y0181583D02*
X0181219Y0181583D01*
X0181434Y0181285D02*
X0182460Y0181285D01*
X0182990Y0180986D02*
X0181746Y0180986D01*
X0181204Y0183673D02*
X0186696Y0183673D01*
X0186696Y0183971D02*
X0181392Y0183971D01*
X0181736Y0184270D02*
X0186696Y0184270D01*
X0186696Y0184568D02*
X0182643Y0184568D01*
X0175869Y0173093D02*
X0175160Y0173487D01*
X0174451Y0173684D01*
X0173743Y0173723D01*
X0173113Y0173605D01*
X0172562Y0173408D01*
X0172089Y0173133D01*
X0171735Y0172818D01*
X0171577Y0172503D01*
X0171892Y0172503D01*
X0172129Y0172424D01*
X0172207Y0172306D01*
X0172247Y0172188D01*
X0172247Y0171912D01*
X0172089Y0171597D01*
X0172010Y0171479D01*
X0171892Y0171322D01*
X0171814Y0171203D01*
X0171696Y0171085D01*
X0171538Y0171007D01*
X0171420Y0170928D01*
X0171262Y0170888D01*
X0171144Y0170849D01*
X0171026Y0170888D01*
X0170948Y0170928D01*
X0170829Y0170967D01*
X0170711Y0171046D01*
X0170593Y0171203D01*
X0170514Y0171361D01*
X0170475Y0171558D01*
X0170436Y0171715D01*
X0170436Y0171833D01*
X0170475Y0171951D01*
X0170475Y0172070D01*
X0170436Y0172030D01*
X0170318Y0171873D01*
X0170199Y0171636D01*
X0170081Y0171322D01*
X0169963Y0170967D01*
X0169963Y0170573D01*
X0170042Y0170140D01*
X0170278Y0169707D01*
X0170593Y0169353D01*
X0170869Y0169156D01*
X0171223Y0169038D01*
X0171538Y0169038D01*
X0171892Y0169117D01*
X0172247Y0169314D01*
X0172562Y0169589D01*
X0172916Y0169904D01*
X0173231Y0170180D01*
X0173507Y0170298D01*
X0173782Y0170298D01*
X0174018Y0170219D01*
X0174215Y0170062D01*
X0174373Y0169825D01*
X0174451Y0169510D01*
X0174451Y0169196D01*
X0174412Y0168999D01*
X0174333Y0168802D01*
X0174255Y0168684D01*
X0174136Y0168566D01*
X0173979Y0168487D01*
X0173861Y0168448D01*
X0173743Y0168448D01*
X0173625Y0168487D01*
X0173507Y0168566D01*
X0173349Y0168723D01*
X0173310Y0168841D01*
X0173231Y0168999D01*
X0173192Y0169038D01*
X0173152Y0168959D01*
X0173152Y0168881D01*
X0173113Y0168723D01*
X0173113Y0168408D01*
X0173152Y0168172D01*
X0173310Y0167778D01*
X0173428Y0167621D01*
X0173546Y0167424D01*
X0173743Y0167306D01*
X0173979Y0167188D01*
X0174215Y0167109D01*
X0174924Y0167030D01*
X0179963Y0167030D01*
X0179963Y0167070D01*
X0179845Y0167148D01*
X0179727Y0167266D01*
X0179570Y0167385D01*
X0179373Y0167581D01*
X0179136Y0167778D01*
X0178900Y0168014D01*
X0178625Y0168211D01*
X0178113Y0168723D01*
X0177877Y0168920D01*
X0177562Y0169314D01*
X0177444Y0169510D01*
X0177404Y0169747D01*
X0177404Y0170495D01*
X0177325Y0170967D01*
X0177207Y0171400D01*
X0177050Y0171794D01*
X0176814Y0172188D01*
X0176538Y0172503D01*
X0176223Y0172818D01*
X0175869Y0173093D01*
X0175632Y0173225D02*
X0172247Y0173225D01*
X0171857Y0172926D02*
X0176083Y0172926D01*
X0176413Y0172628D02*
X0171640Y0172628D01*
X0172192Y0172329D02*
X0176690Y0172329D01*
X0176908Y0172031D02*
X0172247Y0172031D01*
X0172157Y0171732D02*
X0177075Y0171732D01*
X0177194Y0171434D02*
X0171977Y0171434D01*
X0171745Y0171135D02*
X0177280Y0171135D01*
X0177347Y0170837D02*
X0169963Y0170837D01*
X0169970Y0170538D02*
X0177397Y0170538D01*
X0177404Y0170240D02*
X0173957Y0170240D01*
X0174296Y0169941D02*
X0177404Y0169941D01*
X0177422Y0169643D02*
X0174418Y0169643D01*
X0174451Y0169344D02*
X0177543Y0169344D01*
X0177776Y0169046D02*
X0174421Y0169046D01*
X0174297Y0168747D02*
X0178084Y0168747D01*
X0178387Y0168449D02*
X0173864Y0168449D01*
X0173739Y0168449D02*
X0173113Y0168449D01*
X0173119Y0168747D02*
X0173341Y0168747D01*
X0173161Y0168150D02*
X0178710Y0168150D01*
X0179063Y0167852D02*
X0173280Y0167852D01*
X0173468Y0167553D02*
X0179401Y0167553D01*
X0179739Y0167255D02*
X0173845Y0167255D01*
X0172282Y0169344D02*
X0170606Y0169344D01*
X0170336Y0169643D02*
X0172622Y0169643D01*
X0172958Y0169941D02*
X0170151Y0169941D01*
X0170024Y0170240D02*
X0173371Y0170240D01*
X0171572Y0169046D02*
X0171200Y0169046D01*
X0170644Y0171135D02*
X0170019Y0171135D01*
X0170123Y0171434D02*
X0170500Y0171434D01*
X0170436Y0171732D02*
X0170247Y0171732D01*
X0170436Y0172031D02*
X0170475Y0172031D01*
X0172884Y0173523D02*
X0175029Y0173523D01*
X0183890Y0167553D02*
X0186696Y0167553D01*
X0186696Y0167852D02*
X0184345Y0167852D01*
X0184801Y0168150D02*
X0186696Y0168150D01*
X0186696Y0168449D02*
X0185256Y0168449D01*
X0185711Y0168747D02*
X0186696Y0168747D01*
X0186696Y0169046D02*
X0186167Y0169046D01*
X0186622Y0169344D02*
X0186696Y0169344D01*
X0183634Y0161284D02*
X0181957Y0161284D01*
D135*
X0285932Y0180058D03*
D136*
X0286089Y0180058D03*
D137*
X0286247Y0180077D03*
D138*
X0286385Y0180058D03*
D139*
X0286522Y0180136D03*
D140*
X0294554Y0194369D03*
X0297310Y0204566D03*
X0286680Y0204408D03*
X0286680Y0155865D03*
D141*
X0286818Y0155570D03*
X0297172Y0155412D03*
X0289731Y0171751D03*
X0289731Y0183562D03*
X0297172Y0204861D03*
D142*
X0286818Y0204644D03*
X0294692Y0194290D03*
X0294692Y0171967D03*
D143*
X0294121Y0171239D03*
X0294987Y0168325D03*
X0294829Y0168168D03*
X0294554Y0167892D03*
X0294396Y0167735D03*
X0294121Y0167459D03*
X0293963Y0167302D03*
X0293806Y0167144D03*
X0293530Y0166869D03*
X0293373Y0166711D03*
X0293097Y0166436D03*
X0292940Y0166121D03*
X0292664Y0165845D03*
X0289593Y0168483D03*
X0290184Y0171239D03*
X0290026Y0171396D03*
X0290026Y0175924D03*
X0294987Y0194270D03*
X0297034Y0204940D03*
X0287113Y0205058D03*
X0286955Y0155333D03*
X0287113Y0155215D03*
X0287388Y0154900D03*
X0296877Y0155058D03*
X0297034Y0155215D03*
D144*
X0292507Y0165766D03*
X0291640Y0168404D03*
X0289436Y0168247D03*
X0294554Y0171751D03*
X0294396Y0175688D03*
X0289869Y0175688D03*
X0289869Y0183719D03*
X0294396Y0183562D03*
X0294829Y0194349D03*
X0286955Y0204861D03*
D145*
X0287251Y0205215D03*
X0294259Y0183798D03*
X0294259Y0171396D03*
X0294692Y0168050D03*
X0293668Y0167026D03*
X0293235Y0166593D03*
X0292802Y0166003D03*
X0287251Y0155058D03*
D146*
X0287703Y0154703D03*
X0287979Y0154546D03*
X0288412Y0154388D03*
X0296444Y0154703D03*
X0289436Y0162853D03*
X0290026Y0168837D03*
X0291050Y0168837D03*
X0291325Y0168680D03*
X0291050Y0170727D03*
X0290617Y0170885D03*
X0293530Y0170885D03*
X0293963Y0171160D03*
X0290617Y0176278D03*
X0290184Y0183995D03*
X0290459Y0184152D03*
X0290892Y0184428D03*
X0293806Y0184152D03*
X0293963Y0183995D03*
X0290617Y0192026D03*
X0291483Y0192459D03*
X0292073Y0192735D03*
X0292349Y0192892D03*
X0292664Y0193050D03*
X0293530Y0193483D03*
X0294121Y0193759D03*
X0293963Y0194940D03*
X0293373Y0195215D03*
X0293097Y0195373D03*
X0291916Y0195963D03*
X0291325Y0196239D03*
X0291050Y0196396D03*
X0290459Y0196672D03*
X0289869Y0196987D03*
X0289436Y0191436D03*
X0289160Y0191278D03*
X0287388Y0205294D03*
X0288136Y0205727D03*
X0295420Y0205885D03*
X0296286Y0205570D03*
X0296877Y0205136D03*
D147*
X0296601Y0205432D03*
X0296444Y0205432D03*
X0287546Y0205432D03*
X0289593Y0197125D03*
X0291640Y0196101D03*
X0292507Y0195668D03*
X0293806Y0193621D03*
X0292940Y0193188D03*
X0290892Y0192164D03*
X0290026Y0191731D03*
X0290617Y0184290D03*
X0290026Y0183857D03*
X0293530Y0184290D03*
X0294121Y0183857D03*
X0290184Y0175983D03*
X0290459Y0171022D03*
X0291483Y0168542D03*
X0293806Y0171022D03*
X0296601Y0154841D03*
X0287546Y0154841D03*
D148*
X0288570Y0154329D03*
X0288727Y0154329D03*
X0289003Y0154329D03*
X0289160Y0154329D03*
X0289436Y0154329D03*
X0289593Y0154329D03*
X0289869Y0154329D03*
X0290026Y0154329D03*
X0290184Y0154329D03*
X0290459Y0154329D03*
X0290617Y0154329D03*
X0290892Y0154329D03*
X0291050Y0154329D03*
X0291325Y0154329D03*
X0291483Y0154329D03*
X0291640Y0154329D03*
X0291916Y0154329D03*
X0292073Y0154329D03*
X0292349Y0154329D03*
X0292507Y0154329D03*
X0292664Y0154329D03*
X0292940Y0154329D03*
X0293097Y0154329D03*
X0293373Y0154329D03*
X0293530Y0154329D03*
X0293806Y0154329D03*
X0293963Y0154329D03*
X0294121Y0154329D03*
X0294396Y0154329D03*
X0294554Y0154329D03*
X0294829Y0154329D03*
X0294987Y0154329D03*
X0295262Y0154329D03*
X0295420Y0154329D03*
X0295577Y0154329D03*
X0295262Y0162794D03*
X0294987Y0162794D03*
X0294829Y0162794D03*
X0294554Y0162794D03*
X0294396Y0162794D03*
X0294121Y0162794D03*
X0293963Y0162794D03*
X0293806Y0162794D03*
X0293530Y0162794D03*
X0293373Y0162794D03*
X0293097Y0162794D03*
X0292940Y0162794D03*
X0292664Y0162794D03*
X0292507Y0162794D03*
X0292349Y0162794D03*
X0292073Y0162794D03*
X0291916Y0162794D03*
X0291640Y0162794D03*
X0291483Y0162794D03*
X0291325Y0162794D03*
X0291050Y0162794D03*
X0290892Y0162794D03*
X0290617Y0162794D03*
X0290459Y0162794D03*
X0290184Y0162794D03*
X0290026Y0162794D03*
X0289869Y0162794D03*
X0289593Y0162794D03*
X0295262Y0168463D03*
X0293097Y0170668D03*
X0292940Y0170668D03*
X0292664Y0170510D03*
X0292507Y0170510D03*
X0292349Y0170510D03*
X0292073Y0170510D03*
X0291916Y0170510D03*
X0291640Y0170510D03*
X0291483Y0170668D03*
X0291325Y0170668D03*
X0291050Y0176495D03*
X0290892Y0176495D03*
X0294121Y0175904D03*
X0293373Y0184369D03*
X0289869Y0191652D03*
X0290184Y0191810D03*
X0291050Y0192243D03*
X0291916Y0192676D03*
X0293097Y0193266D03*
X0293963Y0193699D03*
X0295262Y0194290D03*
X0293530Y0195156D03*
X0292664Y0195589D03*
X0292349Y0195747D03*
X0291483Y0196180D03*
X0290617Y0196613D03*
X0289436Y0197203D03*
X0289003Y0191219D03*
X0287703Y0205510D03*
X0288727Y0205944D03*
X0289003Y0205944D03*
X0289160Y0205944D03*
X0289436Y0205944D03*
X0289593Y0205944D03*
X0289869Y0205944D03*
X0290026Y0205944D03*
X0290184Y0205944D03*
X0290459Y0205944D03*
X0290617Y0205944D03*
X0290892Y0205944D03*
X0291050Y0205944D03*
X0291325Y0205944D03*
X0291483Y0205944D03*
X0291640Y0205944D03*
X0291916Y0205944D03*
X0292073Y0205944D03*
X0292349Y0205944D03*
X0292507Y0205944D03*
X0292664Y0205944D03*
X0292940Y0205944D03*
X0293097Y0205944D03*
X0293373Y0205944D03*
X0293530Y0205944D03*
X0293806Y0205944D03*
X0293963Y0205944D03*
X0294121Y0205944D03*
X0294396Y0205944D03*
X0294554Y0205944D03*
X0294829Y0205944D03*
X0294987Y0205944D03*
X0295262Y0205944D03*
D149*
X0295715Y0205806D03*
X0296148Y0205648D03*
X0288274Y0205806D03*
X0290322Y0196751D03*
X0291188Y0196318D03*
X0293235Y0195294D03*
X0294259Y0193837D03*
X0292211Y0192814D03*
X0289298Y0191357D03*
X0291188Y0184507D03*
X0291778Y0184664D03*
X0292211Y0184664D03*
X0292802Y0184664D03*
X0293235Y0184507D03*
X0293235Y0178680D03*
X0293668Y0178680D03*
X0294259Y0178680D03*
X0294692Y0178680D03*
X0292802Y0178680D03*
X0292211Y0178680D03*
X0291778Y0178680D03*
X0291188Y0178680D03*
X0290755Y0178680D03*
X0290322Y0178680D03*
X0289731Y0178680D03*
X0291778Y0176633D03*
X0290755Y0168916D03*
X0290322Y0168916D03*
X0291188Y0168759D03*
X0287841Y0154625D03*
X0288274Y0154467D03*
D150*
X0295715Y0154388D03*
X0296148Y0154546D03*
X0296739Y0154979D03*
X0295125Y0168404D03*
X0293235Y0170727D03*
X0290755Y0170885D03*
X0290322Y0171160D03*
X0289731Y0168680D03*
X0290322Y0176121D03*
X0291188Y0176554D03*
X0294259Y0175845D03*
X0290322Y0184152D03*
X0289731Y0191593D03*
X0290322Y0191869D03*
X0291188Y0192302D03*
X0291778Y0192617D03*
X0293235Y0193325D03*
X0294259Y0194782D03*
X0293668Y0195097D03*
X0292802Y0195530D03*
X0292211Y0195806D03*
X0290755Y0196554D03*
X0289298Y0197262D03*
X0295125Y0194349D03*
X0296739Y0205294D03*
X0287841Y0205570D03*
D151*
X0287979Y0205648D03*
X0288412Y0205806D03*
X0288570Y0205806D03*
X0295577Y0205806D03*
X0295853Y0205806D03*
X0296010Y0205648D03*
X0290026Y0196908D03*
X0290184Y0196751D03*
X0290892Y0196475D03*
X0292073Y0195885D03*
X0292940Y0195451D03*
X0293806Y0195018D03*
X0294121Y0194861D03*
X0293373Y0193404D03*
X0292507Y0192971D03*
X0291640Y0192538D03*
X0291325Y0192381D03*
X0290459Y0191948D03*
X0289593Y0191514D03*
X0289160Y0197341D03*
X0289003Y0197341D03*
X0291325Y0184664D03*
X0291483Y0184664D03*
X0291640Y0184664D03*
X0291916Y0184664D03*
X0292073Y0184664D03*
X0292349Y0184664D03*
X0292507Y0184664D03*
X0292664Y0184664D03*
X0292940Y0184507D03*
X0293097Y0184507D03*
X0291050Y0184507D03*
X0291050Y0178680D03*
X0290892Y0178680D03*
X0290617Y0178680D03*
X0290459Y0178680D03*
X0290184Y0178680D03*
X0290026Y0178680D03*
X0289869Y0178680D03*
X0289593Y0178680D03*
X0289436Y0178680D03*
X0291325Y0178680D03*
X0291483Y0178680D03*
X0291640Y0178680D03*
X0291916Y0178680D03*
X0292073Y0178680D03*
X0292349Y0178680D03*
X0292507Y0178680D03*
X0292664Y0178680D03*
X0292940Y0178680D03*
X0293097Y0178680D03*
X0293373Y0178680D03*
X0293530Y0178680D03*
X0293806Y0178680D03*
X0293963Y0178680D03*
X0294121Y0178680D03*
X0294396Y0178680D03*
X0294554Y0178680D03*
X0291640Y0176633D03*
X0291483Y0176633D03*
X0291325Y0176633D03*
X0290459Y0176199D03*
X0290892Y0170806D03*
X0290892Y0168916D03*
X0290617Y0168916D03*
X0290459Y0168916D03*
X0290184Y0168916D03*
X0289869Y0168759D03*
X0293373Y0170806D03*
X0296286Y0154625D03*
X0296010Y0154467D03*
X0295853Y0154467D03*
X0288136Y0154467D03*
D152*
X0288727Y0165176D03*
D153*
X0295420Y0168542D03*
X0288727Y0173660D03*
X0295420Y0194369D03*
D154*
X0288727Y0180196D03*
X0289160Y0173660D03*
X0292073Y0166810D03*
D155*
X0288727Y0191219D03*
D156*
X0290755Y0192085D03*
X0292802Y0193109D03*
X0293668Y0193542D03*
X0291778Y0196022D03*
X0289731Y0197046D03*
X0289731Y0205944D03*
X0289298Y0205944D03*
X0288865Y0205944D03*
X0290322Y0205944D03*
X0290755Y0205944D03*
X0291188Y0205944D03*
X0291778Y0205944D03*
X0292211Y0205944D03*
X0292802Y0205944D03*
X0293235Y0205944D03*
X0293668Y0205944D03*
X0294259Y0205944D03*
X0294692Y0205944D03*
X0295125Y0205944D03*
X0290755Y0184369D03*
X0290755Y0176337D03*
X0291188Y0170668D03*
X0291778Y0170510D03*
X0292211Y0170510D03*
X0292802Y0170668D03*
X0293668Y0170944D03*
X0293668Y0162794D03*
X0293235Y0162794D03*
X0292802Y0162794D03*
X0292211Y0162794D03*
X0291778Y0162794D03*
X0291188Y0162794D03*
X0290755Y0162794D03*
X0290322Y0162794D03*
X0289731Y0162794D03*
X0294259Y0162794D03*
X0294692Y0162794D03*
X0295125Y0162794D03*
X0295125Y0154329D03*
X0294692Y0154329D03*
X0294259Y0154329D03*
X0293668Y0154329D03*
X0293235Y0154329D03*
X0292802Y0154329D03*
X0292211Y0154329D03*
X0291778Y0154329D03*
X0291188Y0154329D03*
X0290755Y0154329D03*
X0290322Y0154329D03*
X0289731Y0154329D03*
X0289298Y0154329D03*
X0288865Y0154329D03*
D157*
X0288865Y0165333D03*
D158*
X0288865Y0173640D03*
D159*
X0288865Y0180510D03*
D160*
X0288865Y0191298D03*
X0288865Y0197400D03*
D161*
X0289003Y0173640D03*
X0292349Y0166514D03*
D162*
X0289003Y0180727D03*
D163*
X0289160Y0165550D03*
D164*
X0289160Y0180865D03*
X0294987Y0180865D03*
D165*
X0289298Y0165629D03*
D166*
X0289298Y0173562D03*
D167*
X0289298Y0180944D03*
D168*
X0289436Y0182833D03*
D169*
X0289593Y0183345D03*
X0294554Y0183345D03*
X0294554Y0175471D03*
X0289593Y0175314D03*
X0289593Y0171967D03*
X0297310Y0155629D03*
D170*
X0289731Y0175550D03*
D171*
X0289869Y0171534D03*
X0294396Y0171534D03*
D172*
X0291778Y0167007D03*
D173*
X0291778Y0188365D03*
D174*
X0291916Y0188463D03*
X0292073Y0188463D03*
D175*
X0292211Y0166652D03*
D176*
X0292211Y0174152D03*
D177*
X0295125Y0173581D03*
X0292211Y0188463D03*
D178*
X0292349Y0188444D03*
D179*
X0293668Y0184290D03*
D180*
X0293963Y0175904D03*
X0295420Y0162794D03*
D181*
X0294259Y0167597D03*
D182*
X0294396Y0194290D03*
D183*
X0294692Y0175235D03*
D184*
X0294692Y0183050D03*
D185*
X0294829Y0180944D03*
D186*
X0295125Y0180727D03*
D187*
X0295262Y0173581D03*
D188*
X0295262Y0180589D03*
D189*
X0295420Y0180353D03*
D190*
X0297605Y0180136D03*
D191*
X0297743Y0180058D03*
D192*
X0297900Y0180136D03*
D193*
X0298058Y0180136D03*
M02*
