G75*
%MOIN*%
%OFA0B0*%
%FSLAX25Y25*%
%IPPOS*%
%LPD*%
%AMOC8*
5,1,8,0,0,1.08239X$1,22.5*
%
%ADD10C,0.13800*%
%ADD11C,0.08800*%
%ADD12C,0.04737*%
%ADD13C,0.03359*%
%ADD14C,0.00600*%
%ADD15C,0.03800*%
%ADD16C,0.08200*%
D10*
X0134396Y0103522D03*
X0339396Y0123522D03*
X0339396Y0233522D03*
X0139396Y0293522D03*
D11*
X0105396Y0127522D03*
X0087396Y0127522D03*
D12*
X0094396Y0273522D03*
X0339396Y0138522D03*
D13*
X0098707Y0237144D03*
X0098707Y0259900D03*
D14*
X0098629Y0264349D02*
X0102959Y0264349D01*
X0103242Y0264383D01*
X0103508Y0264484D01*
X0103743Y0264646D01*
X0103931Y0264859D01*
X0104064Y0265111D01*
X0104132Y0265388D01*
X0104132Y0265673D01*
X0104064Y0265949D01*
X0103931Y0266201D01*
X0103743Y0266414D01*
X0103508Y0266576D01*
X0103242Y0266677D01*
X0102959Y0266711D01*
X0098629Y0266711D01*
X0098346Y0266677D01*
X0098080Y0266576D01*
X0097845Y0266414D01*
X0097657Y0266201D01*
X0097524Y0265949D01*
X0097456Y0265673D01*
X0097456Y0265388D01*
X0097524Y0265111D01*
X0097657Y0264859D01*
X0097845Y0264646D01*
X0098080Y0264484D01*
X0098346Y0264383D01*
X0098629Y0264349D01*
X0097801Y0264697D02*
X0103787Y0264697D01*
X0104109Y0265295D02*
X0097479Y0265295D01*
X0097511Y0265894D02*
X0104077Y0265894D01*
X0103630Y0266492D02*
X0097958Y0266492D01*
X0086750Y0265673D02*
X0086750Y0265388D01*
X0086682Y0265111D01*
X0086549Y0264859D01*
X0086361Y0264646D01*
X0086126Y0264484D01*
X0085860Y0264383D01*
X0085577Y0264349D01*
X0083136Y0264349D01*
X0082854Y0264383D01*
X0082588Y0264484D01*
X0082353Y0264646D01*
X0082164Y0264859D01*
X0082032Y0265111D01*
X0081964Y0265388D01*
X0081964Y0265673D01*
X0082032Y0265949D01*
X0082164Y0266201D01*
X0082353Y0266414D01*
X0082588Y0266576D01*
X0082854Y0266677D01*
X0083136Y0266711D01*
X0085577Y0266711D01*
X0085860Y0266677D01*
X0086126Y0266576D01*
X0086361Y0266414D01*
X0086549Y0266201D01*
X0086682Y0265949D01*
X0086750Y0265673D01*
X0086695Y0265894D02*
X0082018Y0265894D01*
X0081987Y0265295D02*
X0086727Y0265295D01*
X0086405Y0264697D02*
X0082309Y0264697D01*
X0082466Y0266492D02*
X0086248Y0266492D01*
X0085577Y0232696D02*
X0085860Y0232661D01*
X0086126Y0232560D01*
X0086361Y0232398D01*
X0086549Y0232185D01*
X0086682Y0231933D01*
X0086750Y0231657D01*
X0086750Y0231372D01*
X0086682Y0231096D01*
X0086549Y0230843D01*
X0086361Y0230630D01*
X0086126Y0230469D01*
X0085860Y0230368D01*
X0085577Y0230333D01*
X0083136Y0230333D01*
X0082854Y0230368D01*
X0082588Y0230469D01*
X0082353Y0230630D01*
X0082164Y0230843D01*
X0082032Y0231096D01*
X0081964Y0231372D01*
X0081964Y0231657D01*
X0082032Y0231933D01*
X0082164Y0232185D01*
X0082353Y0232398D01*
X0082588Y0232560D01*
X0082854Y0232661D01*
X0083136Y0232696D01*
X0085577Y0232696D01*
X0086380Y0232377D02*
X0082334Y0232377D01*
X0081994Y0231778D02*
X0086720Y0231778D01*
X0086703Y0231180D02*
X0082011Y0231180D01*
X0082424Y0230581D02*
X0086290Y0230581D01*
X0097456Y0231372D02*
X0097456Y0231657D01*
X0097524Y0231933D01*
X0097657Y0232185D01*
X0097845Y0232398D01*
X0098080Y0232560D01*
X0098346Y0232661D01*
X0098629Y0232696D01*
X0102959Y0232696D01*
X0103242Y0232661D01*
X0103508Y0232560D01*
X0103743Y0232398D01*
X0103931Y0232185D01*
X0104064Y0231933D01*
X0104132Y0231657D01*
X0104132Y0231372D01*
X0104064Y0231096D01*
X0103931Y0230843D01*
X0103743Y0230630D01*
X0103508Y0230469D01*
X0103242Y0230368D01*
X0102959Y0230333D01*
X0098629Y0230333D01*
X0098346Y0230368D01*
X0098080Y0230469D01*
X0097845Y0230630D01*
X0097657Y0230843D01*
X0097524Y0231096D01*
X0097456Y0231372D01*
X0097503Y0231180D02*
X0104084Y0231180D01*
X0104102Y0231778D02*
X0097486Y0231778D01*
X0097826Y0232377D02*
X0103762Y0232377D01*
X0103672Y0230581D02*
X0097916Y0230581D01*
D15*
X0199396Y0143522D03*
X0199396Y0108522D03*
X0239396Y0108522D03*
X0244396Y0178522D03*
X0254396Y0178522D03*
X0264396Y0178522D03*
X0274396Y0178522D03*
D16*
X0187664Y0170570D03*
X0177664Y0170570D03*
X0177664Y0160570D03*
X0187664Y0160570D03*
X0187664Y0150570D03*
X0177664Y0150570D03*
M02*
