G75*
%MOIN*%
%OFA0B0*%
%FSLAX25Y25*%
%IPPOS*%
%LPD*%
%AMOC8*
5,1,8,0,0,1.08239X$1,22.5*
%
%ADD10C,0.00800*%
%ADD11C,0.00000*%
D10*
X0079396Y0093522D02*
X0079396Y0303522D01*
X0333396Y0303522D01*
X0339396Y0297522D01*
X0339396Y0252522D01*
X0349396Y0242522D01*
X0349396Y0113522D01*
X0339396Y0103522D01*
X0339396Y0093522D01*
X0079396Y0093522D01*
D11*
X0083396Y0127522D02*
X0083398Y0127648D01*
X0083404Y0127774D01*
X0083414Y0127900D01*
X0083428Y0128026D01*
X0083446Y0128151D01*
X0083468Y0128275D01*
X0083493Y0128399D01*
X0083523Y0128522D01*
X0083556Y0128643D01*
X0083594Y0128764D01*
X0083635Y0128883D01*
X0083680Y0129002D01*
X0083728Y0129118D01*
X0083780Y0129233D01*
X0083836Y0129346D01*
X0083896Y0129458D01*
X0083959Y0129567D01*
X0084025Y0129675D01*
X0084094Y0129780D01*
X0084167Y0129883D01*
X0084244Y0129984D01*
X0084323Y0130082D01*
X0084405Y0130178D01*
X0084491Y0130271D01*
X0084579Y0130362D01*
X0084670Y0130449D01*
X0084764Y0130534D01*
X0084860Y0130615D01*
X0084959Y0130694D01*
X0085060Y0130769D01*
X0085164Y0130841D01*
X0085270Y0130910D01*
X0085378Y0130976D01*
X0085488Y0131038D01*
X0085600Y0131096D01*
X0085713Y0131151D01*
X0085829Y0131202D01*
X0085946Y0131250D01*
X0086064Y0131294D01*
X0086184Y0131334D01*
X0086305Y0131370D01*
X0086427Y0131403D01*
X0086550Y0131432D01*
X0086674Y0131456D01*
X0086798Y0131477D01*
X0086923Y0131494D01*
X0087049Y0131507D01*
X0087175Y0131516D01*
X0087301Y0131521D01*
X0087428Y0131522D01*
X0087554Y0131519D01*
X0087680Y0131512D01*
X0087806Y0131501D01*
X0087931Y0131486D01*
X0088056Y0131467D01*
X0088180Y0131444D01*
X0088304Y0131418D01*
X0088426Y0131387D01*
X0088548Y0131353D01*
X0088668Y0131314D01*
X0088787Y0131272D01*
X0088905Y0131227D01*
X0089021Y0131177D01*
X0089136Y0131124D01*
X0089248Y0131067D01*
X0089359Y0131007D01*
X0089468Y0130943D01*
X0089575Y0130876D01*
X0089680Y0130806D01*
X0089783Y0130732D01*
X0089883Y0130655D01*
X0089981Y0130575D01*
X0090076Y0130492D01*
X0090168Y0130406D01*
X0090258Y0130317D01*
X0090345Y0130225D01*
X0090428Y0130131D01*
X0090509Y0130034D01*
X0090587Y0129934D01*
X0090662Y0129832D01*
X0090733Y0129728D01*
X0090801Y0129621D01*
X0090865Y0129513D01*
X0090926Y0129402D01*
X0090984Y0129290D01*
X0091038Y0129176D01*
X0091088Y0129060D01*
X0091135Y0128943D01*
X0091178Y0128824D01*
X0091217Y0128704D01*
X0091253Y0128583D01*
X0091284Y0128460D01*
X0091312Y0128337D01*
X0091336Y0128213D01*
X0091356Y0128088D01*
X0091372Y0127963D01*
X0091384Y0127837D01*
X0091392Y0127711D01*
X0091396Y0127585D01*
X0091396Y0127459D01*
X0091392Y0127333D01*
X0091384Y0127207D01*
X0091372Y0127081D01*
X0091356Y0126956D01*
X0091336Y0126831D01*
X0091312Y0126707D01*
X0091284Y0126584D01*
X0091253Y0126461D01*
X0091217Y0126340D01*
X0091178Y0126220D01*
X0091135Y0126101D01*
X0091088Y0125984D01*
X0091038Y0125868D01*
X0090984Y0125754D01*
X0090926Y0125642D01*
X0090865Y0125531D01*
X0090801Y0125423D01*
X0090733Y0125316D01*
X0090662Y0125212D01*
X0090587Y0125110D01*
X0090509Y0125010D01*
X0090428Y0124913D01*
X0090345Y0124819D01*
X0090258Y0124727D01*
X0090168Y0124638D01*
X0090076Y0124552D01*
X0089981Y0124469D01*
X0089883Y0124389D01*
X0089783Y0124312D01*
X0089680Y0124238D01*
X0089575Y0124168D01*
X0089468Y0124101D01*
X0089359Y0124037D01*
X0089248Y0123977D01*
X0089136Y0123920D01*
X0089021Y0123867D01*
X0088905Y0123817D01*
X0088787Y0123772D01*
X0088668Y0123730D01*
X0088548Y0123691D01*
X0088426Y0123657D01*
X0088304Y0123626D01*
X0088180Y0123600D01*
X0088056Y0123577D01*
X0087931Y0123558D01*
X0087806Y0123543D01*
X0087680Y0123532D01*
X0087554Y0123525D01*
X0087428Y0123522D01*
X0087301Y0123523D01*
X0087175Y0123528D01*
X0087049Y0123537D01*
X0086923Y0123550D01*
X0086798Y0123567D01*
X0086674Y0123588D01*
X0086550Y0123612D01*
X0086427Y0123641D01*
X0086305Y0123674D01*
X0086184Y0123710D01*
X0086064Y0123750D01*
X0085946Y0123794D01*
X0085829Y0123842D01*
X0085713Y0123893D01*
X0085600Y0123948D01*
X0085488Y0124006D01*
X0085378Y0124068D01*
X0085270Y0124134D01*
X0085164Y0124203D01*
X0085060Y0124275D01*
X0084959Y0124350D01*
X0084860Y0124429D01*
X0084764Y0124510D01*
X0084670Y0124595D01*
X0084579Y0124682D01*
X0084491Y0124773D01*
X0084405Y0124866D01*
X0084323Y0124962D01*
X0084244Y0125060D01*
X0084167Y0125161D01*
X0084094Y0125264D01*
X0084025Y0125369D01*
X0083959Y0125477D01*
X0083896Y0125586D01*
X0083836Y0125698D01*
X0083780Y0125811D01*
X0083728Y0125926D01*
X0083680Y0126042D01*
X0083635Y0126161D01*
X0083594Y0126280D01*
X0083556Y0126401D01*
X0083523Y0126522D01*
X0083493Y0126645D01*
X0083468Y0126769D01*
X0083446Y0126893D01*
X0083428Y0127018D01*
X0083414Y0127144D01*
X0083404Y0127270D01*
X0083398Y0127396D01*
X0083396Y0127522D01*
X0101396Y0127522D02*
X0101398Y0127648D01*
X0101404Y0127774D01*
X0101414Y0127900D01*
X0101428Y0128026D01*
X0101446Y0128151D01*
X0101468Y0128275D01*
X0101493Y0128399D01*
X0101523Y0128522D01*
X0101556Y0128643D01*
X0101594Y0128764D01*
X0101635Y0128883D01*
X0101680Y0129002D01*
X0101728Y0129118D01*
X0101780Y0129233D01*
X0101836Y0129346D01*
X0101896Y0129458D01*
X0101959Y0129567D01*
X0102025Y0129675D01*
X0102094Y0129780D01*
X0102167Y0129883D01*
X0102244Y0129984D01*
X0102323Y0130082D01*
X0102405Y0130178D01*
X0102491Y0130271D01*
X0102579Y0130362D01*
X0102670Y0130449D01*
X0102764Y0130534D01*
X0102860Y0130615D01*
X0102959Y0130694D01*
X0103060Y0130769D01*
X0103164Y0130841D01*
X0103270Y0130910D01*
X0103378Y0130976D01*
X0103488Y0131038D01*
X0103600Y0131096D01*
X0103713Y0131151D01*
X0103829Y0131202D01*
X0103946Y0131250D01*
X0104064Y0131294D01*
X0104184Y0131334D01*
X0104305Y0131370D01*
X0104427Y0131403D01*
X0104550Y0131432D01*
X0104674Y0131456D01*
X0104798Y0131477D01*
X0104923Y0131494D01*
X0105049Y0131507D01*
X0105175Y0131516D01*
X0105301Y0131521D01*
X0105428Y0131522D01*
X0105554Y0131519D01*
X0105680Y0131512D01*
X0105806Y0131501D01*
X0105931Y0131486D01*
X0106056Y0131467D01*
X0106180Y0131444D01*
X0106304Y0131418D01*
X0106426Y0131387D01*
X0106548Y0131353D01*
X0106668Y0131314D01*
X0106787Y0131272D01*
X0106905Y0131227D01*
X0107021Y0131177D01*
X0107136Y0131124D01*
X0107248Y0131067D01*
X0107359Y0131007D01*
X0107468Y0130943D01*
X0107575Y0130876D01*
X0107680Y0130806D01*
X0107783Y0130732D01*
X0107883Y0130655D01*
X0107981Y0130575D01*
X0108076Y0130492D01*
X0108168Y0130406D01*
X0108258Y0130317D01*
X0108345Y0130225D01*
X0108428Y0130131D01*
X0108509Y0130034D01*
X0108587Y0129934D01*
X0108662Y0129832D01*
X0108733Y0129728D01*
X0108801Y0129621D01*
X0108865Y0129513D01*
X0108926Y0129402D01*
X0108984Y0129290D01*
X0109038Y0129176D01*
X0109088Y0129060D01*
X0109135Y0128943D01*
X0109178Y0128824D01*
X0109217Y0128704D01*
X0109253Y0128583D01*
X0109284Y0128460D01*
X0109312Y0128337D01*
X0109336Y0128213D01*
X0109356Y0128088D01*
X0109372Y0127963D01*
X0109384Y0127837D01*
X0109392Y0127711D01*
X0109396Y0127585D01*
X0109396Y0127459D01*
X0109392Y0127333D01*
X0109384Y0127207D01*
X0109372Y0127081D01*
X0109356Y0126956D01*
X0109336Y0126831D01*
X0109312Y0126707D01*
X0109284Y0126584D01*
X0109253Y0126461D01*
X0109217Y0126340D01*
X0109178Y0126220D01*
X0109135Y0126101D01*
X0109088Y0125984D01*
X0109038Y0125868D01*
X0108984Y0125754D01*
X0108926Y0125642D01*
X0108865Y0125531D01*
X0108801Y0125423D01*
X0108733Y0125316D01*
X0108662Y0125212D01*
X0108587Y0125110D01*
X0108509Y0125010D01*
X0108428Y0124913D01*
X0108345Y0124819D01*
X0108258Y0124727D01*
X0108168Y0124638D01*
X0108076Y0124552D01*
X0107981Y0124469D01*
X0107883Y0124389D01*
X0107783Y0124312D01*
X0107680Y0124238D01*
X0107575Y0124168D01*
X0107468Y0124101D01*
X0107359Y0124037D01*
X0107248Y0123977D01*
X0107136Y0123920D01*
X0107021Y0123867D01*
X0106905Y0123817D01*
X0106787Y0123772D01*
X0106668Y0123730D01*
X0106548Y0123691D01*
X0106426Y0123657D01*
X0106304Y0123626D01*
X0106180Y0123600D01*
X0106056Y0123577D01*
X0105931Y0123558D01*
X0105806Y0123543D01*
X0105680Y0123532D01*
X0105554Y0123525D01*
X0105428Y0123522D01*
X0105301Y0123523D01*
X0105175Y0123528D01*
X0105049Y0123537D01*
X0104923Y0123550D01*
X0104798Y0123567D01*
X0104674Y0123588D01*
X0104550Y0123612D01*
X0104427Y0123641D01*
X0104305Y0123674D01*
X0104184Y0123710D01*
X0104064Y0123750D01*
X0103946Y0123794D01*
X0103829Y0123842D01*
X0103713Y0123893D01*
X0103600Y0123948D01*
X0103488Y0124006D01*
X0103378Y0124068D01*
X0103270Y0124134D01*
X0103164Y0124203D01*
X0103060Y0124275D01*
X0102959Y0124350D01*
X0102860Y0124429D01*
X0102764Y0124510D01*
X0102670Y0124595D01*
X0102579Y0124682D01*
X0102491Y0124773D01*
X0102405Y0124866D01*
X0102323Y0124962D01*
X0102244Y0125060D01*
X0102167Y0125161D01*
X0102094Y0125264D01*
X0102025Y0125369D01*
X0101959Y0125477D01*
X0101896Y0125586D01*
X0101836Y0125698D01*
X0101780Y0125811D01*
X0101728Y0125926D01*
X0101680Y0126042D01*
X0101635Y0126161D01*
X0101594Y0126280D01*
X0101556Y0126401D01*
X0101523Y0126522D01*
X0101493Y0126645D01*
X0101468Y0126769D01*
X0101446Y0126893D01*
X0101428Y0127018D01*
X0101414Y0127144D01*
X0101404Y0127270D01*
X0101398Y0127396D01*
X0101396Y0127522D01*
X0127896Y0103522D02*
X0127898Y0103683D01*
X0127904Y0103843D01*
X0127914Y0104004D01*
X0127928Y0104164D01*
X0127946Y0104324D01*
X0127967Y0104483D01*
X0127993Y0104642D01*
X0128023Y0104800D01*
X0128056Y0104957D01*
X0128094Y0105114D01*
X0128135Y0105269D01*
X0128180Y0105423D01*
X0128229Y0105576D01*
X0128282Y0105728D01*
X0128338Y0105879D01*
X0128399Y0106028D01*
X0128462Y0106176D01*
X0128530Y0106322D01*
X0128601Y0106466D01*
X0128675Y0106608D01*
X0128753Y0106749D01*
X0128835Y0106887D01*
X0128920Y0107024D01*
X0129008Y0107158D01*
X0129100Y0107290D01*
X0129195Y0107420D01*
X0129293Y0107548D01*
X0129394Y0107673D01*
X0129498Y0107795D01*
X0129605Y0107915D01*
X0129715Y0108032D01*
X0129828Y0108147D01*
X0129944Y0108258D01*
X0130063Y0108367D01*
X0130184Y0108472D01*
X0130308Y0108575D01*
X0130434Y0108675D01*
X0130562Y0108771D01*
X0130693Y0108864D01*
X0130827Y0108954D01*
X0130962Y0109041D01*
X0131100Y0109124D01*
X0131239Y0109204D01*
X0131381Y0109280D01*
X0131524Y0109353D01*
X0131669Y0109422D01*
X0131816Y0109488D01*
X0131964Y0109550D01*
X0132114Y0109608D01*
X0132265Y0109663D01*
X0132418Y0109714D01*
X0132572Y0109761D01*
X0132727Y0109804D01*
X0132883Y0109843D01*
X0133039Y0109879D01*
X0133197Y0109910D01*
X0133355Y0109938D01*
X0133514Y0109962D01*
X0133674Y0109982D01*
X0133834Y0109998D01*
X0133994Y0110010D01*
X0134155Y0110018D01*
X0134316Y0110022D01*
X0134476Y0110022D01*
X0134637Y0110018D01*
X0134798Y0110010D01*
X0134958Y0109998D01*
X0135118Y0109982D01*
X0135278Y0109962D01*
X0135437Y0109938D01*
X0135595Y0109910D01*
X0135753Y0109879D01*
X0135909Y0109843D01*
X0136065Y0109804D01*
X0136220Y0109761D01*
X0136374Y0109714D01*
X0136527Y0109663D01*
X0136678Y0109608D01*
X0136828Y0109550D01*
X0136976Y0109488D01*
X0137123Y0109422D01*
X0137268Y0109353D01*
X0137411Y0109280D01*
X0137553Y0109204D01*
X0137692Y0109124D01*
X0137830Y0109041D01*
X0137965Y0108954D01*
X0138099Y0108864D01*
X0138230Y0108771D01*
X0138358Y0108675D01*
X0138484Y0108575D01*
X0138608Y0108472D01*
X0138729Y0108367D01*
X0138848Y0108258D01*
X0138964Y0108147D01*
X0139077Y0108032D01*
X0139187Y0107915D01*
X0139294Y0107795D01*
X0139398Y0107673D01*
X0139499Y0107548D01*
X0139597Y0107420D01*
X0139692Y0107290D01*
X0139784Y0107158D01*
X0139872Y0107024D01*
X0139957Y0106887D01*
X0140039Y0106749D01*
X0140117Y0106608D01*
X0140191Y0106466D01*
X0140262Y0106322D01*
X0140330Y0106176D01*
X0140393Y0106028D01*
X0140454Y0105879D01*
X0140510Y0105728D01*
X0140563Y0105576D01*
X0140612Y0105423D01*
X0140657Y0105269D01*
X0140698Y0105114D01*
X0140736Y0104957D01*
X0140769Y0104800D01*
X0140799Y0104642D01*
X0140825Y0104483D01*
X0140846Y0104324D01*
X0140864Y0104164D01*
X0140878Y0104004D01*
X0140888Y0103843D01*
X0140894Y0103683D01*
X0140896Y0103522D01*
X0140894Y0103361D01*
X0140888Y0103201D01*
X0140878Y0103040D01*
X0140864Y0102880D01*
X0140846Y0102720D01*
X0140825Y0102561D01*
X0140799Y0102402D01*
X0140769Y0102244D01*
X0140736Y0102087D01*
X0140698Y0101930D01*
X0140657Y0101775D01*
X0140612Y0101621D01*
X0140563Y0101468D01*
X0140510Y0101316D01*
X0140454Y0101165D01*
X0140393Y0101016D01*
X0140330Y0100868D01*
X0140262Y0100722D01*
X0140191Y0100578D01*
X0140117Y0100436D01*
X0140039Y0100295D01*
X0139957Y0100157D01*
X0139872Y0100020D01*
X0139784Y0099886D01*
X0139692Y0099754D01*
X0139597Y0099624D01*
X0139499Y0099496D01*
X0139398Y0099371D01*
X0139294Y0099249D01*
X0139187Y0099129D01*
X0139077Y0099012D01*
X0138964Y0098897D01*
X0138848Y0098786D01*
X0138729Y0098677D01*
X0138608Y0098572D01*
X0138484Y0098469D01*
X0138358Y0098369D01*
X0138230Y0098273D01*
X0138099Y0098180D01*
X0137965Y0098090D01*
X0137830Y0098003D01*
X0137692Y0097920D01*
X0137553Y0097840D01*
X0137411Y0097764D01*
X0137268Y0097691D01*
X0137123Y0097622D01*
X0136976Y0097556D01*
X0136828Y0097494D01*
X0136678Y0097436D01*
X0136527Y0097381D01*
X0136374Y0097330D01*
X0136220Y0097283D01*
X0136065Y0097240D01*
X0135909Y0097201D01*
X0135753Y0097165D01*
X0135595Y0097134D01*
X0135437Y0097106D01*
X0135278Y0097082D01*
X0135118Y0097062D01*
X0134958Y0097046D01*
X0134798Y0097034D01*
X0134637Y0097026D01*
X0134476Y0097022D01*
X0134316Y0097022D01*
X0134155Y0097026D01*
X0133994Y0097034D01*
X0133834Y0097046D01*
X0133674Y0097062D01*
X0133514Y0097082D01*
X0133355Y0097106D01*
X0133197Y0097134D01*
X0133039Y0097165D01*
X0132883Y0097201D01*
X0132727Y0097240D01*
X0132572Y0097283D01*
X0132418Y0097330D01*
X0132265Y0097381D01*
X0132114Y0097436D01*
X0131964Y0097494D01*
X0131816Y0097556D01*
X0131669Y0097622D01*
X0131524Y0097691D01*
X0131381Y0097764D01*
X0131239Y0097840D01*
X0131100Y0097920D01*
X0130962Y0098003D01*
X0130827Y0098090D01*
X0130693Y0098180D01*
X0130562Y0098273D01*
X0130434Y0098369D01*
X0130308Y0098469D01*
X0130184Y0098572D01*
X0130063Y0098677D01*
X0129944Y0098786D01*
X0129828Y0098897D01*
X0129715Y0099012D01*
X0129605Y0099129D01*
X0129498Y0099249D01*
X0129394Y0099371D01*
X0129293Y0099496D01*
X0129195Y0099624D01*
X0129100Y0099754D01*
X0129008Y0099886D01*
X0128920Y0100020D01*
X0128835Y0100157D01*
X0128753Y0100295D01*
X0128675Y0100436D01*
X0128601Y0100578D01*
X0128530Y0100722D01*
X0128462Y0100868D01*
X0128399Y0101016D01*
X0128338Y0101165D01*
X0128282Y0101316D01*
X0128229Y0101468D01*
X0128180Y0101621D01*
X0128135Y0101775D01*
X0128094Y0101930D01*
X0128056Y0102087D01*
X0128023Y0102244D01*
X0127993Y0102402D01*
X0127967Y0102561D01*
X0127946Y0102720D01*
X0127928Y0102880D01*
X0127914Y0103040D01*
X0127904Y0103201D01*
X0127898Y0103361D01*
X0127896Y0103522D01*
X0097427Y0237144D02*
X0097429Y0237215D01*
X0097435Y0237286D01*
X0097445Y0237357D01*
X0097459Y0237426D01*
X0097476Y0237495D01*
X0097498Y0237563D01*
X0097523Y0237630D01*
X0097552Y0237695D01*
X0097584Y0237758D01*
X0097620Y0237820D01*
X0097659Y0237879D01*
X0097702Y0237936D01*
X0097747Y0237991D01*
X0097796Y0238043D01*
X0097847Y0238092D01*
X0097901Y0238138D01*
X0097958Y0238182D01*
X0098016Y0238222D01*
X0098077Y0238258D01*
X0098140Y0238292D01*
X0098205Y0238321D01*
X0098271Y0238347D01*
X0098339Y0238370D01*
X0098407Y0238388D01*
X0098477Y0238403D01*
X0098547Y0238414D01*
X0098618Y0238421D01*
X0098689Y0238424D01*
X0098760Y0238423D01*
X0098831Y0238418D01*
X0098902Y0238409D01*
X0098972Y0238396D01*
X0099041Y0238380D01*
X0099109Y0238359D01*
X0099176Y0238335D01*
X0099242Y0238307D01*
X0099305Y0238275D01*
X0099367Y0238240D01*
X0099427Y0238202D01*
X0099485Y0238160D01*
X0099540Y0238116D01*
X0099593Y0238068D01*
X0099643Y0238017D01*
X0099690Y0237964D01*
X0099734Y0237908D01*
X0099775Y0237850D01*
X0099813Y0237789D01*
X0099847Y0237727D01*
X0099877Y0237662D01*
X0099904Y0237597D01*
X0099928Y0237529D01*
X0099947Y0237461D01*
X0099963Y0237392D01*
X0099975Y0237321D01*
X0099983Y0237251D01*
X0099987Y0237180D01*
X0099987Y0237108D01*
X0099983Y0237037D01*
X0099975Y0236967D01*
X0099963Y0236896D01*
X0099947Y0236827D01*
X0099928Y0236759D01*
X0099904Y0236691D01*
X0099877Y0236626D01*
X0099847Y0236561D01*
X0099813Y0236499D01*
X0099775Y0236438D01*
X0099734Y0236380D01*
X0099690Y0236324D01*
X0099643Y0236271D01*
X0099593Y0236220D01*
X0099540Y0236172D01*
X0099485Y0236128D01*
X0099427Y0236086D01*
X0099367Y0236048D01*
X0099305Y0236013D01*
X0099242Y0235981D01*
X0099176Y0235953D01*
X0099109Y0235929D01*
X0099041Y0235908D01*
X0098972Y0235892D01*
X0098902Y0235879D01*
X0098831Y0235870D01*
X0098760Y0235865D01*
X0098689Y0235864D01*
X0098618Y0235867D01*
X0098547Y0235874D01*
X0098477Y0235885D01*
X0098407Y0235900D01*
X0098339Y0235918D01*
X0098271Y0235941D01*
X0098205Y0235967D01*
X0098140Y0235996D01*
X0098077Y0236030D01*
X0098016Y0236066D01*
X0097958Y0236106D01*
X0097901Y0236150D01*
X0097847Y0236196D01*
X0097796Y0236245D01*
X0097747Y0236297D01*
X0097702Y0236352D01*
X0097659Y0236409D01*
X0097620Y0236468D01*
X0097584Y0236530D01*
X0097552Y0236593D01*
X0097523Y0236658D01*
X0097498Y0236725D01*
X0097476Y0236793D01*
X0097459Y0236862D01*
X0097445Y0236931D01*
X0097435Y0237002D01*
X0097429Y0237073D01*
X0097427Y0237144D01*
X0097427Y0259900D02*
X0097429Y0259971D01*
X0097435Y0260042D01*
X0097445Y0260113D01*
X0097459Y0260182D01*
X0097476Y0260251D01*
X0097498Y0260319D01*
X0097523Y0260386D01*
X0097552Y0260451D01*
X0097584Y0260514D01*
X0097620Y0260576D01*
X0097659Y0260635D01*
X0097702Y0260692D01*
X0097747Y0260747D01*
X0097796Y0260799D01*
X0097847Y0260848D01*
X0097901Y0260894D01*
X0097958Y0260938D01*
X0098016Y0260978D01*
X0098077Y0261014D01*
X0098140Y0261048D01*
X0098205Y0261077D01*
X0098271Y0261103D01*
X0098339Y0261126D01*
X0098407Y0261144D01*
X0098477Y0261159D01*
X0098547Y0261170D01*
X0098618Y0261177D01*
X0098689Y0261180D01*
X0098760Y0261179D01*
X0098831Y0261174D01*
X0098902Y0261165D01*
X0098972Y0261152D01*
X0099041Y0261136D01*
X0099109Y0261115D01*
X0099176Y0261091D01*
X0099242Y0261063D01*
X0099305Y0261031D01*
X0099367Y0260996D01*
X0099427Y0260958D01*
X0099485Y0260916D01*
X0099540Y0260872D01*
X0099593Y0260824D01*
X0099643Y0260773D01*
X0099690Y0260720D01*
X0099734Y0260664D01*
X0099775Y0260606D01*
X0099813Y0260545D01*
X0099847Y0260483D01*
X0099877Y0260418D01*
X0099904Y0260353D01*
X0099928Y0260285D01*
X0099947Y0260217D01*
X0099963Y0260148D01*
X0099975Y0260077D01*
X0099983Y0260007D01*
X0099987Y0259936D01*
X0099987Y0259864D01*
X0099983Y0259793D01*
X0099975Y0259723D01*
X0099963Y0259652D01*
X0099947Y0259583D01*
X0099928Y0259515D01*
X0099904Y0259447D01*
X0099877Y0259382D01*
X0099847Y0259317D01*
X0099813Y0259255D01*
X0099775Y0259194D01*
X0099734Y0259136D01*
X0099690Y0259080D01*
X0099643Y0259027D01*
X0099593Y0258976D01*
X0099540Y0258928D01*
X0099485Y0258884D01*
X0099427Y0258842D01*
X0099367Y0258804D01*
X0099305Y0258769D01*
X0099242Y0258737D01*
X0099176Y0258709D01*
X0099109Y0258685D01*
X0099041Y0258664D01*
X0098972Y0258648D01*
X0098902Y0258635D01*
X0098831Y0258626D01*
X0098760Y0258621D01*
X0098689Y0258620D01*
X0098618Y0258623D01*
X0098547Y0258630D01*
X0098477Y0258641D01*
X0098407Y0258656D01*
X0098339Y0258674D01*
X0098271Y0258697D01*
X0098205Y0258723D01*
X0098140Y0258752D01*
X0098077Y0258786D01*
X0098016Y0258822D01*
X0097958Y0258862D01*
X0097901Y0258906D01*
X0097847Y0258952D01*
X0097796Y0259001D01*
X0097747Y0259053D01*
X0097702Y0259108D01*
X0097659Y0259165D01*
X0097620Y0259224D01*
X0097584Y0259286D01*
X0097552Y0259349D01*
X0097523Y0259414D01*
X0097498Y0259481D01*
X0097476Y0259549D01*
X0097459Y0259618D01*
X0097445Y0259687D01*
X0097435Y0259758D01*
X0097429Y0259829D01*
X0097427Y0259900D01*
X0132896Y0293522D02*
X0132898Y0293683D01*
X0132904Y0293843D01*
X0132914Y0294004D01*
X0132928Y0294164D01*
X0132946Y0294324D01*
X0132967Y0294483D01*
X0132993Y0294642D01*
X0133023Y0294800D01*
X0133056Y0294957D01*
X0133094Y0295114D01*
X0133135Y0295269D01*
X0133180Y0295423D01*
X0133229Y0295576D01*
X0133282Y0295728D01*
X0133338Y0295879D01*
X0133399Y0296028D01*
X0133462Y0296176D01*
X0133530Y0296322D01*
X0133601Y0296466D01*
X0133675Y0296608D01*
X0133753Y0296749D01*
X0133835Y0296887D01*
X0133920Y0297024D01*
X0134008Y0297158D01*
X0134100Y0297290D01*
X0134195Y0297420D01*
X0134293Y0297548D01*
X0134394Y0297673D01*
X0134498Y0297795D01*
X0134605Y0297915D01*
X0134715Y0298032D01*
X0134828Y0298147D01*
X0134944Y0298258D01*
X0135063Y0298367D01*
X0135184Y0298472D01*
X0135308Y0298575D01*
X0135434Y0298675D01*
X0135562Y0298771D01*
X0135693Y0298864D01*
X0135827Y0298954D01*
X0135962Y0299041D01*
X0136100Y0299124D01*
X0136239Y0299204D01*
X0136381Y0299280D01*
X0136524Y0299353D01*
X0136669Y0299422D01*
X0136816Y0299488D01*
X0136964Y0299550D01*
X0137114Y0299608D01*
X0137265Y0299663D01*
X0137418Y0299714D01*
X0137572Y0299761D01*
X0137727Y0299804D01*
X0137883Y0299843D01*
X0138039Y0299879D01*
X0138197Y0299910D01*
X0138355Y0299938D01*
X0138514Y0299962D01*
X0138674Y0299982D01*
X0138834Y0299998D01*
X0138994Y0300010D01*
X0139155Y0300018D01*
X0139316Y0300022D01*
X0139476Y0300022D01*
X0139637Y0300018D01*
X0139798Y0300010D01*
X0139958Y0299998D01*
X0140118Y0299982D01*
X0140278Y0299962D01*
X0140437Y0299938D01*
X0140595Y0299910D01*
X0140753Y0299879D01*
X0140909Y0299843D01*
X0141065Y0299804D01*
X0141220Y0299761D01*
X0141374Y0299714D01*
X0141527Y0299663D01*
X0141678Y0299608D01*
X0141828Y0299550D01*
X0141976Y0299488D01*
X0142123Y0299422D01*
X0142268Y0299353D01*
X0142411Y0299280D01*
X0142553Y0299204D01*
X0142692Y0299124D01*
X0142830Y0299041D01*
X0142965Y0298954D01*
X0143099Y0298864D01*
X0143230Y0298771D01*
X0143358Y0298675D01*
X0143484Y0298575D01*
X0143608Y0298472D01*
X0143729Y0298367D01*
X0143848Y0298258D01*
X0143964Y0298147D01*
X0144077Y0298032D01*
X0144187Y0297915D01*
X0144294Y0297795D01*
X0144398Y0297673D01*
X0144499Y0297548D01*
X0144597Y0297420D01*
X0144692Y0297290D01*
X0144784Y0297158D01*
X0144872Y0297024D01*
X0144957Y0296887D01*
X0145039Y0296749D01*
X0145117Y0296608D01*
X0145191Y0296466D01*
X0145262Y0296322D01*
X0145330Y0296176D01*
X0145393Y0296028D01*
X0145454Y0295879D01*
X0145510Y0295728D01*
X0145563Y0295576D01*
X0145612Y0295423D01*
X0145657Y0295269D01*
X0145698Y0295114D01*
X0145736Y0294957D01*
X0145769Y0294800D01*
X0145799Y0294642D01*
X0145825Y0294483D01*
X0145846Y0294324D01*
X0145864Y0294164D01*
X0145878Y0294004D01*
X0145888Y0293843D01*
X0145894Y0293683D01*
X0145896Y0293522D01*
X0145894Y0293361D01*
X0145888Y0293201D01*
X0145878Y0293040D01*
X0145864Y0292880D01*
X0145846Y0292720D01*
X0145825Y0292561D01*
X0145799Y0292402D01*
X0145769Y0292244D01*
X0145736Y0292087D01*
X0145698Y0291930D01*
X0145657Y0291775D01*
X0145612Y0291621D01*
X0145563Y0291468D01*
X0145510Y0291316D01*
X0145454Y0291165D01*
X0145393Y0291016D01*
X0145330Y0290868D01*
X0145262Y0290722D01*
X0145191Y0290578D01*
X0145117Y0290436D01*
X0145039Y0290295D01*
X0144957Y0290157D01*
X0144872Y0290020D01*
X0144784Y0289886D01*
X0144692Y0289754D01*
X0144597Y0289624D01*
X0144499Y0289496D01*
X0144398Y0289371D01*
X0144294Y0289249D01*
X0144187Y0289129D01*
X0144077Y0289012D01*
X0143964Y0288897D01*
X0143848Y0288786D01*
X0143729Y0288677D01*
X0143608Y0288572D01*
X0143484Y0288469D01*
X0143358Y0288369D01*
X0143230Y0288273D01*
X0143099Y0288180D01*
X0142965Y0288090D01*
X0142830Y0288003D01*
X0142692Y0287920D01*
X0142553Y0287840D01*
X0142411Y0287764D01*
X0142268Y0287691D01*
X0142123Y0287622D01*
X0141976Y0287556D01*
X0141828Y0287494D01*
X0141678Y0287436D01*
X0141527Y0287381D01*
X0141374Y0287330D01*
X0141220Y0287283D01*
X0141065Y0287240D01*
X0140909Y0287201D01*
X0140753Y0287165D01*
X0140595Y0287134D01*
X0140437Y0287106D01*
X0140278Y0287082D01*
X0140118Y0287062D01*
X0139958Y0287046D01*
X0139798Y0287034D01*
X0139637Y0287026D01*
X0139476Y0287022D01*
X0139316Y0287022D01*
X0139155Y0287026D01*
X0138994Y0287034D01*
X0138834Y0287046D01*
X0138674Y0287062D01*
X0138514Y0287082D01*
X0138355Y0287106D01*
X0138197Y0287134D01*
X0138039Y0287165D01*
X0137883Y0287201D01*
X0137727Y0287240D01*
X0137572Y0287283D01*
X0137418Y0287330D01*
X0137265Y0287381D01*
X0137114Y0287436D01*
X0136964Y0287494D01*
X0136816Y0287556D01*
X0136669Y0287622D01*
X0136524Y0287691D01*
X0136381Y0287764D01*
X0136239Y0287840D01*
X0136100Y0287920D01*
X0135962Y0288003D01*
X0135827Y0288090D01*
X0135693Y0288180D01*
X0135562Y0288273D01*
X0135434Y0288369D01*
X0135308Y0288469D01*
X0135184Y0288572D01*
X0135063Y0288677D01*
X0134944Y0288786D01*
X0134828Y0288897D01*
X0134715Y0289012D01*
X0134605Y0289129D01*
X0134498Y0289249D01*
X0134394Y0289371D01*
X0134293Y0289496D01*
X0134195Y0289624D01*
X0134100Y0289754D01*
X0134008Y0289886D01*
X0133920Y0290020D01*
X0133835Y0290157D01*
X0133753Y0290295D01*
X0133675Y0290436D01*
X0133601Y0290578D01*
X0133530Y0290722D01*
X0133462Y0290868D01*
X0133399Y0291016D01*
X0133338Y0291165D01*
X0133282Y0291316D01*
X0133229Y0291468D01*
X0133180Y0291621D01*
X0133135Y0291775D01*
X0133094Y0291930D01*
X0133056Y0292087D01*
X0133023Y0292244D01*
X0132993Y0292402D01*
X0132967Y0292561D01*
X0132946Y0292720D01*
X0132928Y0292880D01*
X0132914Y0293040D01*
X0132904Y0293201D01*
X0132898Y0293361D01*
X0132896Y0293522D01*
X0332896Y0233522D02*
X0332898Y0233683D01*
X0332904Y0233843D01*
X0332914Y0234004D01*
X0332928Y0234164D01*
X0332946Y0234324D01*
X0332967Y0234483D01*
X0332993Y0234642D01*
X0333023Y0234800D01*
X0333056Y0234957D01*
X0333094Y0235114D01*
X0333135Y0235269D01*
X0333180Y0235423D01*
X0333229Y0235576D01*
X0333282Y0235728D01*
X0333338Y0235879D01*
X0333399Y0236028D01*
X0333462Y0236176D01*
X0333530Y0236322D01*
X0333601Y0236466D01*
X0333675Y0236608D01*
X0333753Y0236749D01*
X0333835Y0236887D01*
X0333920Y0237024D01*
X0334008Y0237158D01*
X0334100Y0237290D01*
X0334195Y0237420D01*
X0334293Y0237548D01*
X0334394Y0237673D01*
X0334498Y0237795D01*
X0334605Y0237915D01*
X0334715Y0238032D01*
X0334828Y0238147D01*
X0334944Y0238258D01*
X0335063Y0238367D01*
X0335184Y0238472D01*
X0335308Y0238575D01*
X0335434Y0238675D01*
X0335562Y0238771D01*
X0335693Y0238864D01*
X0335827Y0238954D01*
X0335962Y0239041D01*
X0336100Y0239124D01*
X0336239Y0239204D01*
X0336381Y0239280D01*
X0336524Y0239353D01*
X0336669Y0239422D01*
X0336816Y0239488D01*
X0336964Y0239550D01*
X0337114Y0239608D01*
X0337265Y0239663D01*
X0337418Y0239714D01*
X0337572Y0239761D01*
X0337727Y0239804D01*
X0337883Y0239843D01*
X0338039Y0239879D01*
X0338197Y0239910D01*
X0338355Y0239938D01*
X0338514Y0239962D01*
X0338674Y0239982D01*
X0338834Y0239998D01*
X0338994Y0240010D01*
X0339155Y0240018D01*
X0339316Y0240022D01*
X0339476Y0240022D01*
X0339637Y0240018D01*
X0339798Y0240010D01*
X0339958Y0239998D01*
X0340118Y0239982D01*
X0340278Y0239962D01*
X0340437Y0239938D01*
X0340595Y0239910D01*
X0340753Y0239879D01*
X0340909Y0239843D01*
X0341065Y0239804D01*
X0341220Y0239761D01*
X0341374Y0239714D01*
X0341527Y0239663D01*
X0341678Y0239608D01*
X0341828Y0239550D01*
X0341976Y0239488D01*
X0342123Y0239422D01*
X0342268Y0239353D01*
X0342411Y0239280D01*
X0342553Y0239204D01*
X0342692Y0239124D01*
X0342830Y0239041D01*
X0342965Y0238954D01*
X0343099Y0238864D01*
X0343230Y0238771D01*
X0343358Y0238675D01*
X0343484Y0238575D01*
X0343608Y0238472D01*
X0343729Y0238367D01*
X0343848Y0238258D01*
X0343964Y0238147D01*
X0344077Y0238032D01*
X0344187Y0237915D01*
X0344294Y0237795D01*
X0344398Y0237673D01*
X0344499Y0237548D01*
X0344597Y0237420D01*
X0344692Y0237290D01*
X0344784Y0237158D01*
X0344872Y0237024D01*
X0344957Y0236887D01*
X0345039Y0236749D01*
X0345117Y0236608D01*
X0345191Y0236466D01*
X0345262Y0236322D01*
X0345330Y0236176D01*
X0345393Y0236028D01*
X0345454Y0235879D01*
X0345510Y0235728D01*
X0345563Y0235576D01*
X0345612Y0235423D01*
X0345657Y0235269D01*
X0345698Y0235114D01*
X0345736Y0234957D01*
X0345769Y0234800D01*
X0345799Y0234642D01*
X0345825Y0234483D01*
X0345846Y0234324D01*
X0345864Y0234164D01*
X0345878Y0234004D01*
X0345888Y0233843D01*
X0345894Y0233683D01*
X0345896Y0233522D01*
X0345894Y0233361D01*
X0345888Y0233201D01*
X0345878Y0233040D01*
X0345864Y0232880D01*
X0345846Y0232720D01*
X0345825Y0232561D01*
X0345799Y0232402D01*
X0345769Y0232244D01*
X0345736Y0232087D01*
X0345698Y0231930D01*
X0345657Y0231775D01*
X0345612Y0231621D01*
X0345563Y0231468D01*
X0345510Y0231316D01*
X0345454Y0231165D01*
X0345393Y0231016D01*
X0345330Y0230868D01*
X0345262Y0230722D01*
X0345191Y0230578D01*
X0345117Y0230436D01*
X0345039Y0230295D01*
X0344957Y0230157D01*
X0344872Y0230020D01*
X0344784Y0229886D01*
X0344692Y0229754D01*
X0344597Y0229624D01*
X0344499Y0229496D01*
X0344398Y0229371D01*
X0344294Y0229249D01*
X0344187Y0229129D01*
X0344077Y0229012D01*
X0343964Y0228897D01*
X0343848Y0228786D01*
X0343729Y0228677D01*
X0343608Y0228572D01*
X0343484Y0228469D01*
X0343358Y0228369D01*
X0343230Y0228273D01*
X0343099Y0228180D01*
X0342965Y0228090D01*
X0342830Y0228003D01*
X0342692Y0227920D01*
X0342553Y0227840D01*
X0342411Y0227764D01*
X0342268Y0227691D01*
X0342123Y0227622D01*
X0341976Y0227556D01*
X0341828Y0227494D01*
X0341678Y0227436D01*
X0341527Y0227381D01*
X0341374Y0227330D01*
X0341220Y0227283D01*
X0341065Y0227240D01*
X0340909Y0227201D01*
X0340753Y0227165D01*
X0340595Y0227134D01*
X0340437Y0227106D01*
X0340278Y0227082D01*
X0340118Y0227062D01*
X0339958Y0227046D01*
X0339798Y0227034D01*
X0339637Y0227026D01*
X0339476Y0227022D01*
X0339316Y0227022D01*
X0339155Y0227026D01*
X0338994Y0227034D01*
X0338834Y0227046D01*
X0338674Y0227062D01*
X0338514Y0227082D01*
X0338355Y0227106D01*
X0338197Y0227134D01*
X0338039Y0227165D01*
X0337883Y0227201D01*
X0337727Y0227240D01*
X0337572Y0227283D01*
X0337418Y0227330D01*
X0337265Y0227381D01*
X0337114Y0227436D01*
X0336964Y0227494D01*
X0336816Y0227556D01*
X0336669Y0227622D01*
X0336524Y0227691D01*
X0336381Y0227764D01*
X0336239Y0227840D01*
X0336100Y0227920D01*
X0335962Y0228003D01*
X0335827Y0228090D01*
X0335693Y0228180D01*
X0335562Y0228273D01*
X0335434Y0228369D01*
X0335308Y0228469D01*
X0335184Y0228572D01*
X0335063Y0228677D01*
X0334944Y0228786D01*
X0334828Y0228897D01*
X0334715Y0229012D01*
X0334605Y0229129D01*
X0334498Y0229249D01*
X0334394Y0229371D01*
X0334293Y0229496D01*
X0334195Y0229624D01*
X0334100Y0229754D01*
X0334008Y0229886D01*
X0333920Y0230020D01*
X0333835Y0230157D01*
X0333753Y0230295D01*
X0333675Y0230436D01*
X0333601Y0230578D01*
X0333530Y0230722D01*
X0333462Y0230868D01*
X0333399Y0231016D01*
X0333338Y0231165D01*
X0333282Y0231316D01*
X0333229Y0231468D01*
X0333180Y0231621D01*
X0333135Y0231775D01*
X0333094Y0231930D01*
X0333056Y0232087D01*
X0333023Y0232244D01*
X0332993Y0232402D01*
X0332967Y0232561D01*
X0332946Y0232720D01*
X0332928Y0232880D01*
X0332914Y0233040D01*
X0332904Y0233201D01*
X0332898Y0233361D01*
X0332896Y0233522D01*
X0332896Y0123522D02*
X0332898Y0123683D01*
X0332904Y0123843D01*
X0332914Y0124004D01*
X0332928Y0124164D01*
X0332946Y0124324D01*
X0332967Y0124483D01*
X0332993Y0124642D01*
X0333023Y0124800D01*
X0333056Y0124957D01*
X0333094Y0125114D01*
X0333135Y0125269D01*
X0333180Y0125423D01*
X0333229Y0125576D01*
X0333282Y0125728D01*
X0333338Y0125879D01*
X0333399Y0126028D01*
X0333462Y0126176D01*
X0333530Y0126322D01*
X0333601Y0126466D01*
X0333675Y0126608D01*
X0333753Y0126749D01*
X0333835Y0126887D01*
X0333920Y0127024D01*
X0334008Y0127158D01*
X0334100Y0127290D01*
X0334195Y0127420D01*
X0334293Y0127548D01*
X0334394Y0127673D01*
X0334498Y0127795D01*
X0334605Y0127915D01*
X0334715Y0128032D01*
X0334828Y0128147D01*
X0334944Y0128258D01*
X0335063Y0128367D01*
X0335184Y0128472D01*
X0335308Y0128575D01*
X0335434Y0128675D01*
X0335562Y0128771D01*
X0335693Y0128864D01*
X0335827Y0128954D01*
X0335962Y0129041D01*
X0336100Y0129124D01*
X0336239Y0129204D01*
X0336381Y0129280D01*
X0336524Y0129353D01*
X0336669Y0129422D01*
X0336816Y0129488D01*
X0336964Y0129550D01*
X0337114Y0129608D01*
X0337265Y0129663D01*
X0337418Y0129714D01*
X0337572Y0129761D01*
X0337727Y0129804D01*
X0337883Y0129843D01*
X0338039Y0129879D01*
X0338197Y0129910D01*
X0338355Y0129938D01*
X0338514Y0129962D01*
X0338674Y0129982D01*
X0338834Y0129998D01*
X0338994Y0130010D01*
X0339155Y0130018D01*
X0339316Y0130022D01*
X0339476Y0130022D01*
X0339637Y0130018D01*
X0339798Y0130010D01*
X0339958Y0129998D01*
X0340118Y0129982D01*
X0340278Y0129962D01*
X0340437Y0129938D01*
X0340595Y0129910D01*
X0340753Y0129879D01*
X0340909Y0129843D01*
X0341065Y0129804D01*
X0341220Y0129761D01*
X0341374Y0129714D01*
X0341527Y0129663D01*
X0341678Y0129608D01*
X0341828Y0129550D01*
X0341976Y0129488D01*
X0342123Y0129422D01*
X0342268Y0129353D01*
X0342411Y0129280D01*
X0342553Y0129204D01*
X0342692Y0129124D01*
X0342830Y0129041D01*
X0342965Y0128954D01*
X0343099Y0128864D01*
X0343230Y0128771D01*
X0343358Y0128675D01*
X0343484Y0128575D01*
X0343608Y0128472D01*
X0343729Y0128367D01*
X0343848Y0128258D01*
X0343964Y0128147D01*
X0344077Y0128032D01*
X0344187Y0127915D01*
X0344294Y0127795D01*
X0344398Y0127673D01*
X0344499Y0127548D01*
X0344597Y0127420D01*
X0344692Y0127290D01*
X0344784Y0127158D01*
X0344872Y0127024D01*
X0344957Y0126887D01*
X0345039Y0126749D01*
X0345117Y0126608D01*
X0345191Y0126466D01*
X0345262Y0126322D01*
X0345330Y0126176D01*
X0345393Y0126028D01*
X0345454Y0125879D01*
X0345510Y0125728D01*
X0345563Y0125576D01*
X0345612Y0125423D01*
X0345657Y0125269D01*
X0345698Y0125114D01*
X0345736Y0124957D01*
X0345769Y0124800D01*
X0345799Y0124642D01*
X0345825Y0124483D01*
X0345846Y0124324D01*
X0345864Y0124164D01*
X0345878Y0124004D01*
X0345888Y0123843D01*
X0345894Y0123683D01*
X0345896Y0123522D01*
X0345894Y0123361D01*
X0345888Y0123201D01*
X0345878Y0123040D01*
X0345864Y0122880D01*
X0345846Y0122720D01*
X0345825Y0122561D01*
X0345799Y0122402D01*
X0345769Y0122244D01*
X0345736Y0122087D01*
X0345698Y0121930D01*
X0345657Y0121775D01*
X0345612Y0121621D01*
X0345563Y0121468D01*
X0345510Y0121316D01*
X0345454Y0121165D01*
X0345393Y0121016D01*
X0345330Y0120868D01*
X0345262Y0120722D01*
X0345191Y0120578D01*
X0345117Y0120436D01*
X0345039Y0120295D01*
X0344957Y0120157D01*
X0344872Y0120020D01*
X0344784Y0119886D01*
X0344692Y0119754D01*
X0344597Y0119624D01*
X0344499Y0119496D01*
X0344398Y0119371D01*
X0344294Y0119249D01*
X0344187Y0119129D01*
X0344077Y0119012D01*
X0343964Y0118897D01*
X0343848Y0118786D01*
X0343729Y0118677D01*
X0343608Y0118572D01*
X0343484Y0118469D01*
X0343358Y0118369D01*
X0343230Y0118273D01*
X0343099Y0118180D01*
X0342965Y0118090D01*
X0342830Y0118003D01*
X0342692Y0117920D01*
X0342553Y0117840D01*
X0342411Y0117764D01*
X0342268Y0117691D01*
X0342123Y0117622D01*
X0341976Y0117556D01*
X0341828Y0117494D01*
X0341678Y0117436D01*
X0341527Y0117381D01*
X0341374Y0117330D01*
X0341220Y0117283D01*
X0341065Y0117240D01*
X0340909Y0117201D01*
X0340753Y0117165D01*
X0340595Y0117134D01*
X0340437Y0117106D01*
X0340278Y0117082D01*
X0340118Y0117062D01*
X0339958Y0117046D01*
X0339798Y0117034D01*
X0339637Y0117026D01*
X0339476Y0117022D01*
X0339316Y0117022D01*
X0339155Y0117026D01*
X0338994Y0117034D01*
X0338834Y0117046D01*
X0338674Y0117062D01*
X0338514Y0117082D01*
X0338355Y0117106D01*
X0338197Y0117134D01*
X0338039Y0117165D01*
X0337883Y0117201D01*
X0337727Y0117240D01*
X0337572Y0117283D01*
X0337418Y0117330D01*
X0337265Y0117381D01*
X0337114Y0117436D01*
X0336964Y0117494D01*
X0336816Y0117556D01*
X0336669Y0117622D01*
X0336524Y0117691D01*
X0336381Y0117764D01*
X0336239Y0117840D01*
X0336100Y0117920D01*
X0335962Y0118003D01*
X0335827Y0118090D01*
X0335693Y0118180D01*
X0335562Y0118273D01*
X0335434Y0118369D01*
X0335308Y0118469D01*
X0335184Y0118572D01*
X0335063Y0118677D01*
X0334944Y0118786D01*
X0334828Y0118897D01*
X0334715Y0119012D01*
X0334605Y0119129D01*
X0334498Y0119249D01*
X0334394Y0119371D01*
X0334293Y0119496D01*
X0334195Y0119624D01*
X0334100Y0119754D01*
X0334008Y0119886D01*
X0333920Y0120020D01*
X0333835Y0120157D01*
X0333753Y0120295D01*
X0333675Y0120436D01*
X0333601Y0120578D01*
X0333530Y0120722D01*
X0333462Y0120868D01*
X0333399Y0121016D01*
X0333338Y0121165D01*
X0333282Y0121316D01*
X0333229Y0121468D01*
X0333180Y0121621D01*
X0333135Y0121775D01*
X0333094Y0121930D01*
X0333056Y0122087D01*
X0333023Y0122244D01*
X0332993Y0122402D01*
X0332967Y0122561D01*
X0332946Y0122720D01*
X0332928Y0122880D01*
X0332914Y0123040D01*
X0332904Y0123201D01*
X0332898Y0123361D01*
X0332896Y0123522D01*
M02*
