G75*
%MOIN*%
%OFA0B0*%
%FSLAX25Y25*%
%IPPOS*%
%LPD*%
%AMOC8*
5,1,8,0,0,1.08239X$1,22.5*
%
%ADD10C,0.00039*%
D10*
X0083136Y0230333D02*
X0085577Y0230333D01*
X0085644Y0230335D01*
X0085712Y0230341D01*
X0085778Y0230350D01*
X0085844Y0230364D01*
X0085910Y0230381D01*
X0085974Y0230402D01*
X0086037Y0230426D01*
X0086098Y0230454D01*
X0086158Y0230486D01*
X0086215Y0230520D01*
X0086271Y0230559D01*
X0086325Y0230600D01*
X0086376Y0230644D01*
X0086424Y0230691D01*
X0086470Y0230741D01*
X0086512Y0230793D01*
X0086552Y0230847D01*
X0086588Y0230904D01*
X0086622Y0230963D01*
X0086651Y0231023D01*
X0086678Y0231086D01*
X0086700Y0231149D01*
X0086719Y0231214D01*
X0086734Y0231279D01*
X0086746Y0231346D01*
X0086754Y0231413D01*
X0086758Y0231480D01*
X0086758Y0231548D01*
X0086754Y0231615D01*
X0086746Y0231682D01*
X0086734Y0231749D01*
X0086719Y0231814D01*
X0086700Y0231879D01*
X0086678Y0231942D01*
X0086651Y0232005D01*
X0086622Y0232065D01*
X0086588Y0232124D01*
X0086552Y0232181D01*
X0086512Y0232235D01*
X0086470Y0232287D01*
X0086424Y0232337D01*
X0086376Y0232384D01*
X0086325Y0232428D01*
X0086271Y0232469D01*
X0086215Y0232508D01*
X0086158Y0232542D01*
X0086098Y0232574D01*
X0086037Y0232602D01*
X0085974Y0232626D01*
X0085910Y0232647D01*
X0085844Y0232664D01*
X0085778Y0232678D01*
X0085712Y0232687D01*
X0085644Y0232693D01*
X0085577Y0232695D01*
X0085577Y0232696D02*
X0083136Y0232696D01*
X0083136Y0232695D02*
X0083069Y0232693D01*
X0083001Y0232687D01*
X0082935Y0232678D01*
X0082869Y0232664D01*
X0082803Y0232647D01*
X0082739Y0232626D01*
X0082676Y0232602D01*
X0082615Y0232574D01*
X0082555Y0232542D01*
X0082498Y0232508D01*
X0082442Y0232469D01*
X0082388Y0232428D01*
X0082337Y0232384D01*
X0082289Y0232337D01*
X0082243Y0232287D01*
X0082201Y0232235D01*
X0082161Y0232181D01*
X0082125Y0232124D01*
X0082091Y0232065D01*
X0082062Y0232005D01*
X0082035Y0231942D01*
X0082013Y0231879D01*
X0081994Y0231814D01*
X0081979Y0231749D01*
X0081967Y0231682D01*
X0081959Y0231615D01*
X0081955Y0231548D01*
X0081955Y0231480D01*
X0081959Y0231413D01*
X0081967Y0231346D01*
X0081979Y0231279D01*
X0081994Y0231214D01*
X0082013Y0231149D01*
X0082035Y0231086D01*
X0082062Y0231023D01*
X0082091Y0230963D01*
X0082125Y0230904D01*
X0082161Y0230847D01*
X0082201Y0230793D01*
X0082243Y0230741D01*
X0082289Y0230691D01*
X0082337Y0230644D01*
X0082388Y0230600D01*
X0082442Y0230559D01*
X0082498Y0230520D01*
X0082555Y0230486D01*
X0082615Y0230454D01*
X0082676Y0230426D01*
X0082739Y0230402D01*
X0082803Y0230381D01*
X0082869Y0230364D01*
X0082935Y0230350D01*
X0083001Y0230341D01*
X0083069Y0230335D01*
X0083136Y0230333D01*
X0098629Y0230333D02*
X0102959Y0230333D01*
X0103026Y0230335D01*
X0103094Y0230341D01*
X0103160Y0230350D01*
X0103226Y0230364D01*
X0103292Y0230381D01*
X0103356Y0230402D01*
X0103419Y0230426D01*
X0103480Y0230454D01*
X0103540Y0230486D01*
X0103597Y0230520D01*
X0103653Y0230559D01*
X0103707Y0230600D01*
X0103758Y0230644D01*
X0103806Y0230691D01*
X0103852Y0230741D01*
X0103894Y0230793D01*
X0103934Y0230847D01*
X0103970Y0230904D01*
X0104004Y0230963D01*
X0104033Y0231023D01*
X0104060Y0231086D01*
X0104082Y0231149D01*
X0104101Y0231214D01*
X0104116Y0231279D01*
X0104128Y0231346D01*
X0104136Y0231413D01*
X0104140Y0231480D01*
X0104140Y0231548D01*
X0104136Y0231615D01*
X0104128Y0231682D01*
X0104116Y0231749D01*
X0104101Y0231814D01*
X0104082Y0231879D01*
X0104060Y0231942D01*
X0104033Y0232005D01*
X0104004Y0232065D01*
X0103970Y0232124D01*
X0103934Y0232181D01*
X0103894Y0232235D01*
X0103852Y0232287D01*
X0103806Y0232337D01*
X0103758Y0232384D01*
X0103707Y0232428D01*
X0103653Y0232469D01*
X0103597Y0232508D01*
X0103540Y0232542D01*
X0103480Y0232574D01*
X0103419Y0232602D01*
X0103356Y0232626D01*
X0103292Y0232647D01*
X0103226Y0232664D01*
X0103160Y0232678D01*
X0103094Y0232687D01*
X0103026Y0232693D01*
X0102959Y0232695D01*
X0102959Y0232696D02*
X0098629Y0232696D01*
X0098629Y0232695D02*
X0098562Y0232693D01*
X0098494Y0232687D01*
X0098428Y0232678D01*
X0098362Y0232664D01*
X0098296Y0232647D01*
X0098232Y0232626D01*
X0098169Y0232602D01*
X0098108Y0232574D01*
X0098048Y0232542D01*
X0097991Y0232508D01*
X0097935Y0232469D01*
X0097881Y0232428D01*
X0097830Y0232384D01*
X0097782Y0232337D01*
X0097736Y0232287D01*
X0097694Y0232235D01*
X0097654Y0232181D01*
X0097618Y0232124D01*
X0097584Y0232065D01*
X0097555Y0232005D01*
X0097528Y0231942D01*
X0097506Y0231879D01*
X0097487Y0231814D01*
X0097472Y0231749D01*
X0097460Y0231682D01*
X0097452Y0231615D01*
X0097448Y0231548D01*
X0097448Y0231480D01*
X0097452Y0231413D01*
X0097460Y0231346D01*
X0097472Y0231279D01*
X0097487Y0231214D01*
X0097506Y0231149D01*
X0097528Y0231086D01*
X0097555Y0231023D01*
X0097584Y0230963D01*
X0097618Y0230904D01*
X0097654Y0230847D01*
X0097694Y0230793D01*
X0097736Y0230741D01*
X0097782Y0230691D01*
X0097830Y0230644D01*
X0097881Y0230600D01*
X0097935Y0230559D01*
X0097991Y0230520D01*
X0098048Y0230486D01*
X0098108Y0230454D01*
X0098169Y0230426D01*
X0098232Y0230402D01*
X0098296Y0230381D01*
X0098362Y0230364D01*
X0098428Y0230350D01*
X0098494Y0230341D01*
X0098562Y0230335D01*
X0098629Y0230333D01*
X0098629Y0264349D02*
X0102959Y0264349D01*
X0103026Y0264351D01*
X0103094Y0264357D01*
X0103160Y0264366D01*
X0103226Y0264380D01*
X0103292Y0264397D01*
X0103356Y0264418D01*
X0103419Y0264442D01*
X0103480Y0264470D01*
X0103540Y0264502D01*
X0103597Y0264536D01*
X0103653Y0264575D01*
X0103707Y0264616D01*
X0103758Y0264660D01*
X0103806Y0264707D01*
X0103852Y0264757D01*
X0103894Y0264809D01*
X0103934Y0264863D01*
X0103970Y0264920D01*
X0104004Y0264979D01*
X0104033Y0265039D01*
X0104060Y0265102D01*
X0104082Y0265165D01*
X0104101Y0265230D01*
X0104116Y0265295D01*
X0104128Y0265362D01*
X0104136Y0265429D01*
X0104140Y0265496D01*
X0104140Y0265564D01*
X0104136Y0265631D01*
X0104128Y0265698D01*
X0104116Y0265765D01*
X0104101Y0265830D01*
X0104082Y0265895D01*
X0104060Y0265958D01*
X0104033Y0266021D01*
X0104004Y0266081D01*
X0103970Y0266140D01*
X0103934Y0266197D01*
X0103894Y0266251D01*
X0103852Y0266303D01*
X0103806Y0266353D01*
X0103758Y0266400D01*
X0103707Y0266444D01*
X0103653Y0266485D01*
X0103597Y0266524D01*
X0103540Y0266558D01*
X0103480Y0266590D01*
X0103419Y0266618D01*
X0103356Y0266642D01*
X0103292Y0266663D01*
X0103226Y0266680D01*
X0103160Y0266694D01*
X0103094Y0266703D01*
X0103026Y0266709D01*
X0102959Y0266711D01*
X0098629Y0266711D01*
X0098562Y0266709D01*
X0098494Y0266703D01*
X0098428Y0266694D01*
X0098362Y0266680D01*
X0098296Y0266663D01*
X0098232Y0266642D01*
X0098169Y0266618D01*
X0098108Y0266590D01*
X0098048Y0266558D01*
X0097991Y0266524D01*
X0097935Y0266485D01*
X0097881Y0266444D01*
X0097830Y0266400D01*
X0097782Y0266353D01*
X0097736Y0266303D01*
X0097694Y0266251D01*
X0097654Y0266197D01*
X0097618Y0266140D01*
X0097584Y0266081D01*
X0097555Y0266021D01*
X0097528Y0265958D01*
X0097506Y0265895D01*
X0097487Y0265830D01*
X0097472Y0265765D01*
X0097460Y0265698D01*
X0097452Y0265631D01*
X0097448Y0265564D01*
X0097448Y0265496D01*
X0097452Y0265429D01*
X0097460Y0265362D01*
X0097472Y0265295D01*
X0097487Y0265230D01*
X0097506Y0265165D01*
X0097528Y0265102D01*
X0097555Y0265039D01*
X0097584Y0264979D01*
X0097618Y0264920D01*
X0097654Y0264863D01*
X0097694Y0264809D01*
X0097736Y0264757D01*
X0097782Y0264707D01*
X0097830Y0264660D01*
X0097881Y0264616D01*
X0097935Y0264575D01*
X0097991Y0264536D01*
X0098048Y0264502D01*
X0098108Y0264470D01*
X0098169Y0264442D01*
X0098232Y0264418D01*
X0098296Y0264397D01*
X0098362Y0264380D01*
X0098428Y0264366D01*
X0098494Y0264357D01*
X0098562Y0264351D01*
X0098629Y0264349D01*
X0085577Y0264349D02*
X0083136Y0264349D01*
X0083069Y0264351D01*
X0083001Y0264357D01*
X0082935Y0264366D01*
X0082869Y0264380D01*
X0082803Y0264397D01*
X0082739Y0264418D01*
X0082676Y0264442D01*
X0082615Y0264470D01*
X0082555Y0264502D01*
X0082498Y0264536D01*
X0082442Y0264575D01*
X0082388Y0264616D01*
X0082337Y0264660D01*
X0082289Y0264707D01*
X0082243Y0264757D01*
X0082201Y0264809D01*
X0082161Y0264863D01*
X0082125Y0264920D01*
X0082091Y0264979D01*
X0082062Y0265039D01*
X0082035Y0265102D01*
X0082013Y0265165D01*
X0081994Y0265230D01*
X0081979Y0265295D01*
X0081967Y0265362D01*
X0081959Y0265429D01*
X0081955Y0265496D01*
X0081955Y0265564D01*
X0081959Y0265631D01*
X0081967Y0265698D01*
X0081979Y0265765D01*
X0081994Y0265830D01*
X0082013Y0265895D01*
X0082035Y0265958D01*
X0082062Y0266021D01*
X0082091Y0266081D01*
X0082125Y0266140D01*
X0082161Y0266197D01*
X0082201Y0266251D01*
X0082243Y0266303D01*
X0082289Y0266353D01*
X0082337Y0266400D01*
X0082388Y0266444D01*
X0082442Y0266485D01*
X0082498Y0266524D01*
X0082555Y0266558D01*
X0082615Y0266590D01*
X0082676Y0266618D01*
X0082739Y0266642D01*
X0082803Y0266663D01*
X0082869Y0266680D01*
X0082935Y0266694D01*
X0083001Y0266703D01*
X0083069Y0266709D01*
X0083136Y0266711D01*
X0085577Y0266711D01*
X0085644Y0266709D01*
X0085712Y0266703D01*
X0085778Y0266694D01*
X0085844Y0266680D01*
X0085910Y0266663D01*
X0085974Y0266642D01*
X0086037Y0266618D01*
X0086098Y0266590D01*
X0086158Y0266558D01*
X0086215Y0266524D01*
X0086271Y0266485D01*
X0086325Y0266444D01*
X0086376Y0266400D01*
X0086424Y0266353D01*
X0086470Y0266303D01*
X0086512Y0266251D01*
X0086552Y0266197D01*
X0086588Y0266140D01*
X0086622Y0266081D01*
X0086651Y0266021D01*
X0086678Y0265958D01*
X0086700Y0265895D01*
X0086719Y0265830D01*
X0086734Y0265765D01*
X0086746Y0265698D01*
X0086754Y0265631D01*
X0086758Y0265564D01*
X0086758Y0265496D01*
X0086754Y0265429D01*
X0086746Y0265362D01*
X0086734Y0265295D01*
X0086719Y0265230D01*
X0086700Y0265165D01*
X0086678Y0265102D01*
X0086651Y0265039D01*
X0086622Y0264979D01*
X0086588Y0264920D01*
X0086552Y0264863D01*
X0086512Y0264809D01*
X0086470Y0264757D01*
X0086424Y0264707D01*
X0086376Y0264660D01*
X0086325Y0264616D01*
X0086271Y0264575D01*
X0086215Y0264536D01*
X0086158Y0264502D01*
X0086098Y0264470D01*
X0086037Y0264442D01*
X0085974Y0264418D01*
X0085910Y0264397D01*
X0085844Y0264380D01*
X0085778Y0264366D01*
X0085712Y0264357D01*
X0085644Y0264351D01*
X0085577Y0264349D01*
M02*
